<?xml version="1.0" encoding="UTF-8" standalone="no"?><svg xmlns="http://www.w3.org/2000/svg" xmlns:xlink="http://www.w3.org/1999/xlink" contentScriptType="application/ecmascript" contentStyleType="text/css" height="275px" preserveAspectRatio="none" style="width:181px;height:275px;background:#00000000;" version="1.1" viewBox="0 0 181 275" width="181px" zoomAndPan="magnify"><defs><filter height="300%" id="f1uva8ke23qujz" width="300%" x="-1" y="-1"><feGaussianBlur result="blurOut" stdDeviation="2.0"/><feColorMatrix in="blurOut" result="blurOut2" type="matrix" values="0 0 0 0 0 0 0 0 0 0 0 0 0 0 0 0 0 0 .4 0"/><feOffset dx="4.0" dy="4.0" in="blurOut2" result="blurOut3"/><feBlend in="SourceGraphic" in2="blurOut3" mode="normal"/></filter></defs><g><!--MD5=[09e40af543cfb83fdfc28b382c6f8157]
class AnimationEventInit--><rect codeLine="4" fill="#FEFECE" filter="url(#f1uva8ke23qujz)" height="116.8281" id="AnimationEventInit" style="stroke:#A80036;stroke-width:1.5;" width="160" x="7" y="145"/><ellipse cx="26.95" cy="161" fill="#B4A7E5" rx="11" ry="11" style="stroke:#A80036;stroke-width:1.0;"/><path d="M22.8719,156.7656 L22.8719,154.6094 L30.2625,154.6094 L30.2625,156.7656 L27.7938,156.7656 L27.7938,164.8438 L30.2625,164.8438 L30.2625,167 L22.8719,167 L22.8719,164.8438 L25.3406,164.8438 L25.3406,156.7656 L22.8719,156.7656 Z " fill="#000000"/><text fill="#000000" font-family="sans-serif" font-size="12" font-style="italic" lengthAdjust="spacing" textLength="117" x="42.05" y="165.1543">AnimationEventInit</text><line style="stroke:#A80036;stroke-width:1.5;" x1="8" x2="166" y1="177" y2="177"/><ellipse cx="18" cy="188" rx="3" ry="3" style="stroke:#038048;stroke-width:1.0;fill:none;"/><text fill="#000000" font-family="sans-serif" font-size="11" lengthAdjust="spacing" textLength="134" x="27" y="191.2104">animationName : string</text><ellipse cx="18" cy="200.8047" rx="3" ry="3" style="stroke:#038048;stroke-width:1.0;fill:none;"/><text fill="#000000" font-family="sans-serif" font-size="11" lengthAdjust="spacing" textLength="102" x="27" y="204.0151">bubbles : boolean</text><ellipse cx="18" cy="213.6094" rx="3" ry="3" style="stroke:#038048;stroke-width:1.0;fill:none;"/><text fill="#000000" font-family="sans-serif" font-size="11" lengthAdjust="spacing" textLength="117" x="27" y="216.8198">cancelable : boolean</text><ellipse cx="18" cy="226.4141" rx="3" ry="3" style="stroke:#038048;stroke-width:1.0;fill:none;"/><text fill="#000000" font-family="sans-serif" font-size="11" lengthAdjust="spacing" textLength="116" x="27" y="229.6245">composed : boolean</text><ellipse cx="18" cy="239.2188" rx="3" ry="3" style="stroke:#038048;stroke-width:1.0;fill:none;"/><text fill="#000000" font-family="sans-serif" font-size="11" lengthAdjust="spacing" textLength="129" x="27" y="242.4292">elapsedTime : number</text><ellipse cx="18" cy="252.0234" rx="3" ry="3" style="stroke:#038048;stroke-width:1.0;fill:none;"/><text fill="#000000" font-family="sans-serif" font-size="11" lengthAdjust="spacing" textLength="133" x="27" y="255.2339">pseudoElement : string</text><!--MD5=[20555489c30bd85c28b7a7f2623ad986]
class EventInit--><rect codeLine="12" fill="#FEFECE" filter="url(#f1uva8ke23qujz)" height="78.4141" id="EventInit" style="stroke:#A80036;stroke-width:1.5;" width="143" x="15.5" y="7"/><ellipse cx="55.7" cy="23" fill="#B4A7E5" rx="11" ry="11" style="stroke:#A80036;stroke-width:1.0;"/><path d="M51.6219,18.7656 L51.6219,16.6094 L59.0125,16.6094 L59.0125,18.7656 L56.5438,18.7656 L56.5438,26.8438 L59.0125,26.8438 L59.0125,29 L51.6219,29 L51.6219,26.8438 L54.0906,26.8438 L54.0906,18.7656 L51.6219,18.7656 Z " fill="#000000"/><text fill="#000000" font-family="sans-serif" font-size="12" font-style="italic" lengthAdjust="spacing" textLength="55" x="75.3" y="27.1543">EventInit</text><line style="stroke:#A80036;stroke-width:1.5;" x1="16.5" x2="157.5" y1="39" y2="39"/><ellipse cx="26.5" cy="50" rx="3" ry="3" style="stroke:#038048;stroke-width:1.0;fill:none;"/><text fill="#000000" font-family="sans-serif" font-size="11" lengthAdjust="spacing" textLength="102" x="35.5" y="53.2104">bubbles : boolean</text><ellipse cx="26.5" cy="62.8047" rx="3" ry="3" style="stroke:#038048;stroke-width:1.0;fill:none;"/><text fill="#000000" font-family="sans-serif" font-size="11" lengthAdjust="spacing" textLength="117" x="35.5" y="66.0151">cancelable : boolean</text><ellipse cx="26.5" cy="75.6094" rx="3" ry="3" style="stroke:#038048;stroke-width:1.0;fill:none;"/><text fill="#000000" font-family="sans-serif" font-size="11" lengthAdjust="spacing" textLength="116" x="35.5" y="78.8198">composed : boolean</text><!--MD5=[0a87071649aebcb03acb1942d1d5a7f3]
reverse link EventInit to AnimationEventInit--><path codeLine="17" d="M87,105.19 C87,118.16 87,131.9 87,144.84 " fill="none" id="EventInit-backto-AnimationEventInit" style="stroke:#A80036;stroke-width:1.0;"/><polygon fill="none" points="80,105.04,87,85.04,94,105.04,80,105.04" style="stroke:#A80036;stroke-width:1.0;"/><!--MD5=[d21aa087b4dfb29f2fcf7fe2419e0dbc]
@startuml
skinparam BackgroundColor transparent
hide empty methods
hide empty fields
interface "AnimationEventInit" {
    +animationName : string
    +bubbles : boolean
    +cancelable : boolean
    +composed : boolean
    +elapsedTime : number
    +pseudoElement : string
}
interface "EventInit" {
    +bubbles : boolean
    +cancelable : boolean
    +composed : boolean
}
"EventInit" <|- - "AnimationEventInit"
@enduml

PlantUML version 1.2021.14(Fri Nov 12 11:46:50 EST 2021)
(GPL source distribution)
Java Runtime: OpenJDK Runtime Environment
JVM: OpenJDK 64-Bit Server VM
Default Encoding: UTF-8
Language: en
Country: US
--></g></svg>