<?xml version="1.0" encoding="UTF-8" standalone="no"?><svg xmlns="http://www.w3.org/2000/svg" xmlns:xlink="http://www.w3.org/1999/xlink" contentScriptType="application/ecmascript" contentStyleType="text/css" height="225px" preserveAspectRatio="none" style="width:171px;height:225px;background:#00000000;" version="1.1" viewBox="0 0 171 225" width="171px" zoomAndPan="magnify"><defs><filter height="300%" id="f1l0bk719ej5em" width="300%" x="-1" y="-1"><feGaussianBlur result="blurOut" stdDeviation="2.0"/><feColorMatrix in="blurOut" result="blurOut2" type="matrix" values="0 0 0 0 0 0 0 0 0 0 0 0 0 0 0 0 0 0 .4 0"/><feOffset dx="4.0" dy="4.0" in="blurOut2" result="blurOut3"/><feBlend in="SourceGraphic" in2="blurOut3" mode="normal"/></filter></defs><g><!--MD5=[f19ef2a06a1d0c35fd06fbcf47be62ba]
class BlobPropertyBag--><rect codeLine="4" fill="#FEFECE" filter="url(#f1l0bk719ej5em)" height="65.6094" id="BlobPropertyBag" style="stroke:#A80036;stroke-width:1.5;" width="148" x="8" y="7"/><ellipse cx="28.4" cy="23" fill="#B4A7E5" rx="11" ry="11" style="stroke:#A80036;stroke-width:1.0;"/><path d="M24.3219,18.7656 L24.3219,16.6094 L31.7125,16.6094 L31.7125,18.7656 L29.2438,18.7656 L29.2438,26.8438 L31.7125,26.8438 L31.7125,29 L24.3219,29 L24.3219,26.8438 L26.7906,26.8438 L26.7906,18.7656 L24.3219,18.7656 Z " fill="#000000"/><text fill="#000000" font-family="sans-serif" font-size="12" font-style="italic" lengthAdjust="spacing" textLength="104" x="43.6" y="27.1543">BlobPropertyBag</text><line style="stroke:#A80036;stroke-width:1.5;" x1="9" x2="155" y1="39" y2="39"/><ellipse cx="19" cy="50" rx="3" ry="3" style="stroke:#038048;stroke-width:1.0;fill:none;"/><text fill="#000000" font-family="sans-serif" font-size="11" lengthAdjust="spacing" textLength="122" x="28" y="53.2104">endings : EndingType</text><ellipse cx="19" cy="62.8047" rx="3" ry="3" style="stroke:#038048;stroke-width:1.0;fill:none;"/><text fill="#000000" font-family="sans-serif" font-size="11" lengthAdjust="spacing" textLength="69" x="28" y="66.0151">type : string</text><!--MD5=[0f98a43674546435dc1508a1acc0ec1c]
class FilePropertyBag--><rect codeLine="8" fill="#FEFECE" filter="url(#f1l0bk719ej5em)" height="78.4141" id="FilePropertyBag" style="stroke:#A80036;stroke-width:1.5;" width="150" x="7" y="133"/><ellipse cx="31" cy="149" fill="#B4A7E5" rx="11" ry="11" style="stroke:#A80036;stroke-width:1.0;"/><path d="M26.9219,144.7656 L26.9219,142.6094 L34.3125,142.6094 L34.3125,144.7656 L31.8438,144.7656 L31.8438,152.8438 L34.3125,152.8438 L34.3125,155 L26.9219,155 L26.9219,152.8438 L29.3906,152.8438 L29.3906,144.7656 L26.9219,144.7656 Z " fill="#000000"/><text fill="#000000" font-family="sans-serif" font-size="12" font-style="italic" lengthAdjust="spacing" textLength="98" x="47" y="153.1543">FilePropertyBag</text><line style="stroke:#A80036;stroke-width:1.5;" x1="8" x2="156" y1="165" y2="165"/><ellipse cx="18" cy="176" rx="3" ry="3" style="stroke:#038048;stroke-width:1.0;fill:none;"/><text fill="#000000" font-family="sans-serif" font-size="11" lengthAdjust="spacing" textLength="122" x="27" y="179.2104">endings : EndingType</text><ellipse cx="18" cy="188.8047" rx="3" ry="3" style="stroke:#038048;stroke-width:1.0;fill:none;"/><text fill="#000000" font-family="sans-serif" font-size="11" lengthAdjust="spacing" textLength="124" x="27" y="192.0151">lastModified : number</text><ellipse cx="18" cy="201.6094" rx="3" ry="3" style="stroke:#038048;stroke-width:1.0;fill:none;"/><text fill="#000000" font-family="sans-serif" font-size="11" lengthAdjust="spacing" textLength="69" x="27" y="204.8198">type : string</text><!--MD5=[6c599befc3c5e49d896a8b693c75c0a6]
reverse link BlobPropertyBag to FilePropertyBag--><path codeLine="13" d="M82,93.51 C82,106.64 82,120.47 82,132.76 " fill="none" id="BlobPropertyBag-backto-FilePropertyBag" style="stroke:#A80036;stroke-width:1.0;"/><polygon fill="none" points="75,93.13,82,73.13,89,93.13,75,93.13" style="stroke:#A80036;stroke-width:1.0;"/><!--MD5=[3374aed00ee8c76043b4d8fb3e3972d1]
@startuml
skinparam BackgroundColor transparent
hide empty methods
hide empty fields
interface "BlobPropertyBag" {
    +endings : EndingType
    +type : string
}
interface "FilePropertyBag" {
    +endings : EndingType
    +lastModified : number
    +type : string
}
"BlobPropertyBag" <|- - "FilePropertyBag"
@enduml

PlantUML version 1.2021.14(Fri Nov 12 11:46:50 EST 2021)
(GPL source distribution)
Java Runtime: OpenJDK Runtime Environment
JVM: OpenJDK 64-Bit Server VM
Default Encoding: UTF-8
Language: en
Country: US
--></g></svg>