<?xml version="1.0" encoding="UTF-8" standalone="no"?><svg xmlns="http://www.w3.org/2000/svg" xmlns:xlink="http://www.w3.org/1999/xlink" contentScriptType="application/ecmascript" contentStyleType="text/css" height="535px" preserveAspectRatio="none" style="width:538px;height:535px;background:#00000000;" version="1.1" viewBox="0 0 538 535" width="538px" zoomAndPan="magnify"><defs><filter height="300%" id="f1squtrq7f4eue" width="300%" x="-1" y="-1"><feGaussianBlur result="blurOut" stdDeviation="2.0"/><feColorMatrix in="blurOut" result="blurOut2" type="matrix" values="0 0 0 0 0 0 0 0 0 0 0 0 0 0 0 0 0 0 .4 0"/><feOffset dx="4.0" dy="4.0" in="blurOut2" result="blurOut3"/><feBlend in="SourceGraphic" in2="blurOut3" mode="normal"/></filter></defs><g><!--MD5=[aebfb5ed06bf0acd9902aeebb8224243]
class Body--><rect codeLine="4" fill="#FEFECE" filter="url(#f1squtrq7f4eue)" height="137.6328" id="Body" style="stroke:#A80036;stroke-width:1.5;" width="241" x="145" y="7"/><ellipse cx="245.75" cy="23" fill="#B4A7E5" rx="11" ry="11" style="stroke:#A80036;stroke-width:1.0;"/><path d="M241.6719,18.7656 L241.6719,16.6094 L249.0625,16.6094 L249.0625,18.7656 L246.5938,18.7656 L246.5938,26.8438 L249.0625,26.8438 L249.0625,29 L241.6719,29 L241.6719,26.8438 L244.1406,26.8438 L244.1406,18.7656 L241.6719,18.7656 Z " fill="#000000"/><text fill="#000000" font-family="sans-serif" font-size="12" font-style="italic" lengthAdjust="spacing" textLength="31" x="266.25" y="27.1543">Body</text><line style="stroke:#A80036;stroke-width:1.5;" x1="146" x2="385" y1="39" y2="39"/><ellipse cx="156" cy="50" rx="3" ry="3" style="stroke:#038048;stroke-width:1.0;fill:none;"/><text fill="#000000" font-family="sans-serif" font-size="11" lengthAdjust="spacing" textLength="210" x="165" y="53.2104">body : ReadableStream&lt;Uint8Array&gt;</text><ellipse cx="156" cy="62.8047" rx="3" ry="3" style="stroke:#038048;stroke-width:1.0;fill:none;"/><text fill="#000000" font-family="sans-serif" font-size="11" lengthAdjust="spacing" textLength="113" x="165" y="66.0151">bodyUsed : boolean</text><line style="stroke:#A80036;stroke-width:1.5;" x1="146" x2="385" y1="72.6094" y2="72.6094"/><ellipse cx="156" cy="83.6094" fill="#84BE84" rx="3" ry="3" style="stroke:#038048;stroke-width:1.0;"/><text fill="#000000" font-family="sans-serif" font-size="11" lengthAdjust="spacing" textLength="215" x="165" y="86.8198">arrayBuffer() : Promise&lt;ArrayBuffer&gt;</text><ellipse cx="156" cy="96.4141" fill="#84BE84" rx="3" ry="3" style="stroke:#038048;stroke-width:1.0;"/><text fill="#000000" font-family="sans-serif" font-size="11" lengthAdjust="spacing" textLength="134" x="165" y="99.6245">blob() : Promise&lt;Blob&gt;</text><ellipse cx="156" cy="109.2188" fill="#84BE84" rx="3" ry="3" style="stroke:#038048;stroke-width:1.0;"/><text fill="#000000" font-family="sans-serif" font-size="11" lengthAdjust="spacing" textLength="193" x="165" y="112.4292">formData() : Promise&lt;FormData&gt;</text><ellipse cx="156" cy="122.0234" fill="#84BE84" rx="3" ry="3" style="stroke:#038048;stroke-width:1.0;"/><text fill="#000000" font-family="sans-serif" font-size="11" lengthAdjust="spacing" textLength="129" x="165" y="125.2339">json() : Promise&lt;any&gt;</text><ellipse cx="156" cy="134.8281" fill="#84BE84" rx="3" ry="3" style="stroke:#038048;stroke-width:1.0;"/><text fill="#000000" font-family="sans-serif" font-size="11" lengthAdjust="spacing" textLength="139" x="165" y="138.0386">text() : Promise&lt;string&gt;</text><!--MD5=[62ba8ad8b61caf20139235a169a8c31d]
class Response--><rect codeLine="13" fill="#FEFECE" filter="url(#f1squtrq7f4eue)" height="240.0703" id="Response" style="stroke:#A80036;stroke-width:1.5;" width="241" x="7" y="243.5"/><ellipse cx="93.25" cy="259.5" fill="#B4A7E5" rx="11" ry="11" style="stroke:#A80036;stroke-width:1.0;"/><path d="M89.1719,255.2656 L89.1719,253.1094 L96.5625,253.1094 L96.5625,255.2656 L94.0938,255.2656 L94.0938,263.3438 L96.5625,263.3438 L96.5625,265.5 L89.1719,265.5 L89.1719,263.3438 L91.6406,263.3438 L91.6406,255.2656 L89.1719,255.2656 Z " fill="#000000"/><text fill="#000000" font-family="sans-serif" font-size="12" font-style="italic" lengthAdjust="spacing" textLength="60" x="113.75" y="263.6543">Response</text><line style="stroke:#A80036;stroke-width:1.5;" x1="8" x2="247" y1="275.5" y2="275.5"/><ellipse cx="18" cy="286.5" rx="3" ry="3" style="stroke:#038048;stroke-width:1.0;fill:none;"/><text fill="#000000" font-family="sans-serif" font-size="11" lengthAdjust="spacing" textLength="210" x="27" y="289.7104">body : ReadableStream&lt;Uint8Array&gt;</text><ellipse cx="18" cy="299.3047" rx="3" ry="3" style="stroke:#038048;stroke-width:1.0;fill:none;"/><text fill="#000000" font-family="sans-serif" font-size="11" lengthAdjust="spacing" textLength="113" x="27" y="302.5151">bodyUsed : boolean</text><ellipse cx="18" cy="312.1094" rx="3" ry="3" style="stroke:#038048;stroke-width:1.0;fill:none;"/><text fill="#000000" font-family="sans-serif" font-size="11" lengthAdjust="spacing" textLength="107" x="27" y="315.3198">headers : Headers</text><ellipse cx="18" cy="324.9141" rx="3" ry="3" style="stroke:#038048;stroke-width:1.0;fill:none;"/><text fill="#000000" font-family="sans-serif" font-size="11" lengthAdjust="spacing" textLength="70" x="27" y="328.1245">ok : boolean</text><ellipse cx="18" cy="337.7188" rx="3" ry="3" style="stroke:#038048;stroke-width:1.0;fill:none;"/><text fill="#000000" font-family="sans-serif" font-size="11" lengthAdjust="spacing" textLength="115" x="27" y="340.9292">redirected : boolean</text><ellipse cx="18" cy="350.5234" rx="3" ry="3" style="stroke:#038048;stroke-width:1.0;fill:none;"/><text fill="#000000" font-family="sans-serif" font-size="11" lengthAdjust="spacing" textLength="92" x="27" y="353.7339">status : number</text><ellipse cx="18" cy="363.3281" rx="3" ry="3" style="stroke:#038048;stroke-width:1.0;fill:none;"/><text fill="#000000" font-family="sans-serif" font-size="11" lengthAdjust="spacing" textLength="105" x="27" y="366.5386">statusText : string</text><ellipse cx="18" cy="376.1328" rx="3" ry="3" style="stroke:#038048;stroke-width:1.0;fill:none;"/><text fill="#000000" font-family="sans-serif" font-size="11" lengthAdjust="spacing" textLength="119" x="27" y="379.3433">type : ResponseType</text><ellipse cx="18" cy="388.9375" rx="3" ry="3" style="stroke:#038048;stroke-width:1.0;fill:none;"/><text fill="#000000" font-family="sans-serif" font-size="11" lengthAdjust="spacing" textLength="60" x="27" y="392.1479">url : string</text><line style="stroke:#A80036;stroke-width:1.5;" x1="8" x2="247" y1="398.7422" y2="398.7422"/><ellipse cx="18" cy="409.7422" fill="#84BE84" rx="3" ry="3" style="stroke:#038048;stroke-width:1.0;"/><text fill="#000000" font-family="sans-serif" font-size="11" lengthAdjust="spacing" textLength="215" x="27" y="412.9526">arrayBuffer() : Promise&lt;ArrayBuffer&gt;</text><ellipse cx="18" cy="422.5469" fill="#84BE84" rx="3" ry="3" style="stroke:#038048;stroke-width:1.0;"/><text fill="#000000" font-family="sans-serif" font-size="11" lengthAdjust="spacing" textLength="134" x="27" y="425.7573">blob() : Promise&lt;Blob&gt;</text><ellipse cx="18" cy="435.3516" fill="#84BE84" rx="3" ry="3" style="stroke:#038048;stroke-width:1.0;"/><text fill="#000000" font-family="sans-serif" font-size="11" lengthAdjust="spacing" textLength="106" x="27" y="438.562">clone() : Response</text><ellipse cx="18" cy="448.1563" fill="#84BE84" rx="3" ry="3" style="stroke:#038048;stroke-width:1.0;"/><text fill="#000000" font-family="sans-serif" font-size="11" lengthAdjust="spacing" textLength="193" x="27" y="451.3667">formData() : Promise&lt;FormData&gt;</text><ellipse cx="18" cy="460.9609" fill="#84BE84" rx="3" ry="3" style="stroke:#038048;stroke-width:1.0;"/><text fill="#000000" font-family="sans-serif" font-size="11" lengthAdjust="spacing" textLength="129" x="27" y="464.1714">json() : Promise&lt;any&gt;</text><ellipse cx="18" cy="473.7656" fill="#84BE84" rx="3" ry="3" style="stroke:#038048;stroke-width:1.0;"/><text fill="#000000" font-family="sans-serif" font-size="11" lengthAdjust="spacing" textLength="139" x="27" y="476.9761">text() : Promise&lt;string&gt;</text><!--MD5=[0851f84a889f989e7bb0bebc385d0f09]
class Request--><rect codeLine="31" fill="#FEFECE" filter="url(#f1squtrq7f4eue)" height="316.8984" id="Request" style="stroke:#A80036;stroke-width:1.5;" width="241" x="283" y="205"/><ellipse cx="373.75" cy="221" fill="#B4A7E5" rx="11" ry="11" style="stroke:#A80036;stroke-width:1.0;"/><path d="M369.6719,216.7656 L369.6719,214.6094 L377.0625,214.6094 L377.0625,216.7656 L374.5938,216.7656 L374.5938,224.8438 L377.0625,224.8438 L377.0625,227 L369.6719,227 L369.6719,224.8438 L372.1406,224.8438 L372.1406,216.7656 L369.6719,216.7656 Z " fill="#000000"/><text fill="#000000" font-family="sans-serif" font-size="12" font-style="italic" lengthAdjust="spacing" textLength="51" x="394.25" y="225.1543">Request</text><line style="stroke:#A80036;stroke-width:1.5;" x1="284" x2="523" y1="237" y2="237"/><ellipse cx="294" cy="248" rx="3" ry="3" style="stroke:#038048;stroke-width:1.0;fill:none;"/><text fill="#000000" font-family="sans-serif" font-size="11" lengthAdjust="spacing" textLength="210" x="303" y="251.2104">body : ReadableStream&lt;Uint8Array&gt;</text><ellipse cx="294" cy="260.8047" rx="3" ry="3" style="stroke:#038048;stroke-width:1.0;fill:none;"/><text fill="#000000" font-family="sans-serif" font-size="11" lengthAdjust="spacing" textLength="113" x="303" y="264.0151">bodyUsed : boolean</text><ellipse cx="294" cy="273.6094" rx="3" ry="3" style="stroke:#038048;stroke-width:1.0;fill:none;"/><text fill="#000000" font-family="sans-serif" font-size="11" lengthAdjust="spacing" textLength="126" x="303" y="276.8198">cache : RequestCache</text><ellipse cx="294" cy="286.4141" rx="3" ry="3" style="stroke:#038048;stroke-width:1.0;fill:none;"/><text fill="#000000" font-family="sans-serif" font-size="11" lengthAdjust="spacing" textLength="186" x="303" y="289.6245">credentials : RequestCredentials</text><ellipse cx="294" cy="299.2188" rx="3" ry="3" style="stroke:#038048;stroke-width:1.0;fill:none;"/><text fill="#000000" font-family="sans-serif" font-size="11" lengthAdjust="spacing" textLength="185" x="303" y="302.4292">destination : RequestDestination</text><ellipse cx="294" cy="312.0234" rx="3" ry="3" style="stroke:#038048;stroke-width:1.0;fill:none;"/><text fill="#000000" font-family="sans-serif" font-size="11" lengthAdjust="spacing" textLength="107" x="303" y="315.2339">headers : Headers</text><ellipse cx="294" cy="324.8281" rx="3" ry="3" style="stroke:#038048;stroke-width:1.0;fill:none;"/><text fill="#000000" font-family="sans-serif" font-size="11" lengthAdjust="spacing" textLength="91" x="303" y="328.0386">integrity : string</text><ellipse cx="294" cy="337.6328" rx="3" ry="3" style="stroke:#038048;stroke-width:1.0;fill:none;"/><text fill="#000000" font-family="sans-serif" font-size="11" lengthAdjust="spacing" textLength="110" x="303" y="340.8433">keepalive : boolean</text><ellipse cx="294" cy="350.4375" rx="3" ry="3" style="stroke:#038048;stroke-width:1.0;fill:none;"/><text fill="#000000" font-family="sans-serif" font-size="11" lengthAdjust="spacing" textLength="88" x="303" y="353.6479">method : string</text><ellipse cx="294" cy="363.2422" rx="3" ry="3" style="stroke:#038048;stroke-width:1.0;fill:none;"/><text fill="#000000" font-family="sans-serif" font-size="11" lengthAdjust="spacing" textLength="120" x="303" y="366.4526">mode : RequestMode</text><ellipse cx="294" cy="376.0469" rx="3" ry="3" style="stroke:#038048;stroke-width:1.0;fill:none;"/><text fill="#000000" font-family="sans-serif" font-size="11" lengthAdjust="spacing" textLength="148" x="303" y="379.2573">redirect : RequestRedirect</text><ellipse cx="294" cy="388.8516" rx="3" ry="3" style="stroke:#038048;stroke-width:1.0;fill:none;"/><text fill="#000000" font-family="sans-serif" font-size="11" lengthAdjust="spacing" textLength="90" x="303" y="392.062">referrer : string</text><ellipse cx="294" cy="401.6563" rx="3" ry="3" style="stroke:#038048;stroke-width:1.0;fill:none;"/><text fill="#000000" font-family="sans-serif" font-size="11" lengthAdjust="spacing" textLength="168" x="303" y="404.8667">referrerPolicy : ReferrerPolicy</text><ellipse cx="294" cy="414.4609" rx="3" ry="3" style="stroke:#038048;stroke-width:1.0;fill:none;"/><text fill="#000000" font-family="sans-serif" font-size="11" lengthAdjust="spacing" textLength="111" x="303" y="417.6714">signal : AbortSignal</text><ellipse cx="294" cy="427.2656" rx="3" ry="3" style="stroke:#038048;stroke-width:1.0;fill:none;"/><text fill="#000000" font-family="sans-serif" font-size="11" lengthAdjust="spacing" textLength="60" x="303" y="430.4761">url : string</text><line style="stroke:#A80036;stroke-width:1.5;" x1="284" x2="523" y1="437.0703" y2="437.0703"/><ellipse cx="294" cy="448.0703" fill="#84BE84" rx="3" ry="3" style="stroke:#038048;stroke-width:1.0;"/><text fill="#000000" font-family="sans-serif" font-size="11" lengthAdjust="spacing" textLength="215" x="303" y="451.2808">arrayBuffer() : Promise&lt;ArrayBuffer&gt;</text><ellipse cx="294" cy="460.875" fill="#84BE84" rx="3" ry="3" style="stroke:#038048;stroke-width:1.0;"/><text fill="#000000" font-family="sans-serif" font-size="11" lengthAdjust="spacing" textLength="134" x="303" y="464.0854">blob() : Promise&lt;Blob&gt;</text><ellipse cx="294" cy="473.6797" fill="#84BE84" rx="3" ry="3" style="stroke:#038048;stroke-width:1.0;"/><text fill="#000000" font-family="sans-serif" font-size="11" lengthAdjust="spacing" textLength="96" x="303" y="476.8901">clone() : Request</text><ellipse cx="294" cy="486.4844" fill="#84BE84" rx="3" ry="3" style="stroke:#038048;stroke-width:1.0;"/><text fill="#000000" font-family="sans-serif" font-size="11" lengthAdjust="spacing" textLength="193" x="303" y="489.6948">formData() : Promise&lt;FormData&gt;</text><ellipse cx="294" cy="499.2891" fill="#84BE84" rx="3" ry="3" style="stroke:#038048;stroke-width:1.0;"/><text fill="#000000" font-family="sans-serif" font-size="11" lengthAdjust="spacing" textLength="129" x="303" y="502.4995">json() : Promise&lt;any&gt;</text><ellipse cx="294" cy="512.0938" fill="#84BE84" rx="3" ry="3" style="stroke:#038048;stroke-width:1.0;"/><text fill="#000000" font-family="sans-serif" font-size="11" lengthAdjust="spacing" textLength="139" x="303" y="515.3042">text() : Promise&lt;string&gt;</text><!--MD5=[695f1a2e0109d665590f6f97165cb262]
reverse link Body to Response--><path codeLine="30" d="M223.81,163.26 C211.62,188.47 198.07,216.49 185.09,243.36 " fill="none" id="Body-backto-Response" style="stroke:#A80036;stroke-width:1.0;"/><polygon fill="none" points="217.61,159.98,232.62,145.02,230.22,166.07,217.61,159.98" style="stroke:#A80036;stroke-width:1.0;"/><!--MD5=[783e341f9037703b8782dbb1f8d97449]
reverse link Body to Request--><path codeLine="54" d="M307.19,163.26 C313.63,176.56 320.44,190.65 327.34,204.94 " fill="none" id="Body-backto-Request" style="stroke:#A80036;stroke-width:1.0;"/><polygon fill="none" points="300.78,166.07,298.38,145.02,313.39,159.98,300.78,166.07" style="stroke:#A80036;stroke-width:1.0;"/><!--MD5=[b776d1dc84e371a056b1e996d9e1e2e0]
@startuml
skinparam BackgroundColor transparent
hide empty methods
hide empty fields
interface "Body" {
    +body : ReadableStream<Uint8Array>
    +bodyUsed : boolean
    +arrayBuffer() : Promise<ArrayBuffer>
    +blob() : Promise<Blob>
    +formData() : Promise<FormData>
    +json() : Promise<any>
    +text() : Promise<string>
}
interface "Response" {
    +body : ReadableStream<Uint8Array>
    +bodyUsed : boolean
    +headers : Headers
    +ok : boolean
    +redirected : boolean
    +status : number
    +statusText : string
    +type : ResponseType
    +url : string
    +arrayBuffer() : Promise<ArrayBuffer>
    +blob() : Promise<Blob>
    +clone() : Response
    +formData() : Promise<FormData>
    +json() : Promise<any>
    +text() : Promise<string>
}
"Body" <|- - "Response"
interface "Request" {
    +body : ReadableStream<Uint8Array>
    +bodyUsed : boolean
    +cache : RequestCache
    +credentials : RequestCredentials
    +destination : RequestDestination
    +headers : Headers
    +integrity : string
    +keepalive : boolean
    +method : string
    +mode : RequestMode
    +redirect : RequestRedirect
    +referrer : string
    +referrerPolicy : ReferrerPolicy
    +signal : AbortSignal
    +url : string
    +arrayBuffer() : Promise<ArrayBuffer>
    +blob() : Promise<Blob>
    +clone() : Request
    +formData() : Promise<FormData>
    +json() : Promise<any>
    +text() : Promise<string>
}
"Body" <|- - "Request"
@enduml

PlantUML version 1.2021.14(Fri Nov 12 11:46:50 EST 2021)
(GPL source distribution)
Java Runtime: OpenJDK Runtime Environment
JVM: OpenJDK 64-Bit Server VM
Default Encoding: UTF-8
Language: en
Country: US
--></g></svg>