<?xml version="1.0" encoding="UTF-8" standalone="no"?><svg xmlns="http://www.w3.org/2000/svg" xmlns:xlink="http://www.w3.org/1999/xlink" contentScriptType="application/ecmascript" contentStyleType="text/css" height="250px" preserveAspectRatio="none" style="width:203px;height:250px;background:#00000000;" version="1.1" viewBox="0 0 203 250" width="203px" zoomAndPan="magnify"><defs><filter height="300%" id="febp8hnsc8xgg" width="300%" x="-1" y="-1"><feGaussianBlur result="blurOut" stdDeviation="2.0"/><feColorMatrix in="blurOut" result="blurOut2" type="matrix" values="0 0 0 0 0 0 0 0 0 0 0 0 0 0 0 0 0 0 .4 0"/><feOffset dx="4.0" dy="4.0" in="blurOut2" result="blurOut3"/><feBlend in="SourceGraphic" in2="blurOut3" mode="normal"/></filter></defs><g><!--MD5=[4bc2b54c7e5914c98c89287f2b610e5b]
class CacheQueryOptions--><rect codeLine="4" fill="#FEFECE" filter="url(#febp8hnsc8xgg)" height="78.4141" id="CacheQueryOptions" style="stroke:#A80036;stroke-width:1.5;" width="160" x="18" y="7"/><ellipse cx="36.15" cy="23" fill="#B4A7E5" rx="11" ry="11" style="stroke:#A80036;stroke-width:1.0;"/><path d="M32.0719,18.7656 L32.0719,16.6094 L39.4625,16.6094 L39.4625,18.7656 L36.9938,18.7656 L36.9938,26.8438 L39.4625,26.8438 L39.4625,29 L32.0719,29 L32.0719,26.8438 L34.5406,26.8438 L34.5406,18.7656 L32.0719,18.7656 Z " fill="#000000"/><text fill="#000000" font-family="sans-serif" font-size="12" font-style="italic" lengthAdjust="spacing" textLength="121" x="50.85" y="27.1543">CacheQueryOptions</text><line style="stroke:#A80036;stroke-width:1.5;" x1="19" x2="177" y1="39" y2="39"/><ellipse cx="29" cy="50" rx="3" ry="3" style="stroke:#038048;stroke-width:1.0;fill:none;"/><text fill="#000000" font-family="sans-serif" font-size="11" lengthAdjust="spacing" textLength="134" x="38" y="53.2104">ignoreMethod : boolean</text><ellipse cx="29" cy="62.8047" rx="3" ry="3" style="stroke:#038048;stroke-width:1.0;fill:none;"/><text fill="#000000" font-family="sans-serif" font-size="11" lengthAdjust="spacing" textLength="133" x="38" y="66.0151">ignoreSearch : boolean</text><ellipse cx="29" cy="75.6094" rx="3" ry="3" style="stroke:#038048;stroke-width:1.0;fill:none;"/><text fill="#000000" font-family="sans-serif" font-size="11" lengthAdjust="spacing" textLength="118" x="38" y="78.8198">ignoreVary : boolean</text><!--MD5=[6b05ab5dbb4b28135122f929aa7d0954]
class MultiCacheQueryOptions--><rect codeLine="9" fill="#FEFECE" filter="url(#febp8hnsc8xgg)" height="91.2188" id="MultiCacheQueryOptions" style="stroke:#A80036;stroke-width:1.5;" width="182" x="7" y="145"/><ellipse cx="22" cy="161" fill="#B4A7E5" rx="11" ry="11" style="stroke:#A80036;stroke-width:1.0;"/><path d="M17.9219,156.7656 L17.9219,154.6094 L25.3125,154.6094 L25.3125,156.7656 L22.8438,156.7656 L22.8438,164.8438 L25.3125,164.8438 L25.3125,167 L17.9219,167 L17.9219,164.8438 L20.3906,164.8438 L20.3906,156.7656 L17.9219,156.7656 Z " fill="#000000"/><text fill="#000000" font-family="sans-serif" font-size="12" font-style="italic" lengthAdjust="spacing" textLength="150" x="36" y="165.1543">MultiCacheQueryOptions</text><line style="stroke:#A80036;stroke-width:1.5;" x1="8" x2="188" y1="177" y2="177"/><ellipse cx="18" cy="188" rx="3" ry="3" style="stroke:#038048;stroke-width:1.0;fill:none;"/><text fill="#000000" font-family="sans-serif" font-size="11" lengthAdjust="spacing" textLength="111" x="27" y="191.2104">cacheName : string</text><ellipse cx="18" cy="200.8047" rx="3" ry="3" style="stroke:#038048;stroke-width:1.0;fill:none;"/><text fill="#000000" font-family="sans-serif" font-size="11" lengthAdjust="spacing" textLength="134" x="27" y="204.0151">ignoreMethod : boolean</text><ellipse cx="18" cy="213.6094" rx="3" ry="3" style="stroke:#038048;stroke-width:1.0;fill:none;"/><text fill="#000000" font-family="sans-serif" font-size="11" lengthAdjust="spacing" textLength="133" x="27" y="216.8198">ignoreSearch : boolean</text><ellipse cx="18" cy="226.4141" rx="3" ry="3" style="stroke:#038048;stroke-width:1.0;fill:none;"/><text fill="#000000" font-family="sans-serif" font-size="11" lengthAdjust="spacing" textLength="118" x="27" y="229.6245">ignoreVary : boolean</text><!--MD5=[8a89f15916cd681c7f36857de7b13982]
reverse link CacheQueryOptions to MultiCacheQueryOptions--><path codeLine="15" d="M98,105.21 C98,118.45 98,132.32 98,144.89 " fill="none" id="CacheQueryOptions-backto-MultiCacheQueryOptions" style="stroke:#A80036;stroke-width:1.0;"/><polygon fill="none" points="91,105.19,98,85.19,105,105.19,91,105.19" style="stroke:#A80036;stroke-width:1.0;"/><!--MD5=[a329f4d847281396592ef5881abb0823]
@startuml
skinparam BackgroundColor transparent
hide empty methods
hide empty fields
interface "CacheQueryOptions" {
    +ignoreMethod : boolean
    +ignoreSearch : boolean
    +ignoreVary : boolean
}
interface "MultiCacheQueryOptions" {
    +cacheName : string
    +ignoreMethod : boolean
    +ignoreSearch : boolean
    +ignoreVary : boolean
}
"CacheQueryOptions" <|- - "MultiCacheQueryOptions"
@enduml

PlantUML version 1.2021.14(Fri Nov 12 11:46:50 EST 2021)
(GPL source distribution)
Java Runtime: OpenJDK Runtime Environment
JVM: OpenJDK 64-Bit Server VM
Default Encoding: UTF-8
Language: en
Country: US
--></g></svg>