<?xml version="1.0" encoding="UTF-8" standalone="no"?><svg xmlns="http://www.w3.org/2000/svg" xmlns:xlink="http://www.w3.org/1999/xlink" contentScriptType="application/ecmascript" contentStyleType="text/css" height="250px" preserveAspectRatio="none" style="width:212px;height:250px;background:#00000000;" version="1.1" viewBox="0 0 212 250" width="212px" zoomAndPan="magnify"><defs><filter height="300%" id="fmna2ams6zh0v" width="300%" x="-1" y="-1"><feGaussianBlur result="blurOut" stdDeviation="2.0"/><feColorMatrix in="blurOut" result="blurOut2" type="matrix" values="0 0 0 0 0 0 0 0 0 0 0 0 0 0 0 0 0 0 .4 0"/><feOffset dx="4.0" dy="4.0" in="blurOut2" result="blurOut3"/><feBlend in="SourceGraphic" in2="blurOut3" mode="normal"/></filter></defs><g><!--MD5=[b77fc4beb12874a5805d53f4a37ee8c4]
class ClipboardEventInit--><rect codeLine="4" fill="#FEFECE" filter="url(#fmna2ams6zh0v)" height="91.2188" id="ClipboardEventInit" style="stroke:#A80036;stroke-width:1.5;" width="191" x="7" y="145"/><ellipse cx="42.25" cy="161" fill="#B4A7E5" rx="11" ry="11" style="stroke:#A80036;stroke-width:1.0;"/><path d="M38.1719,156.7656 L38.1719,154.6094 L45.5625,154.6094 L45.5625,156.7656 L43.0938,156.7656 L43.0938,164.8438 L45.5625,164.8438 L45.5625,167 L38.1719,167 L38.1719,164.8438 L40.6406,164.8438 L40.6406,156.7656 L38.1719,156.7656 Z " fill="#000000"/><text fill="#000000" font-family="sans-serif" font-size="12" font-style="italic" lengthAdjust="spacing" textLength="114" x="60.75" y="165.1543">ClipboardEventInit</text><line style="stroke:#A80036;stroke-width:1.5;" x1="8" x2="197" y1="177" y2="177"/><ellipse cx="18" cy="188" rx="3" ry="3" style="stroke:#038048;stroke-width:1.0;fill:none;"/><text fill="#000000" font-family="sans-serif" font-size="11" lengthAdjust="spacing" textLength="102" x="27" y="191.2104">bubbles : boolean</text><ellipse cx="18" cy="200.8047" rx="3" ry="3" style="stroke:#038048;stroke-width:1.0;fill:none;"/><text fill="#000000" font-family="sans-serif" font-size="11" lengthAdjust="spacing" textLength="117" x="27" y="204.0151">cancelable : boolean</text><ellipse cx="18" cy="213.6094" rx="3" ry="3" style="stroke:#038048;stroke-width:1.0;fill:none;"/><text fill="#000000" font-family="sans-serif" font-size="11" lengthAdjust="spacing" textLength="165" x="27" y="216.8198">clipboardData : DataTransfer</text><ellipse cx="18" cy="226.4141" rx="3" ry="3" style="stroke:#038048;stroke-width:1.0;fill:none;"/><text fill="#000000" font-family="sans-serif" font-size="11" lengthAdjust="spacing" textLength="116" x="27" y="229.6245">composed : boolean</text><!--MD5=[20555489c30bd85c28b7a7f2623ad986]
class EventInit--><rect codeLine="10" fill="#FEFECE" filter="url(#fmna2ams6zh0v)" height="78.4141" id="EventInit" style="stroke:#A80036;stroke-width:1.5;" width="143" x="31" y="7"/><ellipse cx="71.2" cy="23" fill="#B4A7E5" rx="11" ry="11" style="stroke:#A80036;stroke-width:1.0;"/><path d="M67.1219,18.7656 L67.1219,16.6094 L74.5125,16.6094 L74.5125,18.7656 L72.0438,18.7656 L72.0438,26.8438 L74.5125,26.8438 L74.5125,29 L67.1219,29 L67.1219,26.8438 L69.5906,26.8438 L69.5906,18.7656 L67.1219,18.7656 Z " fill="#000000"/><text fill="#000000" font-family="sans-serif" font-size="12" font-style="italic" lengthAdjust="spacing" textLength="55" x="90.8" y="27.1543">EventInit</text><line style="stroke:#A80036;stroke-width:1.5;" x1="32" x2="173" y1="39" y2="39"/><ellipse cx="42" cy="50" rx="3" ry="3" style="stroke:#038048;stroke-width:1.0;fill:none;"/><text fill="#000000" font-family="sans-serif" font-size="11" lengthAdjust="spacing" textLength="102" x="51" y="53.2104">bubbles : boolean</text><ellipse cx="42" cy="62.8047" rx="3" ry="3" style="stroke:#038048;stroke-width:1.0;fill:none;"/><text fill="#000000" font-family="sans-serif" font-size="11" lengthAdjust="spacing" textLength="117" x="51" y="66.0151">cancelable : boolean</text><ellipse cx="42" cy="75.6094" rx="3" ry="3" style="stroke:#038048;stroke-width:1.0;fill:none;"/><text fill="#000000" font-family="sans-serif" font-size="11" lengthAdjust="spacing" textLength="116" x="51" y="78.8198">composed : boolean</text><!--MD5=[089640ea0e9f5a5fda358fa5ec867920]
reverse link EventInit to ClipboardEventInit--><path codeLine="15" d="M102.5,105.21 C102.5,118.45 102.5,132.32 102.5,144.89 " fill="none" id="EventInit-backto-ClipboardEventInit" style="stroke:#A80036;stroke-width:1.0;"/><polygon fill="none" points="95.5,105.19,102.5,85.19,109.5,105.19,95.5,105.19" style="stroke:#A80036;stroke-width:1.0;"/><!--MD5=[ff1a75af2a68338314946fb1bf4f95bd]
@startuml
skinparam BackgroundColor transparent
hide empty methods
hide empty fields
interface "ClipboardEventInit" {
    +bubbles : boolean
    +cancelable : boolean
    +clipboardData : DataTransfer
    +composed : boolean
}
interface "EventInit" {
    +bubbles : boolean
    +cancelable : boolean
    +composed : boolean
}
"EventInit" <|- - "ClipboardEventInit"
@enduml

PlantUML version 1.2021.14(Fri Nov 12 11:46:50 EST 2021)
(GPL source distribution)
Java Runtime: OpenJDK Runtime Environment
JVM: OpenJDK 64-Bit Server VM
Default Encoding: UTF-8
Language: en
Country: US
--></g></svg>