<?xml version="1.0" encoding="UTF-8" standalone="no"?><svg xmlns="http://www.w3.org/2000/svg" xmlns:xlink="http://www.w3.org/1999/xlink" contentScriptType="application/ecmascript" contentStyleType="text/css" height="275px" preserveAspectRatio="none" style="width:164px;height:275px;background:#00000000;" version="1.1" viewBox="0 0 164 275" width="164px" zoomAndPan="magnify"><defs><filter height="300%" id="f1bq7gys7abdrn" width="300%" x="-1" y="-1"><feGaussianBlur result="blurOut" stdDeviation="2.0"/><feColorMatrix in="blurOut" result="blurOut2" type="matrix" values="0 0 0 0 0 0 0 0 0 0 0 0 0 0 0 0 0 0 .4 0"/><feOffset dx="4.0" dy="4.0" in="blurOut2" result="blurOut3"/><feBlend in="SourceGraphic" in2="blurOut3" mode="normal"/></filter></defs><g><!--MD5=[a2717b1c7d23621034119c7bd971f3c6]
class CloseEventInit--><rect codeLine="4" fill="#FEFECE" filter="url(#f1bq7gys7abdrn)" height="116.8281" id="CloseEventInit" style="stroke:#A80036;stroke-width:1.5;" width="143" x="7" y="145"/><ellipse cx="32.35" cy="161" fill="#B4A7E5" rx="11" ry="11" style="stroke:#A80036;stroke-width:1.0;"/><path d="M28.2719,156.7656 L28.2719,154.6094 L35.6625,154.6094 L35.6625,156.7656 L33.1938,156.7656 L33.1938,164.8438 L35.6625,164.8438 L35.6625,167 L28.2719,167 L28.2719,164.8438 L30.7406,164.8438 L30.7406,156.7656 L28.2719,156.7656 Z " fill="#000000"/><text fill="#000000" font-family="sans-serif" font-size="12" font-style="italic" lengthAdjust="spacing" textLength="88" x="48.65" y="165.1543">CloseEventInit</text><line style="stroke:#A80036;stroke-width:1.5;" x1="8" x2="149" y1="177" y2="177"/><ellipse cx="18" cy="188" rx="3" ry="3" style="stroke:#038048;stroke-width:1.0;fill:none;"/><text fill="#000000" font-family="sans-serif" font-size="11" lengthAdjust="spacing" textLength="102" x="27" y="191.2104">bubbles : boolean</text><ellipse cx="18" cy="200.8047" rx="3" ry="3" style="stroke:#038048;stroke-width:1.0;fill:none;"/><text fill="#000000" font-family="sans-serif" font-size="11" lengthAdjust="spacing" textLength="117" x="27" y="204.0151">cancelable : boolean</text><ellipse cx="18" cy="213.6094" rx="3" ry="3" style="stroke:#038048;stroke-width:1.0;fill:none;"/><text fill="#000000" font-family="sans-serif" font-size="11" lengthAdjust="spacing" textLength="83" x="27" y="216.8198">code : number</text><ellipse cx="18" cy="226.4141" rx="3" ry="3" style="stroke:#038048;stroke-width:1.0;fill:none;"/><text fill="#000000" font-family="sans-serif" font-size="11" lengthAdjust="spacing" textLength="116" x="27" y="229.6245">composed : boolean</text><ellipse cx="18" cy="239.2188" rx="3" ry="3" style="stroke:#038048;stroke-width:1.0;fill:none;"/><text fill="#000000" font-family="sans-serif" font-size="11" lengthAdjust="spacing" textLength="85" x="27" y="242.4292">reason : string</text><ellipse cx="18" cy="252.0234" rx="3" ry="3" style="stroke:#038048;stroke-width:1.0;fill:none;"/><text fill="#000000" font-family="sans-serif" font-size="11" lengthAdjust="spacing" textLength="112" x="27" y="255.2339">wasClean : boolean</text><!--MD5=[20555489c30bd85c28b7a7f2623ad986]
class EventInit--><rect codeLine="12" fill="#FEFECE" filter="url(#f1bq7gys7abdrn)" height="78.4141" id="EventInit" style="stroke:#A80036;stroke-width:1.5;" width="143" x="7" y="7"/><ellipse cx="47.2" cy="23" fill="#B4A7E5" rx="11" ry="11" style="stroke:#A80036;stroke-width:1.0;"/><path d="M43.1219,18.7656 L43.1219,16.6094 L50.5125,16.6094 L50.5125,18.7656 L48.0438,18.7656 L48.0438,26.8438 L50.5125,26.8438 L50.5125,29 L43.1219,29 L43.1219,26.8438 L45.5906,26.8438 L45.5906,18.7656 L43.1219,18.7656 Z " fill="#000000"/><text fill="#000000" font-family="sans-serif" font-size="12" font-style="italic" lengthAdjust="spacing" textLength="55" x="66.8" y="27.1543">EventInit</text><line style="stroke:#A80036;stroke-width:1.5;" x1="8" x2="149" y1="39" y2="39"/><ellipse cx="18" cy="50" rx="3" ry="3" style="stroke:#038048;stroke-width:1.0;fill:none;"/><text fill="#000000" font-family="sans-serif" font-size="11" lengthAdjust="spacing" textLength="102" x="27" y="53.2104">bubbles : boolean</text><ellipse cx="18" cy="62.8047" rx="3" ry="3" style="stroke:#038048;stroke-width:1.0;fill:none;"/><text fill="#000000" font-family="sans-serif" font-size="11" lengthAdjust="spacing" textLength="117" x="27" y="66.0151">cancelable : boolean</text><ellipse cx="18" cy="75.6094" rx="3" ry="3" style="stroke:#038048;stroke-width:1.0;fill:none;"/><text fill="#000000" font-family="sans-serif" font-size="11" lengthAdjust="spacing" textLength="116" x="27" y="78.8198">composed : boolean</text><!--MD5=[6b6e3aca9634d6353c6a9ba2a1b7e6ce]
reverse link EventInit to CloseEventInit--><path codeLine="17" d="M78.5,105.19 C78.5,118.16 78.5,131.9 78.5,144.84 " fill="none" id="EventInit-backto-CloseEventInit" style="stroke:#A80036;stroke-width:1.0;"/><polygon fill="none" points="71.5,105.04,78.5,85.04,85.5,105.04,71.5,105.04" style="stroke:#A80036;stroke-width:1.0;"/><!--MD5=[b706ca9ec71f4a38170dea289037f7a0]
@startuml
skinparam BackgroundColor transparent
hide empty methods
hide empty fields
interface "CloseEventInit" {
    +bubbles : boolean
    +cancelable : boolean
    +code : number
    +composed : boolean
    +reason : string
    +wasClean : boolean
}
interface "EventInit" {
    +bubbles : boolean
    +cancelable : boolean
    +composed : boolean
}
"EventInit" <|- - "CloseEventInit"
@enduml

PlantUML version 1.2021.14(Fri Nov 12 11:46:50 EST 2021)
(GPL source distribution)
Java Runtime: OpenJDK Runtime Environment
JVM: OpenJDK 64-Bit Server VM
Default Encoding: UTF-8
Language: en
Country: US
--></g></svg>