<?xml version="1.0" encoding="UTF-8" standalone="no"?><svg xmlns="http://www.w3.org/2000/svg" xmlns:xlink="http://www.w3.org/1999/xlink" contentScriptType="application/ecmascript" contentStyleType="text/css" height="327px" preserveAspectRatio="none" style="width:184px;height:327px;background:#00000000;" version="1.1" viewBox="0 0 184 327" width="184px" zoomAndPan="magnify"><defs><filter height="300%" id="f1s15hdtoookst" width="300%" x="-1" y="-1"><feGaussianBlur result="blurOut" stdDeviation="2.0"/><feColorMatrix in="blurOut" result="blurOut2" type="matrix" values="0 0 0 0 0 0 0 0 0 0 0 0 0 0 0 0 0 0 .4 0"/><feOffset dx="4.0" dy="4.0" in="blurOut2" result="blurOut3"/><feBlend in="SourceGraphic" in2="blurOut3" mode="normal"/></filter></defs><g><!--MD5=[b299361f70cc2b581fe977a42b97ee6d]
class CompositionEventInit--><rect codeLine="4" fill="#FEFECE" filter="url(#f1s15hdtoookst)" height="129.6328" id="CompositionEventInit" style="stroke:#A80036;stroke-width:1.5;" width="163" x="7" y="184"/><ellipse cx="22" cy="200" fill="#B4A7E5" rx="11" ry="11" style="stroke:#A80036;stroke-width:1.0;"/><path d="M17.9219,195.7656 L17.9219,193.6094 L25.3125,193.6094 L25.3125,195.7656 L22.8438,195.7656 L22.8438,203.8438 L25.3125,203.8438 L25.3125,206 L17.9219,206 L17.9219,203.8438 L20.3906,203.8438 L20.3906,195.7656 L17.9219,195.7656 Z " fill="#000000"/><text fill="#000000" font-family="sans-serif" font-size="12" font-style="italic" lengthAdjust="spacing" textLength="131" x="36" y="204.1543">CompositionEventInit</text><line style="stroke:#A80036;stroke-width:1.5;" x1="8" x2="169" y1="216" y2="216"/><ellipse cx="18" cy="227" rx="3" ry="3" style="stroke:#038048;stroke-width:1.0;fill:none;"/><text fill="#000000" font-family="sans-serif" font-size="11" lengthAdjust="spacing" textLength="102" x="27" y="230.2104">bubbles : boolean</text><ellipse cx="18" cy="239.8047" rx="3" ry="3" style="stroke:#038048;stroke-width:1.0;fill:none;"/><text fill="#000000" font-family="sans-serif" font-size="11" lengthAdjust="spacing" textLength="117" x="27" y="243.0151">cancelable : boolean</text><ellipse cx="18" cy="252.6094" rx="3" ry="3" style="stroke:#038048;stroke-width:1.0;fill:none;"/><text fill="#000000" font-family="sans-serif" font-size="11" lengthAdjust="spacing" textLength="116" x="27" y="255.8198">composed : boolean</text><ellipse cx="18" cy="265.4141" rx="3" ry="3" style="stroke:#038048;stroke-width:1.0;fill:none;"/><text fill="#000000" font-family="sans-serif" font-size="11" lengthAdjust="spacing" textLength="70" x="27" y="268.6245">data : string</text><ellipse cx="18" cy="278.2188" rx="3" ry="3" style="stroke:#038048;stroke-width:1.0;fill:none;"/><text fill="#000000" font-family="sans-serif" font-size="11" lengthAdjust="spacing" textLength="87" x="27" y="281.4292">detail : number</text><ellipse cx="18" cy="291.0234" rx="3" ry="3" style="stroke:#038048;stroke-width:1.0;fill:none;"/><text fill="#000000" font-family="sans-serif" font-size="11" lengthAdjust="spacing" textLength="79" x="27" y="294.2339">view : Window</text><ellipse cx="18" cy="303.8281" rx="3" ry="3" style="stroke:#038048;stroke-width:1.0;fill:none;"/><text fill="#000000" font-family="sans-serif" font-size="11" lengthAdjust="spacing" textLength="88" x="27" y="307.0386">which : number</text><!--MD5=[5cfeb049f90d37bb0972815418e92227]
class UIEventInit--><rect codeLine="13" fill="#FEFECE" filter="url(#f1s15hdtoookst)" height="116.8281" id="UIEventInit" style="stroke:#A80036;stroke-width:1.5;" width="143" x="17" y="7"/><ellipse cx="51.35" cy="23" fill="#B4A7E5" rx="11" ry="11" style="stroke:#A80036;stroke-width:1.0;"/><path d="M47.2719,18.7656 L47.2719,16.6094 L54.6625,16.6094 L54.6625,18.7656 L52.1938,18.7656 L52.1938,26.8438 L54.6625,26.8438 L54.6625,29 L47.2719,29 L47.2719,26.8438 L49.7406,26.8438 L49.7406,18.7656 L47.2719,18.7656 Z " fill="#000000"/><text fill="#000000" font-family="sans-serif" font-size="12" font-style="italic" lengthAdjust="spacing" textLength="68" x="69.65" y="27.1543">UIEventInit</text><line style="stroke:#A80036;stroke-width:1.5;" x1="18" x2="159" y1="39" y2="39"/><ellipse cx="28" cy="50" rx="3" ry="3" style="stroke:#038048;stroke-width:1.0;fill:none;"/><text fill="#000000" font-family="sans-serif" font-size="11" lengthAdjust="spacing" textLength="102" x="37" y="53.2104">bubbles : boolean</text><ellipse cx="28" cy="62.8047" rx="3" ry="3" style="stroke:#038048;stroke-width:1.0;fill:none;"/><text fill="#000000" font-family="sans-serif" font-size="11" lengthAdjust="spacing" textLength="117" x="37" y="66.0151">cancelable : boolean</text><ellipse cx="28" cy="75.6094" rx="3" ry="3" style="stroke:#038048;stroke-width:1.0;fill:none;"/><text fill="#000000" font-family="sans-serif" font-size="11" lengthAdjust="spacing" textLength="116" x="37" y="78.8198">composed : boolean</text><ellipse cx="28" cy="88.4141" rx="3" ry="3" style="stroke:#038048;stroke-width:1.0;fill:none;"/><text fill="#000000" font-family="sans-serif" font-size="11" lengthAdjust="spacing" textLength="87" x="37" y="91.6245">detail : number</text><ellipse cx="28" cy="101.2188" rx="3" ry="3" style="stroke:#038048;stroke-width:1.0;fill:none;"/><text fill="#000000" font-family="sans-serif" font-size="11" lengthAdjust="spacing" textLength="79" x="37" y="104.4292">view : Window</text><ellipse cx="28" cy="114.0234" rx="3" ry="3" style="stroke:#038048;stroke-width:1.0;fill:none;"/><text fill="#000000" font-family="sans-serif" font-size="11" lengthAdjust="spacing" textLength="88" x="37" y="117.2339">which : number</text><!--MD5=[26c6b57b37b387040e7def2fd4f83f86]
reverse link UIEventInit to CompositionEventInit--><path codeLine="21" d="M88.5,144.4 C88.5,157.56 88.5,171.09 88.5,183.85 " fill="none" id="UIEventInit-backto-CompositionEventInit" style="stroke:#A80036;stroke-width:1.0;"/><polygon fill="none" points="81.5,144.18,88.5,124.18,95.5,144.18,81.5,144.18" style="stroke:#A80036;stroke-width:1.0;"/><!--MD5=[8d2c8d156bcf90006962f5cf92fd6e41]
@startuml
skinparam BackgroundColor transparent
hide empty methods
hide empty fields
interface "CompositionEventInit" {
    +bubbles : boolean
    +cancelable : boolean
    +composed : boolean
    +data : string
    +detail : number
    +view : Window
    +which : number
}
interface "UIEventInit" {
    +bubbles : boolean
    +cancelable : boolean
    +composed : boolean
    +detail : number
    +view : Window
    +which : number
}
"UIEventInit" <|- - "CompositionEventInit"
@enduml

PlantUML version 1.2021.14(Fri Nov 12 11:46:50 EST 2021)
(GPL source distribution)
Java Runtime: OpenJDK Runtime Environment
JVM: OpenJDK 64-Bit Server VM
Default Encoding: UTF-8
Language: en
Country: US
--></g></svg>