<?xml version="1.0" encoding="UTF-8" standalone="no"?><svg xmlns="http://www.w3.org/2000/svg" xmlns:xlink="http://www.w3.org/1999/xlink" contentScriptType="application/ecmascript" contentStyleType="text/css" height="468px" preserveAspectRatio="none" style="width:207px;height:468px;background:#00000000;" version="1.1" viewBox="0 0 207 468" width="207px" zoomAndPan="magnify"><defs><filter height="300%" id="f1cip37h10bfrm" width="300%" x="-1" y="-1"><feGaussianBlur result="blurOut" stdDeviation="2.0"/><feColorMatrix in="blurOut" result="blurOut2" type="matrix" values="0 0 0 0 0 0 0 0 0 0 0 0 0 0 0 0 0 0 .4 0"/><feOffset dx="4.0" dy="4.0" in="blurOut2" result="blurOut3"/><feBlend in="SourceGraphic" in2="blurOut3" mode="normal"/></filter></defs><g><!--MD5=[1fa820b07667c5d739d95b6c02a4721a]
class ComputedEffectTiming--><rect codeLine="4" fill="#FEFECE" filter="url(#f1cip37h10bfrm)" height="232.0703" id="ComputedEffectTiming" style="stroke:#A80036;stroke-width:1.5;" width="186" x="7" y="222"/><ellipse cx="28.3" cy="238" fill="#B4A7E5" rx="11" ry="11" style="stroke:#A80036;stroke-width:1.0;"/><path d="M24.2219,233.7656 L24.2219,231.6094 L31.6125,231.6094 L31.6125,233.7656 L29.1438,233.7656 L29.1438,241.8438 L31.6125,241.8438 L31.6125,244 L24.2219,244 L24.2219,241.8438 L26.6906,241.8438 L26.6906,233.7656 L24.2219,233.7656 Z " fill="#000000"/><text fill="#000000" font-family="sans-serif" font-size="12" font-style="italic" lengthAdjust="spacing" textLength="140" x="43.7" y="242.1543">ComputedEffectTiming</text><line style="stroke:#A80036;stroke-width:1.5;" x1="8" x2="192" y1="254" y2="254"/><ellipse cx="18" cy="265" rx="3" ry="3" style="stroke:#038048;stroke-width:1.0;fill:none;"/><text fill="#000000" font-family="sans-serif" font-size="11" lengthAdjust="spacing" textLength="137" x="27" y="268.2104">activeDuration : number</text><ellipse cx="18" cy="277.8047" rx="3" ry="3" style="stroke:#038048;stroke-width:1.0;fill:none;"/><text fill="#000000" font-family="sans-serif" font-size="11" lengthAdjust="spacing" textLength="144" x="27" y="281.0151">currentIteration : number</text><ellipse cx="18" cy="290.6094" rx="3" ry="3" style="stroke:#038048;stroke-width:1.0;fill:none;"/><text fill="#000000" font-family="sans-serif" font-size="11" lengthAdjust="spacing" textLength="86" x="27" y="293.8198">delay : number</text><ellipse cx="18" cy="303.4141" rx="3" ry="3" style="stroke:#038048;stroke-width:1.0;fill:none;"/><text fill="#000000" font-family="sans-serif" font-size="11" lengthAdjust="spacing" textLength="160" x="27" y="306.6245">direction : PlaybackDirection</text><ellipse cx="18" cy="316.2188" rx="3" ry="3" style="stroke:#038048;stroke-width:1.0;fill:none;"/><text fill="#000000" font-family="sans-serif" font-size="11" lengthAdjust="spacing" textLength="148" x="27" y="319.4292">duration : string | number</text><ellipse cx="18" cy="329.0234" rx="3" ry="3" style="stroke:#038048;stroke-width:1.0;fill:none;"/><text fill="#000000" font-family="sans-serif" font-size="11" lengthAdjust="spacing" textLength="83" x="27" y="332.2339">easing : string</text><ellipse cx="18" cy="341.8281" rx="3" ry="3" style="stroke:#038048;stroke-width:1.0;fill:none;"/><text fill="#000000" font-family="sans-serif" font-size="11" lengthAdjust="spacing" textLength="108" x="27" y="345.0386">endDelay : number</text><ellipse cx="18" cy="354.6328" rx="3" ry="3" style="stroke:#038048;stroke-width:1.0;fill:none;"/><text fill="#000000" font-family="sans-serif" font-size="11" lengthAdjust="spacing" textLength="105" x="27" y="357.8433">endTime : number</text><ellipse cx="18" cy="367.4375" rx="3" ry="3" style="stroke:#038048;stroke-width:1.0;fill:none;"/><text fill="#000000" font-family="sans-serif" font-size="11" lengthAdjust="spacing" textLength="70" x="27" y="370.6479">fill : FillMode</text><ellipse cx="18" cy="380.2422" rx="3" ry="3" style="stroke:#038048;stroke-width:1.0;fill:none;"/><text fill="#000000" font-family="sans-serif" font-size="11" lengthAdjust="spacing" textLength="110" x="27" y="383.4526">iterations : number</text><ellipse cx="18" cy="393.0469" rx="3" ry="3" style="stroke:#038048;stroke-width:1.0;fill:none;"/><text fill="#000000" font-family="sans-serif" font-size="11" lengthAdjust="spacing" textLength="131" x="27" y="396.2573">iterationStart : number</text><ellipse cx="18" cy="405.8516" rx="3" ry="3" style="stroke:#038048;stroke-width:1.0;fill:none;"/><text fill="#000000" font-family="sans-serif" font-size="11" lengthAdjust="spacing" textLength="110" x="27" y="409.062">localTime : number</text><ellipse cx="18" cy="418.6563" rx="3" ry="3" style="stroke:#038048;stroke-width:1.0;fill:none;"/><text fill="#000000" font-family="sans-serif" font-size="11" lengthAdjust="spacing" textLength="130" x="27" y="421.8667">playbackRate : number</text><ellipse cx="18" cy="431.4609" rx="3" ry="3" style="stroke:#038048;stroke-width:1.0;fill:none;"/><text fill="#000000" font-family="sans-serif" font-size="11" lengthAdjust="spacing" textLength="108" x="27" y="434.6714">progress : number</text><ellipse cx="18" cy="444.2656" rx="3" ry="3" style="stroke:#038048;stroke-width:1.0;fill:none;"/><text fill="#000000" font-family="sans-serif" font-size="11" lengthAdjust="spacing" textLength="111" x="27" y="447.4761">startTime : number</text><!--MD5=[146b9f88ef9aaac7b235d05ab0b497cf]
class EffectTiming--><rect codeLine="21" fill="#FEFECE" filter="url(#f1cip37h10bfrm)" height="155.2422" id="EffectTiming" style="stroke:#A80036;stroke-width:1.5;" width="186" x="7" y="7"/><ellipse cx="57.75" cy="23" fill="#B4A7E5" rx="11" ry="11" style="stroke:#A80036;stroke-width:1.0;"/><path d="M53.6719,18.7656 L53.6719,16.6094 L61.0625,16.6094 L61.0625,18.7656 L58.5938,18.7656 L58.5938,26.8438 L61.0625,26.8438 L61.0625,29 L53.6719,29 L53.6719,26.8438 L56.1406,26.8438 L56.1406,18.7656 L53.6719,18.7656 Z " fill="#000000"/><text fill="#000000" font-family="sans-serif" font-size="12" font-style="italic" lengthAdjust="spacing" textLength="76" x="78.25" y="27.1543">EffectTiming</text><line style="stroke:#A80036;stroke-width:1.5;" x1="8" x2="192" y1="39" y2="39"/><ellipse cx="18" cy="50" rx="3" ry="3" style="stroke:#038048;stroke-width:1.0;fill:none;"/><text fill="#000000" font-family="sans-serif" font-size="11" lengthAdjust="spacing" textLength="86" x="27" y="53.2104">delay : number</text><ellipse cx="18" cy="62.8047" rx="3" ry="3" style="stroke:#038048;stroke-width:1.0;fill:none;"/><text fill="#000000" font-family="sans-serif" font-size="11" lengthAdjust="spacing" textLength="160" x="27" y="66.0151">direction : PlaybackDirection</text><ellipse cx="18" cy="75.6094" rx="3" ry="3" style="stroke:#038048;stroke-width:1.0;fill:none;"/><text fill="#000000" font-family="sans-serif" font-size="11" lengthAdjust="spacing" textLength="148" x="27" y="78.8198">duration : string | number</text><ellipse cx="18" cy="88.4141" rx="3" ry="3" style="stroke:#038048;stroke-width:1.0;fill:none;"/><text fill="#000000" font-family="sans-serif" font-size="11" lengthAdjust="spacing" textLength="83" x="27" y="91.6245">easing : string</text><ellipse cx="18" cy="101.2188" rx="3" ry="3" style="stroke:#038048;stroke-width:1.0;fill:none;"/><text fill="#000000" font-family="sans-serif" font-size="11" lengthAdjust="spacing" textLength="108" x="27" y="104.4292">endDelay : number</text><ellipse cx="18" cy="114.0234" rx="3" ry="3" style="stroke:#038048;stroke-width:1.0;fill:none;"/><text fill="#000000" font-family="sans-serif" font-size="11" lengthAdjust="spacing" textLength="70" x="27" y="117.2339">fill : FillMode</text><ellipse cx="18" cy="126.8281" rx="3" ry="3" style="stroke:#038048;stroke-width:1.0;fill:none;"/><text fill="#000000" font-family="sans-serif" font-size="11" lengthAdjust="spacing" textLength="110" x="27" y="130.0386">iterations : number</text><ellipse cx="18" cy="139.6328" rx="3" ry="3" style="stroke:#038048;stroke-width:1.0;fill:none;"/><text fill="#000000" font-family="sans-serif" font-size="11" lengthAdjust="spacing" textLength="131" x="27" y="142.8433">iterationStart : number</text><ellipse cx="18" cy="152.4375" rx="3" ry="3" style="stroke:#038048;stroke-width:1.0;fill:none;"/><text fill="#000000" font-family="sans-serif" font-size="11" lengthAdjust="spacing" textLength="130" x="27" y="155.6479">playbackRate : number</text><!--MD5=[94afa15585294c30eec8dfbd13c1195c]
reverse link EffectTiming to ComputedEffectTiming--><path codeLine="32" d="M100,182.68 C100,195.48 100,208.69 100,221.75 " fill="none" id="EffectTiming-backto-ComputedEffectTiming" style="stroke:#A80036;stroke-width:1.0;"/><polygon fill="none" points="93,182.32,100,162.32,107,182.32,93,182.32" style="stroke:#A80036;stroke-width:1.0;"/><!--MD5=[31731917862e95f39b9fd1d8b7eb44af]
@startuml
skinparam BackgroundColor transparent
hide empty methods
hide empty fields
interface "ComputedEffectTiming" {
    +activeDuration : number
    +currentIteration : number
    +delay : number
    +direction : PlaybackDirection
    +duration : string | number
    +easing : string
    +endDelay : number
    +endTime : number
    +fill : FillMode
    +iterations : number
    +iterationStart : number
    +localTime : number
    +playbackRate : number
    +progress : number
    +startTime : number
}
interface "EffectTiming" {
    +delay : number
    +direction : PlaybackDirection
    +duration : string | number
    +easing : string
    +endDelay : number
    +fill : FillMode
    +iterations : number
    +iterationStart : number
    +playbackRate : number
}
"EffectTiming" <|- - "ComputedEffectTiming"
@enduml

PlantUML version 1.2021.14(Fri Nov 12 11:46:50 EST 2021)
(GPL source distribution)
Java Runtime: OpenJDK Runtime Environment
JVM: OpenJDK 64-Bit Server VM
Default Encoding: UTF-8
Language: en
Country: US
--></g></svg>