<?xml version="1.0" encoding="UTF-8" standalone="no"?><svg xmlns="http://www.w3.org/2000/svg" xmlns:xlink="http://www.w3.org/1999/xlink" contentScriptType="application/ecmascript" contentStyleType="text/css" height="288px" preserveAspectRatio="none" style="width:409px;height:288px;background:#00000000;" version="1.1" viewBox="0 0 409 288" width="409px" zoomAndPan="magnify"><defs><filter height="300%" id="f1feu0gnoaxxb7" width="300%" x="-1" y="-1"><feGaussianBlur result="blurOut" stdDeviation="2.0"/><feColorMatrix in="blurOut" result="blurOut2" type="matrix" values="0 0 0 0 0 0 0 0 0 0 0 0 0 0 0 0 0 0 .4 0"/><feOffset dx="4.0" dy="4.0" in="blurOut2" result="blurOut3"/><feBlend in="SourceGraphic" in2="blurOut3" mode="normal"/></filter></defs><g><!--MD5=[d826966ce43bcb536dc01429931aedd8]
class DeviceMotionEventInit--><rect codeLine="4" fill="#FEFECE" filter="url(#f1feu0gnoaxxb7)" height="129.6328" id="DeviceMotionEventInit" style="stroke:#A80036;stroke-width:1.5;" width="388" x="7" y="145"/><ellipse cx="127.75" cy="161" fill="#B4A7E5" rx="11" ry="11" style="stroke:#A80036;stroke-width:1.0;"/><path d="M123.6719,156.7656 L123.6719,154.6094 L131.0625,154.6094 L131.0625,156.7656 L128.5938,156.7656 L128.5938,164.8438 L131.0625,164.8438 L131.0625,167 L123.6719,167 L123.6719,164.8438 L126.1406,164.8438 L126.1406,156.7656 L123.6719,156.7656 Z " fill="#000000"/><text fill="#000000" font-family="sans-serif" font-size="12" font-style="italic" lengthAdjust="spacing" textLength="138" x="148.25" y="165.1543">DeviceMotionEventInit</text><line style="stroke:#A80036;stroke-width:1.5;" x1="8" x2="394" y1="177" y2="177"/><ellipse cx="18" cy="188" rx="3" ry="3" style="stroke:#038048;stroke-width:1.0;fill:none;"/><text fill="#000000" font-family="sans-serif" font-size="11" lengthAdjust="spacing" textLength="272" x="27" y="191.2104">acceleration : DeviceMotionEventAccelerationInit</text><ellipse cx="18" cy="200.8047" rx="3" ry="3" style="stroke:#038048;stroke-width:1.0;fill:none;"/><text fill="#000000" font-family="sans-serif" font-size="11" lengthAdjust="spacing" textLength="362" x="27" y="204.0151">accelerationIncludingGravity : DeviceMotionEventAccelerationInit</text><ellipse cx="18" cy="213.6094" rx="3" ry="3" style="stroke:#038048;stroke-width:1.0;fill:none;"/><text fill="#000000" font-family="sans-serif" font-size="11" lengthAdjust="spacing" textLength="102" x="27" y="216.8198">bubbles : boolean</text><ellipse cx="18" cy="226.4141" rx="3" ry="3" style="stroke:#038048;stroke-width:1.0;fill:none;"/><text fill="#000000" font-family="sans-serif" font-size="11" lengthAdjust="spacing" textLength="117" x="27" y="229.6245">cancelable : boolean</text><ellipse cx="18" cy="239.2188" rx="3" ry="3" style="stroke:#038048;stroke-width:1.0;fill:none;"/><text fill="#000000" font-family="sans-serif" font-size="11" lengthAdjust="spacing" textLength="116" x="27" y="242.4292">composed : boolean</text><ellipse cx="18" cy="252.0234" rx="3" ry="3" style="stroke:#038048;stroke-width:1.0;fill:none;"/><text fill="#000000" font-family="sans-serif" font-size="11" lengthAdjust="spacing" textLength="98" x="27" y="255.2339">interval : number</text><ellipse cx="18" cy="264.8281" rx="3" ry="3" style="stroke:#038048;stroke-width:1.0;fill:none;"/><text fill="#000000" font-family="sans-serif" font-size="11" lengthAdjust="spacing" textLength="274" x="27" y="268.0386">rotationRate : DeviceMotionEventRotationRateInit</text><!--MD5=[20555489c30bd85c28b7a7f2623ad986]
class EventInit--><rect codeLine="13" fill="#FEFECE" filter="url(#f1feu0gnoaxxb7)" height="78.4141" id="EventInit" style="stroke:#A80036;stroke-width:1.5;" width="143" x="129.5" y="7"/><ellipse cx="169.7" cy="23" fill="#B4A7E5" rx="11" ry="11" style="stroke:#A80036;stroke-width:1.0;"/><path d="M165.6219,18.7656 L165.6219,16.6094 L173.0125,16.6094 L173.0125,18.7656 L170.5438,18.7656 L170.5438,26.8438 L173.0125,26.8438 L173.0125,29 L165.6219,29 L165.6219,26.8438 L168.0906,26.8438 L168.0906,18.7656 L165.6219,18.7656 Z " fill="#000000"/><text fill="#000000" font-family="sans-serif" font-size="12" font-style="italic" lengthAdjust="spacing" textLength="55" x="189.3" y="27.1543">EventInit</text><line style="stroke:#A80036;stroke-width:1.5;" x1="130.5" x2="271.5" y1="39" y2="39"/><ellipse cx="140.5" cy="50" rx="3" ry="3" style="stroke:#038048;stroke-width:1.0;fill:none;"/><text fill="#000000" font-family="sans-serif" font-size="11" lengthAdjust="spacing" textLength="102" x="149.5" y="53.2104">bubbles : boolean</text><ellipse cx="140.5" cy="62.8047" rx="3" ry="3" style="stroke:#038048;stroke-width:1.0;fill:none;"/><text fill="#000000" font-family="sans-serif" font-size="11" lengthAdjust="spacing" textLength="117" x="149.5" y="66.0151">cancelable : boolean</text><ellipse cx="140.5" cy="75.6094" rx="3" ry="3" style="stroke:#038048;stroke-width:1.0;fill:none;"/><text fill="#000000" font-family="sans-serif" font-size="11" lengthAdjust="spacing" textLength="116" x="149.5" y="78.8198">composed : boolean</text><!--MD5=[ae52ee044691bf5c2078ab287de1abab]
reverse link EventInit to DeviceMotionEventInit--><path codeLine="18" d="M201,105.8 C201,118.51 201,132.01 201,144.92 " fill="none" id="EventInit-backto-DeviceMotionEventInit" style="stroke:#A80036;stroke-width:1.0;"/><polygon fill="none" points="194,105.39,201,85.39,208,105.39,194,105.39" style="stroke:#A80036;stroke-width:1.0;"/><!--MD5=[4c8576284da7176ead64cbfb2293d64d]
@startuml
skinparam BackgroundColor transparent
hide empty methods
hide empty fields
interface "DeviceMotionEventInit" {
    +acceleration : DeviceMotionEventAccelerationInit
    +accelerationIncludingGravity : DeviceMotionEventAccelerationInit
    +bubbles : boolean
    +cancelable : boolean
    +composed : boolean
    +interval : number
    +rotationRate : DeviceMotionEventRotationRateInit
}
interface "EventInit" {
    +bubbles : boolean
    +cancelable : boolean
    +composed : boolean
}
"EventInit" <|- - "DeviceMotionEventInit"
@enduml

PlantUML version 1.2021.14(Fri Nov 12 11:46:50 EST 2021)
(GPL source distribution)
Java Runtime: OpenJDK Runtime Environment
JVM: OpenJDK 64-Bit Server VM
Default Encoding: UTF-8
Language: en
Country: US
--></g></svg>