<?xml version="1.0" encoding="UTF-8" standalone="no"?><svg xmlns="http://www.w3.org/2000/svg" xmlns:xlink="http://www.w3.org/1999/xlink" contentScriptType="application/ecmascript" contentStyleType="text/css" height="609px" preserveAspectRatio="none" style="width:155px;height:609px;background:#00000000;" version="1.1" viewBox="0 0 155 609" width="155px" zoomAndPan="magnify"><defs><filter height="300%" id="fqrbho28d8pzv" width="300%" x="-1" y="-1"><feGaussianBlur result="blurOut" stdDeviation="2.0"/><feColorMatrix in="blurOut" result="blurOut2" type="matrix" values="0 0 0 0 0 0 0 0 0 0 0 0 0 0 0 0 0 0 .4 0"/><feOffset dx="4.0" dy="4.0" in="blurOut2" result="blurOut3"/><feBlend in="SourceGraphic" in2="blurOut3" mode="normal"/></filter></defs><g><!--MD5=[6ec4c76236613cd8a0ec6d4f9d9abccc]
class DOMMatrix2DInit--><rect codeLine="4" fill="#FEFECE" filter="url(#fqrbho28d8pzv)" height="193.6563" id="DOMMatrix2DInit" style="stroke:#A80036;stroke-width:1.5;" width="134" x="7" y="7"/><ellipse cx="22" cy="23" fill="#B4A7E5" rx="11" ry="11" style="stroke:#A80036;stroke-width:1.0;"/><path d="M17.9219,18.7656 L17.9219,16.6094 L25.3125,16.6094 L25.3125,18.7656 L22.8438,18.7656 L22.8438,26.8438 L25.3125,26.8438 L25.3125,29 L17.9219,29 L17.9219,26.8438 L20.3906,26.8438 L20.3906,18.7656 L17.9219,18.7656 Z " fill="#000000"/><text fill="#000000" font-family="sans-serif" font-size="12" font-style="italic" lengthAdjust="spacing" textLength="102" x="36" y="27.1543">DOMMatrix2DInit</text><line style="stroke:#A80036;stroke-width:1.5;" x1="8" x2="140" y1="39" y2="39"/><ellipse cx="18" cy="50" rx="3" ry="3" style="stroke:#038048;stroke-width:1.0;fill:none;"/><text fill="#000000" font-family="sans-serif" font-size="11" lengthAdjust="spacing" textLength="63" x="27" y="53.2104">a : number</text><ellipse cx="18" cy="62.8047" rx="3" ry="3" style="stroke:#038048;stroke-width:1.0;fill:none;"/><text fill="#000000" font-family="sans-serif" font-size="11" lengthAdjust="spacing" textLength="63" x="27" y="66.0151">b : number</text><ellipse cx="18" cy="75.6094" rx="3" ry="3" style="stroke:#038048;stroke-width:1.0;fill:none;"/><text fill="#000000" font-family="sans-serif" font-size="11" lengthAdjust="spacing" textLength="62" x="27" y="78.8198">c : number</text><ellipse cx="18" cy="88.4141" rx="3" ry="3" style="stroke:#038048;stroke-width:1.0;fill:none;"/><text fill="#000000" font-family="sans-serif" font-size="11" lengthAdjust="spacing" textLength="63" x="27" y="91.6245">d : number</text><ellipse cx="18" cy="101.2188" rx="3" ry="3" style="stroke:#038048;stroke-width:1.0;fill:none;"/><text fill="#000000" font-family="sans-serif" font-size="11" lengthAdjust="spacing" textLength="63" x="27" y="104.4292">e : number</text><ellipse cx="18" cy="114.0234" rx="3" ry="3" style="stroke:#038048;stroke-width:1.0;fill:none;"/><text fill="#000000" font-family="sans-serif" font-size="11" lengthAdjust="spacing" textLength="60" x="27" y="117.2339">f : number</text><ellipse cx="18" cy="126.8281" rx="3" ry="3" style="stroke:#038048;stroke-width:1.0;fill:none;"/><text fill="#000000" font-family="sans-serif" font-size="11" lengthAdjust="spacing" textLength="81" x="27" y="130.0386">m11 : number</text><ellipse cx="18" cy="139.6328" rx="3" ry="3" style="stroke:#038048;stroke-width:1.0;fill:none;"/><text fill="#000000" font-family="sans-serif" font-size="11" lengthAdjust="spacing" textLength="81" x="27" y="142.8433">m12 : number</text><ellipse cx="18" cy="152.4375" rx="3" ry="3" style="stroke:#038048;stroke-width:1.0;fill:none;"/><text fill="#000000" font-family="sans-serif" font-size="11" lengthAdjust="spacing" textLength="81" x="27" y="155.6479">m21 : number</text><ellipse cx="18" cy="165.2422" rx="3" ry="3" style="stroke:#038048;stroke-width:1.0;fill:none;"/><text fill="#000000" font-family="sans-serif" font-size="11" lengthAdjust="spacing" textLength="81" x="27" y="168.4526">m22 : number</text><ellipse cx="18" cy="178.0469" rx="3" ry="3" style="stroke:#038048;stroke-width:1.0;fill:none;"/><text fill="#000000" font-family="sans-serif" font-size="11" lengthAdjust="spacing" textLength="81" x="27" y="181.2573">m41 : number</text><ellipse cx="18" cy="190.8516" rx="3" ry="3" style="stroke:#038048;stroke-width:1.0;fill:none;"/><text fill="#000000" font-family="sans-serif" font-size="11" lengthAdjust="spacing" textLength="81" x="27" y="194.062">m42 : number</text><!--MD5=[b5d7ca1b21149c60e654e6a040a3b1df]
class DOMMatrixInit--><rect codeLine="18" fill="#FEFECE" filter="url(#fqrbho28d8pzv)" height="334.5078" id="DOMMatrixInit" style="stroke:#A80036;stroke-width:1.5;" width="117" x="15.5" y="261"/><ellipse cx="30.5" cy="277" fill="#B4A7E5" rx="11" ry="11" style="stroke:#A80036;stroke-width:1.0;"/><path d="M26.4219,272.7656 L26.4219,270.6094 L33.8125,270.6094 L33.8125,272.7656 L31.3438,272.7656 L31.3438,280.8438 L33.8125,280.8438 L33.8125,283 L26.4219,283 L26.4219,280.8438 L28.8906,280.8438 L28.8906,272.7656 L26.4219,272.7656 Z " fill="#000000"/><text fill="#000000" font-family="sans-serif" font-size="12" font-style="italic" lengthAdjust="spacing" textLength="85" x="44.5" y="281.1543">DOMMatrixInit</text><line style="stroke:#A80036;stroke-width:1.5;" x1="16.5" x2="131.5" y1="293" y2="293"/><ellipse cx="26.5" cy="304" rx="3" ry="3" style="stroke:#038048;stroke-width:1.0;fill:none;"/><text fill="#000000" font-family="sans-serif" font-size="11" lengthAdjust="spacing" textLength="63" x="35.5" y="307.2104">a : number</text><ellipse cx="26.5" cy="316.8047" rx="3" ry="3" style="stroke:#038048;stroke-width:1.0;fill:none;"/><text fill="#000000" font-family="sans-serif" font-size="11" lengthAdjust="spacing" textLength="63" x="35.5" y="320.0151">b : number</text><ellipse cx="26.5" cy="329.6094" rx="3" ry="3" style="stroke:#038048;stroke-width:1.0;fill:none;"/><text fill="#000000" font-family="sans-serif" font-size="11" lengthAdjust="spacing" textLength="62" x="35.5" y="332.8198">c : number</text><ellipse cx="26.5" cy="342.4141" rx="3" ry="3" style="stroke:#038048;stroke-width:1.0;fill:none;"/><text fill="#000000" font-family="sans-serif" font-size="11" lengthAdjust="spacing" textLength="63" x="35.5" y="345.6245">d : number</text><ellipse cx="26.5" cy="355.2188" rx="3" ry="3" style="stroke:#038048;stroke-width:1.0;fill:none;"/><text fill="#000000" font-family="sans-serif" font-size="11" lengthAdjust="spacing" textLength="63" x="35.5" y="358.4292">e : number</text><ellipse cx="26.5" cy="368.0234" rx="3" ry="3" style="stroke:#038048;stroke-width:1.0;fill:none;"/><text fill="#000000" font-family="sans-serif" font-size="11" lengthAdjust="spacing" textLength="60" x="35.5" y="371.2339">f : number</text><ellipse cx="26.5" cy="380.8281" rx="3" ry="3" style="stroke:#038048;stroke-width:1.0;fill:none;"/><text fill="#000000" font-family="sans-serif" font-size="11" lengthAdjust="spacing" textLength="82" x="35.5" y="384.0386">is2D : boolean</text><ellipse cx="26.5" cy="393.6328" rx="3" ry="3" style="stroke:#038048;stroke-width:1.0;fill:none;"/><text fill="#000000" font-family="sans-serif" font-size="11" lengthAdjust="spacing" textLength="81" x="35.5" y="396.8433">m11 : number</text><ellipse cx="26.5" cy="406.4375" rx="3" ry="3" style="stroke:#038048;stroke-width:1.0;fill:none;"/><text fill="#000000" font-family="sans-serif" font-size="11" lengthAdjust="spacing" textLength="81" x="35.5" y="409.6479">m12 : number</text><ellipse cx="26.5" cy="419.2422" rx="3" ry="3" style="stroke:#038048;stroke-width:1.0;fill:none;"/><text fill="#000000" font-family="sans-serif" font-size="11" lengthAdjust="spacing" textLength="81" x="35.5" y="422.4526">m13 : number</text><ellipse cx="26.5" cy="432.0469" rx="3" ry="3" style="stroke:#038048;stroke-width:1.0;fill:none;"/><text fill="#000000" font-family="sans-serif" font-size="11" lengthAdjust="spacing" textLength="81" x="35.5" y="435.2573">m14 : number</text><ellipse cx="26.5" cy="444.8516" rx="3" ry="3" style="stroke:#038048;stroke-width:1.0;fill:none;"/><text fill="#000000" font-family="sans-serif" font-size="11" lengthAdjust="spacing" textLength="81" x="35.5" y="448.062">m21 : number</text><ellipse cx="26.5" cy="457.6563" rx="3" ry="3" style="stroke:#038048;stroke-width:1.0;fill:none;"/><text fill="#000000" font-family="sans-serif" font-size="11" lengthAdjust="spacing" textLength="81" x="35.5" y="460.8667">m22 : number</text><ellipse cx="26.5" cy="470.4609" rx="3" ry="3" style="stroke:#038048;stroke-width:1.0;fill:none;"/><text fill="#000000" font-family="sans-serif" font-size="11" lengthAdjust="spacing" textLength="81" x="35.5" y="473.6714">m23 : number</text><ellipse cx="26.5" cy="483.2656" rx="3" ry="3" style="stroke:#038048;stroke-width:1.0;fill:none;"/><text fill="#000000" font-family="sans-serif" font-size="11" lengthAdjust="spacing" textLength="81" x="35.5" y="486.4761">m24 : number</text><ellipse cx="26.5" cy="496.0703" rx="3" ry="3" style="stroke:#038048;stroke-width:1.0;fill:none;"/><text fill="#000000" font-family="sans-serif" font-size="11" lengthAdjust="spacing" textLength="81" x="35.5" y="499.2808">m31 : number</text><ellipse cx="26.5" cy="508.875" rx="3" ry="3" style="stroke:#038048;stroke-width:1.0;fill:none;"/><text fill="#000000" font-family="sans-serif" font-size="11" lengthAdjust="spacing" textLength="81" x="35.5" y="512.0854">m32 : number</text><ellipse cx="26.5" cy="521.6797" rx="3" ry="3" style="stroke:#038048;stroke-width:1.0;fill:none;"/><text fill="#000000" font-family="sans-serif" font-size="11" lengthAdjust="spacing" textLength="81" x="35.5" y="524.8901">m33 : number</text><ellipse cx="26.5" cy="534.4844" rx="3" ry="3" style="stroke:#038048;stroke-width:1.0;fill:none;"/><text fill="#000000" font-family="sans-serif" font-size="11" lengthAdjust="spacing" textLength="81" x="35.5" y="537.6948">m34 : number</text><ellipse cx="26.5" cy="547.2891" rx="3" ry="3" style="stroke:#038048;stroke-width:1.0;fill:none;"/><text fill="#000000" font-family="sans-serif" font-size="11" lengthAdjust="spacing" textLength="81" x="35.5" y="550.4995">m41 : number</text><ellipse cx="26.5" cy="560.0938" rx="3" ry="3" style="stroke:#038048;stroke-width:1.0;fill:none;"/><text fill="#000000" font-family="sans-serif" font-size="11" lengthAdjust="spacing" textLength="81" x="35.5" y="563.3042">m42 : number</text><ellipse cx="26.5" cy="572.8984" rx="3" ry="3" style="stroke:#038048;stroke-width:1.0;fill:none;"/><text fill="#000000" font-family="sans-serif" font-size="11" lengthAdjust="spacing" textLength="81" x="35.5" y="576.1089">m43 : number</text><ellipse cx="26.5" cy="585.7031" rx="3" ry="3" style="stroke:#038048;stroke-width:1.0;fill:none;"/><text fill="#000000" font-family="sans-serif" font-size="11" lengthAdjust="spacing" textLength="81" x="35.5" y="588.9136">m44 : number</text><!--MD5=[1ec898de4f28ad5d3a4179ef2abddadf]
reverse link DOMMatrix2DInit to DOMMatrixInit--><path codeLine="43" d="M74,221.66 C74,234.42 74,247.58 74,260.8 " fill="none" id="DOMMatrix2DInit-backto-DOMMatrixInit" style="stroke:#A80036;stroke-width:1.0;"/><polygon fill="none" points="67,221.32,74,201.32,81,221.32,67,221.32" style="stroke:#A80036;stroke-width:1.0;"/><!--MD5=[954c90469addd5a8e94839bed6ec4a3b]
@startuml
skinparam BackgroundColor transparent
hide empty methods
hide empty fields
interface "DOMMatrix2DInit" {
    +a : number
    +b : number
    +c : number
    +d : number
    +e : number
    +f : number
    +m11 : number
    +m12 : number
    +m21 : number
    +m22 : number
    +m41 : number
    +m42 : number
}
interface "DOMMatrixInit" {
    +a : number
    +b : number
    +c : number
    +d : number
    +e : number
    +f : number
    +is2D : boolean
    +m11 : number
    +m12 : number
    +m13 : number
    +m14 : number
    +m21 : number
    +m22 : number
    +m23 : number
    +m24 : number
    +m31 : number
    +m32 : number
    +m33 : number
    +m34 : number
    +m41 : number
    +m42 : number
    +m43 : number
    +m44 : number
}
"DOMMatrix2DInit" <|- - "DOMMatrixInit"
@enduml

PlantUML version 1.2021.14(Fri Nov 12 11:46:50 EST 2021)
(GPL source distribution)
Java Runtime: OpenJDK Runtime Environment
JVM: OpenJDK 64-Bit Server VM
Default Encoding: UTF-8
Language: en
Country: US
--></g></svg>