<?xml version="1.0" encoding="UTF-8" standalone="no"?><svg xmlns="http://www.w3.org/2000/svg" xmlns:xlink="http://www.w3.org/1999/xlink" contentScriptType="application/ecmascript" contentStyleType="text/css" height="238px" preserveAspectRatio="none" style="width:196px;height:238px;background:#00000000;" version="1.1" viewBox="0 0 196 238" width="196px" zoomAndPan="magnify"><defs><filter height="300%" id="fryolgk3zca50" width="300%" x="-1" y="-1"><feGaussianBlur result="blurOut" stdDeviation="2.0"/><feColorMatrix in="blurOut" result="blurOut2" type="matrix" values="0 0 0 0 0 0 0 0 0 0 0 0 0 0 0 0 0 0 .4 0"/><feOffset dx="4.0" dy="4.0" in="blurOut2" result="blurOut3"/><feBlend in="SourceGraphic" in2="blurOut3" mode="normal"/></filter></defs><g><!--MD5=[247469296e71f8d7382a695158f27bab]
class DoubleRange--><rect codeLine="4" fill="#FEFECE" filter="url(#fryolgk3zca50)" height="65.6094" id="DoubleRange" style="stroke:#A80036;stroke-width:1.5;" width="116" x="36.5" y="7"/><ellipse cx="51.5" cy="23" fill="#B4A7E5" rx="11" ry="11" style="stroke:#A80036;stroke-width:1.0;"/><path d="M47.4219,18.7656 L47.4219,16.6094 L54.8125,16.6094 L54.8125,18.7656 L52.3438,18.7656 L52.3438,26.8438 L54.8125,26.8438 L54.8125,29 L47.4219,29 L47.4219,26.8438 L49.8906,26.8438 L49.8906,18.7656 L47.4219,18.7656 Z " fill="#000000"/><text fill="#000000" font-family="sans-serif" font-size="12" font-style="italic" lengthAdjust="spacing" textLength="84" x="65.5" y="27.1543">DoubleRange</text><line style="stroke:#A80036;stroke-width:1.5;" x1="37.5" x2="151.5" y1="39" y2="39"/><ellipse cx="47.5" cy="50" rx="3" ry="3" style="stroke:#038048;stroke-width:1.0;fill:none;"/><text fill="#000000" font-family="sans-serif" font-size="11" lengthAdjust="spacing" textLength="80" x="56.5" y="53.2104">max : number</text><ellipse cx="47.5" cy="62.8047" rx="3" ry="3" style="stroke:#038048;stroke-width:1.0;fill:none;"/><text fill="#000000" font-family="sans-serif" font-size="11" lengthAdjust="spacing" textLength="77" x="56.5" y="66.0151">min : number</text><!--MD5=[e89b9b785df0b4d5dc0d0e0a98910a49]
class ConstrainDoubleRange--><rect codeLine="8" fill="#FEFECE" filter="url(#fryolgk3zca50)" height="91.2188" id="ConstrainDoubleRange" style="stroke:#A80036;stroke-width:1.5;" width="175" x="7" y="133"/><ellipse cx="22" cy="149" fill="#B4A7E5" rx="11" ry="11" style="stroke:#A80036;stroke-width:1.0;"/><path d="M17.9219,144.7656 L17.9219,142.6094 L25.3125,142.6094 L25.3125,144.7656 L22.8438,144.7656 L22.8438,152.8438 L25.3125,152.8438 L25.3125,155 L17.9219,155 L17.9219,152.8438 L20.3906,152.8438 L20.3906,144.7656 L17.9219,144.7656 Z " fill="#000000"/><text fill="#000000" font-family="sans-serif" font-size="12" font-style="italic" lengthAdjust="spacing" textLength="143" x="36" y="153.1543">ConstrainDoubleRange</text><line style="stroke:#A80036;stroke-width:1.5;" x1="8" x2="181" y1="165" y2="165"/><ellipse cx="18" cy="176" rx="3" ry="3" style="stroke:#038048;stroke-width:1.0;fill:none;"/><text fill="#000000" font-family="sans-serif" font-size="11" lengthAdjust="spacing" textLength="86" x="27" y="179.2104">exact : number</text><ellipse cx="18" cy="188.8047" rx="3" ry="3" style="stroke:#038048;stroke-width:1.0;fill:none;"/><text fill="#000000" font-family="sans-serif" font-size="11" lengthAdjust="spacing" textLength="83" x="27" y="192.0151">ideal : number</text><ellipse cx="18" cy="201.6094" rx="3" ry="3" style="stroke:#038048;stroke-width:1.0;fill:none;"/><text fill="#000000" font-family="sans-serif" font-size="11" lengthAdjust="spacing" textLength="80" x="27" y="204.8198">max : number</text><ellipse cx="18" cy="214.4141" rx="3" ry="3" style="stroke:#038048;stroke-width:1.0;fill:none;"/><text fill="#000000" font-family="sans-serif" font-size="11" lengthAdjust="spacing" textLength="77" x="27" y="217.6245">min : number</text><!--MD5=[50bc382ec4600f000b9222ac07c66755]
reverse link DoubleRange to ConstrainDoubleRange--><path codeLine="14" d="M94.5,93.18 C94.5,106.23 94.5,120.12 94.5,132.78 " fill="none" id="DoubleRange-backto-ConstrainDoubleRange" style="stroke:#A80036;stroke-width:1.0;"/><polygon fill="none" points="87.5,93,94.5,73,101.5,93,87.5,93" style="stroke:#A80036;stroke-width:1.0;"/><!--MD5=[d26caa2639d5638680744ac437bcb6d8]
@startuml
skinparam BackgroundColor transparent
hide empty methods
hide empty fields
interface "DoubleRange" {
    +max : number
    +min : number
}
interface "ConstrainDoubleRange" {
    +exact : number
    +ideal : number
    +max : number
    +min : number
}
"DoubleRange" <|- - "ConstrainDoubleRange"
@enduml

PlantUML version 1.2021.14(Fri Nov 12 11:46:50 EST 2021)
(GPL source distribution)
Java Runtime: OpenJDK Runtime Environment
JVM: OpenJDK 64-Bit Server VM
Default Encoding: UTF-8
Language: en
Country: US
--></g></svg>