<?xml version="1.0" encoding="UTF-8" standalone="no"?><svg xmlns="http://www.w3.org/2000/svg" xmlns:xlink="http://www.w3.org/1999/xlink" contentScriptType="application/ecmascript" contentStyleType="text/css" height="468px" preserveAspectRatio="none" style="width:552px;height:468px;background:#00000000;" version="1.1" viewBox="0 0 552 468" width="552px" zoomAndPan="magnify"><defs><filter height="300%" id="fg5j4ilebc9l4" width="300%" x="-1" y="-1"><feGaussianBlur result="blurOut" stdDeviation="2.0"/><feColorMatrix in="blurOut" result="blurOut2" type="matrix" values="0 0 0 0 0 0 0 0 0 0 0 0 0 0 0 0 0 0 .4 0"/><feOffset dx="4.0" dy="4.0" in="blurOut2" result="blurOut3"/><feBlend in="SourceGraphic" in2="blurOut3" mode="normal"/></filter></defs><g><!--MD5=[146b9f88ef9aaac7b235d05ab0b497cf]
class EffectTiming--><rect codeLine="4" fill="#FEFECE" filter="url(#fg5j4ilebc9l4)" height="155.2422" id="EffectTiming" style="stroke:#A80036;stroke-width:1.5;" width="186" x="210" y="7"/><ellipse cx="260.75" cy="23" fill="#B4A7E5" rx="11" ry="11" style="stroke:#A80036;stroke-width:1.0;"/><path d="M256.6719,18.7656 L256.6719,16.6094 L264.0625,16.6094 L264.0625,18.7656 L261.5938,18.7656 L261.5938,26.8438 L264.0625,26.8438 L264.0625,29 L256.6719,29 L256.6719,26.8438 L259.1406,26.8438 L259.1406,18.7656 L256.6719,18.7656 Z " fill="#000000"/><text fill="#000000" font-family="sans-serif" font-size="12" font-style="italic" lengthAdjust="spacing" textLength="76" x="281.25" y="27.1543">EffectTiming</text><line style="stroke:#A80036;stroke-width:1.5;" x1="211" x2="395" y1="39" y2="39"/><ellipse cx="221" cy="50" rx="3" ry="3" style="stroke:#038048;stroke-width:1.0;fill:none;"/><text fill="#000000" font-family="sans-serif" font-size="11" lengthAdjust="spacing" textLength="86" x="230" y="53.2104">delay : number</text><ellipse cx="221" cy="62.8047" rx="3" ry="3" style="stroke:#038048;stroke-width:1.0;fill:none;"/><text fill="#000000" font-family="sans-serif" font-size="11" lengthAdjust="spacing" textLength="160" x="230" y="66.0151">direction : PlaybackDirection</text><ellipse cx="221" cy="75.6094" rx="3" ry="3" style="stroke:#038048;stroke-width:1.0;fill:none;"/><text fill="#000000" font-family="sans-serif" font-size="11" lengthAdjust="spacing" textLength="148" x="230" y="78.8198">duration : string | number</text><ellipse cx="221" cy="88.4141" rx="3" ry="3" style="stroke:#038048;stroke-width:1.0;fill:none;"/><text fill="#000000" font-family="sans-serif" font-size="11" lengthAdjust="spacing" textLength="83" x="230" y="91.6245">easing : string</text><ellipse cx="221" cy="101.2188" rx="3" ry="3" style="stroke:#038048;stroke-width:1.0;fill:none;"/><text fill="#000000" font-family="sans-serif" font-size="11" lengthAdjust="spacing" textLength="108" x="230" y="104.4292">endDelay : number</text><ellipse cx="221" cy="114.0234" rx="3" ry="3" style="stroke:#038048;stroke-width:1.0;fill:none;"/><text fill="#000000" font-family="sans-serif" font-size="11" lengthAdjust="spacing" textLength="70" x="230" y="117.2339">fill : FillMode</text><ellipse cx="221" cy="126.8281" rx="3" ry="3" style="stroke:#038048;stroke-width:1.0;fill:none;"/><text fill="#000000" font-family="sans-serif" font-size="11" lengthAdjust="spacing" textLength="110" x="230" y="130.0386">iterations : number</text><ellipse cx="221" cy="139.6328" rx="3" ry="3" style="stroke:#038048;stroke-width:1.0;fill:none;"/><text fill="#000000" font-family="sans-serif" font-size="11" lengthAdjust="spacing" textLength="131" x="230" y="142.8433">iterationStart : number</text><ellipse cx="221" cy="152.4375" rx="3" ry="3" style="stroke:#038048;stroke-width:1.0;fill:none;"/><text fill="#000000" font-family="sans-serif" font-size="11" lengthAdjust="spacing" textLength="130" x="230" y="155.6479">playbackRate : number</text><!--MD5=[bb78736a13e5c9dc4d4a47e289ee9893]
class KeyframeEffectOptions--><rect codeLine="15" fill="#FEFECE" filter="url(#fg5j4ilebc9l4)" height="193.6563" id="KeyframeEffectOptions" style="stroke:#A80036;stroke-width:1.5;" width="310" x="7" y="241"/><ellipse cx="87.25" cy="257" fill="#B4A7E5" rx="11" ry="11" style="stroke:#A80036;stroke-width:1.0;"/><path d="M83.1719,252.7656 L83.1719,250.6094 L90.5625,250.6094 L90.5625,252.7656 L88.0938,252.7656 L88.0938,260.8438 L90.5625,260.8438 L90.5625,263 L83.1719,263 L83.1719,260.8438 L85.6406,260.8438 L85.6406,252.7656 L83.1719,252.7656 Z " fill="#000000"/><text fill="#000000" font-family="sans-serif" font-size="12" font-style="italic" lengthAdjust="spacing" textLength="141" x="107.75" y="261.1543">KeyframeEffectOptions</text><line style="stroke:#A80036;stroke-width:1.5;" x1="8" x2="316" y1="273" y2="273"/><ellipse cx="18" cy="284" rx="3" ry="3" style="stroke:#038048;stroke-width:1.0;fill:none;"/><text fill="#000000" font-family="sans-serif" font-size="11" lengthAdjust="spacing" textLength="188" x="27" y="287.2104">composite : CompositeOperation</text><ellipse cx="18" cy="296.8047" rx="3" ry="3" style="stroke:#038048;stroke-width:1.0;fill:none;"/><text fill="#000000" font-family="sans-serif" font-size="11" lengthAdjust="spacing" textLength="86" x="27" y="300.0151">delay : number</text><ellipse cx="18" cy="309.6094" rx="3" ry="3" style="stroke:#038048;stroke-width:1.0;fill:none;"/><text fill="#000000" font-family="sans-serif" font-size="11" lengthAdjust="spacing" textLength="160" x="27" y="312.8198">direction : PlaybackDirection</text><ellipse cx="18" cy="322.4141" rx="3" ry="3" style="stroke:#038048;stroke-width:1.0;fill:none;"/><text fill="#000000" font-family="sans-serif" font-size="11" lengthAdjust="spacing" textLength="148" x="27" y="325.6245">duration : string | number</text><ellipse cx="18" cy="335.2188" rx="3" ry="3" style="stroke:#038048;stroke-width:1.0;fill:none;"/><text fill="#000000" font-family="sans-serif" font-size="11" lengthAdjust="spacing" textLength="83" x="27" y="338.4292">easing : string</text><ellipse cx="18" cy="348.0234" rx="3" ry="3" style="stroke:#038048;stroke-width:1.0;fill:none;"/><text fill="#000000" font-family="sans-serif" font-size="11" lengthAdjust="spacing" textLength="108" x="27" y="351.2339">endDelay : number</text><ellipse cx="18" cy="360.8281" rx="3" ry="3" style="stroke:#038048;stroke-width:1.0;fill:none;"/><text fill="#000000" font-family="sans-serif" font-size="11" lengthAdjust="spacing" textLength="70" x="27" y="364.0386">fill : FillMode</text><ellipse cx="18" cy="373.6328" rx="3" ry="3" style="stroke:#038048;stroke-width:1.0;fill:none;"/><text fill="#000000" font-family="sans-serif" font-size="11" lengthAdjust="spacing" textLength="284" x="27" y="376.8433">iterationComposite : IterationCompositeOperation</text><ellipse cx="18" cy="386.4375" rx="3" ry="3" style="stroke:#038048;stroke-width:1.0;fill:none;"/><text fill="#000000" font-family="sans-serif" font-size="11" lengthAdjust="spacing" textLength="110" x="27" y="389.6479">iterations : number</text><ellipse cx="18" cy="399.2422" rx="3" ry="3" style="stroke:#038048;stroke-width:1.0;fill:none;"/><text fill="#000000" font-family="sans-serif" font-size="11" lengthAdjust="spacing" textLength="131" x="27" y="402.4526">iterationStart : number</text><ellipse cx="18" cy="412.0469" rx="3" ry="3" style="stroke:#038048;stroke-width:1.0;fill:none;"/><text fill="#000000" font-family="sans-serif" font-size="11" lengthAdjust="spacing" textLength="130" x="27" y="415.2573">playbackRate : number</text><ellipse cx="18" cy="424.8516" rx="3" ry="3" style="stroke:#038048;stroke-width:1.0;fill:none;"/><text fill="#000000" font-family="sans-serif" font-size="11" lengthAdjust="spacing" textLength="133" x="27" y="428.062">pseudoElement : string</text><!--MD5=[1fa820b07667c5d739d95b6c02a4721a]
class ComputedEffectTiming--><rect codeLine="30" fill="#FEFECE" filter="url(#fg5j4ilebc9l4)" height="232.0703" id="ComputedEffectTiming" style="stroke:#A80036;stroke-width:1.5;" width="186" x="352" y="222"/><ellipse cx="373.3" cy="238" fill="#B4A7E5" rx="11" ry="11" style="stroke:#A80036;stroke-width:1.0;"/><path d="M369.2219,233.7656 L369.2219,231.6094 L376.6125,231.6094 L376.6125,233.7656 L374.1438,233.7656 L374.1438,241.8438 L376.6125,241.8438 L376.6125,244 L369.2219,244 L369.2219,241.8438 L371.6906,241.8438 L371.6906,233.7656 L369.2219,233.7656 Z " fill="#000000"/><text fill="#000000" font-family="sans-serif" font-size="12" font-style="italic" lengthAdjust="spacing" textLength="140" x="388.7" y="242.1543">ComputedEffectTiming</text><line style="stroke:#A80036;stroke-width:1.5;" x1="353" x2="537" y1="254" y2="254"/><ellipse cx="363" cy="265" rx="3" ry="3" style="stroke:#038048;stroke-width:1.0;fill:none;"/><text fill="#000000" font-family="sans-serif" font-size="11" lengthAdjust="spacing" textLength="137" x="372" y="268.2104">activeDuration : number</text><ellipse cx="363" cy="277.8047" rx="3" ry="3" style="stroke:#038048;stroke-width:1.0;fill:none;"/><text fill="#000000" font-family="sans-serif" font-size="11" lengthAdjust="spacing" textLength="144" x="372" y="281.0151">currentIteration : number</text><ellipse cx="363" cy="290.6094" rx="3" ry="3" style="stroke:#038048;stroke-width:1.0;fill:none;"/><text fill="#000000" font-family="sans-serif" font-size="11" lengthAdjust="spacing" textLength="86" x="372" y="293.8198">delay : number</text><ellipse cx="363" cy="303.4141" rx="3" ry="3" style="stroke:#038048;stroke-width:1.0;fill:none;"/><text fill="#000000" font-family="sans-serif" font-size="11" lengthAdjust="spacing" textLength="160" x="372" y="306.6245">direction : PlaybackDirection</text><ellipse cx="363" cy="316.2188" rx="3" ry="3" style="stroke:#038048;stroke-width:1.0;fill:none;"/><text fill="#000000" font-family="sans-serif" font-size="11" lengthAdjust="spacing" textLength="148" x="372" y="319.4292">duration : string | number</text><ellipse cx="363" cy="329.0234" rx="3" ry="3" style="stroke:#038048;stroke-width:1.0;fill:none;"/><text fill="#000000" font-family="sans-serif" font-size="11" lengthAdjust="spacing" textLength="83" x="372" y="332.2339">easing : string</text><ellipse cx="363" cy="341.8281" rx="3" ry="3" style="stroke:#038048;stroke-width:1.0;fill:none;"/><text fill="#000000" font-family="sans-serif" font-size="11" lengthAdjust="spacing" textLength="108" x="372" y="345.0386">endDelay : number</text><ellipse cx="363" cy="354.6328" rx="3" ry="3" style="stroke:#038048;stroke-width:1.0;fill:none;"/><text fill="#000000" font-family="sans-serif" font-size="11" lengthAdjust="spacing" textLength="105" x="372" y="357.8433">endTime : number</text><ellipse cx="363" cy="367.4375" rx="3" ry="3" style="stroke:#038048;stroke-width:1.0;fill:none;"/><text fill="#000000" font-family="sans-serif" font-size="11" lengthAdjust="spacing" textLength="70" x="372" y="370.6479">fill : FillMode</text><ellipse cx="363" cy="380.2422" rx="3" ry="3" style="stroke:#038048;stroke-width:1.0;fill:none;"/><text fill="#000000" font-family="sans-serif" font-size="11" lengthAdjust="spacing" textLength="110" x="372" y="383.4526">iterations : number</text><ellipse cx="363" cy="393.0469" rx="3" ry="3" style="stroke:#038048;stroke-width:1.0;fill:none;"/><text fill="#000000" font-family="sans-serif" font-size="11" lengthAdjust="spacing" textLength="131" x="372" y="396.2573">iterationStart : number</text><ellipse cx="363" cy="405.8516" rx="3" ry="3" style="stroke:#038048;stroke-width:1.0;fill:none;"/><text fill="#000000" font-family="sans-serif" font-size="11" lengthAdjust="spacing" textLength="110" x="372" y="409.062">localTime : number</text><ellipse cx="363" cy="418.6563" rx="3" ry="3" style="stroke:#038048;stroke-width:1.0;fill:none;"/><text fill="#000000" font-family="sans-serif" font-size="11" lengthAdjust="spacing" textLength="130" x="372" y="421.8667">playbackRate : number</text><ellipse cx="363" cy="431.4609" rx="3" ry="3" style="stroke:#038048;stroke-width:1.0;fill:none;"/><text fill="#000000" font-family="sans-serif" font-size="11" lengthAdjust="spacing" textLength="108" x="372" y="434.6714">progress : number</text><ellipse cx="363" cy="444.2656" rx="3" ry="3" style="stroke:#038048;stroke-width:1.0;fill:none;"/><text fill="#000000" font-family="sans-serif" font-size="11" lengthAdjust="spacing" textLength="111" x="372" y="447.4761">startTime : number</text><!--MD5=[3862148f686153b81f284d34e39a2624]
reverse link EffectTiming to KeyframeEffectOptions--><path codeLine="29" d="M250.12,179.82 C238.98,199.69 227.21,220.69 216.03,240.63 " fill="none" id="EffectTiming-backto-KeyframeEffectOptions" style="stroke:#A80036;stroke-width:1.0;"/><polygon fill="none" points="244.04,176.35,259.93,162.32,256.25,183.19,244.04,176.35" style="stroke:#A80036;stroke-width:1.0;"/><!--MD5=[94afa15585294c30eec8dfbd13c1195c]
reverse link EffectTiming to ComputedEffectTiming--><path codeLine="47" d="M356.31,179.91 C364.01,193.57 372.02,207.75 379.93,221.75 " fill="none" id="EffectTiming-backto-ComputedEffectTiming" style="stroke:#A80036;stroke-width:1.0;"/><polygon fill="none" points="350.11,183.18,346.38,162.32,362.3,176.3,350.11,183.18" style="stroke:#A80036;stroke-width:1.0;"/><!--MD5=[b426036f8ed0288e0b455d869441ecb6]
@startuml
skinparam BackgroundColor transparent
hide empty methods
hide empty fields
interface "EffectTiming" {
    +delay : number
    +direction : PlaybackDirection
    +duration : string | number
    +easing : string
    +endDelay : number
    +fill : FillMode
    +iterations : number
    +iterationStart : number
    +playbackRate : number
}
interface "KeyframeEffectOptions" {
    +composite : CompositeOperation
    +delay : number
    +direction : PlaybackDirection
    +duration : string | number
    +easing : string
    +endDelay : number
    +fill : FillMode
    +iterationComposite : IterationCompositeOperation
    +iterations : number
    +iterationStart : number
    +playbackRate : number
    +pseudoElement : string
}
"EffectTiming" <|- - "KeyframeEffectOptions"
interface "ComputedEffectTiming" {
    +activeDuration : number
    +currentIteration : number
    +delay : number
    +direction : PlaybackDirection
    +duration : string | number
    +easing : string
    +endDelay : number
    +endTime : number
    +fill : FillMode
    +iterations : number
    +iterationStart : number
    +localTime : number
    +playbackRate : number
    +progress : number
    +startTime : number
}
"EffectTiming" <|- - "ComputedEffectTiming"
@enduml

PlantUML version 1.2021.14(Fri Nov 12 11:46:50 EST 2021)
(GPL source distribution)
Java Runtime: OpenJDK Runtime Environment
JVM: OpenJDK 64-Bit Server VM
Default Encoding: UTF-8
Language: en
Country: US
--></g></svg>