<?xml version="1.0" encoding="UTF-8" standalone="no"?><svg xmlns="http://www.w3.org/2000/svg" xmlns:xlink="http://www.w3.org/1999/xlink" contentScriptType="application/ecmascript" contentStyleType="text/css" height="225px" preserveAspectRatio="none" style="width:208px;height:225px;background:#00000000;" version="1.1" viewBox="0 0 208 225" width="208px" zoomAndPan="magnify"><defs><filter height="300%" id="f1ct6siu15feew" width="300%" x="-1" y="-1"><feGaussianBlur result="blurOut" stdDeviation="2.0"/><feColorMatrix in="blurOut" result="blurOut2" type="matrix" values="0 0 0 0 0 0 0 0 0 0 0 0 0 0 0 0 0 0 .4 0"/><feOffset dx="4.0" dy="4.0" in="blurOut2" result="blurOut3"/><feBlend in="SourceGraphic" in2="blurOut3" mode="normal"/></filter></defs><g><!--MD5=[bf3431fe263717177ff4e066405b60fe]
class EventListenerOptions--><rect codeLine="4" fill="#FEFECE" filter="url(#f1ct6siu15feew)" height="52.8047" id="EventListenerOptions" style="stroke:#A80036;stroke-width:1.5;" width="163" x="19" y="7"/><ellipse cx="34" cy="23" fill="#B4A7E5" rx="11" ry="11" style="stroke:#A80036;stroke-width:1.0;"/><path d="M29.9219,18.7656 L29.9219,16.6094 L37.3125,16.6094 L37.3125,18.7656 L34.8438,18.7656 L34.8438,26.8438 L37.3125,26.8438 L37.3125,29 L29.9219,29 L29.9219,26.8438 L32.3906,26.8438 L32.3906,18.7656 L29.9219,18.7656 Z " fill="#000000"/><text fill="#000000" font-family="sans-serif" font-size="12" font-style="italic" lengthAdjust="spacing" textLength="131" x="48" y="27.1543">EventListenerOptions</text><line style="stroke:#A80036;stroke-width:1.5;" x1="20" x2="181" y1="39" y2="39"/><ellipse cx="30" cy="50" rx="3" ry="3" style="stroke:#038048;stroke-width:1.0;fill:none;"/><text fill="#000000" font-family="sans-serif" font-size="11" lengthAdjust="spacing" textLength="100" x="39" y="53.2104">capture : boolean</text><!--MD5=[d14cd0541f9c6d49f8e3cd7b531e14bc]
class AddEventListenerOptions--><rect codeLine="7" fill="#FEFECE" filter="url(#f1ct6siu15feew)" height="91.2188" id="AddEventListenerOptions" style="stroke:#A80036;stroke-width:1.5;" width="187" x="7" y="120"/><ellipse cx="22" cy="136" fill="#B4A7E5" rx="11" ry="11" style="stroke:#A80036;stroke-width:1.0;"/><path d="M17.9219,131.7656 L17.9219,129.6094 L25.3125,129.6094 L25.3125,131.7656 L22.8438,131.7656 L22.8438,139.8438 L25.3125,139.8438 L25.3125,142 L17.9219,142 L17.9219,139.8438 L20.3906,139.8438 L20.3906,131.7656 L17.9219,131.7656 Z " fill="#000000"/><text fill="#000000" font-family="sans-serif" font-size="12" font-style="italic" lengthAdjust="spacing" textLength="155" x="36" y="140.1543">AddEventListenerOptions</text><line style="stroke:#A80036;stroke-width:1.5;" x1="8" x2="193" y1="152" y2="152"/><ellipse cx="18" cy="163" rx="3" ry="3" style="stroke:#038048;stroke-width:1.0;fill:none;"/><text fill="#000000" font-family="sans-serif" font-size="11" lengthAdjust="spacing" textLength="100" x="27" y="166.2104">capture : boolean</text><ellipse cx="18" cy="175.8047" rx="3" ry="3" style="stroke:#038048;stroke-width:1.0;fill:none;"/><text fill="#000000" font-family="sans-serif" font-size="11" lengthAdjust="spacing" textLength="84" x="27" y="179.0151">once : boolean</text><ellipse cx="18" cy="188.6094" rx="3" ry="3" style="stroke:#038048;stroke-width:1.0;fill:none;"/><text fill="#000000" font-family="sans-serif" font-size="11" lengthAdjust="spacing" textLength="101" x="27" y="191.8198">passive : boolean</text><ellipse cx="18" cy="201.4141" rx="3" ry="3" style="stroke:#038048;stroke-width:1.0;fill:none;"/><text fill="#000000" font-family="sans-serif" font-size="11" lengthAdjust="spacing" textLength="111" x="27" y="204.6245">signal : AbortSignal</text><!--MD5=[d58f7275f382067941da2b7f9a05d372]
reverse link EventListenerOptions to AddEventListenerOptions--><path codeLine="13" d="M100.5,80.36 C100.5,93.21 100.5,107.14 100.5,119.91 " fill="none" id="EventListenerOptions-backto-AddEventListenerOptions" style="stroke:#A80036;stroke-width:1.0;"/><polygon fill="none" points="93.5,80.18,100.5,60.18,107.5,80.18,93.5,80.18" style="stroke:#A80036;stroke-width:1.0;"/><!--MD5=[899b901842221caebd9586f9a310c264]
@startuml
skinparam BackgroundColor transparent
hide empty methods
hide empty fields
interface "EventListenerOptions" {
    +capture : boolean
}
interface "AddEventListenerOptions" {
    +capture : boolean
    +once : boolean
    +passive : boolean
    +signal : AbortSignal
}
"EventListenerOptions" <|- - "AddEventListenerOptions"
@enduml

PlantUML version 1.2021.14(Fri Nov 12 11:46:50 EST 2021)
(GPL source distribution)
Java Runtime: OpenJDK Runtime Environment
JVM: OpenJDK 64-Bit Server VM
Default Encoding: UTF-8
Language: en
Country: US
--></g></svg>