<?xml version="1.0" encoding="UTF-8" standalone="no"?><svg xmlns="http://www.w3.org/2000/svg" xmlns:xlink="http://www.w3.org/1999/xlink" contentScriptType="application/ecmascript" contentStyleType="text/css" height="965px" preserveAspectRatio="none" style="width:682px;height:965px;background:#00000000;" version="1.1" viewBox="0 0 682 965" width="682px" zoomAndPan="magnify"><defs><filter height="300%" id="f2j0w69b0rba2" width="300%" x="-1" y="-1"><feGaussianBlur result="blurOut" stdDeviation="2.0"/><feColorMatrix in="blurOut" result="blurOut2" type="matrix" values="0 0 0 0 0 0 0 0 0 0 0 0 0 0 0 0 0 0 .4 0"/><feOffset dx="4.0" dy="4.0" in="blurOut2" result="blurOut3"/><feBlend in="SourceGraphic" in2="blurOut3" mode="normal"/></filter></defs><g><!--MD5=[cb992c4c9da536943c5cc4e40d034335]
class EventModifierInit--><rect codeLine="4" fill="#FEFECE" filter="url(#f2j0w69b0rba2)" height="296.0938" id="EventModifierInit" style="stroke:#A80036;stroke-width:1.5;" width="197" x="239" y="184"/><ellipse cx="281.45" cy="200" fill="#B4A7E5" rx="11" ry="11" style="stroke:#A80036;stroke-width:1.0;"/><path d="M277.3719,195.7656 L277.3719,193.6094 L284.7625,193.6094 L284.7625,195.7656 L282.2938,195.7656 L282.2938,203.8438 L284.7625,203.8438 L284.7625,206 L277.3719,206 L277.3719,203.8438 L279.8406,203.8438 L279.8406,195.7656 L277.3719,195.7656 Z " fill="#000000"/><text fill="#000000" font-family="sans-serif" font-size="12" font-style="italic" lengthAdjust="spacing" textLength="104" x="301.55" y="204.1543">EventModifierInit</text><line style="stroke:#A80036;stroke-width:1.5;" x1="240" x2="435" y1="216" y2="216"/><ellipse cx="250" cy="227" rx="3" ry="3" style="stroke:#038048;stroke-width:1.0;fill:none;"/><text fill="#000000" font-family="sans-serif" font-size="11" lengthAdjust="spacing" textLength="91" x="259" y="230.2104">altKey : boolean</text><ellipse cx="250" cy="239.8047" rx="3" ry="3" style="stroke:#038048;stroke-width:1.0;fill:none;"/><text fill="#000000" font-family="sans-serif" font-size="11" lengthAdjust="spacing" textLength="102" x="259" y="243.0151">bubbles : boolean</text><ellipse cx="250" cy="252.6094" rx="3" ry="3" style="stroke:#038048;stroke-width:1.0;fill:none;"/><text fill="#000000" font-family="sans-serif" font-size="11" lengthAdjust="spacing" textLength="117" x="259" y="255.8198">cancelable : boolean</text><ellipse cx="250" cy="265.4141" rx="3" ry="3" style="stroke:#038048;stroke-width:1.0;fill:none;"/><text fill="#000000" font-family="sans-serif" font-size="11" lengthAdjust="spacing" textLength="116" x="259" y="268.6245">composed : boolean</text><ellipse cx="250" cy="278.2188" rx="3" ry="3" style="stroke:#038048;stroke-width:1.0;fill:none;"/><text fill="#000000" font-family="sans-serif" font-size="11" lengthAdjust="spacing" textLength="95" x="259" y="281.4292">ctrlKey : boolean</text><ellipse cx="250" cy="291.0234" rx="3" ry="3" style="stroke:#038048;stroke-width:1.0;fill:none;"/><text fill="#000000" font-family="sans-serif" font-size="11" lengthAdjust="spacing" textLength="87" x="259" y="294.2339">detail : number</text><ellipse cx="250" cy="303.8281" rx="3" ry="3" style="stroke:#038048;stroke-width:1.0;fill:none;"/><text fill="#000000" font-family="sans-serif" font-size="11" lengthAdjust="spacing" textLength="106" x="259" y="307.0386">metaKey : boolean</text><ellipse cx="250" cy="316.6328" rx="3" ry="3" style="stroke:#038048;stroke-width:1.0;fill:none;"/><text fill="#000000" font-family="sans-serif" font-size="11" lengthAdjust="spacing" textLength="153" x="259" y="319.8433">modifierAltGraph : boolean</text><ellipse cx="250" cy="329.4375" rx="3" ry="3" style="stroke:#038048;stroke-width:1.0;fill:none;"/><text fill="#000000" font-family="sans-serif" font-size="11" lengthAdjust="spacing" textLength="158" x="259" y="332.6479">modifierCapsLock : boolean</text><ellipse cx="250" cy="342.2422" rx="3" ry="3" style="stroke:#038048;stroke-width:1.0;fill:none;"/><text fill="#000000" font-family="sans-serif" font-size="11" lengthAdjust="spacing" textLength="117" x="259" y="345.4526">modifierFn : boolean</text><ellipse cx="250" cy="355.0469" rx="3" ry="3" style="stroke:#038048;stroke-width:1.0;fill:none;"/><text fill="#000000" font-family="sans-serif" font-size="11" lengthAdjust="spacing" textLength="142" x="259" y="358.2573">modifierFnLock : boolean</text><ellipse cx="250" cy="367.8516" rx="3" ry="3" style="stroke:#038048;stroke-width:1.0;fill:none;"/><text fill="#000000" font-family="sans-serif" font-size="11" lengthAdjust="spacing" textLength="137" x="259" y="371.062">modifierHyper : boolean</text><ellipse cx="250" cy="380.6563" rx="3" ry="3" style="stroke:#038048;stroke-width:1.0;fill:none;"/><text fill="#000000" font-family="sans-serif" font-size="11" lengthAdjust="spacing" textLength="155" x="259" y="383.8667">modifierNumLock : boolean</text><ellipse cx="250" cy="393.4609" rx="3" ry="3" style="stroke:#038048;stroke-width:1.0;fill:none;"/><text fill="#000000" font-family="sans-serif" font-size="11" lengthAdjust="spacing" textLength="161" x="259" y="396.6714">modifierScrollLock : boolean</text><ellipse cx="250" cy="406.2656" rx="3" ry="3" style="stroke:#038048;stroke-width:1.0;fill:none;"/><text fill="#000000" font-family="sans-serif" font-size="11" lengthAdjust="spacing" textLength="138" x="259" y="409.4761">modifierSuper : boolean</text><ellipse cx="250" cy="419.0703" rx="3" ry="3" style="stroke:#038048;stroke-width:1.0;fill:none;"/><text fill="#000000" font-family="sans-serif" font-size="11" lengthAdjust="spacing" textLength="146" x="259" y="422.2808">modifierSymbol : boolean</text><ellipse cx="250" cy="431.875" rx="3" ry="3" style="stroke:#038048;stroke-width:1.0;fill:none;"/><text fill="#000000" font-family="sans-serif" font-size="11" lengthAdjust="spacing" textLength="171" x="259" y="435.0854">modifierSymbolLock : boolean</text><ellipse cx="250" cy="444.6797" rx="3" ry="3" style="stroke:#038048;stroke-width:1.0;fill:none;"/><text fill="#000000" font-family="sans-serif" font-size="11" lengthAdjust="spacing" textLength="102" x="259" y="447.8901">shiftKey : boolean</text><ellipse cx="250" cy="457.4844" rx="3" ry="3" style="stroke:#038048;stroke-width:1.0;fill:none;"/><text fill="#000000" font-family="sans-serif" font-size="11" lengthAdjust="spacing" textLength="79" x="259" y="460.6948">view : Window</text><ellipse cx="250" cy="470.2891" rx="3" ry="3" style="stroke:#038048;stroke-width:1.0;fill:none;"/><text fill="#000000" font-family="sans-serif" font-size="11" lengthAdjust="spacing" textLength="88" x="259" y="473.4995">which : number</text><!--MD5=[5cfeb049f90d37bb0972815418e92227]
class UIEventInit--><rect codeLine="26" fill="#FEFECE" filter="url(#f2j0w69b0rba2)" height="116.8281" id="UIEventInit" style="stroke:#A80036;stroke-width:1.5;" width="143" x="266" y="7"/><ellipse cx="300.35" cy="23" fill="#B4A7E5" rx="11" ry="11" style="stroke:#A80036;stroke-width:1.0;"/><path d="M296.2719,18.7656 L296.2719,16.6094 L303.6625,16.6094 L303.6625,18.7656 L301.1938,18.7656 L301.1938,26.8438 L303.6625,26.8438 L303.6625,29 L296.2719,29 L296.2719,26.8438 L298.7406,26.8438 L298.7406,18.7656 L296.2719,18.7656 Z " fill="#000000"/><text fill="#000000" font-family="sans-serif" font-size="12" font-style="italic" lengthAdjust="spacing" textLength="68" x="318.65" y="27.1543">UIEventInit</text><line style="stroke:#A80036;stroke-width:1.5;" x1="267" x2="408" y1="39" y2="39"/><ellipse cx="277" cy="50" rx="3" ry="3" style="stroke:#038048;stroke-width:1.0;fill:none;"/><text fill="#000000" font-family="sans-serif" font-size="11" lengthAdjust="spacing" textLength="102" x="286" y="53.2104">bubbles : boolean</text><ellipse cx="277" cy="62.8047" rx="3" ry="3" style="stroke:#038048;stroke-width:1.0;fill:none;"/><text fill="#000000" font-family="sans-serif" font-size="11" lengthAdjust="spacing" textLength="117" x="286" y="66.0151">cancelable : boolean</text><ellipse cx="277" cy="75.6094" rx="3" ry="3" style="stroke:#038048;stroke-width:1.0;fill:none;"/><text fill="#000000" font-family="sans-serif" font-size="11" lengthAdjust="spacing" textLength="116" x="286" y="78.8198">composed : boolean</text><ellipse cx="277" cy="88.4141" rx="3" ry="3" style="stroke:#038048;stroke-width:1.0;fill:none;"/><text fill="#000000" font-family="sans-serif" font-size="11" lengthAdjust="spacing" textLength="87" x="286" y="91.6245">detail : number</text><ellipse cx="277" cy="101.2188" rx="3" ry="3" style="stroke:#038048;stroke-width:1.0;fill:none;"/><text fill="#000000" font-family="sans-serif" font-size="11" lengthAdjust="spacing" textLength="79" x="286" y="104.4292">view : Window</text><ellipse cx="277" cy="114.0234" rx="3" ry="3" style="stroke:#038048;stroke-width:1.0;fill:none;"/><text fill="#000000" font-family="sans-serif" font-size="11" lengthAdjust="spacing" textLength="88" x="286" y="117.2339">which : number</text><!--MD5=[c7a91e7e8f9b828259e05718b61a5f0e]
class MouseEventInit--><rect codeLine="35" fill="#FEFECE" filter="url(#f2j0w69b0rba2)" height="411.3359" id="MouseEventInit" style="stroke:#A80036;stroke-width:1.5;" width="197" x="7" y="540"/><ellipse cx="53.75" cy="556" fill="#B4A7E5" rx="11" ry="11" style="stroke:#A80036;stroke-width:1.0;"/><path d="M49.6719,551.7656 L49.6719,549.6094 L57.0625,549.6094 L57.0625,551.7656 L54.5938,551.7656 L54.5938,559.8438 L57.0625,559.8438 L57.0625,562 L49.6719,562 L49.6719,559.8438 L52.1406,559.8438 L52.1406,551.7656 L49.6719,551.7656 Z " fill="#000000"/><text fill="#000000" font-family="sans-serif" font-size="12" font-style="italic" lengthAdjust="spacing" textLength="95" x="74.25" y="560.1543">MouseEventInit</text><line style="stroke:#A80036;stroke-width:1.5;" x1="8" x2="203" y1="572" y2="572"/><ellipse cx="18" cy="583" rx="3" ry="3" style="stroke:#038048;stroke-width:1.0;fill:none;"/><text fill="#000000" font-family="sans-serif" font-size="11" lengthAdjust="spacing" textLength="91" x="27" y="586.2104">altKey : boolean</text><ellipse cx="18" cy="595.8047" rx="3" ry="3" style="stroke:#038048;stroke-width:1.0;fill:none;"/><text fill="#000000" font-family="sans-serif" font-size="11" lengthAdjust="spacing" textLength="102" x="27" y="599.0151">bubbles : boolean</text><ellipse cx="18" cy="608.6094" rx="3" ry="3" style="stroke:#038048;stroke-width:1.0;fill:none;"/><text fill="#000000" font-family="sans-serif" font-size="11" lengthAdjust="spacing" textLength="92" x="27" y="611.8198">button : number</text><ellipse cx="18" cy="621.4141" rx="3" ry="3" style="stroke:#038048;stroke-width:1.0;fill:none;"/><text fill="#000000" font-family="sans-serif" font-size="11" lengthAdjust="spacing" textLength="99" x="27" y="624.6245">buttons : number</text><ellipse cx="18" cy="634.2188" rx="3" ry="3" style="stroke:#038048;stroke-width:1.0;fill:none;"/><text fill="#000000" font-family="sans-serif" font-size="11" lengthAdjust="spacing" textLength="117" x="27" y="637.4292">cancelable : boolean</text><ellipse cx="18" cy="647.0234" rx="3" ry="3" style="stroke:#038048;stroke-width:1.0;fill:none;"/><text fill="#000000" font-family="sans-serif" font-size="11" lengthAdjust="spacing" textLength="93" x="27" y="650.2339">clientX : number</text><ellipse cx="18" cy="659.8281" rx="3" ry="3" style="stroke:#038048;stroke-width:1.0;fill:none;"/><text fill="#000000" font-family="sans-serif" font-size="11" lengthAdjust="spacing" textLength="93" x="27" y="663.0386">clientY : number</text><ellipse cx="18" cy="672.6328" rx="3" ry="3" style="stroke:#038048;stroke-width:1.0;fill:none;"/><text fill="#000000" font-family="sans-serif" font-size="11" lengthAdjust="spacing" textLength="116" x="27" y="675.8433">composed : boolean</text><ellipse cx="18" cy="685.4375" rx="3" ry="3" style="stroke:#038048;stroke-width:1.0;fill:none;"/><text fill="#000000" font-family="sans-serif" font-size="11" lengthAdjust="spacing" textLength="95" x="27" y="688.6479">ctrlKey : boolean</text><ellipse cx="18" cy="698.2422" rx="3" ry="3" style="stroke:#038048;stroke-width:1.0;fill:none;"/><text fill="#000000" font-family="sans-serif" font-size="11" lengthAdjust="spacing" textLength="87" x="27" y="701.4526">detail : number</text><ellipse cx="18" cy="711.0469" rx="3" ry="3" style="stroke:#038048;stroke-width:1.0;fill:none;"/><text fill="#000000" font-family="sans-serif" font-size="11" lengthAdjust="spacing" textLength="106" x="27" y="714.2573">metaKey : boolean</text><ellipse cx="18" cy="723.8516" rx="3" ry="3" style="stroke:#038048;stroke-width:1.0;fill:none;"/><text fill="#000000" font-family="sans-serif" font-size="11" lengthAdjust="spacing" textLength="153" x="27" y="727.062">modifierAltGraph : boolean</text><ellipse cx="18" cy="736.6563" rx="3" ry="3" style="stroke:#038048;stroke-width:1.0;fill:none;"/><text fill="#000000" font-family="sans-serif" font-size="11" lengthAdjust="spacing" textLength="158" x="27" y="739.8667">modifierCapsLock : boolean</text><ellipse cx="18" cy="749.4609" rx="3" ry="3" style="stroke:#038048;stroke-width:1.0;fill:none;"/><text fill="#000000" font-family="sans-serif" font-size="11" lengthAdjust="spacing" textLength="117" x="27" y="752.6714">modifierFn : boolean</text><ellipse cx="18" cy="762.2656" rx="3" ry="3" style="stroke:#038048;stroke-width:1.0;fill:none;"/><text fill="#000000" font-family="sans-serif" font-size="11" lengthAdjust="spacing" textLength="142" x="27" y="765.4761">modifierFnLock : boolean</text><ellipse cx="18" cy="775.0703" rx="3" ry="3" style="stroke:#038048;stroke-width:1.0;fill:none;"/><text fill="#000000" font-family="sans-serif" font-size="11" lengthAdjust="spacing" textLength="137" x="27" y="778.2808">modifierHyper : boolean</text><ellipse cx="18" cy="787.875" rx="3" ry="3" style="stroke:#038048;stroke-width:1.0;fill:none;"/><text fill="#000000" font-family="sans-serif" font-size="11" lengthAdjust="spacing" textLength="155" x="27" y="791.0854">modifierNumLock : boolean</text><ellipse cx="18" cy="800.6797" rx="3" ry="3" style="stroke:#038048;stroke-width:1.0;fill:none;"/><text fill="#000000" font-family="sans-serif" font-size="11" lengthAdjust="spacing" textLength="161" x="27" y="803.8901">modifierScrollLock : boolean</text><ellipse cx="18" cy="813.4844" rx="3" ry="3" style="stroke:#038048;stroke-width:1.0;fill:none;"/><text fill="#000000" font-family="sans-serif" font-size="11" lengthAdjust="spacing" textLength="138" x="27" y="816.6948">modifierSuper : boolean</text><ellipse cx="18" cy="826.2891" rx="3" ry="3" style="stroke:#038048;stroke-width:1.0;fill:none;"/><text fill="#000000" font-family="sans-serif" font-size="11" lengthAdjust="spacing" textLength="146" x="27" y="829.4995">modifierSymbol : boolean</text><ellipse cx="18" cy="839.0938" rx="3" ry="3" style="stroke:#038048;stroke-width:1.0;fill:none;"/><text fill="#000000" font-family="sans-serif" font-size="11" lengthAdjust="spacing" textLength="171" x="27" y="842.3042">modifierSymbolLock : boolean</text><ellipse cx="18" cy="851.8984" rx="3" ry="3" style="stroke:#038048;stroke-width:1.0;fill:none;"/><text fill="#000000" font-family="sans-serif" font-size="11" lengthAdjust="spacing" textLength="123" x="27" y="855.1089">movementX : number</text><ellipse cx="18" cy="864.7031" rx="3" ry="3" style="stroke:#038048;stroke-width:1.0;fill:none;"/><text fill="#000000" font-family="sans-serif" font-size="11" lengthAdjust="spacing" textLength="123" x="27" y="867.9136">movementY : number</text><ellipse cx="18" cy="877.5078" rx="3" ry="3" style="stroke:#038048;stroke-width:1.0;fill:none;"/><text fill="#000000" font-family="sans-serif" font-size="11" lengthAdjust="spacing" textLength="157" x="27" y="880.7183">relatedTarget : EventTarget</text><ellipse cx="18" cy="890.3125" rx="3" ry="3" style="stroke:#038048;stroke-width:1.0;fill:none;"/><text fill="#000000" font-family="sans-serif" font-size="11" lengthAdjust="spacing" textLength="102" x="27" y="893.5229">screenX : number</text><ellipse cx="18" cy="903.1172" rx="3" ry="3" style="stroke:#038048;stroke-width:1.0;fill:none;"/><text fill="#000000" font-family="sans-serif" font-size="11" lengthAdjust="spacing" textLength="102" x="27" y="906.3276">screenY : number</text><ellipse cx="18" cy="915.9219" rx="3" ry="3" style="stroke:#038048;stroke-width:1.0;fill:none;"/><text fill="#000000" font-family="sans-serif" font-size="11" lengthAdjust="spacing" textLength="102" x="27" y="919.1323">shiftKey : boolean</text><ellipse cx="18" cy="928.7266" rx="3" ry="3" style="stroke:#038048;stroke-width:1.0;fill:none;"/><text fill="#000000" font-family="sans-serif" font-size="11" lengthAdjust="spacing" textLength="79" x="27" y="931.937">view : Window</text><ellipse cx="18" cy="941.5313" rx="3" ry="3" style="stroke:#038048;stroke-width:1.0;fill:none;"/><text fill="#000000" font-family="sans-serif" font-size="11" lengthAdjust="spacing" textLength="88" x="27" y="944.7417">which : number</text><!--MD5=[ae1cfd6c4422994fd5b834bf03dccca7]
class KeyboardEventInit--><rect codeLine="67" fill="#FEFECE" filter="url(#f2j0w69b0rba2)" height="385.7266" id="KeyboardEventInit" style="stroke:#A80036;stroke-width:1.5;" width="197" x="239" y="552.5"/><ellipse cx="276.5" cy="568.5" fill="#B4A7E5" rx="11" ry="11" style="stroke:#A80036;stroke-width:1.0;"/><path d="M272.4219,564.2656 L272.4219,562.1094 L279.8125,562.1094 L279.8125,564.2656 L277.3438,564.2656 L277.3438,572.3438 L279.8125,572.3438 L279.8125,574.5 L272.4219,574.5 L272.4219,572.3438 L274.8906,572.3438 L274.8906,564.2656 L272.4219,564.2656 Z " fill="#000000"/><text fill="#000000" font-family="sans-serif" font-size="12" font-style="italic" lengthAdjust="spacing" textLength="115" x="295.5" y="572.6543">KeyboardEventInit</text><line style="stroke:#A80036;stroke-width:1.5;" x1="240" x2="435" y1="584.5" y2="584.5"/><ellipse cx="250" cy="595.5" rx="3" ry="3" style="stroke:#038048;stroke-width:1.0;fill:none;"/><text fill="#000000" font-family="sans-serif" font-size="11" lengthAdjust="spacing" textLength="91" x="259" y="598.7104">altKey : boolean</text><ellipse cx="250" cy="608.3047" rx="3" ry="3" style="stroke:#038048;stroke-width:1.0;fill:none;"/><text fill="#000000" font-family="sans-serif" font-size="11" lengthAdjust="spacing" textLength="102" x="259" y="611.5151">bubbles : boolean</text><ellipse cx="250" cy="621.1094" rx="3" ry="3" style="stroke:#038048;stroke-width:1.0;fill:none;"/><text fill="#000000" font-family="sans-serif" font-size="11" lengthAdjust="spacing" textLength="117" x="259" y="624.3198">cancelable : boolean</text><ellipse cx="250" cy="633.9141" rx="3" ry="3" style="stroke:#038048;stroke-width:1.0;fill:none;"/><text fill="#000000" font-family="sans-serif" font-size="11" lengthAdjust="spacing" textLength="110" x="259" y="637.1245">charCode : number</text><ellipse cx="250" cy="646.7188" rx="3" ry="3" style="stroke:#038048;stroke-width:1.0;fill:none;"/><text fill="#000000" font-family="sans-serif" font-size="11" lengthAdjust="spacing" textLength="72" x="259" y="649.9292">code : string</text><ellipse cx="250" cy="659.5234" rx="3" ry="3" style="stroke:#038048;stroke-width:1.0;fill:none;"/><text fill="#000000" font-family="sans-serif" font-size="11" lengthAdjust="spacing" textLength="116" x="259" y="662.7339">composed : boolean</text><ellipse cx="250" cy="672.3281" rx="3" ry="3" style="stroke:#038048;stroke-width:1.0;fill:none;"/><text fill="#000000" font-family="sans-serif" font-size="11" lengthAdjust="spacing" textLength="95" x="259" y="675.5386">ctrlKey : boolean</text><ellipse cx="250" cy="685.1328" rx="3" ry="3" style="stroke:#038048;stroke-width:1.0;fill:none;"/><text fill="#000000" font-family="sans-serif" font-size="11" lengthAdjust="spacing" textLength="87" x="259" y="688.3433">detail : number</text><ellipse cx="250" cy="697.9375" rx="3" ry="3" style="stroke:#038048;stroke-width:1.0;fill:none;"/><text fill="#000000" font-family="sans-serif" font-size="11" lengthAdjust="spacing" textLength="131" x="259" y="701.1479">isComposing : boolean</text><ellipse cx="250" cy="710.7422" rx="3" ry="3" style="stroke:#038048;stroke-width:1.0;fill:none;"/><text fill="#000000" font-family="sans-serif" font-size="11" lengthAdjust="spacing" textLength="64" x="259" y="713.9526">key : string</text><ellipse cx="250" cy="723.5469" rx="3" ry="3" style="stroke:#038048;stroke-width:1.0;fill:none;"/><text fill="#000000" font-family="sans-serif" font-size="11" lengthAdjust="spacing" textLength="104" x="259" y="726.7573">keyCode : number</text><ellipse cx="250" cy="736.3516" rx="3" ry="3" style="stroke:#038048;stroke-width:1.0;fill:none;"/><text fill="#000000" font-family="sans-serif" font-size="11" lengthAdjust="spacing" textLength="100" x="259" y="739.562">location : number</text><ellipse cx="250" cy="749.1563" rx="3" ry="3" style="stroke:#038048;stroke-width:1.0;fill:none;"/><text fill="#000000" font-family="sans-serif" font-size="11" lengthAdjust="spacing" textLength="106" x="259" y="752.3667">metaKey : boolean</text><ellipse cx="250" cy="761.9609" rx="3" ry="3" style="stroke:#038048;stroke-width:1.0;fill:none;"/><text fill="#000000" font-family="sans-serif" font-size="11" lengthAdjust="spacing" textLength="153" x="259" y="765.1714">modifierAltGraph : boolean</text><ellipse cx="250" cy="774.7656" rx="3" ry="3" style="stroke:#038048;stroke-width:1.0;fill:none;"/><text fill="#000000" font-family="sans-serif" font-size="11" lengthAdjust="spacing" textLength="158" x="259" y="777.9761">modifierCapsLock : boolean</text><ellipse cx="250" cy="787.5703" rx="3" ry="3" style="stroke:#038048;stroke-width:1.0;fill:none;"/><text fill="#000000" font-family="sans-serif" font-size="11" lengthAdjust="spacing" textLength="117" x="259" y="790.7808">modifierFn : boolean</text><ellipse cx="250" cy="800.375" rx="3" ry="3" style="stroke:#038048;stroke-width:1.0;fill:none;"/><text fill="#000000" font-family="sans-serif" font-size="11" lengthAdjust="spacing" textLength="142" x="259" y="803.5854">modifierFnLock : boolean</text><ellipse cx="250" cy="813.1797" rx="3" ry="3" style="stroke:#038048;stroke-width:1.0;fill:none;"/><text fill="#000000" font-family="sans-serif" font-size="11" lengthAdjust="spacing" textLength="137" x="259" y="816.3901">modifierHyper : boolean</text><ellipse cx="250" cy="825.9844" rx="3" ry="3" style="stroke:#038048;stroke-width:1.0;fill:none;"/><text fill="#000000" font-family="sans-serif" font-size="11" lengthAdjust="spacing" textLength="155" x="259" y="829.1948">modifierNumLock : boolean</text><ellipse cx="250" cy="838.7891" rx="3" ry="3" style="stroke:#038048;stroke-width:1.0;fill:none;"/><text fill="#000000" font-family="sans-serif" font-size="11" lengthAdjust="spacing" textLength="161" x="259" y="841.9995">modifierScrollLock : boolean</text><ellipse cx="250" cy="851.5938" rx="3" ry="3" style="stroke:#038048;stroke-width:1.0;fill:none;"/><text fill="#000000" font-family="sans-serif" font-size="11" lengthAdjust="spacing" textLength="138" x="259" y="854.8042">modifierSuper : boolean</text><ellipse cx="250" cy="864.3984" rx="3" ry="3" style="stroke:#038048;stroke-width:1.0;fill:none;"/><text fill="#000000" font-family="sans-serif" font-size="11" lengthAdjust="spacing" textLength="146" x="259" y="867.6089">modifierSymbol : boolean</text><ellipse cx="250" cy="877.2031" rx="3" ry="3" style="stroke:#038048;stroke-width:1.0;fill:none;"/><text fill="#000000" font-family="sans-serif" font-size="11" lengthAdjust="spacing" textLength="171" x="259" y="880.4136">modifierSymbolLock : boolean</text><ellipse cx="250" cy="890.0078" rx="3" ry="3" style="stroke:#038048;stroke-width:1.0;fill:none;"/><text fill="#000000" font-family="sans-serif" font-size="11" lengthAdjust="spacing" textLength="94" x="259" y="893.2183">repeat : boolean</text><ellipse cx="250" cy="902.8125" rx="3" ry="3" style="stroke:#038048;stroke-width:1.0;fill:none;"/><text fill="#000000" font-family="sans-serif" font-size="11" lengthAdjust="spacing" textLength="102" x="259" y="906.0229">shiftKey : boolean</text><ellipse cx="250" cy="915.6172" rx="3" ry="3" style="stroke:#038048;stroke-width:1.0;fill:none;"/><text fill="#000000" font-family="sans-serif" font-size="11" lengthAdjust="spacing" textLength="79" x="259" y="918.8276">view : Window</text><ellipse cx="250" cy="928.4219" rx="3" ry="3" style="stroke:#038048;stroke-width:1.0;fill:none;"/><text fill="#000000" font-family="sans-serif" font-size="11" lengthAdjust="spacing" textLength="88" x="259" y="931.6323">which : number</text><!--MD5=[8efe11e5f2dce00294874722305ca975]
class TouchEventInit--><rect codeLine="97" fill="#FEFECE" filter="url(#f2j0w69b0rba2)" height="334.5078" id="TouchEventInit" style="stroke:#A80036;stroke-width:1.5;" width="197" x="471" y="578"/><ellipse cx="518.75" cy="594" fill="#B4A7E5" rx="11" ry="11" style="stroke:#A80036;stroke-width:1.0;"/><path d="M514.6719,589.7656 L514.6719,587.6094 L522.0625,587.6094 L522.0625,589.7656 L519.5938,589.7656 L519.5938,597.8438 L522.0625,597.8438 L522.0625,600 L514.6719,600 L514.6719,597.8438 L517.1406,597.8438 L517.1406,589.7656 L514.6719,589.7656 Z " fill="#000000"/><text fill="#000000" font-family="sans-serif" font-size="12" font-style="italic" lengthAdjust="spacing" textLength="93" x="539.25" y="598.1543">TouchEventInit</text><line style="stroke:#A80036;stroke-width:1.5;" x1="472" x2="667" y1="610" y2="610"/><ellipse cx="482" cy="621" rx="3" ry="3" style="stroke:#038048;stroke-width:1.0;fill:none;"/><text fill="#000000" font-family="sans-serif" font-size="11" lengthAdjust="spacing" textLength="91" x="491" y="624.2104">altKey : boolean</text><ellipse cx="482" cy="633.8047" rx="3" ry="3" style="stroke:#038048;stroke-width:1.0;fill:none;"/><text fill="#000000" font-family="sans-serif" font-size="11" lengthAdjust="spacing" textLength="102" x="491" y="637.0151">bubbles : boolean</text><ellipse cx="482" cy="646.6094" rx="3" ry="3" style="stroke:#038048;stroke-width:1.0;fill:none;"/><text fill="#000000" font-family="sans-serif" font-size="11" lengthAdjust="spacing" textLength="117" x="491" y="649.8198">cancelable : boolean</text><ellipse cx="482" cy="659.4141" rx="3" ry="3" style="stroke:#038048;stroke-width:1.0;fill:none;"/><text fill="#000000" font-family="sans-serif" font-size="11" lengthAdjust="spacing" textLength="150" x="491" y="662.6245">changedTouches : Touch[]</text><ellipse cx="482" cy="672.2188" rx="3" ry="3" style="stroke:#038048;stroke-width:1.0;fill:none;"/><text fill="#000000" font-family="sans-serif" font-size="11" lengthAdjust="spacing" textLength="116" x="491" y="675.4292">composed : boolean</text><ellipse cx="482" cy="685.0234" rx="3" ry="3" style="stroke:#038048;stroke-width:1.0;fill:none;"/><text fill="#000000" font-family="sans-serif" font-size="11" lengthAdjust="spacing" textLength="95" x="491" y="688.2339">ctrlKey : boolean</text><ellipse cx="482" cy="697.8281" rx="3" ry="3" style="stroke:#038048;stroke-width:1.0;fill:none;"/><text fill="#000000" font-family="sans-serif" font-size="11" lengthAdjust="spacing" textLength="87" x="491" y="701.0386">detail : number</text><ellipse cx="482" cy="710.6328" rx="3" ry="3" style="stroke:#038048;stroke-width:1.0;fill:none;"/><text fill="#000000" font-family="sans-serif" font-size="11" lengthAdjust="spacing" textLength="106" x="491" y="713.8433">metaKey : boolean</text><ellipse cx="482" cy="723.4375" rx="3" ry="3" style="stroke:#038048;stroke-width:1.0;fill:none;"/><text fill="#000000" font-family="sans-serif" font-size="11" lengthAdjust="spacing" textLength="153" x="491" y="726.6479">modifierAltGraph : boolean</text><ellipse cx="482" cy="736.2422" rx="3" ry="3" style="stroke:#038048;stroke-width:1.0;fill:none;"/><text fill="#000000" font-family="sans-serif" font-size="11" lengthAdjust="spacing" textLength="158" x="491" y="739.4526">modifierCapsLock : boolean</text><ellipse cx="482" cy="749.0469" rx="3" ry="3" style="stroke:#038048;stroke-width:1.0;fill:none;"/><text fill="#000000" font-family="sans-serif" font-size="11" lengthAdjust="spacing" textLength="117" x="491" y="752.2573">modifierFn : boolean</text><ellipse cx="482" cy="761.8516" rx="3" ry="3" style="stroke:#038048;stroke-width:1.0;fill:none;"/><text fill="#000000" font-family="sans-serif" font-size="11" lengthAdjust="spacing" textLength="142" x="491" y="765.062">modifierFnLock : boolean</text><ellipse cx="482" cy="774.6563" rx="3" ry="3" style="stroke:#038048;stroke-width:1.0;fill:none;"/><text fill="#000000" font-family="sans-serif" font-size="11" lengthAdjust="spacing" textLength="137" x="491" y="777.8667">modifierHyper : boolean</text><ellipse cx="482" cy="787.4609" rx="3" ry="3" style="stroke:#038048;stroke-width:1.0;fill:none;"/><text fill="#000000" font-family="sans-serif" font-size="11" lengthAdjust="spacing" textLength="155" x="491" y="790.6714">modifierNumLock : boolean</text><ellipse cx="482" cy="800.2656" rx="3" ry="3" style="stroke:#038048;stroke-width:1.0;fill:none;"/><text fill="#000000" font-family="sans-serif" font-size="11" lengthAdjust="spacing" textLength="161" x="491" y="803.4761">modifierScrollLock : boolean</text><ellipse cx="482" cy="813.0703" rx="3" ry="3" style="stroke:#038048;stroke-width:1.0;fill:none;"/><text fill="#000000" font-family="sans-serif" font-size="11" lengthAdjust="spacing" textLength="138" x="491" y="816.2808">modifierSuper : boolean</text><ellipse cx="482" cy="825.875" rx="3" ry="3" style="stroke:#038048;stroke-width:1.0;fill:none;"/><text fill="#000000" font-family="sans-serif" font-size="11" lengthAdjust="spacing" textLength="146" x="491" y="829.0854">modifierSymbol : boolean</text><ellipse cx="482" cy="838.6797" rx="3" ry="3" style="stroke:#038048;stroke-width:1.0;fill:none;"/><text fill="#000000" font-family="sans-serif" font-size="11" lengthAdjust="spacing" textLength="171" x="491" y="841.8901">modifierSymbolLock : boolean</text><ellipse cx="482" cy="851.4844" rx="3" ry="3" style="stroke:#038048;stroke-width:1.0;fill:none;"/><text fill="#000000" font-family="sans-serif" font-size="11" lengthAdjust="spacing" textLength="102" x="491" y="854.6948">shiftKey : boolean</text><ellipse cx="482" cy="864.2891" rx="3" ry="3" style="stroke:#038048;stroke-width:1.0;fill:none;"/><text fill="#000000" font-family="sans-serif" font-size="11" lengthAdjust="spacing" textLength="136" x="491" y="867.4995">targetTouches : Touch[]</text><ellipse cx="482" cy="877.0938" rx="3" ry="3" style="stroke:#038048;stroke-width:1.0;fill:none;"/><text fill="#000000" font-family="sans-serif" font-size="11" lengthAdjust="spacing" textLength="99" x="491" y="880.3042">touches : Touch[]</text><ellipse cx="482" cy="889.8984" rx="3" ry="3" style="stroke:#038048;stroke-width:1.0;fill:none;"/><text fill="#000000" font-family="sans-serif" font-size="11" lengthAdjust="spacing" textLength="79" x="491" y="893.1089">view : Window</text><ellipse cx="482" cy="902.7031" rx="3" ry="3" style="stroke:#038048;stroke-width:1.0;fill:none;"/><text fill="#000000" font-family="sans-serif" font-size="11" lengthAdjust="spacing" textLength="88" x="491" y="905.9136">which : number</text><!--MD5=[09ed7fd3915640c055397d37075b65e3]
reverse link UIEventInit to EventModifierInit--><path codeLine="34" d="M337.5,144.51 C337.5,157.07 337.5,170.41 337.5,183.97 " fill="none" id="UIEventInit-backto-EventModifierInit" style="stroke:#A80036;stroke-width:1.0;"/><polygon fill="none" points="330.5,144.22,337.5,124.22,344.5,144.22,330.5,144.22" style="stroke:#A80036;stroke-width:1.0;"/><!--MD5=[459d3036fe89a7db3299932ee67e4214]
reverse link EventModifierInit to MouseEventInit--><path codeLine="66" d="M244.7,497.59 C231.37,521.24 217.62,545.64 204.18,569.48 " fill="none" id="EventModifierInit-backto-MouseEventInit" style="stroke:#A80036;stroke-width:1.0;"/><polygon fill="none" points="238.64,494.09,254.56,480.11,250.84,500.97,238.64,494.09" style="stroke:#A80036;stroke-width:1.0;"/><!--MD5=[ba6cd01ab00afc3914ba55a73fb69cda]
reverse link EventModifierInit to KeyboardEventInit--><path codeLine="96" d="M337.5,500.38 C337.5,517.49 337.5,534.97 337.5,552.32 " fill="none" id="EventModifierInit-backto-KeyboardEventInit" style="stroke:#A80036;stroke-width:1.0;"/><polygon fill="none" points="330.5,500.11,337.5,480.11,344.5,500.11,330.5,500.11" style="stroke:#A80036;stroke-width:1.0;"/><!--MD5=[7caedcd3010662a9f0e9ebdadd84772a]
reverse link EventModifierInit to TouchEventInit--><path codeLine="122" d="M430.39,497.77 C445.29,524.18 460.71,551.53 475.62,577.99 " fill="none" id="EventModifierInit-backto-TouchEventInit" style="stroke:#A80036;stroke-width:1.0;"/><polygon fill="none" points="424.16,500.97,420.44,480.11,436.36,494.09,424.16,500.97" style="stroke:#A80036;stroke-width:1.0;"/><!--MD5=[a1f5b175660bfebb702af455f0eec6fe]
@startuml
skinparam BackgroundColor transparent
hide empty methods
hide empty fields
interface "EventModifierInit" {
    +altKey : boolean
    +bubbles : boolean
    +cancelable : boolean
    +composed : boolean
    +ctrlKey : boolean
    +detail : number
    +metaKey : boolean
    +modifierAltGraph : boolean
    +modifierCapsLock : boolean
    +modifierFn : boolean
    +modifierFnLock : boolean
    +modifierHyper : boolean
    +modifierNumLock : boolean
    +modifierScrollLock : boolean
    +modifierSuper : boolean
    +modifierSymbol : boolean
    +modifierSymbolLock : boolean
    +shiftKey : boolean
    +view : Window
    +which : number
}
interface "UIEventInit" {
    +bubbles : boolean
    +cancelable : boolean
    +composed : boolean
    +detail : number
    +view : Window
    +which : number
}
"UIEventInit" <|- - "EventModifierInit"
interface "MouseEventInit" {
    +altKey : boolean
    +bubbles : boolean
    +button : number
    +buttons : number
    +cancelable : boolean
    +clientX : number
    +clientY : number
    +composed : boolean
    +ctrlKey : boolean
    +detail : number
    +metaKey : boolean
    +modifierAltGraph : boolean
    +modifierCapsLock : boolean
    +modifierFn : boolean
    +modifierFnLock : boolean
    +modifierHyper : boolean
    +modifierNumLock : boolean
    +modifierScrollLock : boolean
    +modifierSuper : boolean
    +modifierSymbol : boolean
    +modifierSymbolLock : boolean
    +movementX : number
    +movementY : number
    +relatedTarget : EventTarget
    +screenX : number
    +screenY : number
    +shiftKey : boolean
    +view : Window
    +which : number
}
"EventModifierInit" <|- - "MouseEventInit"
interface "KeyboardEventInit" {
    +altKey : boolean
    +bubbles : boolean
    +cancelable : boolean
    +charCode : number
    +code : string
    +composed : boolean
    +ctrlKey : boolean
    +detail : number
    +isComposing : boolean
    +key : string
    +keyCode : number
    +location : number
    +metaKey : boolean
    +modifierAltGraph : boolean
    +modifierCapsLock : boolean
    +modifierFn : boolean
    +modifierFnLock : boolean
    +modifierHyper : boolean
    +modifierNumLock : boolean
    +modifierScrollLock : boolean
    +modifierSuper : boolean
    +modifierSymbol : boolean
    +modifierSymbolLock : boolean
    +repeat : boolean
    +shiftKey : boolean
    +view : Window
    +which : number
}
"EventModifierInit" <|- - "KeyboardEventInit"
interface "TouchEventInit" {
    +altKey : boolean
    +bubbles : boolean
    +cancelable : boolean
    +changedTouches : Touch[]
    +composed : boolean
    +ctrlKey : boolean
    +detail : number
    +metaKey : boolean
    +modifierAltGraph : boolean
    +modifierCapsLock : boolean
    +modifierFn : boolean
    +modifierFnLock : boolean
    +modifierHyper : boolean
    +modifierNumLock : boolean
    +modifierScrollLock : boolean
    +modifierSuper : boolean
    +modifierSymbol : boolean
    +modifierSymbolLock : boolean
    +shiftKey : boolean
    +targetTouches : Touch[]
    +touches : Touch[]
    +view : Window
    +which : number
}
"EventModifierInit" <|- - "TouchEventInit"
@enduml

PlantUML version 1.2021.14(Fri Nov 12 11:46:50 EST 2021)
(GPL source distribution)
Java Runtime: OpenJDK Runtime Environment
JVM: OpenJDK 64-Bit Server VM
Default Encoding: UTF-8
Language: en
Country: US
--></g></svg>