<?xml version="1.0" encoding="UTF-8" standalone="no"?><svg xmlns="http://www.w3.org/2000/svg" xmlns:xlink="http://www.w3.org/1999/xlink" contentScriptType="application/ecmascript" contentStyleType="text/css" height="327px" preserveAspectRatio="none" style="width:204px;height:327px;background:#00000000;" version="1.1" viewBox="0 0 204 327" width="204px" zoomAndPan="magnify"><defs><filter height="300%" id="f17f3hlmc89f19" width="300%" x="-1" y="-1"><feGaussianBlur result="blurOut" stdDeviation="2.0"/><feColorMatrix in="blurOut" result="blurOut2" type="matrix" values="0 0 0 0 0 0 0 0 0 0 0 0 0 0 0 0 0 0 .4 0"/><feOffset dx="4.0" dy="4.0" in="blurOut2" result="blurOut3"/><feBlend in="SourceGraphic" in2="blurOut3" mode="normal"/></filter></defs><g><!--MD5=[db135de8812d1fa8aab338e5d5b9245c]
class FocusEventInit--><rect codeLine="4" fill="#FEFECE" filter="url(#f17f3hlmc89f19)" height="129.6328" id="FocusEventInit" style="stroke:#A80036;stroke-width:1.5;" width="183" x="7" y="184"/><ellipse cx="49" cy="200" fill="#B4A7E5" rx="11" ry="11" style="stroke:#A80036;stroke-width:1.0;"/><path d="M44.9219,195.7656 L44.9219,193.6094 L52.3125,193.6094 L52.3125,195.7656 L49.8438,195.7656 L49.8438,203.8438 L52.3125,203.8438 L52.3125,206 L44.9219,206 L44.9219,203.8438 L47.3906,203.8438 L47.3906,195.7656 L44.9219,195.7656 Z " fill="#000000"/><text fill="#000000" font-family="sans-serif" font-size="12" font-style="italic" lengthAdjust="spacing" textLength="91" x="69" y="204.1543">FocusEventInit</text><line style="stroke:#A80036;stroke-width:1.5;" x1="8" x2="189" y1="216" y2="216"/><ellipse cx="18" cy="227" rx="3" ry="3" style="stroke:#038048;stroke-width:1.0;fill:none;"/><text fill="#000000" font-family="sans-serif" font-size="11" lengthAdjust="spacing" textLength="102" x="27" y="230.2104">bubbles : boolean</text><ellipse cx="18" cy="239.8047" rx="3" ry="3" style="stroke:#038048;stroke-width:1.0;fill:none;"/><text fill="#000000" font-family="sans-serif" font-size="11" lengthAdjust="spacing" textLength="117" x="27" y="243.0151">cancelable : boolean</text><ellipse cx="18" cy="252.6094" rx="3" ry="3" style="stroke:#038048;stroke-width:1.0;fill:none;"/><text fill="#000000" font-family="sans-serif" font-size="11" lengthAdjust="spacing" textLength="116" x="27" y="255.8198">composed : boolean</text><ellipse cx="18" cy="265.4141" rx="3" ry="3" style="stroke:#038048;stroke-width:1.0;fill:none;"/><text fill="#000000" font-family="sans-serif" font-size="11" lengthAdjust="spacing" textLength="87" x="27" y="268.6245">detail : number</text><ellipse cx="18" cy="278.2188" rx="3" ry="3" style="stroke:#038048;stroke-width:1.0;fill:none;"/><text fill="#000000" font-family="sans-serif" font-size="11" lengthAdjust="spacing" textLength="157" x="27" y="281.4292">relatedTarget : EventTarget</text><ellipse cx="18" cy="291.0234" rx="3" ry="3" style="stroke:#038048;stroke-width:1.0;fill:none;"/><text fill="#000000" font-family="sans-serif" font-size="11" lengthAdjust="spacing" textLength="79" x="27" y="294.2339">view : Window</text><ellipse cx="18" cy="303.8281" rx="3" ry="3" style="stroke:#038048;stroke-width:1.0;fill:none;"/><text fill="#000000" font-family="sans-serif" font-size="11" lengthAdjust="spacing" textLength="88" x="27" y="307.0386">which : number</text><!--MD5=[5cfeb049f90d37bb0972815418e92227]
class UIEventInit--><rect codeLine="13" fill="#FEFECE" filter="url(#f17f3hlmc89f19)" height="116.8281" id="UIEventInit" style="stroke:#A80036;stroke-width:1.5;" width="143" x="27" y="7"/><ellipse cx="61.35" cy="23" fill="#B4A7E5" rx="11" ry="11" style="stroke:#A80036;stroke-width:1.0;"/><path d="M57.2719,18.7656 L57.2719,16.6094 L64.6625,16.6094 L64.6625,18.7656 L62.1938,18.7656 L62.1938,26.8438 L64.6625,26.8438 L64.6625,29 L57.2719,29 L57.2719,26.8438 L59.7406,26.8438 L59.7406,18.7656 L57.2719,18.7656 Z " fill="#000000"/><text fill="#000000" font-family="sans-serif" font-size="12" font-style="italic" lengthAdjust="spacing" textLength="68" x="79.65" y="27.1543">UIEventInit</text><line style="stroke:#A80036;stroke-width:1.5;" x1="28" x2="169" y1="39" y2="39"/><ellipse cx="38" cy="50" rx="3" ry="3" style="stroke:#038048;stroke-width:1.0;fill:none;"/><text fill="#000000" font-family="sans-serif" font-size="11" lengthAdjust="spacing" textLength="102" x="47" y="53.2104">bubbles : boolean</text><ellipse cx="38" cy="62.8047" rx="3" ry="3" style="stroke:#038048;stroke-width:1.0;fill:none;"/><text fill="#000000" font-family="sans-serif" font-size="11" lengthAdjust="spacing" textLength="117" x="47" y="66.0151">cancelable : boolean</text><ellipse cx="38" cy="75.6094" rx="3" ry="3" style="stroke:#038048;stroke-width:1.0;fill:none;"/><text fill="#000000" font-family="sans-serif" font-size="11" lengthAdjust="spacing" textLength="116" x="47" y="78.8198">composed : boolean</text><ellipse cx="38" cy="88.4141" rx="3" ry="3" style="stroke:#038048;stroke-width:1.0;fill:none;"/><text fill="#000000" font-family="sans-serif" font-size="11" lengthAdjust="spacing" textLength="87" x="47" y="91.6245">detail : number</text><ellipse cx="38" cy="101.2188" rx="3" ry="3" style="stroke:#038048;stroke-width:1.0;fill:none;"/><text fill="#000000" font-family="sans-serif" font-size="11" lengthAdjust="spacing" textLength="79" x="47" y="104.4292">view : Window</text><ellipse cx="38" cy="114.0234" rx="3" ry="3" style="stroke:#038048;stroke-width:1.0;fill:none;"/><text fill="#000000" font-family="sans-serif" font-size="11" lengthAdjust="spacing" textLength="88" x="47" y="117.2339">which : number</text><!--MD5=[83902f51440d30a28657e0334f8402cc]
reverse link UIEventInit to FocusEventInit--><path codeLine="21" d="M98.5,144.4 C98.5,157.56 98.5,171.09 98.5,183.85 " fill="none" id="UIEventInit-backto-FocusEventInit" style="stroke:#A80036;stroke-width:1.0;"/><polygon fill="none" points="91.5,144.18,98.5,124.18,105.5,144.18,91.5,144.18" style="stroke:#A80036;stroke-width:1.0;"/><!--MD5=[1043ba3c7c9df9aef83a71d353bb2e30]
@startuml
skinparam BackgroundColor transparent
hide empty methods
hide empty fields
interface "FocusEventInit" {
    +bubbles : boolean
    +cancelable : boolean
    +composed : boolean
    +detail : number
    +relatedTarget : EventTarget
    +view : Window
    +which : number
}
interface "UIEventInit" {
    +bubbles : boolean
    +cancelable : boolean
    +composed : boolean
    +detail : number
    +view : Window
    +which : number
}
"UIEventInit" <|- - "FocusEventInit"
@enduml

PlantUML version 1.2021.14(Fri Nov 12 11:46:50 EST 2021)
(GPL source distribution)
Java Runtime: OpenJDK Runtime Environment
JVM: OpenJDK 64-Bit Server VM
Default Encoding: UTF-8
Language: en
Country: US
--></g></svg>