<?xml version="1.0" encoding="UTF-8" standalone="no"?><svg xmlns="http://www.w3.org/2000/svg" xmlns:xlink="http://www.w3.org/1999/xlink" contentScriptType="application/ecmascript" contentStyleType="text/css" height="263px" preserveAspectRatio="none" style="width:187px;height:263px;background:#00000000;" version="1.1" viewBox="0 0 187 263" width="187px" zoomAndPan="magnify"><defs><filter height="300%" id="f1mhibyfnt1l" width="300%" x="-1" y="-1"><feGaussianBlur result="blurOut" stdDeviation="2.0"/><feColorMatrix in="blurOut" result="blurOut2" type="matrix" values="0 0 0 0 0 0 0 0 0 0 0 0 0 0 0 0 0 0 .4 0"/><feOffset dx="4.0" dy="4.0" in="blurOut2" result="blurOut3"/><feBlend in="SourceGraphic" in2="blurOut3" mode="normal"/></filter></defs><g><!--MD5=[d986affe2beed219ab89050f5e106c05]
class HashChangeEventInit--><rect codeLine="4" fill="#FEFECE" filter="url(#f1mhibyfnt1l)" height="104.0234" id="HashChangeEventInit" style="stroke:#A80036;stroke-width:1.5;" width="166" x="7" y="145"/><ellipse cx="22" cy="161" fill="#B4A7E5" rx="11" ry="11" style="stroke:#A80036;stroke-width:1.0;"/><path d="M17.9219,156.7656 L17.9219,154.6094 L25.3125,154.6094 L25.3125,156.7656 L22.8438,156.7656 L22.8438,164.8438 L25.3125,164.8438 L25.3125,167 L17.9219,167 L17.9219,164.8438 L20.3906,164.8438 L20.3906,156.7656 L17.9219,156.7656 Z " fill="#000000"/><text fill="#000000" font-family="sans-serif" font-size="12" font-style="italic" lengthAdjust="spacing" textLength="134" x="36" y="165.1543">HashChangeEventInit</text><line style="stroke:#A80036;stroke-width:1.5;" x1="8" x2="172" y1="177" y2="177"/><ellipse cx="18" cy="188" rx="3" ry="3" style="stroke:#038048;stroke-width:1.0;fill:none;"/><text fill="#000000" font-family="sans-serif" font-size="11" lengthAdjust="spacing" textLength="102" x="27" y="191.2104">bubbles : boolean</text><ellipse cx="18" cy="200.8047" rx="3" ry="3" style="stroke:#038048;stroke-width:1.0;fill:none;"/><text fill="#000000" font-family="sans-serif" font-size="11" lengthAdjust="spacing" textLength="117" x="27" y="204.0151">cancelable : boolean</text><ellipse cx="18" cy="213.6094" rx="3" ry="3" style="stroke:#038048;stroke-width:1.0;fill:none;"/><text fill="#000000" font-family="sans-serif" font-size="11" lengthAdjust="spacing" textLength="116" x="27" y="216.8198">composed : boolean</text><ellipse cx="18" cy="226.4141" rx="3" ry="3" style="stroke:#038048;stroke-width:1.0;fill:none;"/><text fill="#000000" font-family="sans-serif" font-size="11" lengthAdjust="spacing" textLength="89" x="27" y="229.6245">newURL : string</text><ellipse cx="18" cy="239.2188" rx="3" ry="3" style="stroke:#038048;stroke-width:1.0;fill:none;"/><text fill="#000000" font-family="sans-serif" font-size="11" lengthAdjust="spacing" textLength="83" x="27" y="242.4292">oldURL : string</text><!--MD5=[20555489c30bd85c28b7a7f2623ad986]
class EventInit--><rect codeLine="11" fill="#FEFECE" filter="url(#f1mhibyfnt1l)" height="78.4141" id="EventInit" style="stroke:#A80036;stroke-width:1.5;" width="143" x="18.5" y="7"/><ellipse cx="58.7" cy="23" fill="#B4A7E5" rx="11" ry="11" style="stroke:#A80036;stroke-width:1.0;"/><path d="M54.6219,18.7656 L54.6219,16.6094 L62.0125,16.6094 L62.0125,18.7656 L59.5438,18.7656 L59.5438,26.8438 L62.0125,26.8438 L62.0125,29 L54.6219,29 L54.6219,26.8438 L57.0906,26.8438 L57.0906,18.7656 L54.6219,18.7656 Z " fill="#000000"/><text fill="#000000" font-family="sans-serif" font-size="12" font-style="italic" lengthAdjust="spacing" textLength="55" x="78.3" y="27.1543">EventInit</text><line style="stroke:#A80036;stroke-width:1.5;" x1="19.5" x2="160.5" y1="39" y2="39"/><ellipse cx="29.5" cy="50" rx="3" ry="3" style="stroke:#038048;stroke-width:1.0;fill:none;"/><text fill="#000000" font-family="sans-serif" font-size="11" lengthAdjust="spacing" textLength="102" x="38.5" y="53.2104">bubbles : boolean</text><ellipse cx="29.5" cy="62.8047" rx="3" ry="3" style="stroke:#038048;stroke-width:1.0;fill:none;"/><text fill="#000000" font-family="sans-serif" font-size="11" lengthAdjust="spacing" textLength="117" x="38.5" y="66.0151">cancelable : boolean</text><ellipse cx="29.5" cy="75.6094" rx="3" ry="3" style="stroke:#038048;stroke-width:1.0;fill:none;"/><text fill="#000000" font-family="sans-serif" font-size="11" lengthAdjust="spacing" textLength="116" x="38.5" y="78.8198">composed : boolean</text><!--MD5=[29b1a1a09c9cdeae72a0d1ae759c5ae3]
reverse link EventInit to HashChangeEventInit--><path codeLine="16" d="M90,105.6 C90,118.56 90,132.2 90,144.84 " fill="none" id="EventInit-backto-HashChangeEventInit" style="stroke:#A80036;stroke-width:1.0;"/><polygon fill="none" points="83,105.37,90,85.37,97,105.37,83,105.37" style="stroke:#A80036;stroke-width:1.0;"/><!--MD5=[b9cb1fdbeb5fb484fc086e8be5fc0974]
@startuml
skinparam BackgroundColor transparent
hide empty methods
hide empty fields
interface "HashChangeEventInit" {
    +bubbles : boolean
    +cancelable : boolean
    +composed : boolean
    +newURL : string
    +oldURL : string
}
interface "EventInit" {
    +bubbles : boolean
    +cancelable : boolean
    +composed : boolean
}
"EventInit" <|- - "HashChangeEventInit"
@enduml

PlantUML version 1.2021.14(Fri Nov 12 11:46:50 EST 2021)
(GPL source distribution)
Java Runtime: OpenJDK Runtime Environment
JVM: OpenJDK 64-Bit Server VM
Default Encoding: UTF-8
Language: en
Country: US
--></g></svg>