<?xml version="1.0" encoding="UTF-8" standalone="no"?><svg xmlns="http://www.w3.org/2000/svg" xmlns:xlink="http://www.w3.org/1999/xlink" contentScriptType="application/ecmascript" contentStyleType="text/css" height="238px" preserveAspectRatio="none" style="width:284px;height:238px;background:#00000000;" version="1.1" viewBox="0 0 284 238" width="284px" zoomAndPan="magnify"><defs><filter height="300%" id="f1bhsn0hqonrv9" width="300%" x="-1" y="-1"><feGaussianBlur result="blurOut" stdDeviation="2.0"/><feColorMatrix in="blurOut" result="blurOut2" type="matrix" values="0 0 0 0 0 0 0 0 0 0 0 0 0 0 0 0 0 0 .4 0"/><feOffset dx="4.0" dy="4.0" in="blurOut2" result="blurOut3"/><feBlend in="SourceGraphic" in2="blurOut3" mode="normal"/></filter></defs><g><!--MD5=[5530228bd102a23a90470818bd2606ba]
class IDBRequestEventMap--><rect codeLine="4" fill="#FEFECE" filter="url(#f1bhsn0hqonrv9)" height="65.6094" id="IDBRequestEventMap" style="stroke:#A80036;stroke-width:1.5;" width="165" x="56" y="7"/><ellipse cx="71" cy="23" fill="#B4A7E5" rx="11" ry="11" style="stroke:#A80036;stroke-width:1.0;"/><path d="M66.9219,18.7656 L66.9219,16.6094 L74.3125,16.6094 L74.3125,18.7656 L71.8438,18.7656 L71.8438,26.8438 L74.3125,26.8438 L74.3125,29 L66.9219,29 L66.9219,26.8438 L69.3906,26.8438 L69.3906,18.7656 L66.9219,18.7656 Z " fill="#000000"/><text fill="#000000" font-family="sans-serif" font-size="12" font-style="italic" lengthAdjust="spacing" textLength="133" x="85" y="27.1543">IDBRequestEventMap</text><line style="stroke:#A80036;stroke-width:1.5;" x1="57" x2="220" y1="39" y2="39"/><ellipse cx="67" cy="50" rx="3" ry="3" style="stroke:#038048;stroke-width:1.0;fill:none;"/><text fill="#000000" font-family="sans-serif" font-size="11" lengthAdjust="spacing" textLength="72" x="76" y="53.2104">error : Event</text><ellipse cx="67" cy="62.8047" rx="3" ry="3" style="stroke:#038048;stroke-width:1.0;fill:none;"/><text fill="#000000" font-family="sans-serif" font-size="11" lengthAdjust="spacing" textLength="90" x="76" y="66.0151">success : Event</text><!--MD5=[694245ce561d94b1874a23923761d5b6]
class IDBOpenDBRequestEventMap--><rect codeLine="8" fill="#FEFECE" filter="url(#f1bhsn0hqonrv9)" height="91.2188" id="IDBOpenDBRequestEventMap" style="stroke:#A80036;stroke-width:1.5;" width="263" x="7" y="133"/><ellipse cx="44.05" cy="149" fill="#B4A7E5" rx="11" ry="11" style="stroke:#A80036;stroke-width:1.0;"/><path d="M39.9719,144.7656 L39.9719,142.6094 L47.3625,142.6094 L47.3625,144.7656 L44.8938,144.7656 L44.8938,152.8438 L47.3625,152.8438 L47.3625,155 L39.9719,155 L39.9719,152.8438 L42.4406,152.8438 L42.4406,144.7656 L39.9719,144.7656 Z " fill="#000000"/><text fill="#000000" font-family="sans-serif" font-size="12" font-style="italic" lengthAdjust="spacing" textLength="182" x="62.95" y="153.1543">IDBOpenDBRequestEventMap</text><line style="stroke:#A80036;stroke-width:1.5;" x1="8" x2="269" y1="165" y2="165"/><ellipse cx="18" cy="176" rx="3" ry="3" style="stroke:#038048;stroke-width:1.0;fill:none;"/><text fill="#000000" font-family="sans-serif" font-size="11" lengthAdjust="spacing" textLength="191" x="27" y="179.2104">blocked : IDBVersionChangeEvent</text><ellipse cx="18" cy="188.8047" rx="3" ry="3" style="stroke:#038048;stroke-width:1.0;fill:none;"/><text fill="#000000" font-family="sans-serif" font-size="11" lengthAdjust="spacing" textLength="72" x="27" y="192.0151">error : Event</text><ellipse cx="18" cy="201.6094" rx="3" ry="3" style="stroke:#038048;stroke-width:1.0;fill:none;"/><text fill="#000000" font-family="sans-serif" font-size="11" lengthAdjust="spacing" textLength="90" x="27" y="204.8198">success : Event</text><ellipse cx="18" cy="214.4141" rx="3" ry="3" style="stroke:#038048;stroke-width:1.0;fill:none;"/><text fill="#000000" font-family="sans-serif" font-size="11" lengthAdjust="spacing" textLength="237" x="27" y="217.6245">upgradeneeded : IDBVersionChangeEvent</text><!--MD5=[6d944dc545b66e437b938dd5bb307d5e]
reverse link IDBRequestEventMap to IDBOpenDBRequestEventMap--><path codeLine="14" d="M138.5,93.18 C138.5,106.23 138.5,120.12 138.5,132.78 " fill="none" id="IDBRequestEventMap-backto-IDBOpenDBRequestEventMap" style="stroke:#A80036;stroke-width:1.0;"/><polygon fill="none" points="131.5,93,138.5,73,145.5,93,131.5,93" style="stroke:#A80036;stroke-width:1.0;"/><!--MD5=[71870b62343602c2c279915bc01f6d1d]
@startuml
skinparam BackgroundColor transparent
hide empty methods
hide empty fields
interface "IDBRequestEventMap" {
    +error : Event
    +success : Event
}
interface "IDBOpenDBRequestEventMap" {
    +blocked : IDBVersionChangeEvent
    +error : Event
    +success : Event
    +upgradeneeded : IDBVersionChangeEvent
}
"IDBRequestEventMap" <|- - "IDBOpenDBRequestEventMap"
@enduml

PlantUML version 1.2021.14(Fri Nov 12 11:46:50 EST 2021)
(GPL source distribution)
Java Runtime: OpenJDK Runtime Environment
JVM: OpenJDK 64-Bit Server VM
Default Encoding: UTF-8
Language: en
Country: US
--></g></svg>