<?xml version="1.0" encoding="UTF-8" standalone="no"?><svg xmlns="http://www.w3.org/2000/svg" xmlns:xlink="http://www.w3.org/1999/xlink" contentScriptType="application/ecmascript" contentStyleType="text/css" height="378px" preserveAspectRatio="none" style="width:210px;height:378px;background:#00000000;" version="1.1" viewBox="0 0 210 378" width="210px" zoomAndPan="magnify"><defs><filter height="300%" id="fslxw62j3yb73" width="300%" x="-1" y="-1"><feGaussianBlur result="blurOut" stdDeviation="2.0"/><feColorMatrix in="blurOut" result="blurOut2" type="matrix" values="0 0 0 0 0 0 0 0 0 0 0 0 0 0 0 0 0 0 .4 0"/><feOffset dx="4.0" dy="4.0" in="blurOut2" result="blurOut3"/><feBlend in="SourceGraphic" in2="blurOut3" mode="normal"/></filter></defs><g><!--MD5=[b961b656cfe30242f5762c1edfabb474]
class InputEventInit--><rect codeLine="4" fill="#FEFECE" filter="url(#fslxw62j3yb73)" height="180.8516" id="InputEventInit" style="stroke:#A80036;stroke-width:1.5;" width="189" x="7" y="184"/><ellipse cx="53.25" cy="200" fill="#B4A7E5" rx="11" ry="11" style="stroke:#A80036;stroke-width:1.0;"/><path d="M49.1719,195.7656 L49.1719,193.6094 L56.5625,193.6094 L56.5625,195.7656 L54.0938,195.7656 L54.0938,203.8438 L56.5625,203.8438 L56.5625,206 L49.1719,206 L49.1719,203.8438 L51.6406,203.8438 L51.6406,195.7656 L49.1719,195.7656 Z " fill="#000000"/><text fill="#000000" font-family="sans-serif" font-size="12" font-style="italic" lengthAdjust="spacing" textLength="88" x="73.75" y="204.1543">InputEventInit</text><line style="stroke:#A80036;stroke-width:1.5;" x1="8" x2="195" y1="216" y2="216"/><ellipse cx="18" cy="227" rx="3" ry="3" style="stroke:#038048;stroke-width:1.0;fill:none;"/><text fill="#000000" font-family="sans-serif" font-size="11" lengthAdjust="spacing" textLength="102" x="27" y="230.2104">bubbles : boolean</text><ellipse cx="18" cy="239.8047" rx="3" ry="3" style="stroke:#038048;stroke-width:1.0;fill:none;"/><text fill="#000000" font-family="sans-serif" font-size="11" lengthAdjust="spacing" textLength="117" x="27" y="243.0151">cancelable : boolean</text><ellipse cx="18" cy="252.6094" rx="3" ry="3" style="stroke:#038048;stroke-width:1.0;fill:none;"/><text fill="#000000" font-family="sans-serif" font-size="11" lengthAdjust="spacing" textLength="116" x="27" y="255.8198">composed : boolean</text><ellipse cx="18" cy="265.4141" rx="3" ry="3" style="stroke:#038048;stroke-width:1.0;fill:none;"/><text fill="#000000" font-family="sans-serif" font-size="11" lengthAdjust="spacing" textLength="70" x="27" y="268.6245">data : string</text><ellipse cx="18" cy="278.2188" rx="3" ry="3" style="stroke:#038048;stroke-width:1.0;fill:none;"/><text fill="#000000" font-family="sans-serif" font-size="11" lengthAdjust="spacing" textLength="161" x="27" y="281.4292">dataTransfer : DataTransfer</text><ellipse cx="18" cy="291.0234" rx="3" ry="3" style="stroke:#038048;stroke-width:1.0;fill:none;"/><text fill="#000000" font-family="sans-serif" font-size="11" lengthAdjust="spacing" textLength="87" x="27" y="294.2339">detail : number</text><ellipse cx="18" cy="303.8281" rx="3" ry="3" style="stroke:#038048;stroke-width:1.0;fill:none;"/><text fill="#000000" font-family="sans-serif" font-size="11" lengthAdjust="spacing" textLength="100" x="27" y="307.0386">inputType : string</text><ellipse cx="18" cy="316.6328" rx="3" ry="3" style="stroke:#038048;stroke-width:1.0;fill:none;"/><text fill="#000000" font-family="sans-serif" font-size="11" lengthAdjust="spacing" textLength="131" x="27" y="319.8433">isComposing : boolean</text><ellipse cx="18" cy="329.4375" rx="3" ry="3" style="stroke:#038048;stroke-width:1.0;fill:none;"/><text fill="#000000" font-family="sans-serif" font-size="11" lengthAdjust="spacing" textLength="163" x="27" y="332.6479">targetRanges : StaticRange[]</text><ellipse cx="18" cy="342.2422" rx="3" ry="3" style="stroke:#038048;stroke-width:1.0;fill:none;"/><text fill="#000000" font-family="sans-serif" font-size="11" lengthAdjust="spacing" textLength="79" x="27" y="345.4526">view : Window</text><ellipse cx="18" cy="355.0469" rx="3" ry="3" style="stroke:#038048;stroke-width:1.0;fill:none;"/><text fill="#000000" font-family="sans-serif" font-size="11" lengthAdjust="spacing" textLength="88" x="27" y="358.2573">which : number</text><!--MD5=[5cfeb049f90d37bb0972815418e92227]
class UIEventInit--><rect codeLine="17" fill="#FEFECE" filter="url(#fslxw62j3yb73)" height="116.8281" id="UIEventInit" style="stroke:#A80036;stroke-width:1.5;" width="143" x="30" y="7"/><ellipse cx="64.35" cy="23" fill="#B4A7E5" rx="11" ry="11" style="stroke:#A80036;stroke-width:1.0;"/><path d="M60.2719,18.7656 L60.2719,16.6094 L67.6625,16.6094 L67.6625,18.7656 L65.1938,18.7656 L65.1938,26.8438 L67.6625,26.8438 L67.6625,29 L60.2719,29 L60.2719,26.8438 L62.7406,26.8438 L62.7406,18.7656 L60.2719,18.7656 Z " fill="#000000"/><text fill="#000000" font-family="sans-serif" font-size="12" font-style="italic" lengthAdjust="spacing" textLength="68" x="82.65" y="27.1543">UIEventInit</text><line style="stroke:#A80036;stroke-width:1.5;" x1="31" x2="172" y1="39" y2="39"/><ellipse cx="41" cy="50" rx="3" ry="3" style="stroke:#038048;stroke-width:1.0;fill:none;"/><text fill="#000000" font-family="sans-serif" font-size="11" lengthAdjust="spacing" textLength="102" x="50" y="53.2104">bubbles : boolean</text><ellipse cx="41" cy="62.8047" rx="3" ry="3" style="stroke:#038048;stroke-width:1.0;fill:none;"/><text fill="#000000" font-family="sans-serif" font-size="11" lengthAdjust="spacing" textLength="117" x="50" y="66.0151">cancelable : boolean</text><ellipse cx="41" cy="75.6094" rx="3" ry="3" style="stroke:#038048;stroke-width:1.0;fill:none;"/><text fill="#000000" font-family="sans-serif" font-size="11" lengthAdjust="spacing" textLength="116" x="50" y="78.8198">composed : boolean</text><ellipse cx="41" cy="88.4141" rx="3" ry="3" style="stroke:#038048;stroke-width:1.0;fill:none;"/><text fill="#000000" font-family="sans-serif" font-size="11" lengthAdjust="spacing" textLength="87" x="50" y="91.6245">detail : number</text><ellipse cx="41" cy="101.2188" rx="3" ry="3" style="stroke:#038048;stroke-width:1.0;fill:none;"/><text fill="#000000" font-family="sans-serif" font-size="11" lengthAdjust="spacing" textLength="79" x="50" y="104.4292">view : Window</text><ellipse cx="41" cy="114.0234" rx="3" ry="3" style="stroke:#038048;stroke-width:1.0;fill:none;"/><text fill="#000000" font-family="sans-serif" font-size="11" lengthAdjust="spacing" textLength="88" x="50" y="117.2339">which : number</text><!--MD5=[c3b4befed508ebc8a9bd8c53eb2f154e]
reverse link UIEventInit to InputEventInit--><path codeLine="25" d="M101.5,144.49 C101.5,157.38 101.5,170.83 101.5,183.98 " fill="none" id="UIEventInit-backto-InputEventInit" style="stroke:#A80036;stroke-width:1.0;"/><polygon fill="none" points="94.5,144.16,101.5,124.16,108.5,144.16,94.5,144.16" style="stroke:#A80036;stroke-width:1.0;"/><!--MD5=[435be37e3772099c2bd246592361e5ac]
@startuml
skinparam BackgroundColor transparent
hide empty methods
hide empty fields
interface "InputEventInit" {
    +bubbles : boolean
    +cancelable : boolean
    +composed : boolean
    +data : string
    +dataTransfer : DataTransfer
    +detail : number
    +inputType : string
    +isComposing : boolean
    +targetRanges : StaticRange[]
    +view : Window
    +which : number
}
interface "UIEventInit" {
    +bubbles : boolean
    +cancelable : boolean
    +composed : boolean
    +detail : number
    +view : Window
    +which : number
}
"UIEventInit" <|- - "InputEventInit"
@enduml

PlantUML version 1.2021.14(Fri Nov 12 11:46:50 EST 2021)
(GPL source distribution)
Java Runtime: OpenJDK Runtime Environment
JVM: OpenJDK 64-Bit Server VM
Default Encoding: UTF-8
Language: en
Country: US
--></g></svg>