<?xml version="1.0" encoding="UTF-8" standalone="no"?><svg xmlns="http://www.w3.org/2000/svg" xmlns:xlink="http://www.w3.org/1999/xlink" contentScriptType="application/ecmascript" contentStyleType="text/css" height="250px" preserveAspectRatio="none" style="width:339px;height:250px;background:#00000000;" version="1.1" viewBox="0 0 339 250" width="339px" zoomAndPan="magnify"><defs><filter height="300%" id="f1tjm7mu8kjhfb" width="300%" x="-1" y="-1"><feGaussianBlur result="blurOut" stdDeviation="2.0"/><feColorMatrix in="blurOut" result="blurOut2" type="matrix" values="0 0 0 0 0 0 0 0 0 0 0 0 0 0 0 0 0 0 .4 0"/><feOffset dx="4.0" dy="4.0" in="blurOut2" result="blurOut3"/><feBlend in="SourceGraphic" in2="blurOut3" mode="normal"/></filter></defs><g><!--MD5=[5efdff1fab52d3adf5b04293ea3de122]
class IterableIterator<T>--><rect codeLine="4" fill="#FEFECE" filter="url(#f1tjm7mu8kjhfb)" height="91.2188" id="IterableIterator&lt;T&gt;" style="stroke:#A80036;stroke-width:1.5;" width="318" x="7" y="145"/><ellipse cx="99.75" cy="161" fill="#B4A7E5" rx="11" ry="11" style="stroke:#A80036;stroke-width:1.0;"/><path d="M95.6719,156.7656 L95.6719,154.6094 L103.0625,154.6094 L103.0625,156.7656 L100.5938,156.7656 L100.5938,164.8438 L103.0625,164.8438 L103.0625,167 L95.6719,167 L95.6719,164.8438 L98.1406,164.8438 L98.1406,156.7656 L95.6719,156.7656 Z " fill="#000000"/><text fill="#000000" font-family="sans-serif" font-size="12" font-style="italic" lengthAdjust="spacing" textLength="124" x="120.25" y="165.1543">IterableIterator&lt;T&gt;</text><line style="stroke:#A80036;stroke-width:1.5;" x1="8" x2="324" y1="177" y2="177"/><ellipse cx="18" cy="188" fill="#84BE84" rx="3" ry="3" style="stroke:#038048;stroke-width:1.0;"/><text fill="#000000" font-family="sans-serif" font-size="11" lengthAdjust="spacing" textLength="292" x="27" y="191.2104">next(args: [] | [undefined]) : IteratorResult&lt;T, any&gt;</text><ellipse cx="18" cy="200.8047" fill="#84BE84" rx="3" ry="3" style="stroke:#038048;stroke-width:1.0;"/><text fill="#000000" font-family="sans-serif" font-size="11" lengthAdjust="spacing" textLength="243" x="27" y="204.0151">return(value: any) : IteratorResult&lt;T, any&gt;</text><ellipse cx="18" cy="213.6094" fill="#84BE84" rx="3" ry="3" style="stroke:#038048;stroke-width:1.0;"/><text fill="#000000" font-family="sans-serif" font-size="11" lengthAdjust="spacing" textLength="217" x="27" y="216.8198">throw(e: any) : IteratorResult&lt;T, any&gt;</text><ellipse cx="18" cy="226.4141" fill="#84BE84" rx="3" ry="3" style="stroke:#038048;stroke-width:1.0;"/><text fill="#000000" font-family="sans-serif" font-size="11" lengthAdjust="spacing" textLength="180" x="27" y="229.6245">[iterator]() : IterableIterator&lt;T&gt;</text><!--MD5=[859bfcd66a1e088a9e21791d73417249]
class Iterator<T, any, undefined>--><rect codeLine="10" fill="#FEFECE" filter="url(#f1tjm7mu8kjhfb)" height="78.4141" id="Iterator&lt;T, any, undefined&gt;" style="stroke:#A80036;stroke-width:1.5;" width="318" x="7" y="7"/><ellipse cx="73.25" cy="23" fill="#B4A7E5" rx="11" ry="11" style="stroke:#A80036;stroke-width:1.0;"/><path d="M69.1719,18.7656 L69.1719,16.6094 L76.5625,16.6094 L76.5625,18.7656 L74.0938,18.7656 L74.0938,26.8438 L76.5625,26.8438 L76.5625,29 L69.1719,29 L69.1719,26.8438 L71.6406,26.8438 L71.6406,18.7656 L69.1719,18.7656 Z " fill="#000000"/><text fill="#000000" font-family="sans-serif" font-size="12" font-style="italic" lengthAdjust="spacing" textLength="177" x="93.75" y="27.1543">Iterator&lt;T, any, undefined&gt;</text><line style="stroke:#A80036;stroke-width:1.5;" x1="8" x2="324" y1="39" y2="39"/><ellipse cx="18" cy="50" fill="#84BE84" rx="3" ry="3" style="stroke:#038048;stroke-width:1.0;"/><text fill="#000000" font-family="sans-serif" font-size="11" lengthAdjust="spacing" textLength="292" x="27" y="53.2104">next(args: [] | [undefined]) : IteratorResult&lt;T, any&gt;</text><ellipse cx="18" cy="62.8047" fill="#84BE84" rx="3" ry="3" style="stroke:#038048;stroke-width:1.0;"/><text fill="#000000" font-family="sans-serif" font-size="11" lengthAdjust="spacing" textLength="243" x="27" y="66.0151">return(value: any) : IteratorResult&lt;T, any&gt;</text><ellipse cx="18" cy="75.6094" fill="#84BE84" rx="3" ry="3" style="stroke:#038048;stroke-width:1.0;"/><text fill="#000000" font-family="sans-serif" font-size="11" lengthAdjust="spacing" textLength="217" x="27" y="78.8198">throw(e: any) : IteratorResult&lt;T, any&gt;</text><!--MD5=[54a1ae0c7c734ad246dbfa8f12b6c0fe]
reverse link Iterator<T, any, undefined> to IterableIterator<T>--><path codeLine="15" d="M166,105.21 C166,118.45 166,132.32 166,144.89 " fill="none" id="Iterator&lt;T, any, undefined&gt;-backto-IterableIterator&lt;T&gt;" style="stroke:#A80036;stroke-width:1.0;"/><polygon fill="none" points="159,105.19,166,85.19,173,105.19,159,105.19" style="stroke:#A80036;stroke-width:1.0;"/><!--MD5=[396c53b399136413b706bd83180d3732]
@startuml
skinparam BackgroundColor transparent
hide empty methods
hide empty fields
interface "IterableIterator<T>" {
    +next(args: [] | [undefined]) : IteratorResult<T, any>
    +return(value: any) : IteratorResult<T, any>
    +throw(e: any) : IteratorResult<T, any>
    +[iterator]() : IterableIterator<T>
}
interface "Iterator<T, any, undefined>" {
    +next(args: [] | [undefined]) : IteratorResult<T, any>
    +return(value: any) : IteratorResult<T, any>
    +throw(e: any) : IteratorResult<T, any>
}
"Iterator<T, any, undefined>" <|- - "IterableIterator<T>"
@enduml

PlantUML version 1.2021.14(Fri Nov 12 11:46:50 EST 2021)
(GPL source distribution)
Java Runtime: OpenJDK Runtime Environment
JVM: OpenJDK 64-Bit Server VM
Default Encoding: UTF-8
Language: en
Country: US
--></g></svg>