<?xml version="1.0" encoding="UTF-8" standalone="no"?><svg xmlns="http://www.w3.org/2000/svg" xmlns:xlink="http://www.w3.org/1999/xlink" contentScriptType="application/ecmascript" contentStyleType="text/css" height="696px" preserveAspectRatio="none" style="width:331px;height:696px;background:#00000000;" version="1.1" viewBox="0 0 331 696" width="331px" zoomAndPan="magnify"><defs><filter height="300%" id="f1wibr86mtmme9" width="300%" x="-1" y="-1"><feGaussianBlur result="blurOut" stdDeviation="2.0"/><feColorMatrix in="blurOut" result="blurOut2" type="matrix" values="0 0 0 0 0 0 0 0 0 0 0 0 0 0 0 0 0 0 .4 0"/><feOffset dx="4.0" dy="4.0" in="blurOut2" result="blurOut3"/><feBlend in="SourceGraphic" in2="blurOut3" mode="normal"/></filter></defs><g><!--MD5=[bb78736a13e5c9dc4d4a47e289ee9893]
class KeyframeEffectOptions--><rect codeLine="4" fill="#FEFECE" filter="url(#f1wibr86mtmme9)" height="193.6563" id="KeyframeEffectOptions" style="stroke:#A80036;stroke-width:1.5;" width="310" x="7" y="222"/><ellipse cx="87.25" cy="238" fill="#B4A7E5" rx="11" ry="11" style="stroke:#A80036;stroke-width:1.0;"/><path d="M83.1719,233.7656 L83.1719,231.6094 L90.5625,231.6094 L90.5625,233.7656 L88.0938,233.7656 L88.0938,241.8438 L90.5625,241.8438 L90.5625,244 L83.1719,244 L83.1719,241.8438 L85.6406,241.8438 L85.6406,233.7656 L83.1719,233.7656 Z " fill="#000000"/><text fill="#000000" font-family="sans-serif" font-size="12" font-style="italic" lengthAdjust="spacing" textLength="141" x="107.75" y="242.1543">KeyframeEffectOptions</text><line style="stroke:#A80036;stroke-width:1.5;" x1="8" x2="316" y1="254" y2="254"/><ellipse cx="18" cy="265" rx="3" ry="3" style="stroke:#038048;stroke-width:1.0;fill:none;"/><text fill="#000000" font-family="sans-serif" font-size="11" lengthAdjust="spacing" textLength="188" x="27" y="268.2104">composite : CompositeOperation</text><ellipse cx="18" cy="277.8047" rx="3" ry="3" style="stroke:#038048;stroke-width:1.0;fill:none;"/><text fill="#000000" font-family="sans-serif" font-size="11" lengthAdjust="spacing" textLength="86" x="27" y="281.0151">delay : number</text><ellipse cx="18" cy="290.6094" rx="3" ry="3" style="stroke:#038048;stroke-width:1.0;fill:none;"/><text fill="#000000" font-family="sans-serif" font-size="11" lengthAdjust="spacing" textLength="160" x="27" y="293.8198">direction : PlaybackDirection</text><ellipse cx="18" cy="303.4141" rx="3" ry="3" style="stroke:#038048;stroke-width:1.0;fill:none;"/><text fill="#000000" font-family="sans-serif" font-size="11" lengthAdjust="spacing" textLength="148" x="27" y="306.6245">duration : string | number</text><ellipse cx="18" cy="316.2188" rx="3" ry="3" style="stroke:#038048;stroke-width:1.0;fill:none;"/><text fill="#000000" font-family="sans-serif" font-size="11" lengthAdjust="spacing" textLength="83" x="27" y="319.4292">easing : string</text><ellipse cx="18" cy="329.0234" rx="3" ry="3" style="stroke:#038048;stroke-width:1.0;fill:none;"/><text fill="#000000" font-family="sans-serif" font-size="11" lengthAdjust="spacing" textLength="108" x="27" y="332.2339">endDelay : number</text><ellipse cx="18" cy="341.8281" rx="3" ry="3" style="stroke:#038048;stroke-width:1.0;fill:none;"/><text fill="#000000" font-family="sans-serif" font-size="11" lengthAdjust="spacing" textLength="70" x="27" y="345.0386">fill : FillMode</text><ellipse cx="18" cy="354.6328" rx="3" ry="3" style="stroke:#038048;stroke-width:1.0;fill:none;"/><text fill="#000000" font-family="sans-serif" font-size="11" lengthAdjust="spacing" textLength="284" x="27" y="357.8433">iterationComposite : IterationCompositeOperation</text><ellipse cx="18" cy="367.4375" rx="3" ry="3" style="stroke:#038048;stroke-width:1.0;fill:none;"/><text fill="#000000" font-family="sans-serif" font-size="11" lengthAdjust="spacing" textLength="110" x="27" y="370.6479">iterations : number</text><ellipse cx="18" cy="380.2422" rx="3" ry="3" style="stroke:#038048;stroke-width:1.0;fill:none;"/><text fill="#000000" font-family="sans-serif" font-size="11" lengthAdjust="spacing" textLength="131" x="27" y="383.4526">iterationStart : number</text><ellipse cx="18" cy="393.0469" rx="3" ry="3" style="stroke:#038048;stroke-width:1.0;fill:none;"/><text fill="#000000" font-family="sans-serif" font-size="11" lengthAdjust="spacing" textLength="130" x="27" y="396.2573">playbackRate : number</text><ellipse cx="18" cy="405.8516" rx="3" ry="3" style="stroke:#038048;stroke-width:1.0;fill:none;"/><text fill="#000000" font-family="sans-serif" font-size="11" lengthAdjust="spacing" textLength="133" x="27" y="409.062">pseudoElement : string</text><!--MD5=[146b9f88ef9aaac7b235d05ab0b497cf]
class EffectTiming--><rect codeLine="18" fill="#FEFECE" filter="url(#f1wibr86mtmme9)" height="155.2422" id="EffectTiming" style="stroke:#A80036;stroke-width:1.5;" width="186" x="69" y="7"/><ellipse cx="119.75" cy="23" fill="#B4A7E5" rx="11" ry="11" style="stroke:#A80036;stroke-width:1.0;"/><path d="M115.6719,18.7656 L115.6719,16.6094 L123.0625,16.6094 L123.0625,18.7656 L120.5938,18.7656 L120.5938,26.8438 L123.0625,26.8438 L123.0625,29 L115.6719,29 L115.6719,26.8438 L118.1406,26.8438 L118.1406,18.7656 L115.6719,18.7656 Z " fill="#000000"/><text fill="#000000" font-family="sans-serif" font-size="12" font-style="italic" lengthAdjust="spacing" textLength="76" x="140.25" y="27.1543">EffectTiming</text><line style="stroke:#A80036;stroke-width:1.5;" x1="70" x2="254" y1="39" y2="39"/><ellipse cx="80" cy="50" rx="3" ry="3" style="stroke:#038048;stroke-width:1.0;fill:none;"/><text fill="#000000" font-family="sans-serif" font-size="11" lengthAdjust="spacing" textLength="86" x="89" y="53.2104">delay : number</text><ellipse cx="80" cy="62.8047" rx="3" ry="3" style="stroke:#038048;stroke-width:1.0;fill:none;"/><text fill="#000000" font-family="sans-serif" font-size="11" lengthAdjust="spacing" textLength="160" x="89" y="66.0151">direction : PlaybackDirection</text><ellipse cx="80" cy="75.6094" rx="3" ry="3" style="stroke:#038048;stroke-width:1.0;fill:none;"/><text fill="#000000" font-family="sans-serif" font-size="11" lengthAdjust="spacing" textLength="148" x="89" y="78.8198">duration : string | number</text><ellipse cx="80" cy="88.4141" rx="3" ry="3" style="stroke:#038048;stroke-width:1.0;fill:none;"/><text fill="#000000" font-family="sans-serif" font-size="11" lengthAdjust="spacing" textLength="83" x="89" y="91.6245">easing : string</text><ellipse cx="80" cy="101.2188" rx="3" ry="3" style="stroke:#038048;stroke-width:1.0;fill:none;"/><text fill="#000000" font-family="sans-serif" font-size="11" lengthAdjust="spacing" textLength="108" x="89" y="104.4292">endDelay : number</text><ellipse cx="80" cy="114.0234" rx="3" ry="3" style="stroke:#038048;stroke-width:1.0;fill:none;"/><text fill="#000000" font-family="sans-serif" font-size="11" lengthAdjust="spacing" textLength="70" x="89" y="117.2339">fill : FillMode</text><ellipse cx="80" cy="126.8281" rx="3" ry="3" style="stroke:#038048;stroke-width:1.0;fill:none;"/><text fill="#000000" font-family="sans-serif" font-size="11" lengthAdjust="spacing" textLength="110" x="89" y="130.0386">iterations : number</text><ellipse cx="80" cy="139.6328" rx="3" ry="3" style="stroke:#038048;stroke-width:1.0;fill:none;"/><text fill="#000000" font-family="sans-serif" font-size="11" lengthAdjust="spacing" textLength="131" x="89" y="142.8433">iterationStart : number</text><ellipse cx="80" cy="152.4375" rx="3" ry="3" style="stroke:#038048;stroke-width:1.0;fill:none;"/><text fill="#000000" font-family="sans-serif" font-size="11" lengthAdjust="spacing" textLength="130" x="89" y="155.6479">playbackRate : number</text><!--MD5=[6176562e477989a1ac2552487ec85360]
class KeyframeAnimationOptions--><rect codeLine="30" fill="#FEFECE" filter="url(#f1wibr86mtmme9)" height="206.4609" id="KeyframeAnimationOptions" style="stroke:#A80036;stroke-width:1.5;" width="310" x="7" y="476"/><ellipse cx="74.25" cy="492" fill="#B4A7E5" rx="11" ry="11" style="stroke:#A80036;stroke-width:1.0;"/><path d="M70.1719,487.7656 L70.1719,485.6094 L77.5625,485.6094 L77.5625,487.7656 L75.0938,487.7656 L75.0938,495.8438 L77.5625,495.8438 L77.5625,498 L70.1719,498 L70.1719,495.8438 L72.6406,495.8438 L72.6406,487.7656 L70.1719,487.7656 Z " fill="#000000"/><text fill="#000000" font-family="sans-serif" font-size="12" font-style="italic" lengthAdjust="spacing" textLength="167" x="94.75" y="496.1543">KeyframeAnimationOptions</text><line style="stroke:#A80036;stroke-width:1.5;" x1="8" x2="316" y1="508" y2="508"/><ellipse cx="18" cy="519" rx="3" ry="3" style="stroke:#038048;stroke-width:1.0;fill:none;"/><text fill="#000000" font-family="sans-serif" font-size="11" lengthAdjust="spacing" textLength="188" x="27" y="522.2104">composite : CompositeOperation</text><ellipse cx="18" cy="531.8047" rx="3" ry="3" style="stroke:#038048;stroke-width:1.0;fill:none;"/><text fill="#000000" font-family="sans-serif" font-size="11" lengthAdjust="spacing" textLength="86" x="27" y="535.0151">delay : number</text><ellipse cx="18" cy="544.6094" rx="3" ry="3" style="stroke:#038048;stroke-width:1.0;fill:none;"/><text fill="#000000" font-family="sans-serif" font-size="11" lengthAdjust="spacing" textLength="160" x="27" y="547.8198">direction : PlaybackDirection</text><ellipse cx="18" cy="557.4141" rx="3" ry="3" style="stroke:#038048;stroke-width:1.0;fill:none;"/><text fill="#000000" font-family="sans-serif" font-size="11" lengthAdjust="spacing" textLength="148" x="27" y="560.6245">duration : string | number</text><ellipse cx="18" cy="570.2188" rx="3" ry="3" style="stroke:#038048;stroke-width:1.0;fill:none;"/><text fill="#000000" font-family="sans-serif" font-size="11" lengthAdjust="spacing" textLength="83" x="27" y="573.4292">easing : string</text><ellipse cx="18" cy="583.0234" rx="3" ry="3" style="stroke:#038048;stroke-width:1.0;fill:none;"/><text fill="#000000" font-family="sans-serif" font-size="11" lengthAdjust="spacing" textLength="108" x="27" y="586.2339">endDelay : number</text><ellipse cx="18" cy="595.8281" rx="3" ry="3" style="stroke:#038048;stroke-width:1.0;fill:none;"/><text fill="#000000" font-family="sans-serif" font-size="11" lengthAdjust="spacing" textLength="70" x="27" y="599.0386">fill : FillMode</text><ellipse cx="18" cy="608.6328" rx="3" ry="3" style="stroke:#038048;stroke-width:1.0;fill:none;"/><text fill="#000000" font-family="sans-serif" font-size="11" lengthAdjust="spacing" textLength="55" x="27" y="611.8433">id : string</text><ellipse cx="18" cy="621.4375" rx="3" ry="3" style="stroke:#038048;stroke-width:1.0;fill:none;"/><text fill="#000000" font-family="sans-serif" font-size="11" lengthAdjust="spacing" textLength="284" x="27" y="624.6479">iterationComposite : IterationCompositeOperation</text><ellipse cx="18" cy="634.2422" rx="3" ry="3" style="stroke:#038048;stroke-width:1.0;fill:none;"/><text fill="#000000" font-family="sans-serif" font-size="11" lengthAdjust="spacing" textLength="110" x="27" y="637.4526">iterations : number</text><ellipse cx="18" cy="647.0469" rx="3" ry="3" style="stroke:#038048;stroke-width:1.0;fill:none;"/><text fill="#000000" font-family="sans-serif" font-size="11" lengthAdjust="spacing" textLength="131" x="27" y="650.2573">iterationStart : number</text><ellipse cx="18" cy="659.8516" rx="3" ry="3" style="stroke:#038048;stroke-width:1.0;fill:none;"/><text fill="#000000" font-family="sans-serif" font-size="11" lengthAdjust="spacing" textLength="130" x="27" y="663.062">playbackRate : number</text><ellipse cx="18" cy="672.6563" rx="3" ry="3" style="stroke:#038048;stroke-width:1.0;fill:none;"/><text fill="#000000" font-family="sans-serif" font-size="11" lengthAdjust="spacing" textLength="133" x="27" y="675.8667">pseudoElement : string</text><!--MD5=[3862148f686153b81f284d34e39a2624]
reverse link EffectTiming to KeyframeEffectOptions--><path codeLine="29" d="M162,182.39 C162,195.42 162,208.79 162,221.82 " fill="none" id="EffectTiming-backto-KeyframeEffectOptions" style="stroke:#A80036;stroke-width:1.0;"/><polygon fill="none" points="155,182.27,162,162.27,169,182.27,155,182.27" style="stroke:#A80036;stroke-width:1.0;"/><!--MD5=[db2ca8788752486182b4ef67dad911c4]
reverse link KeyframeEffectOptions to KeyframeAnimationOptions--><path codeLine="45" d="M162,436.46 C162,449.59 162,462.88 162,475.8 " fill="none" id="KeyframeEffectOptions-backto-KeyframeAnimationOptions" style="stroke:#A80036;stroke-width:1.0;"/><polygon fill="none" points="155,436.07,162,416.07,169,436.07,155,436.07" style="stroke:#A80036;stroke-width:1.0;"/><!--MD5=[7f3fa70c89ca51652cf4df1c32a465b1]
@startuml
skinparam BackgroundColor transparent
hide empty methods
hide empty fields
interface "KeyframeEffectOptions" {
    +composite : CompositeOperation
    +delay : number
    +direction : PlaybackDirection
    +duration : string | number
    +easing : string
    +endDelay : number
    +fill : FillMode
    +iterationComposite : IterationCompositeOperation
    +iterations : number
    +iterationStart : number
    +playbackRate : number
    +pseudoElement : string
}
interface "EffectTiming" {
    +delay : number
    +direction : PlaybackDirection
    +duration : string | number
    +easing : string
    +endDelay : number
    +fill : FillMode
    +iterations : number
    +iterationStart : number
    +playbackRate : number
}
"EffectTiming" <|- - "KeyframeEffectOptions"
interface "KeyframeAnimationOptions" {
    +composite : CompositeOperation
    +delay : number
    +direction : PlaybackDirection
    +duration : string | number
    +easing : string
    +endDelay : number
    +fill : FillMode
    +id : string
    +iterationComposite : IterationCompositeOperation
    +iterations : number
    +iterationStart : number
    +playbackRate : number
    +pseudoElement : string
}
"KeyframeEffectOptions" <|- - "KeyframeAnimationOptions"
@enduml

PlantUML version 1.2021.14(Fri Nov 12 11:46:50 EST 2021)
(GPL source distribution)
Java Runtime: OpenJDK Runtime Environment
JVM: OpenJDK 64-Bit Server VM
Default Encoding: UTF-8
Language: en
Country: US
--></g></svg>