<?xml version="1.0" encoding="UTF-8" standalone="no"?><svg xmlns="http://www.w3.org/2000/svg" xmlns:xlink="http://www.w3.org/1999/xlink" contentScriptType="application/ecmascript" contentStyleType="text/css" height="263px" preserveAspectRatio="none" style="width:270px;height:263px;background:#00000000;" version="1.1" viewBox="0 0 270 263" width="270px" zoomAndPan="magnify"><defs><filter height="300%" id="f12durmm0p05x" width="300%" x="-1" y="-1"><feGaussianBlur result="blurOut" stdDeviation="2.0"/><feColorMatrix in="blurOut" result="blurOut2" type="matrix" values="0 0 0 0 0 0 0 0 0 0 0 0 0 0 0 0 0 0 .4 0"/><feOffset dx="4.0" dy="4.0" in="blurOut2" result="blurOut3"/><feBlend in="SourceGraphic" in2="blurOut3" mode="normal"/></filter></defs><g><!--MD5=[e59b265c9c37c33a4797c6ff4e8479fe]
class MediaKeyMessageEventInit--><rect codeLine="4" fill="#FEFECE" filter="url(#f12durmm0p05x)" height="104.0234" id="MediaKeyMessageEventInit" style="stroke:#A80036;stroke-width:1.5;" width="249" x="7" y="145"/><ellipse cx="43.6" cy="161" fill="#B4A7E5" rx="11" ry="11" style="stroke:#A80036;stroke-width:1.0;"/><path d="M39.5219,156.7656 L39.5219,154.6094 L46.9125,154.6094 L46.9125,156.7656 L44.4438,156.7656 L44.4438,164.8438 L46.9125,164.8438 L46.9125,167 L39.5219,167 L39.5219,164.8438 L41.9906,164.8438 L41.9906,156.7656 L39.5219,156.7656 Z " fill="#000000"/><text fill="#000000" font-family="sans-serif" font-size="12" font-style="italic" lengthAdjust="spacing" textLength="169" x="62.4" y="165.1543">MediaKeyMessageEventInit</text><line style="stroke:#A80036;stroke-width:1.5;" x1="8" x2="255" y1="177" y2="177"/><ellipse cx="18" cy="188" rx="3" ry="3" style="stroke:#038048;stroke-width:1.0;fill:none;"/><text fill="#000000" font-family="sans-serif" font-size="11" lengthAdjust="spacing" textLength="102" x="27" y="191.2104">bubbles : boolean</text><ellipse cx="18" cy="200.8047" rx="3" ry="3" style="stroke:#038048;stroke-width:1.0;fill:none;"/><text fill="#000000" font-family="sans-serif" font-size="11" lengthAdjust="spacing" textLength="117" x="27" y="204.0151">cancelable : boolean</text><ellipse cx="18" cy="213.6094" rx="3" ry="3" style="stroke:#038048;stroke-width:1.0;fill:none;"/><text fill="#000000" font-family="sans-serif" font-size="11" lengthAdjust="spacing" textLength="116" x="27" y="216.8198">composed : boolean</text><ellipse cx="18" cy="226.4141" rx="3" ry="3" style="stroke:#038048;stroke-width:1.0;fill:none;"/><text fill="#000000" font-family="sans-serif" font-size="11" lengthAdjust="spacing" textLength="130" x="27" y="229.6245">message : ArrayBuffer</text><ellipse cx="18" cy="239.2188" rx="3" ry="3" style="stroke:#038048;stroke-width:1.0;fill:none;"/><text fill="#000000" font-family="sans-serif" font-size="11" lengthAdjust="spacing" textLength="223" x="27" y="242.4292">messageType : MediaKeyMessageType</text><!--MD5=[20555489c30bd85c28b7a7f2623ad986]
class EventInit--><rect codeLine="11" fill="#FEFECE" filter="url(#f12durmm0p05x)" height="78.4141" id="EventInit" style="stroke:#A80036;stroke-width:1.5;" width="143" x="60" y="7"/><ellipse cx="100.2" cy="23" fill="#B4A7E5" rx="11" ry="11" style="stroke:#A80036;stroke-width:1.0;"/><path d="M96.1219,18.7656 L96.1219,16.6094 L103.5125,16.6094 L103.5125,18.7656 L101.0438,18.7656 L101.0438,26.8438 L103.5125,26.8438 L103.5125,29 L96.1219,29 L96.1219,26.8438 L98.5906,26.8438 L98.5906,18.7656 L96.1219,18.7656 Z " fill="#000000"/><text fill="#000000" font-family="sans-serif" font-size="12" font-style="italic" lengthAdjust="spacing" textLength="55" x="119.8" y="27.1543">EventInit</text><line style="stroke:#A80036;stroke-width:1.5;" x1="61" x2="202" y1="39" y2="39"/><ellipse cx="71" cy="50" rx="3" ry="3" style="stroke:#038048;stroke-width:1.0;fill:none;"/><text fill="#000000" font-family="sans-serif" font-size="11" lengthAdjust="spacing" textLength="102" x="80" y="53.2104">bubbles : boolean</text><ellipse cx="71" cy="62.8047" rx="3" ry="3" style="stroke:#038048;stroke-width:1.0;fill:none;"/><text fill="#000000" font-family="sans-serif" font-size="11" lengthAdjust="spacing" textLength="117" x="80" y="66.0151">cancelable : boolean</text><ellipse cx="71" cy="75.6094" rx="3" ry="3" style="stroke:#038048;stroke-width:1.0;fill:none;"/><text fill="#000000" font-family="sans-serif" font-size="11" lengthAdjust="spacing" textLength="116" x="80" y="78.8198">composed : boolean</text><!--MD5=[eb5f19370e7511c3d697612016fb5e57]
reverse link EventInit to MediaKeyMessageEventInit--><path codeLine="16" d="M131.5,105.6 C131.5,118.56 131.5,132.2 131.5,144.84 " fill="none" id="EventInit-backto-MediaKeyMessageEventInit" style="stroke:#A80036;stroke-width:1.0;"/><polygon fill="none" points="124.5,105.37,131.5,85.37,138.5,105.37,124.5,105.37" style="stroke:#A80036;stroke-width:1.0;"/><!--MD5=[5cda27f8d73a3250b8225c64efa6ff7a]
@startuml
skinparam BackgroundColor transparent
hide empty methods
hide empty fields
interface "MediaKeyMessageEventInit" {
    +bubbles : boolean
    +cancelable : boolean
    +composed : boolean
    +message : ArrayBuffer
    +messageType : MediaKeyMessageType
}
interface "EventInit" {
    +bubbles : boolean
    +cancelable : boolean
    +composed : boolean
}
"EventInit" <|- - "MediaKeyMessageEventInit"
@enduml

PlantUML version 1.2021.14(Fri Nov 12 11:46:50 EST 2021)
(GPL source distribution)
Java Runtime: OpenJDK Runtime Environment
JVM: OpenJDK 64-Bit Server VM
Default Encoding: UTF-8
Language: en
Country: US
--></g></svg>