<?xml version="1.0" encoding="UTF-8" standalone="no"?><svg xmlns="http://www.w3.org/2000/svg" xmlns:xlink="http://www.w3.org/1999/xlink" contentScriptType="application/ecmascript" contentStyleType="text/css" height="263px" preserveAspectRatio="none" style="width:202px;height:263px;background:#00000000;" version="1.1" viewBox="0 0 202 263" width="202px" zoomAndPan="magnify"><defs><filter height="300%" id="fmzr7ievuiql0" width="300%" x="-1" y="-1"><feGaussianBlur result="blurOut" stdDeviation="2.0"/><feColorMatrix in="blurOut" result="blurOut2" type="matrix" values="0 0 0 0 0 0 0 0 0 0 0 0 0 0 0 0 0 0 .4 0"/><feOffset dx="4.0" dy="4.0" in="blurOut2" result="blurOut3"/><feBlend in="SourceGraphic" in2="blurOut3" mode="normal"/></filter></defs><g><!--MD5=[6abb9564eebc7e6d9a449b336c71ccc2]
class MediaQueryListEventInit--><rect codeLine="4" fill="#FEFECE" filter="url(#fmzr7ievuiql0)" height="104.0234" id="MediaQueryListEventInit" style="stroke:#A80036;stroke-width:1.5;" width="181" x="7" y="145"/><ellipse cx="22" cy="161" fill="#B4A7E5" rx="11" ry="11" style="stroke:#A80036;stroke-width:1.0;"/><path d="M17.9219,156.7656 L17.9219,154.6094 L25.3125,154.6094 L25.3125,156.7656 L22.8438,156.7656 L22.8438,164.8438 L25.3125,164.8438 L25.3125,167 L17.9219,167 L17.9219,164.8438 L20.3906,164.8438 L20.3906,156.7656 L17.9219,156.7656 Z " fill="#000000"/><text fill="#000000" font-family="sans-serif" font-size="12" font-style="italic" lengthAdjust="spacing" textLength="149" x="36" y="165.1543">MediaQueryListEventInit</text><line style="stroke:#A80036;stroke-width:1.5;" x1="8" x2="187" y1="177" y2="177"/><ellipse cx="18" cy="188" rx="3" ry="3" style="stroke:#038048;stroke-width:1.0;fill:none;"/><text fill="#000000" font-family="sans-serif" font-size="11" lengthAdjust="spacing" textLength="102" x="27" y="191.2104">bubbles : boolean</text><ellipse cx="18" cy="200.8047" rx="3" ry="3" style="stroke:#038048;stroke-width:1.0;fill:none;"/><text fill="#000000" font-family="sans-serif" font-size="11" lengthAdjust="spacing" textLength="117" x="27" y="204.0151">cancelable : boolean</text><ellipse cx="18" cy="213.6094" rx="3" ry="3" style="stroke:#038048;stroke-width:1.0;fill:none;"/><text fill="#000000" font-family="sans-serif" font-size="11" lengthAdjust="spacing" textLength="116" x="27" y="216.8198">composed : boolean</text><ellipse cx="18" cy="226.4141" rx="3" ry="3" style="stroke:#038048;stroke-width:1.0;fill:none;"/><text fill="#000000" font-family="sans-serif" font-size="11" lengthAdjust="spacing" textLength="106" x="27" y="229.6245">matches : boolean</text><ellipse cx="18" cy="239.2188" rx="3" ry="3" style="stroke:#038048;stroke-width:1.0;fill:none;"/><text fill="#000000" font-family="sans-serif" font-size="11" lengthAdjust="spacing" textLength="80" x="27" y="242.4292">media : string</text><!--MD5=[20555489c30bd85c28b7a7f2623ad986]
class EventInit--><rect codeLine="11" fill="#FEFECE" filter="url(#fmzr7ievuiql0)" height="78.4141" id="EventInit" style="stroke:#A80036;stroke-width:1.5;" width="143" x="26" y="7"/><ellipse cx="66.2" cy="23" fill="#B4A7E5" rx="11" ry="11" style="stroke:#A80036;stroke-width:1.0;"/><path d="M62.1219,18.7656 L62.1219,16.6094 L69.5125,16.6094 L69.5125,18.7656 L67.0438,18.7656 L67.0438,26.8438 L69.5125,26.8438 L69.5125,29 L62.1219,29 L62.1219,26.8438 L64.5906,26.8438 L64.5906,18.7656 L62.1219,18.7656 Z " fill="#000000"/><text fill="#000000" font-family="sans-serif" font-size="12" font-style="italic" lengthAdjust="spacing" textLength="55" x="85.8" y="27.1543">EventInit</text><line style="stroke:#A80036;stroke-width:1.5;" x1="27" x2="168" y1="39" y2="39"/><ellipse cx="37" cy="50" rx="3" ry="3" style="stroke:#038048;stroke-width:1.0;fill:none;"/><text fill="#000000" font-family="sans-serif" font-size="11" lengthAdjust="spacing" textLength="102" x="46" y="53.2104">bubbles : boolean</text><ellipse cx="37" cy="62.8047" rx="3" ry="3" style="stroke:#038048;stroke-width:1.0;fill:none;"/><text fill="#000000" font-family="sans-serif" font-size="11" lengthAdjust="spacing" textLength="117" x="46" y="66.0151">cancelable : boolean</text><ellipse cx="37" cy="75.6094" rx="3" ry="3" style="stroke:#038048;stroke-width:1.0;fill:none;"/><text fill="#000000" font-family="sans-serif" font-size="11" lengthAdjust="spacing" textLength="116" x="46" y="78.8198">composed : boolean</text><!--MD5=[052bbcf97d7b5b90fd083b24032f6bf1]
reverse link EventInit to MediaQueryListEventInit--><path codeLine="16" d="M97.5,105.6 C97.5,118.56 97.5,132.2 97.5,144.84 " fill="none" id="EventInit-backto-MediaQueryListEventInit" style="stroke:#A80036;stroke-width:1.0;"/><polygon fill="none" points="90.5,105.37,97.5,85.37,104.5,105.37,90.5,105.37" style="stroke:#A80036;stroke-width:1.0;"/><!--MD5=[ddeb2ed0e9a5311a26148921d25b6aa2]
@startuml
skinparam BackgroundColor transparent
hide empty methods
hide empty fields
interface "MediaQueryListEventInit" {
    +bubbles : boolean
    +cancelable : boolean
    +composed : boolean
    +matches : boolean
    +media : string
}
interface "EventInit" {
    +bubbles : boolean
    +cancelable : boolean
    +composed : boolean
}
"EventInit" <|- - "MediaQueryListEventInit"
@enduml

PlantUML version 1.2021.14(Fri Nov 12 11:46:50 EST 2021)
(GPL source distribution)
Java Runtime: OpenJDK Runtime Environment
JVM: OpenJDK 64-Bit Server VM
Default Encoding: UTF-8
Language: en
Country: US
--></g></svg>