<?xml version="1.0" encoding="UTF-8" standalone="no"?><svg xmlns="http://www.w3.org/2000/svg" xmlns:xlink="http://www.w3.org/1999/xlink" contentScriptType="application/ecmascript" contentStyleType="text/css" height="401px" preserveAspectRatio="none" style="width:259px;height:401px;background:#00000000;" version="1.1" viewBox="0 0 259 401" width="259px" zoomAndPan="magnify"><defs><filter height="300%" id="f1whpy3tm7e63b" width="300%" x="-1" y="-1"><feGaussianBlur result="blurOut" stdDeviation="2.0"/><feColorMatrix in="blurOut" result="blurOut2" type="matrix" values="0 0 0 0 0 0 0 0 0 0 0 0 0 0 0 0 0 0 .4 0"/><feOffset dx="4.0" dy="4.0" in="blurOut2" result="blurOut3"/><feBlend in="SourceGraphic" in2="blurOut3" mode="normal"/></filter></defs><g><!--MD5=[2daf89bce75b87d9f9b9e065a4db79a5]
class PaymentRequestUpdateEventInit--><rect codeLine="4" fill="#FEFECE" filter="url(#f1whpy3tm7e63b)" height="78.4141" id="PaymentRequestUpdateEventInit" style="stroke:#A80036;stroke-width:1.5;" width="238" x="7" y="145"/><ellipse cx="22" cy="161" fill="#B4A7E5" rx="11" ry="11" style="stroke:#A80036;stroke-width:1.0;"/><path d="M17.9219,156.7656 L17.9219,154.6094 L25.3125,154.6094 L25.3125,156.7656 L22.8438,156.7656 L22.8438,164.8438 L25.3125,164.8438 L25.3125,167 L17.9219,167 L17.9219,164.8438 L20.3906,164.8438 L20.3906,156.7656 L17.9219,156.7656 Z " fill="#000000"/><text fill="#000000" font-family="sans-serif" font-size="12" font-style="italic" lengthAdjust="spacing" textLength="206" x="36" y="165.1543">PaymentRequestUpdateEventInit</text><line style="stroke:#A80036;stroke-width:1.5;" x1="8" x2="244" y1="177" y2="177"/><ellipse cx="18" cy="188" rx="3" ry="3" style="stroke:#038048;stroke-width:1.0;fill:none;"/><text fill="#000000" font-family="sans-serif" font-size="11" lengthAdjust="spacing" textLength="102" x="27" y="191.2104">bubbles : boolean</text><ellipse cx="18" cy="200.8047" rx="3" ry="3" style="stroke:#038048;stroke-width:1.0;fill:none;"/><text fill="#000000" font-family="sans-serif" font-size="11" lengthAdjust="spacing" textLength="117" x="27" y="204.0151">cancelable : boolean</text><ellipse cx="18" cy="213.6094" rx="3" ry="3" style="stroke:#038048;stroke-width:1.0;fill:none;"/><text fill="#000000" font-family="sans-serif" font-size="11" lengthAdjust="spacing" textLength="116" x="27" y="216.8198">composed : boolean</text><!--MD5=[20555489c30bd85c28b7a7f2623ad986]
class EventInit--><rect codeLine="9" fill="#FEFECE" filter="url(#f1whpy3tm7e63b)" height="78.4141" id="EventInit" style="stroke:#A80036;stroke-width:1.5;" width="143" x="54.5" y="7"/><ellipse cx="94.7" cy="23" fill="#B4A7E5" rx="11" ry="11" style="stroke:#A80036;stroke-width:1.0;"/><path d="M90.6219,18.7656 L90.6219,16.6094 L98.0125,16.6094 L98.0125,18.7656 L95.5438,18.7656 L95.5438,26.8438 L98.0125,26.8438 L98.0125,29 L90.6219,29 L90.6219,26.8438 L93.0906,26.8438 L93.0906,18.7656 L90.6219,18.7656 Z " fill="#000000"/><text fill="#000000" font-family="sans-serif" font-size="12" font-style="italic" lengthAdjust="spacing" textLength="55" x="114.3" y="27.1543">EventInit</text><line style="stroke:#A80036;stroke-width:1.5;" x1="55.5" x2="196.5" y1="39" y2="39"/><ellipse cx="65.5" cy="50" rx="3" ry="3" style="stroke:#038048;stroke-width:1.0;fill:none;"/><text fill="#000000" font-family="sans-serif" font-size="11" lengthAdjust="spacing" textLength="102" x="74.5" y="53.2104">bubbles : boolean</text><ellipse cx="65.5" cy="62.8047" rx="3" ry="3" style="stroke:#038048;stroke-width:1.0;fill:none;"/><text fill="#000000" font-family="sans-serif" font-size="11" lengthAdjust="spacing" textLength="117" x="74.5" y="66.0151">cancelable : boolean</text><ellipse cx="65.5" cy="75.6094" rx="3" ry="3" style="stroke:#038048;stroke-width:1.0;fill:none;"/><text fill="#000000" font-family="sans-serif" font-size="11" lengthAdjust="spacing" textLength="116" x="74.5" y="78.8198">composed : boolean</text><!--MD5=[89dc3f406338163d443614bae8551e0b]
class PaymentMethodChangeEventInit--><rect codeLine="15" fill="#FEFECE" filter="url(#f1whpy3tm7e63b)" height="104.0234" id="PaymentMethodChangeEventInit" style="stroke:#A80036;stroke-width:1.5;" width="236" x="8" y="283"/><ellipse cx="23" cy="299" fill="#B4A7E5" rx="11" ry="11" style="stroke:#A80036;stroke-width:1.0;"/><path d="M18.9219,294.7656 L18.9219,292.6094 L26.3125,292.6094 L26.3125,294.7656 L23.8438,294.7656 L23.8438,302.8438 L26.3125,302.8438 L26.3125,305 L18.9219,305 L18.9219,302.8438 L21.3906,302.8438 L21.3906,294.7656 L18.9219,294.7656 Z " fill="#000000"/><text fill="#000000" font-family="sans-serif" font-size="12" font-style="italic" lengthAdjust="spacing" textLength="204" x="37" y="303.1543">PaymentMethodChangeEventInit</text><line style="stroke:#A80036;stroke-width:1.5;" x1="9" x2="243" y1="315" y2="315"/><ellipse cx="19" cy="326" rx="3" ry="3" style="stroke:#038048;stroke-width:1.0;fill:none;"/><text fill="#000000" font-family="sans-serif" font-size="11" lengthAdjust="spacing" textLength="102" x="28" y="329.2104">bubbles : boolean</text><ellipse cx="19" cy="338.8047" rx="3" ry="3" style="stroke:#038048;stroke-width:1.0;fill:none;"/><text fill="#000000" font-family="sans-serif" font-size="11" lengthAdjust="spacing" textLength="117" x="28" y="342.0151">cancelable : boolean</text><ellipse cx="19" cy="351.6094" rx="3" ry="3" style="stroke:#038048;stroke-width:1.0;fill:none;"/><text fill="#000000" font-family="sans-serif" font-size="11" lengthAdjust="spacing" textLength="116" x="28" y="354.8198">composed : boolean</text><ellipse cx="19" cy="364.4141" rx="3" ry="3" style="stroke:#038048;stroke-width:1.0;fill:none;"/><text fill="#000000" font-family="sans-serif" font-size="11" lengthAdjust="spacing" textLength="114" x="28" y="367.6245">methodDetails : any</text><ellipse cx="19" cy="377.2188" rx="3" ry="3" style="stroke:#038048;stroke-width:1.0;fill:none;"/><text fill="#000000" font-family="sans-serif" font-size="11" lengthAdjust="spacing" textLength="121" x="28" y="380.4292">methodName : string</text><!--MD5=[d212cbc8ac839484bc157a5243f2bd57]
reverse link EventInit to PaymentRequestUpdateEventInit--><path codeLine="14" d="M126,105.37 C126,118.63 126,132.39 126,144.57 " fill="none" id="EventInit-backto-PaymentRequestUpdateEventInit" style="stroke:#A80036;stroke-width:1.0;"/><polygon fill="none" points="119,105.25,126,85.25,133,105.25,119,105.25" style="stroke:#A80036;stroke-width:1.0;"/><!--MD5=[96eab6cf51c34c32d9496ae3b1e244a2]
reverse link PaymentRequestUpdateEventInit to PaymentMethodChangeEventInit--><path codeLine="22" d="M126,243.6 C126,256.56 126,270.2 126,282.84 " fill="none" id="PaymentRequestUpdateEventInit-backto-PaymentMethodChangeEventInit" style="stroke:#A80036;stroke-width:1.0;"/><polygon fill="none" points="119,243.37,126,223.37,133,243.37,119,243.37" style="stroke:#A80036;stroke-width:1.0;"/><!--MD5=[73ebb00d8f4a740db71e1c5f55c55857]
@startuml
skinparam BackgroundColor transparent
hide empty methods
hide empty fields
interface "PaymentRequestUpdateEventInit" {
    +bubbles : boolean
    +cancelable : boolean
    +composed : boolean
}
interface "EventInit" {
    +bubbles : boolean
    +cancelable : boolean
    +composed : boolean
}
"EventInit" <|- - "PaymentRequestUpdateEventInit"
interface "PaymentMethodChangeEventInit" {
    +bubbles : boolean
    +cancelable : boolean
    +composed : boolean
    +methodDetails : any
    +methodName : string
}
"PaymentRequestUpdateEventInit" <|- - "PaymentMethodChangeEventInit"
@enduml

PlantUML version 1.2021.14(Fri Nov 12 11:46:50 EST 2021)
(GPL source distribution)
Java Runtime: OpenJDK Runtime Environment
JVM: OpenJDK 64-Bit Server VM
Default Encoding: UTF-8
Language: en
Country: US
--></g></svg>