<?xml version="1.0" encoding="UTF-8" standalone="no"?><svg xmlns="http://www.w3.org/2000/svg" xmlns:xlink="http://www.w3.org/1999/xlink" contentScriptType="application/ecmascript" contentStyleType="text/css" height="263px" preserveAspectRatio="none" style="width:259px;height:263px;background:#00000000;" version="1.1" viewBox="0 0 259 263" width="259px" zoomAndPan="magnify"><defs><filter height="300%" id="f1ghaf14fvr0l8" width="300%" x="-1" y="-1"><feGaussianBlur result="blurOut" stdDeviation="2.0"/><feColorMatrix in="blurOut" result="blurOut2" type="matrix" values="0 0 0 0 0 0 0 0 0 0 0 0 0 0 0 0 0 0 .4 0"/><feOffset dx="4.0" dy="4.0" in="blurOut2" result="blurOut3"/><feBlend in="SourceGraphic" in2="blurOut3" mode="normal"/></filter></defs><g><!--MD5=[89dc3f406338163d443614bae8551e0b]
class PaymentMethodChangeEventInit--><rect codeLine="4" fill="#FEFECE" filter="url(#f1ghaf14fvr0l8)" height="104.0234" id="PaymentMethodChangeEventInit" style="stroke:#A80036;stroke-width:1.5;" width="236" x="8" y="145"/><ellipse cx="23" cy="161" fill="#B4A7E5" rx="11" ry="11" style="stroke:#A80036;stroke-width:1.0;"/><path d="M18.9219,156.7656 L18.9219,154.6094 L26.3125,154.6094 L26.3125,156.7656 L23.8438,156.7656 L23.8438,164.8438 L26.3125,164.8438 L26.3125,167 L18.9219,167 L18.9219,164.8438 L21.3906,164.8438 L21.3906,156.7656 L18.9219,156.7656 Z " fill="#000000"/><text fill="#000000" font-family="sans-serif" font-size="12" font-style="italic" lengthAdjust="spacing" textLength="204" x="37" y="165.1543">PaymentMethodChangeEventInit</text><line style="stroke:#A80036;stroke-width:1.5;" x1="9" x2="243" y1="177" y2="177"/><ellipse cx="19" cy="188" rx="3" ry="3" style="stroke:#038048;stroke-width:1.0;fill:none;"/><text fill="#000000" font-family="sans-serif" font-size="11" lengthAdjust="spacing" textLength="102" x="28" y="191.2104">bubbles : boolean</text><ellipse cx="19" cy="200.8047" rx="3" ry="3" style="stroke:#038048;stroke-width:1.0;fill:none;"/><text fill="#000000" font-family="sans-serif" font-size="11" lengthAdjust="spacing" textLength="117" x="28" y="204.0151">cancelable : boolean</text><ellipse cx="19" cy="213.6094" rx="3" ry="3" style="stroke:#038048;stroke-width:1.0;fill:none;"/><text fill="#000000" font-family="sans-serif" font-size="11" lengthAdjust="spacing" textLength="116" x="28" y="216.8198">composed : boolean</text><ellipse cx="19" cy="226.4141" rx="3" ry="3" style="stroke:#038048;stroke-width:1.0;fill:none;"/><text fill="#000000" font-family="sans-serif" font-size="11" lengthAdjust="spacing" textLength="114" x="28" y="229.6245">methodDetails : any</text><ellipse cx="19" cy="239.2188" rx="3" ry="3" style="stroke:#038048;stroke-width:1.0;fill:none;"/><text fill="#000000" font-family="sans-serif" font-size="11" lengthAdjust="spacing" textLength="121" x="28" y="242.4292">methodName : string</text><!--MD5=[2daf89bce75b87d9f9b9e065a4db79a5]
class PaymentRequestUpdateEventInit--><rect codeLine="11" fill="#FEFECE" filter="url(#f1ghaf14fvr0l8)" height="78.4141" id="PaymentRequestUpdateEventInit" style="stroke:#A80036;stroke-width:1.5;" width="238" x="7" y="7"/><ellipse cx="22" cy="23" fill="#B4A7E5" rx="11" ry="11" style="stroke:#A80036;stroke-width:1.0;"/><path d="M17.9219,18.7656 L17.9219,16.6094 L25.3125,16.6094 L25.3125,18.7656 L22.8438,18.7656 L22.8438,26.8438 L25.3125,26.8438 L25.3125,29 L17.9219,29 L17.9219,26.8438 L20.3906,26.8438 L20.3906,18.7656 L17.9219,18.7656 Z " fill="#000000"/><text fill="#000000" font-family="sans-serif" font-size="12" font-style="italic" lengthAdjust="spacing" textLength="206" x="36" y="27.1543">PaymentRequestUpdateEventInit</text><line style="stroke:#A80036;stroke-width:1.5;" x1="8" x2="244" y1="39" y2="39"/><ellipse cx="18" cy="50" rx="3" ry="3" style="stroke:#038048;stroke-width:1.0;fill:none;"/><text fill="#000000" font-family="sans-serif" font-size="11" lengthAdjust="spacing" textLength="102" x="27" y="53.2104">bubbles : boolean</text><ellipse cx="18" cy="62.8047" rx="3" ry="3" style="stroke:#038048;stroke-width:1.0;fill:none;"/><text fill="#000000" font-family="sans-serif" font-size="11" lengthAdjust="spacing" textLength="117" x="27" y="66.0151">cancelable : boolean</text><ellipse cx="18" cy="75.6094" rx="3" ry="3" style="stroke:#038048;stroke-width:1.0;fill:none;"/><text fill="#000000" font-family="sans-serif" font-size="11" lengthAdjust="spacing" textLength="116" x="27" y="78.8198">composed : boolean</text><!--MD5=[96eab6cf51c34c32d9496ae3b1e244a2]
reverse link PaymentRequestUpdateEventInit to PaymentMethodChangeEventInit--><path codeLine="16" d="M126,105.6 C126,118.56 126,132.2 126,144.84 " fill="none" id="PaymentRequestUpdateEventInit-backto-PaymentMethodChangeEventInit" style="stroke:#A80036;stroke-width:1.0;"/><polygon fill="none" points="119,105.37,126,85.37,133,105.37,119,105.37" style="stroke:#A80036;stroke-width:1.0;"/><!--MD5=[27ee23ef0f27547917fd4c09f5c79d50]
@startuml
skinparam BackgroundColor transparent
hide empty methods
hide empty fields
interface "PaymentMethodChangeEventInit" {
    +bubbles : boolean
    +cancelable : boolean
    +composed : boolean
    +methodDetails : any
    +methodName : string
}
interface "PaymentRequestUpdateEventInit" {
    +bubbles : boolean
    +cancelable : boolean
    +composed : boolean
}
"PaymentRequestUpdateEventInit" <|- - "PaymentMethodChangeEventInit"
@enduml

PlantUML version 1.2021.14(Fri Nov 12 11:46:50 EST 2021)
(GPL source distribution)
Java Runtime: OpenJDK Runtime Environment
JVM: OpenJDK 64-Bit Server VM
Default Encoding: UTF-8
Language: en
Country: US
--></g></svg>