<?xml version="1.0" encoding="UTF-8" standalone="no"?><svg xmlns="http://www.w3.org/2000/svg" xmlns:xlink="http://www.w3.org/1999/xlink" contentScriptType="application/ecmascript" contentStyleType="text/css" height="238px" preserveAspectRatio="none" style="width:254px;height:238px;background:#00000000;" version="1.1" viewBox="0 0 254 238" width="254px" zoomAndPan="magnify"><defs><filter height="300%" id="f549sbejze81l" width="300%" x="-1" y="-1"><feGaussianBlur result="blurOut" stdDeviation="2.0"/><feColorMatrix in="blurOut" result="blurOut2" type="matrix" values="0 0 0 0 0 0 0 0 0 0 0 0 0 0 0 0 0 0 .4 0"/><feOffset dx="4.0" dy="4.0" in="blurOut2" result="blurOut3"/><feBlend in="SourceGraphic" in2="blurOut3" mode="normal"/></filter></defs><g><!--MD5=[b7e4c94bcc7b4a35e23a9a2df2fded96]
class PaymentDetailsBase--><rect codeLine="4" fill="#FEFECE" filter="url(#f549sbejze81l)" height="65.6094" id="PaymentDetailsBase" style="stroke:#A80036;stroke-width:1.5;" width="233" x="7" y="7"/><ellipse cx="56.25" cy="23" fill="#B4A7E5" rx="11" ry="11" style="stroke:#A80036;stroke-width:1.0;"/><path d="M52.1719,18.7656 L52.1719,16.6094 L59.5625,16.6094 L59.5625,18.7656 L57.0938,18.7656 L57.0938,26.8438 L59.5625,26.8438 L59.5625,29 L52.1719,29 L52.1719,26.8438 L54.6406,26.8438 L54.6406,18.7656 L52.1719,18.7656 Z " fill="#000000"/><text fill="#000000" font-family="sans-serif" font-size="12" font-style="italic" lengthAdjust="spacing" textLength="126" x="76.75" y="27.1543">PaymentDetailsBase</text><line style="stroke:#A80036;stroke-width:1.5;" x1="8" x2="239" y1="39" y2="39"/><ellipse cx="18" cy="50" rx="3" ry="3" style="stroke:#038048;stroke-width:1.0;fill:none;"/><text fill="#000000" font-family="sans-serif" font-size="11" lengthAdjust="spacing" textLength="166" x="27" y="53.2104">displayItems : PaymentItem[]</text><ellipse cx="18" cy="62.8047" rx="3" ry="3" style="stroke:#038048;stroke-width:1.0;fill:none;"/><text fill="#000000" font-family="sans-serif" font-size="11" lengthAdjust="spacing" textLength="207" x="27" y="66.0151">modifiers : PaymentDetailsModifier[]</text><!--MD5=[f201bba2f3ac28c9e0c6506ea4310a68]
class PaymentDetailsUpdate--><rect codeLine="8" fill="#FEFECE" filter="url(#f549sbejze81l)" height="91.2188" id="PaymentDetailsUpdate" style="stroke:#A80036;stroke-width:1.5;" width="233" x="7" y="133"/><ellipse cx="48.55" cy="149" fill="#B4A7E5" rx="11" ry="11" style="stroke:#A80036;stroke-width:1.0;"/><path d="M44.4719,144.7656 L44.4719,142.6094 L51.8625,142.6094 L51.8625,144.7656 L49.3938,144.7656 L49.3938,152.8438 L51.8625,152.8438 L51.8625,155 L44.4719,155 L44.4719,152.8438 L46.9406,152.8438 L46.9406,144.7656 L44.4719,144.7656 Z " fill="#000000"/><text fill="#000000" font-family="sans-serif" font-size="12" font-style="italic" lengthAdjust="spacing" textLength="142" x="68.45" y="153.1543">PaymentDetailsUpdate</text><line style="stroke:#A80036;stroke-width:1.5;" x1="8" x2="239" y1="165" y2="165"/><ellipse cx="18" cy="176" rx="3" ry="3" style="stroke:#038048;stroke-width:1.0;fill:none;"/><text fill="#000000" font-family="sans-serif" font-size="11" lengthAdjust="spacing" textLength="166" x="27" y="179.2104">displayItems : PaymentItem[]</text><ellipse cx="18" cy="188.8047" rx="3" ry="3" style="stroke:#038048;stroke-width:1.0;fill:none;"/><text fill="#000000" font-family="sans-serif" font-size="11" lengthAdjust="spacing" textLength="207" x="27" y="192.0151">modifiers : PaymentDetailsModifier[]</text><ellipse cx="18" cy="201.6094" rx="3" ry="3" style="stroke:#038048;stroke-width:1.0;fill:none;"/><text fill="#000000" font-family="sans-serif" font-size="11" lengthAdjust="spacing" textLength="158" x="27" y="204.8198">paymentMethodErrors : any</text><ellipse cx="18" cy="214.4141" rx="3" ry="3" style="stroke:#038048;stroke-width:1.0;fill:none;"/><text fill="#000000" font-family="sans-serif" font-size="11" lengthAdjust="spacing" textLength="111" x="27" y="217.6245">total : PaymentItem</text><!--MD5=[6a6f7dd86a748ae95cf0d9bd94413fe4]
reverse link PaymentDetailsBase to PaymentDetailsUpdate--><path codeLine="14" d="M123.5,93.18 C123.5,106.23 123.5,120.12 123.5,132.78 " fill="none" id="PaymentDetailsBase-backto-PaymentDetailsUpdate" style="stroke:#A80036;stroke-width:1.0;"/><polygon fill="none" points="116.5,93,123.5,73,130.5,93,116.5,93" style="stroke:#A80036;stroke-width:1.0;"/><!--MD5=[80623f2b16e109834f81a9a9a51a958c]
@startuml
skinparam BackgroundColor transparent
hide empty methods
hide empty fields
interface "PaymentDetailsBase" {
    +displayItems : PaymentItem[]
    +modifiers : PaymentDetailsModifier[]
}
interface "PaymentDetailsUpdate" {
    +displayItems : PaymentItem[]
    +modifiers : PaymentDetailsModifier[]
    +paymentMethodErrors : any
    +total : PaymentItem
}
"PaymentDetailsBase" <|- - "PaymentDetailsUpdate"
@enduml

PlantUML version 1.2021.14(Fri Nov 12 11:46:50 EST 2021)
(GPL source distribution)
Java Runtime: OpenJDK Runtime Environment
JVM: OpenJDK 64-Bit Server VM
Default Encoding: UTF-8
Language: en
Country: US
--></g></svg>