<?xml version="1.0" encoding="UTF-8" standalone="no"?><svg xmlns="http://www.w3.org/2000/svg" xmlns:xlink="http://www.w3.org/1999/xlink" contentScriptType="application/ecmascript" contentStyleType="text/css" height="250px" preserveAspectRatio="none" style="width:319px;height:250px;background:#00000000;" version="1.1" viewBox="0 0 319 250" width="319px" zoomAndPan="magnify"><defs><filter height="300%" id="f1ejqhf1is7ccm" width="300%" x="-1" y="-1"><feGaussianBlur result="blurOut" stdDeviation="2.0"/><feColorMatrix in="blurOut" result="blurOut2" type="matrix" values="0 0 0 0 0 0 0 0 0 0 0 0 0 0 0 0 0 0 .4 0"/><feOffset dx="4.0" dy="4.0" in="blurOut2" result="blurOut3"/><feBlend in="SourceGraphic" in2="blurOut3" mode="normal"/></filter></defs><g><!--MD5=[bff8a09a3033133b6bf10ecefbcdc841]
class PictureInPictureEventInit--><rect codeLine="4" fill="#FEFECE" filter="url(#f1ejqhf1is7ccm)" height="91.2188" id="PictureInPictureEventInit" style="stroke:#A80036;stroke-width:1.5;" width="298" x="7" y="145"/><ellipse cx="75.25" cy="161" fill="#B4A7E5" rx="11" ry="11" style="stroke:#A80036;stroke-width:1.0;"/><path d="M71.1719,156.7656 L71.1719,154.6094 L78.5625,154.6094 L78.5625,156.7656 L76.0938,156.7656 L76.0938,164.8438 L78.5625,164.8438 L78.5625,167 L71.1719,167 L71.1719,164.8438 L73.6406,164.8438 L73.6406,156.7656 L71.1719,156.7656 Z " fill="#000000"/><text fill="#000000" font-family="sans-serif" font-size="12" font-style="italic" lengthAdjust="spacing" textLength="153" x="95.75" y="165.1543">PictureInPictureEventInit</text><line style="stroke:#A80036;stroke-width:1.5;" x1="8" x2="304" y1="177" y2="177"/><ellipse cx="18" cy="188" rx="3" ry="3" style="stroke:#038048;stroke-width:1.0;fill:none;"/><text fill="#000000" font-family="sans-serif" font-size="11" lengthAdjust="spacing" textLength="102" x="27" y="191.2104">bubbles : boolean</text><ellipse cx="18" cy="200.8047" rx="3" ry="3" style="stroke:#038048;stroke-width:1.0;fill:none;"/><text fill="#000000" font-family="sans-serif" font-size="11" lengthAdjust="spacing" textLength="117" x="27" y="204.0151">cancelable : boolean</text><ellipse cx="18" cy="213.6094" rx="3" ry="3" style="stroke:#038048;stroke-width:1.0;fill:none;"/><text fill="#000000" font-family="sans-serif" font-size="11" lengthAdjust="spacing" textLength="116" x="27" y="216.8198">composed : boolean</text><ellipse cx="18" cy="226.4141" rx="3" ry="3" style="stroke:#038048;stroke-width:1.0;fill:none;"/><text fill="#000000" font-family="sans-serif" font-size="11" lengthAdjust="spacing" textLength="272" x="27" y="229.6245">pictureInPictureWindow : PictureInPictureWindow</text><!--MD5=[20555489c30bd85c28b7a7f2623ad986]
class EventInit--><rect codeLine="10" fill="#FEFECE" filter="url(#f1ejqhf1is7ccm)" height="78.4141" id="EventInit" style="stroke:#A80036;stroke-width:1.5;" width="143" x="84.5" y="7"/><ellipse cx="124.7" cy="23" fill="#B4A7E5" rx="11" ry="11" style="stroke:#A80036;stroke-width:1.0;"/><path d="M120.6219,18.7656 L120.6219,16.6094 L128.0125,16.6094 L128.0125,18.7656 L125.5438,18.7656 L125.5438,26.8438 L128.0125,26.8438 L128.0125,29 L120.6219,29 L120.6219,26.8438 L123.0906,26.8438 L123.0906,18.7656 L120.6219,18.7656 Z " fill="#000000"/><text fill="#000000" font-family="sans-serif" font-size="12" font-style="italic" lengthAdjust="spacing" textLength="55" x="144.3" y="27.1543">EventInit</text><line style="stroke:#A80036;stroke-width:1.5;" x1="85.5" x2="226.5" y1="39" y2="39"/><ellipse cx="95.5" cy="50" rx="3" ry="3" style="stroke:#038048;stroke-width:1.0;fill:none;"/><text fill="#000000" font-family="sans-serif" font-size="11" lengthAdjust="spacing" textLength="102" x="104.5" y="53.2104">bubbles : boolean</text><ellipse cx="95.5" cy="62.8047" rx="3" ry="3" style="stroke:#038048;stroke-width:1.0;fill:none;"/><text fill="#000000" font-family="sans-serif" font-size="11" lengthAdjust="spacing" textLength="117" x="104.5" y="66.0151">cancelable : boolean</text><ellipse cx="95.5" cy="75.6094" rx="3" ry="3" style="stroke:#038048;stroke-width:1.0;fill:none;"/><text fill="#000000" font-family="sans-serif" font-size="11" lengthAdjust="spacing" textLength="116" x="104.5" y="78.8198">composed : boolean</text><!--MD5=[c9d8b9f45e30860c21f534d66c725844]
reverse link EventInit to PictureInPictureEventInit--><path codeLine="15" d="M156,105.21 C156,118.45 156,132.32 156,144.89 " fill="none" id="EventInit-backto-PictureInPictureEventInit" style="stroke:#A80036;stroke-width:1.0;"/><polygon fill="none" points="149,105.19,156,85.19,163,105.19,149,105.19" style="stroke:#A80036;stroke-width:1.0;"/><!--MD5=[20edcb7d489f6a74f760169882015774]
@startuml
skinparam BackgroundColor transparent
hide empty methods
hide empty fields
interface "PictureInPictureEventInit" {
    +bubbles : boolean
    +cancelable : boolean
    +composed : boolean
    +pictureInPictureWindow : PictureInPictureWindow
}
interface "EventInit" {
    +bubbles : boolean
    +cancelable : boolean
    +composed : boolean
}
"EventInit" <|- - "PictureInPictureEventInit"
@enduml

PlantUML version 1.2021.14(Fri Nov 12 11:46:50 EST 2021)
(GPL source distribution)
Java Runtime: OpenJDK Runtime Environment
JVM: OpenJDK 64-Bit Server VM
Default Encoding: UTF-8
Language: en
Country: US
--></g></svg>