<?xml version="1.0" encoding="UTF-8" standalone="no"?><svg xmlns="http://www.w3.org/2000/svg" xmlns:xlink="http://www.w3.org/1999/xlink" contentScriptType="application/ecmascript" contentStyleType="text/css" height="275px" preserveAspectRatio="none" style="width:207px;height:275px;background:#00000000;" version="1.1" viewBox="0 0 207 275" width="207px" zoomAndPan="magnify"><defs><filter height="300%" id="fvz0fwzmccbwt" width="300%" x="-1" y="-1"><feGaussianBlur result="blurOut" stdDeviation="2.0"/><feColorMatrix in="blurOut" result="blurOut2" type="matrix" values="0 0 0 0 0 0 0 0 0 0 0 0 0 0 0 0 0 0 .4 0"/><feOffset dx="4.0" dy="4.0" in="blurOut2" result="blurOut3"/><feBlend in="SourceGraphic" in2="blurOut3" mode="normal"/></filter></defs><g><!--MD5=[fa08e5a5d8e433236dfc3384d7ff1013]
class ProgressEventInit--><rect codeLine="4" fill="#FEFECE" filter="url(#fvz0fwzmccbwt)" height="116.8281" id="ProgressEventInit" style="stroke:#A80036;stroke-width:1.5;" width="186" x="7" y="145"/><ellipse cx="42.7" cy="161" fill="#B4A7E5" rx="11" ry="11" style="stroke:#A80036;stroke-width:1.0;"/><path d="M38.6219,156.7656 L38.6219,154.6094 L46.0125,154.6094 L46.0125,156.7656 L43.5438,156.7656 L43.5438,164.8438 L46.0125,164.8438 L46.0125,167 L38.6219,167 L38.6219,164.8438 L41.0906,164.8438 L41.0906,156.7656 L38.6219,156.7656 Z " fill="#000000"/><text fill="#000000" font-family="sans-serif" font-size="12" font-style="italic" lengthAdjust="spacing" textLength="108" x="61.3" y="165.1543">ProgressEventInit</text><line style="stroke:#A80036;stroke-width:1.5;" x1="8" x2="192" y1="177" y2="177"/><ellipse cx="18" cy="188" rx="3" ry="3" style="stroke:#038048;stroke-width:1.0;fill:none;"/><text fill="#000000" font-family="sans-serif" font-size="11" lengthAdjust="spacing" textLength="102" x="27" y="191.2104">bubbles : boolean</text><ellipse cx="18" cy="200.8047" rx="3" ry="3" style="stroke:#038048;stroke-width:1.0;fill:none;"/><text fill="#000000" font-family="sans-serif" font-size="11" lengthAdjust="spacing" textLength="117" x="27" y="204.0151">cancelable : boolean</text><ellipse cx="18" cy="213.6094" rx="3" ry="3" style="stroke:#038048;stroke-width:1.0;fill:none;"/><text fill="#000000" font-family="sans-serif" font-size="11" lengthAdjust="spacing" textLength="116" x="27" y="216.8198">composed : boolean</text><ellipse cx="18" cy="226.4141" rx="3" ry="3" style="stroke:#038048;stroke-width:1.0;fill:none;"/><text fill="#000000" font-family="sans-serif" font-size="11" lengthAdjust="spacing" textLength="160" x="27" y="229.6245">lengthComputable : boolean</text><ellipse cx="18" cy="239.2188" rx="3" ry="3" style="stroke:#038048;stroke-width:1.0;fill:none;"/><text fill="#000000" font-family="sans-serif" font-size="11" lengthAdjust="spacing" textLength="94" x="27" y="242.4292">loaded : number</text><ellipse cx="18" cy="252.0234" rx="3" ry="3" style="stroke:#038048;stroke-width:1.0;fill:none;"/><text fill="#000000" font-family="sans-serif" font-size="11" lengthAdjust="spacing" textLength="81" x="27" y="255.2339">total : number</text><!--MD5=[20555489c30bd85c28b7a7f2623ad986]
class EventInit--><rect codeLine="12" fill="#FEFECE" filter="url(#fvz0fwzmccbwt)" height="78.4141" id="EventInit" style="stroke:#A80036;stroke-width:1.5;" width="143" x="28.5" y="7"/><ellipse cx="68.7" cy="23" fill="#B4A7E5" rx="11" ry="11" style="stroke:#A80036;stroke-width:1.0;"/><path d="M64.6219,18.7656 L64.6219,16.6094 L72.0125,16.6094 L72.0125,18.7656 L69.5438,18.7656 L69.5438,26.8438 L72.0125,26.8438 L72.0125,29 L64.6219,29 L64.6219,26.8438 L67.0906,26.8438 L67.0906,18.7656 L64.6219,18.7656 Z " fill="#000000"/><text fill="#000000" font-family="sans-serif" font-size="12" font-style="italic" lengthAdjust="spacing" textLength="55" x="88.3" y="27.1543">EventInit</text><line style="stroke:#A80036;stroke-width:1.5;" x1="29.5" x2="170.5" y1="39" y2="39"/><ellipse cx="39.5" cy="50" rx="3" ry="3" style="stroke:#038048;stroke-width:1.0;fill:none;"/><text fill="#000000" font-family="sans-serif" font-size="11" lengthAdjust="spacing" textLength="102" x="48.5" y="53.2104">bubbles : boolean</text><ellipse cx="39.5" cy="62.8047" rx="3" ry="3" style="stroke:#038048;stroke-width:1.0;fill:none;"/><text fill="#000000" font-family="sans-serif" font-size="11" lengthAdjust="spacing" textLength="117" x="48.5" y="66.0151">cancelable : boolean</text><ellipse cx="39.5" cy="75.6094" rx="3" ry="3" style="stroke:#038048;stroke-width:1.0;fill:none;"/><text fill="#000000" font-family="sans-serif" font-size="11" lengthAdjust="spacing" textLength="116" x="48.5" y="78.8198">composed : boolean</text><!--MD5=[329c3de0d2ec300cdee4dd332257904e]
reverse link EventInit to ProgressEventInit--><path codeLine="17" d="M100,105.19 C100,118.16 100,131.9 100,144.84 " fill="none" id="EventInit-backto-ProgressEventInit" style="stroke:#A80036;stroke-width:1.0;"/><polygon fill="none" points="93,105.04,100,85.04,107,105.04,93,105.04" style="stroke:#A80036;stroke-width:1.0;"/><!--MD5=[0de72ec892fffec957994a1153b3d80f]
@startuml
skinparam BackgroundColor transparent
hide empty methods
hide empty fields
interface "ProgressEventInit" {
    +bubbles : boolean
    +cancelable : boolean
    +composed : boolean
    +lengthComputable : boolean
    +loaded : number
    +total : number
}
interface "EventInit" {
    +bubbles : boolean
    +cancelable : boolean
    +composed : boolean
}
"EventInit" <|- - "ProgressEventInit"
@enduml

PlantUML version 1.2021.14(Fri Nov 12 11:46:50 EST 2021)
(GPL source distribution)
Java Runtime: OpenJDK Runtime Environment
JVM: OpenJDK 64-Bit Server VM
Default Encoding: UTF-8
Language: en
Country: US
--></g></svg>