<?xml version="1.0" encoding="UTF-8" standalone="no"?><svg xmlns="http://www.w3.org/2000/svg" xmlns:xlink="http://www.w3.org/1999/xlink" contentScriptType="application/ecmascript" contentStyleType="text/css" height="254px" preserveAspectRatio="none" style="width:772px;height:254px;background:#00000000;" version="1.1" viewBox="0 0 772 254" width="772px" zoomAndPan="magnify"><defs><filter height="300%" id="f11ifggdmymzs6" width="300%" x="-1" y="-1"><feGaussianBlur result="blurOut" stdDeviation="2.0"/><feColorMatrix in="blurOut" result="blurOut2" type="matrix" values="0 0 0 0 0 0 0 0 0 0 0 0 0 0 0 0 0 0 .4 0"/><feOffset dx="4.0" dy="4.0" in="blurOut2" result="blurOut3"/><feBlend in="SourceGraphic" in2="blurOut3" mode="normal"/></filter></defs><g><!--MD5=[50a54eb3002964d98d7ddf8ef81a60b3]
class ReadableStreamGenericReader--><rect codeLine="4" fill="#FEFECE" filter="url(#f11ifggdmymzs6)" height="73.6094" id="ReadableStreamGenericReader" style="stroke:#A80036;stroke-width:1.5;" width="238" x="276" y="7"/><ellipse cx="295.05" cy="23" fill="#B4A7E5" rx="11" ry="11" style="stroke:#A80036;stroke-width:1.0;"/><path d="M290.9719,18.7656 L290.9719,16.6094 L298.3625,16.6094 L298.3625,18.7656 L295.8938,18.7656 L295.8938,26.8438 L298.3625,26.8438 L298.3625,29 L290.9719,29 L290.9719,26.8438 L293.4406,26.8438 L293.4406,18.7656 L290.9719,18.7656 Z " fill="#000000"/><text fill="#000000" font-family="sans-serif" font-size="12" font-style="italic" lengthAdjust="spacing" textLength="197" x="309.95" y="27.1543">ReadableStreamGenericReader</text><line style="stroke:#A80036;stroke-width:1.5;" x1="277" x2="513" y1="39" y2="39"/><ellipse cx="287" cy="50" rx="3" ry="3" style="stroke:#038048;stroke-width:1.0;fill:none;"/><text fill="#000000" font-family="sans-serif" font-size="11" lengthAdjust="spacing" textLength="170" x="296" y="53.2104">closed : Promise&lt;undefined&gt;</text><line style="stroke:#A80036;stroke-width:1.5;" x1="277" x2="513" y1="59.8047" y2="59.8047"/><ellipse cx="287" cy="70.8047" fill="#84BE84" rx="3" ry="3" style="stroke:#038048;stroke-width:1.0;"/><text fill="#000000" font-family="sans-serif" font-size="11" lengthAdjust="spacing" textLength="212" x="296" y="74.0151">cancel(reason: any) : Promise&lt;void&gt;</text><!--MD5=[aba1ccb25d018c064f71622797900a79]
class ReadableStreamBYOBReader--><rect codeLine="8" fill="#FEFECE" filter="url(#f11ifggdmymzs6)" height="99.2188" id="ReadableStreamBYOBReader" style="stroke:#A80036;stroke-width:1.5;" width="384" x="7" y="141"/><ellipse cx="104.75" cy="157" fill="#B4A7E5" rx="11" ry="11" style="stroke:#A80036;stroke-width:1.0;"/><path d="M100.6719,152.7656 L100.6719,150.6094 L108.0625,150.6094 L108.0625,152.7656 L105.5938,152.7656 L105.5938,160.8438 L108.0625,160.8438 L108.0625,163 L100.6719,163 L100.6719,160.8438 L103.1406,160.8438 L103.1406,152.7656 L100.6719,152.7656 Z " fill="#000000"/><text fill="#000000" font-family="sans-serif" font-size="12" font-style="italic" lengthAdjust="spacing" textLength="180" x="125.25" y="161.1543">ReadableStreamBYOBReader</text><line style="stroke:#A80036;stroke-width:1.5;" x1="8" x2="390" y1="173" y2="173"/><ellipse cx="18" cy="184" rx="3" ry="3" style="stroke:#038048;stroke-width:1.0;fill:none;"/><text fill="#000000" font-family="sans-serif" font-size="11" lengthAdjust="spacing" textLength="170" x="27" y="187.2104">closed : Promise&lt;undefined&gt;</text><line style="stroke:#A80036;stroke-width:1.5;" x1="8" x2="390" y1="193.8047" y2="193.8047"/><ellipse cx="18" cy="204.8047" fill="#84BE84" rx="3" ry="3" style="stroke:#038048;stroke-width:1.0;"/><text fill="#000000" font-family="sans-serif" font-size="11" lengthAdjust="spacing" textLength="212" x="27" y="208.0151">cancel(reason: any) : Promise&lt;void&gt;</text><ellipse cx="18" cy="217.6094" fill="#84BE84" rx="3" ry="3" style="stroke:#038048;stroke-width:1.0;"/><text fill="#000000" font-family="sans-serif" font-size="11" lengthAdjust="spacing" textLength="358" x="27" y="220.8198">read&lt;T&gt;(view: T) : Promise&lt;ReadableStreamReadResult&lt;T&gt;&gt;</text><ellipse cx="18" cy="230.4141" fill="#84BE84" rx="3" ry="3" style="stroke:#038048;stroke-width:1.0;"/><text fill="#000000" font-family="sans-serif" font-size="11" lengthAdjust="spacing" textLength="111" x="27" y="233.6245">releaseLock() : void</text><!--MD5=[d6e17b26805aebfec4c4b4824f40541d]
class ReadableStreamDefaultReader<any>--><rect codeLine="15" fill="#FEFECE" filter="url(#f11ifggdmymzs6)" height="99.2188" id="ReadableStreamDefaultReader&lt;any&gt;" style="stroke:#A80036;stroke-width:1.5;" width="332" x="426" y="141"/><ellipse cx="469.35" cy="157" fill="#B4A7E5" rx="11" ry="11" style="stroke:#A80036;stroke-width:1.0;"/><path d="M465.2719,152.7656 L465.2719,150.6094 L472.6625,150.6094 L472.6625,152.7656 L470.1938,152.7656 L470.1938,160.8438 L472.6625,160.8438 L472.6625,163 L465.2719,163 L465.2719,160.8438 L467.7406,160.8438 L467.7406,152.7656 L465.2719,152.7656 Z " fill="#000000"/><text fill="#000000" font-family="sans-serif" font-size="12" font-style="italic" lengthAdjust="spacing" textLength="237" x="489.65" y="161.1543">ReadableStreamDefaultReader&lt;any&gt;</text><line style="stroke:#A80036;stroke-width:1.5;" x1="427" x2="757" y1="173" y2="173"/><ellipse cx="437" cy="184" rx="3" ry="3" style="stroke:#038048;stroke-width:1.0;fill:none;"/><text fill="#000000" font-family="sans-serif" font-size="11" lengthAdjust="spacing" textLength="170" x="446" y="187.2104">closed : Promise&lt;undefined&gt;</text><line style="stroke:#A80036;stroke-width:1.5;" x1="427" x2="757" y1="193.8047" y2="193.8047"/><ellipse cx="437" cy="204.8047" fill="#84BE84" rx="3" ry="3" style="stroke:#038048;stroke-width:1.0;"/><text fill="#000000" font-family="sans-serif" font-size="11" lengthAdjust="spacing" textLength="212" x="446" y="208.0151">cancel(reason: any) : Promise&lt;void&gt;</text><ellipse cx="437" cy="217.6094" fill="#84BE84" rx="3" ry="3" style="stroke:#038048;stroke-width:1.0;"/><text fill="#000000" font-family="sans-serif" font-size="11" lengthAdjust="spacing" textLength="306" x="446" y="220.8198">read() : Promise&lt;ReadableStreamReadResult&lt;any&gt;&gt;</text><ellipse cx="437" cy="230.4141" fill="#84BE84" rx="3" ry="3" style="stroke:#038048;stroke-width:1.0;"/><text fill="#000000" font-family="sans-serif" font-size="11" lengthAdjust="spacing" textLength="111" x="446" y="233.6245">releaseLock() : void</text><!--MD5=[2e5efc281e671d63e3aedfa6d763c2bb]
reverse link ReadableStreamGenericReader to ReadableStreamBYOBReader--><path codeLine="14" d="M329.9,93 C309.06,108.36 285.97,125.38 265.06,140.8 " fill="none" id="ReadableStreamGenericReader-backto-ReadableStreamBYOBReader" style="stroke:#A80036;stroke-width:1.0;"/><polygon fill="none" points="325.79,87.32,346.05,81.09,334.1,98.59,325.79,87.32" style="stroke:#A80036;stroke-width:1.0;"/><!--MD5=[47c1963eca05cb409e49f981ecac44de]
reverse link ReadableStreamGenericReader to ReadableStreamDefaultReader<any>--><path codeLine="21" d="M460.43,93 C481.38,108.36 504.59,125.38 525.61,140.8 " fill="none" id="ReadableStreamGenericReader-backto-ReadableStreamDefaultReader&lt;any&gt;" style="stroke:#A80036;stroke-width:1.0;"/><polygon fill="none" points="456.19,98.56,444.2,81.09,464.47,87.28,456.19,98.56" style="stroke:#A80036;stroke-width:1.0;"/><!--MD5=[32dfdb019590684f4346a0e7cc4fe849]
@startuml
skinparam BackgroundColor transparent
hide empty methods
hide empty fields
interface "ReadableStreamGenericReader" {
    +closed : Promise<undefined>
    +cancel(reason: any) : Promise<void>
}
interface "ReadableStreamBYOBReader" {
    +closed : Promise<undefined>
    +cancel(reason: any) : Promise<void>
    +read<T>(view: T) : Promise<ReadableStreamReadResult<T>>
    +releaseLock() : void
}
"ReadableStreamGenericReader" <|- - "ReadableStreamBYOBReader"
interface "ReadableStreamDefaultReader<any>" {
    +closed : Promise<undefined>
    +cancel(reason: any) : Promise<void>
    +read() : Promise<ReadableStreamReadResult<any>>
    +releaseLock() : void
}
"ReadableStreamGenericReader" <|- - "ReadableStreamDefaultReader<any>"
@enduml

PlantUML version 1.2021.14(Fri Nov 12 11:46:50 EST 2021)
(GPL source distribution)
Java Runtime: OpenJDK Runtime Environment
JVM: OpenJDK 64-Bit Server VM
Default Encoding: UTF-8
Language: en
Country: US
--></g></svg>