<?xml version="1.0" encoding="UTF-8" standalone="no"?><svg xmlns="http://www.w3.org/2000/svg" xmlns:xlink="http://www.w3.org/1999/xlink" contentScriptType="application/ecmascript" contentStyleType="text/css" height="254px" preserveAspectRatio="none" style="width:340px;height:254px;background:#00000000;" version="1.1" viewBox="0 0 340 254" width="340px" zoomAndPan="magnify"><defs><filter height="300%" id="femayx6g2yl5a" width="300%" x="-1" y="-1"><feGaussianBlur result="blurOut" stdDeviation="2.0"/><feColorMatrix in="blurOut" result="blurOut2" type="matrix" values="0 0 0 0 0 0 0 0 0 0 0 0 0 0 0 0 0 0 .4 0"/><feOffset dx="4.0" dy="4.0" in="blurOut2" result="blurOut3"/><feBlend in="SourceGraphic" in2="blurOut3" mode="normal"/></filter></defs><g><!--MD5=[bac2c0e5a8519d4dc8294f276ee9dd4b]
class ReadableStreamDefaultReader<R>--><rect codeLine="4" fill="#FEFECE" filter="url(#femayx6g2yl5a)" height="99.2188" id="ReadableStreamDefaultReader&lt;R&gt;" style="stroke:#A80036;stroke-width:1.5;" width="319" x="7" y="141"/><ellipse cx="51.25" cy="157" fill="#B4A7E5" rx="11" ry="11" style="stroke:#A80036;stroke-width:1.0;"/><path d="M47.1719,152.7656 L47.1719,150.6094 L54.5625,150.6094 L54.5625,152.7656 L52.0938,152.7656 L52.0938,160.8438 L54.5625,160.8438 L54.5625,163 L47.1719,163 L47.1719,160.8438 L49.6406,160.8438 L49.6406,152.7656 L47.1719,152.7656 Z " fill="#000000"/><text fill="#000000" font-family="sans-serif" font-size="12" font-style="italic" lengthAdjust="spacing" textLength="222" x="71.75" y="161.1543">ReadableStreamDefaultReader&lt;R&gt;</text><line style="stroke:#A80036;stroke-width:1.5;" x1="8" x2="325" y1="173" y2="173"/><ellipse cx="18" cy="184" rx="3" ry="3" style="stroke:#038048;stroke-width:1.0;fill:none;"/><text fill="#000000" font-family="sans-serif" font-size="11" lengthAdjust="spacing" textLength="170" x="27" y="187.2104">closed : Promise&lt;undefined&gt;</text><line style="stroke:#A80036;stroke-width:1.5;" x1="8" x2="325" y1="193.8047" y2="193.8047"/><ellipse cx="18" cy="204.8047" fill="#84BE84" rx="3" ry="3" style="stroke:#038048;stroke-width:1.0;"/><text fill="#000000" font-family="sans-serif" font-size="11" lengthAdjust="spacing" textLength="212" x="27" y="208.0151">cancel(reason: any) : Promise&lt;void&gt;</text><ellipse cx="18" cy="217.6094" fill="#84BE84" rx="3" ry="3" style="stroke:#038048;stroke-width:1.0;"/><text fill="#000000" font-family="sans-serif" font-size="11" lengthAdjust="spacing" textLength="293" x="27" y="220.8198">read() : Promise&lt;ReadableStreamReadResult&lt;R&gt;&gt;</text><ellipse cx="18" cy="230.4141" fill="#84BE84" rx="3" ry="3" style="stroke:#038048;stroke-width:1.0;"/><text fill="#000000" font-family="sans-serif" font-size="11" lengthAdjust="spacing" textLength="111" x="27" y="233.6245">releaseLock() : void</text><!--MD5=[50a54eb3002964d98d7ddf8ef81a60b3]
class ReadableStreamGenericReader--><rect codeLine="10" fill="#FEFECE" filter="url(#femayx6g2yl5a)" height="73.6094" id="ReadableStreamGenericReader" style="stroke:#A80036;stroke-width:1.5;" width="238" x="47.5" y="7"/><ellipse cx="66.55" cy="23" fill="#B4A7E5" rx="11" ry="11" style="stroke:#A80036;stroke-width:1.0;"/><path d="M62.4719,18.7656 L62.4719,16.6094 L69.8625,16.6094 L69.8625,18.7656 L67.3938,18.7656 L67.3938,26.8438 L69.8625,26.8438 L69.8625,29 L62.4719,29 L62.4719,26.8438 L64.9406,26.8438 L64.9406,18.7656 L62.4719,18.7656 Z " fill="#000000"/><text fill="#000000" font-family="sans-serif" font-size="12" font-style="italic" lengthAdjust="spacing" textLength="197" x="81.45" y="27.1543">ReadableStreamGenericReader</text><line style="stroke:#A80036;stroke-width:1.5;" x1="48.5" x2="284.5" y1="39" y2="39"/><ellipse cx="58.5" cy="50" rx="3" ry="3" style="stroke:#038048;stroke-width:1.0;fill:none;"/><text fill="#000000" font-family="sans-serif" font-size="11" lengthAdjust="spacing" textLength="170" x="67.5" y="53.2104">closed : Promise&lt;undefined&gt;</text><line style="stroke:#A80036;stroke-width:1.5;" x1="48.5" x2="284.5" y1="59.8047" y2="59.8047"/><ellipse cx="58.5" cy="70.8047" fill="#84BE84" rx="3" ry="3" style="stroke:#038048;stroke-width:1.0;"/><text fill="#000000" font-family="sans-serif" font-size="11" lengthAdjust="spacing" textLength="212" x="67.5" y="74.0151">cancel(reason: any) : Promise&lt;void&gt;</text><!--MD5=[ac29da91709865e2a7eec4649992d53f]
reverse link ReadableStreamGenericReader to ReadableStreamDefaultReader<R>--><path codeLine="14" d="M166.5,101.35 C166.5,114.38 166.5,128.13 166.5,140.8 " fill="none" id="ReadableStreamGenericReader-backto-ReadableStreamDefaultReader&lt;R&gt;" style="stroke:#A80036;stroke-width:1.0;"/><polygon fill="none" points="159.5,101.09,166.5,81.09,173.5,101.09,159.5,101.09" style="stroke:#A80036;stroke-width:1.0;"/><!--MD5=[4774f95c3faae587a64a06e1f3c7dcc6]
@startuml
skinparam BackgroundColor transparent
hide empty methods
hide empty fields
interface "ReadableStreamDefaultReader<R>" {
    +closed : Promise<undefined>
    +cancel(reason: any) : Promise<void>
    +read() : Promise<ReadableStreamReadResult<R>>
    +releaseLock() : void
}
interface "ReadableStreamGenericReader" {
    +closed : Promise<undefined>
    +cancel(reason: any) : Promise<void>
}
"ReadableStreamGenericReader" <|- - "ReadableStreamDefaultReader<R>"
@enduml

PlantUML version 1.2021.14(Fri Nov 12 11:46:50 EST 2021)
(GPL source distribution)
Java Runtime: OpenJDK Runtime Environment
JVM: OpenJDK 64-Bit Server VM
Default Encoding: UTF-8
Language: en
Country: US
--></g></svg>