<?xml version="1.0" encoding="UTF-8" standalone="no"?><svg xmlns="http://www.w3.org/2000/svg" xmlns:xlink="http://www.w3.org/1999/xlink" contentScriptType="application/ecmascript" contentStyleType="text/css" height="254px" preserveAspectRatio="none" style="width:405px;height:254px;background:#00000000;" version="1.1" viewBox="0 0 405 254" width="405px" zoomAndPan="magnify"><defs><filter height="300%" id="f1e8jiydd6de1f" width="300%" x="-1" y="-1"><feGaussianBlur result="blurOut" stdDeviation="2.0"/><feColorMatrix in="blurOut" result="blurOut2" type="matrix" values="0 0 0 0 0 0 0 0 0 0 0 0 0 0 0 0 0 0 .4 0"/><feOffset dx="4.0" dy="4.0" in="blurOut2" result="blurOut3"/><feBlend in="SourceGraphic" in2="blurOut3" mode="normal"/></filter></defs><g><!--MD5=[aba1ccb25d018c064f71622797900a79]
class ReadableStreamBYOBReader--><rect codeLine="4" fill="#FEFECE" filter="url(#f1e8jiydd6de1f)" height="99.2188" id="ReadableStreamBYOBReader" style="stroke:#A80036;stroke-width:1.5;" width="384" x="7" y="141"/><ellipse cx="104.75" cy="157" fill="#B4A7E5" rx="11" ry="11" style="stroke:#A80036;stroke-width:1.0;"/><path d="M100.6719,152.7656 L100.6719,150.6094 L108.0625,150.6094 L108.0625,152.7656 L105.5938,152.7656 L105.5938,160.8438 L108.0625,160.8438 L108.0625,163 L100.6719,163 L100.6719,160.8438 L103.1406,160.8438 L103.1406,152.7656 L100.6719,152.7656 Z " fill="#000000"/><text fill="#000000" font-family="sans-serif" font-size="12" font-style="italic" lengthAdjust="spacing" textLength="180" x="125.25" y="161.1543">ReadableStreamBYOBReader</text><line style="stroke:#A80036;stroke-width:1.5;" x1="8" x2="390" y1="173" y2="173"/><ellipse cx="18" cy="184" rx="3" ry="3" style="stroke:#038048;stroke-width:1.0;fill:none;"/><text fill="#000000" font-family="sans-serif" font-size="11" lengthAdjust="spacing" textLength="170" x="27" y="187.2104">closed : Promise&lt;undefined&gt;</text><line style="stroke:#A80036;stroke-width:1.5;" x1="8" x2="390" y1="193.8047" y2="193.8047"/><ellipse cx="18" cy="204.8047" fill="#84BE84" rx="3" ry="3" style="stroke:#038048;stroke-width:1.0;"/><text fill="#000000" font-family="sans-serif" font-size="11" lengthAdjust="spacing" textLength="212" x="27" y="208.0151">cancel(reason: any) : Promise&lt;void&gt;</text><ellipse cx="18" cy="217.6094" fill="#84BE84" rx="3" ry="3" style="stroke:#038048;stroke-width:1.0;"/><text fill="#000000" font-family="sans-serif" font-size="11" lengthAdjust="spacing" textLength="358" x="27" y="220.8198">read&lt;T&gt;(view: T) : Promise&lt;ReadableStreamReadResult&lt;T&gt;&gt;</text><ellipse cx="18" cy="230.4141" fill="#84BE84" rx="3" ry="3" style="stroke:#038048;stroke-width:1.0;"/><text fill="#000000" font-family="sans-serif" font-size="11" lengthAdjust="spacing" textLength="111" x="27" y="233.6245">releaseLock() : void</text><!--MD5=[50a54eb3002964d98d7ddf8ef81a60b3]
class ReadableStreamGenericReader--><rect codeLine="10" fill="#FEFECE" filter="url(#f1e8jiydd6de1f)" height="73.6094" id="ReadableStreamGenericReader" style="stroke:#A80036;stroke-width:1.5;" width="238" x="80" y="7"/><ellipse cx="99.05" cy="23" fill="#B4A7E5" rx="11" ry="11" style="stroke:#A80036;stroke-width:1.0;"/><path d="M94.9719,18.7656 L94.9719,16.6094 L102.3625,16.6094 L102.3625,18.7656 L99.8938,18.7656 L99.8938,26.8438 L102.3625,26.8438 L102.3625,29 L94.9719,29 L94.9719,26.8438 L97.4406,26.8438 L97.4406,18.7656 L94.9719,18.7656 Z " fill="#000000"/><text fill="#000000" font-family="sans-serif" font-size="12" font-style="italic" lengthAdjust="spacing" textLength="197" x="113.95" y="27.1543">ReadableStreamGenericReader</text><line style="stroke:#A80036;stroke-width:1.5;" x1="81" x2="317" y1="39" y2="39"/><ellipse cx="91" cy="50" rx="3" ry="3" style="stroke:#038048;stroke-width:1.0;fill:none;"/><text fill="#000000" font-family="sans-serif" font-size="11" lengthAdjust="spacing" textLength="170" x="100" y="53.2104">closed : Promise&lt;undefined&gt;</text><line style="stroke:#A80036;stroke-width:1.5;" x1="81" x2="317" y1="59.8047" y2="59.8047"/><ellipse cx="91" cy="70.8047" fill="#84BE84" rx="3" ry="3" style="stroke:#038048;stroke-width:1.0;"/><text fill="#000000" font-family="sans-serif" font-size="11" lengthAdjust="spacing" textLength="212" x="100" y="74.0151">cancel(reason: any) : Promise&lt;void&gt;</text><!--MD5=[2e5efc281e671d63e3aedfa6d763c2bb]
reverse link ReadableStreamGenericReader to ReadableStreamBYOBReader--><path codeLine="14" d="M199,101.35 C199,114.38 199,128.13 199,140.8 " fill="none" id="ReadableStreamGenericReader-backto-ReadableStreamBYOBReader" style="stroke:#A80036;stroke-width:1.0;"/><polygon fill="none" points="192,101.09,199,81.09,206,101.09,192,101.09" style="stroke:#A80036;stroke-width:1.0;"/><!--MD5=[85b7564affd740d08d5a7a7add466ccf]
@startuml
skinparam BackgroundColor transparent
hide empty methods
hide empty fields
interface "ReadableStreamBYOBReader" {
    +closed : Promise<undefined>
    +cancel(reason: any) : Promise<void>
    +read<T>(view: T) : Promise<ReadableStreamReadResult<T>>
    +releaseLock() : void
}
interface "ReadableStreamGenericReader" {
    +closed : Promise<undefined>
    +cancel(reason: any) : Promise<void>
}
"ReadableStreamGenericReader" <|- - "ReadableStreamBYOBReader"
@enduml

PlantUML version 1.2021.14(Fri Nov 12 11:46:50 EST 2021)
(GPL source distribution)
Java Runtime: OpenJDK Runtime Environment
JVM: OpenJDK 64-Bit Server VM
Default Encoding: UTF-8
Language: en
Country: US
--></g></svg>