<?xml version="1.0" encoding="UTF-8" standalone="no"?><svg xmlns="http://www.w3.org/2000/svg" xmlns:xlink="http://www.w3.org/1999/xlink" contentScriptType="application/ecmascript" contentStyleType="text/css" height="459px" preserveAspectRatio="none" style="width:262px;height:459px;background:#00000000;" version="1.1" viewBox="0 0 262 459" width="262px" zoomAndPan="magnify"><defs><filter height="300%" id="f10as9ghouaazo" width="300%" x="-1" y="-1"><feGaussianBlur result="blurOut" stdDeviation="2.0"/><feColorMatrix in="blurOut" result="blurOut2" type="matrix" values="0 0 0 0 0 0 0 0 0 0 0 0 0 0 0 0 0 0 .4 0"/><feOffset dx="4.0" dy="4.0" in="blurOut2" result="blurOut3"/><feBlend in="SourceGraphic" in2="blurOut3" mode="normal"/></filter></defs><g><!--MD5=[62ba8ad8b61caf20139235a169a8c31d]
class Response--><rect codeLine="4" fill="#FEFECE" filter="url(#f10as9ghouaazo)" height="240.0703" id="Response" style="stroke:#A80036;stroke-width:1.5;" width="241" x="7" y="205"/><ellipse cx="93.25" cy="221" fill="#B4A7E5" rx="11" ry="11" style="stroke:#A80036;stroke-width:1.0;"/><path d="M89.1719,216.7656 L89.1719,214.6094 L96.5625,214.6094 L96.5625,216.7656 L94.0938,216.7656 L94.0938,224.8438 L96.5625,224.8438 L96.5625,227 L89.1719,227 L89.1719,224.8438 L91.6406,224.8438 L91.6406,216.7656 L89.1719,216.7656 Z " fill="#000000"/><text fill="#000000" font-family="sans-serif" font-size="12" font-style="italic" lengthAdjust="spacing" textLength="60" x="113.75" y="225.1543">Response</text><line style="stroke:#A80036;stroke-width:1.5;" x1="8" x2="247" y1="237" y2="237"/><ellipse cx="18" cy="248" rx="3" ry="3" style="stroke:#038048;stroke-width:1.0;fill:none;"/><text fill="#000000" font-family="sans-serif" font-size="11" lengthAdjust="spacing" textLength="210" x="27" y="251.2104">body : ReadableStream&lt;Uint8Array&gt;</text><ellipse cx="18" cy="260.8047" rx="3" ry="3" style="stroke:#038048;stroke-width:1.0;fill:none;"/><text fill="#000000" font-family="sans-serif" font-size="11" lengthAdjust="spacing" textLength="113" x="27" y="264.0151">bodyUsed : boolean</text><ellipse cx="18" cy="273.6094" rx="3" ry="3" style="stroke:#038048;stroke-width:1.0;fill:none;"/><text fill="#000000" font-family="sans-serif" font-size="11" lengthAdjust="spacing" textLength="107" x="27" y="276.8198">headers : Headers</text><ellipse cx="18" cy="286.4141" rx="3" ry="3" style="stroke:#038048;stroke-width:1.0;fill:none;"/><text fill="#000000" font-family="sans-serif" font-size="11" lengthAdjust="spacing" textLength="70" x="27" y="289.6245">ok : boolean</text><ellipse cx="18" cy="299.2188" rx="3" ry="3" style="stroke:#038048;stroke-width:1.0;fill:none;"/><text fill="#000000" font-family="sans-serif" font-size="11" lengthAdjust="spacing" textLength="115" x="27" y="302.4292">redirected : boolean</text><ellipse cx="18" cy="312.0234" rx="3" ry="3" style="stroke:#038048;stroke-width:1.0;fill:none;"/><text fill="#000000" font-family="sans-serif" font-size="11" lengthAdjust="spacing" textLength="92" x="27" y="315.2339">status : number</text><ellipse cx="18" cy="324.8281" rx="3" ry="3" style="stroke:#038048;stroke-width:1.0;fill:none;"/><text fill="#000000" font-family="sans-serif" font-size="11" lengthAdjust="spacing" textLength="105" x="27" y="328.0386">statusText : string</text><ellipse cx="18" cy="337.6328" rx="3" ry="3" style="stroke:#038048;stroke-width:1.0;fill:none;"/><text fill="#000000" font-family="sans-serif" font-size="11" lengthAdjust="spacing" textLength="119" x="27" y="340.8433">type : ResponseType</text><ellipse cx="18" cy="350.4375" rx="3" ry="3" style="stroke:#038048;stroke-width:1.0;fill:none;"/><text fill="#000000" font-family="sans-serif" font-size="11" lengthAdjust="spacing" textLength="60" x="27" y="353.6479">url : string</text><line style="stroke:#A80036;stroke-width:1.5;" x1="8" x2="247" y1="360.2422" y2="360.2422"/><ellipse cx="18" cy="371.2422" fill="#84BE84" rx="3" ry="3" style="stroke:#038048;stroke-width:1.0;"/><text fill="#000000" font-family="sans-serif" font-size="11" lengthAdjust="spacing" textLength="215" x="27" y="374.4526">arrayBuffer() : Promise&lt;ArrayBuffer&gt;</text><ellipse cx="18" cy="384.0469" fill="#84BE84" rx="3" ry="3" style="stroke:#038048;stroke-width:1.0;"/><text fill="#000000" font-family="sans-serif" font-size="11" lengthAdjust="spacing" textLength="134" x="27" y="387.2573">blob() : Promise&lt;Blob&gt;</text><ellipse cx="18" cy="396.8516" fill="#84BE84" rx="3" ry="3" style="stroke:#038048;stroke-width:1.0;"/><text fill="#000000" font-family="sans-serif" font-size="11" lengthAdjust="spacing" textLength="106" x="27" y="400.062">clone() : Response</text><ellipse cx="18" cy="409.6563" fill="#84BE84" rx="3" ry="3" style="stroke:#038048;stroke-width:1.0;"/><text fill="#000000" font-family="sans-serif" font-size="11" lengthAdjust="spacing" textLength="193" x="27" y="412.8667">formData() : Promise&lt;FormData&gt;</text><ellipse cx="18" cy="422.4609" fill="#84BE84" rx="3" ry="3" style="stroke:#038048;stroke-width:1.0;"/><text fill="#000000" font-family="sans-serif" font-size="11" lengthAdjust="spacing" textLength="129" x="27" y="425.6714">json() : Promise&lt;any&gt;</text><ellipse cx="18" cy="435.2656" fill="#84BE84" rx="3" ry="3" style="stroke:#038048;stroke-width:1.0;"/><text fill="#000000" font-family="sans-serif" font-size="11" lengthAdjust="spacing" textLength="139" x="27" y="438.4761">text() : Promise&lt;string&gt;</text><!--MD5=[aebfb5ed06bf0acd9902aeebb8224243]
class Body--><rect codeLine="21" fill="#FEFECE" filter="url(#f10as9ghouaazo)" height="137.6328" id="Body" style="stroke:#A80036;stroke-width:1.5;" width="241" x="7" y="7"/><ellipse cx="107.75" cy="23" fill="#B4A7E5" rx="11" ry="11" style="stroke:#A80036;stroke-width:1.0;"/><path d="M103.6719,18.7656 L103.6719,16.6094 L111.0625,16.6094 L111.0625,18.7656 L108.5938,18.7656 L108.5938,26.8438 L111.0625,26.8438 L111.0625,29 L103.6719,29 L103.6719,26.8438 L106.1406,26.8438 L106.1406,18.7656 L103.6719,18.7656 Z " fill="#000000"/><text fill="#000000" font-family="sans-serif" font-size="12" font-style="italic" lengthAdjust="spacing" textLength="31" x="128.25" y="27.1543">Body</text><line style="stroke:#A80036;stroke-width:1.5;" x1="8" x2="247" y1="39" y2="39"/><ellipse cx="18" cy="50" rx="3" ry="3" style="stroke:#038048;stroke-width:1.0;fill:none;"/><text fill="#000000" font-family="sans-serif" font-size="11" lengthAdjust="spacing" textLength="210" x="27" y="53.2104">body : ReadableStream&lt;Uint8Array&gt;</text><ellipse cx="18" cy="62.8047" rx="3" ry="3" style="stroke:#038048;stroke-width:1.0;fill:none;"/><text fill="#000000" font-family="sans-serif" font-size="11" lengthAdjust="spacing" textLength="113" x="27" y="66.0151">bodyUsed : boolean</text><line style="stroke:#A80036;stroke-width:1.5;" x1="8" x2="247" y1="72.6094" y2="72.6094"/><ellipse cx="18" cy="83.6094" fill="#84BE84" rx="3" ry="3" style="stroke:#038048;stroke-width:1.0;"/><text fill="#000000" font-family="sans-serif" font-size="11" lengthAdjust="spacing" textLength="215" x="27" y="86.8198">arrayBuffer() : Promise&lt;ArrayBuffer&gt;</text><ellipse cx="18" cy="96.4141" fill="#84BE84" rx="3" ry="3" style="stroke:#038048;stroke-width:1.0;"/><text fill="#000000" font-family="sans-serif" font-size="11" lengthAdjust="spacing" textLength="134" x="27" y="99.6245">blob() : Promise&lt;Blob&gt;</text><ellipse cx="18" cy="109.2188" fill="#84BE84" rx="3" ry="3" style="stroke:#038048;stroke-width:1.0;"/><text fill="#000000" font-family="sans-serif" font-size="11" lengthAdjust="spacing" textLength="193" x="27" y="112.4292">formData() : Promise&lt;FormData&gt;</text><ellipse cx="18" cy="122.0234" fill="#84BE84" rx="3" ry="3" style="stroke:#038048;stroke-width:1.0;"/><text fill="#000000" font-family="sans-serif" font-size="11" lengthAdjust="spacing" textLength="129" x="27" y="125.2339">json() : Promise&lt;any&gt;</text><ellipse cx="18" cy="134.8281" fill="#84BE84" rx="3" ry="3" style="stroke:#038048;stroke-width:1.0;"/><text fill="#000000" font-family="sans-serif" font-size="11" lengthAdjust="spacing" textLength="139" x="27" y="138.0386">text() : Promise&lt;string&gt;</text><!--MD5=[695f1a2e0109d665590f6f97165cb262]
reverse link Body to Response--><path codeLine="30" d="M127.5,165.41 C127.5,178.22 127.5,191.59 127.5,204.88 " fill="none" id="Body-backto-Response" style="stroke:#A80036;stroke-width:1.0;"/><polygon fill="none" points="120.5,165.15,127.5,145.15,134.5,165.15,120.5,165.15" style="stroke:#A80036;stroke-width:1.0;"/><!--MD5=[fdb58148aff4430994ecdd8e80f8e13d]
@startuml
skinparam BackgroundColor transparent
hide empty methods
hide empty fields
interface "Response" {
    +body : ReadableStream<Uint8Array>
    +bodyUsed : boolean
    +headers : Headers
    +ok : boolean
    +redirected : boolean
    +status : number
    +statusText : string
    +type : ResponseType
    +url : string
    +arrayBuffer() : Promise<ArrayBuffer>
    +blob() : Promise<Blob>
    +clone() : Response
    +formData() : Promise<FormData>
    +json() : Promise<any>
    +text() : Promise<string>
}
interface "Body" {
    +body : ReadableStream<Uint8Array>
    +bodyUsed : boolean
    +arrayBuffer() : Promise<ArrayBuffer>
    +blob() : Promise<Blob>
    +formData() : Promise<FormData>
    +json() : Promise<any>
    +text() : Promise<string>
}
"Body" <|- - "Response"
@enduml

PlantUML version 1.2021.14(Fri Nov 12 11:46:50 EST 2021)
(GPL source distribution)
Java Runtime: OpenJDK Runtime Environment
JVM: OpenJDK 64-Bit Server VM
Default Encoding: UTF-8
Language: en
Country: US
--></g></svg>