<?xml version="1.0" encoding="UTF-8" standalone="no"?><svg xmlns="http://www.w3.org/2000/svg" xmlns:xlink="http://www.w3.org/1999/xlink" contentScriptType="application/ecmascript" contentStyleType="text/css" height="301px" preserveAspectRatio="none" style="width:280px;height:301px;background:#00000000;" version="1.1" viewBox="0 0 280 301" width="280px" zoomAndPan="magnify"><defs><filter height="300%" id="f1sx7id4jbvi0r" width="300%" x="-1" y="-1"><feGaussianBlur result="blurOut" stdDeviation="2.0"/><feColorMatrix in="blurOut" result="blurOut2" type="matrix" values="0 0 0 0 0 0 0 0 0 0 0 0 0 0 0 0 0 0 .4 0"/><feOffset dx="4.0" dy="4.0" in="blurOut2" result="blurOut3"/><feBlend in="SourceGraphic" in2="blurOut3" mode="normal"/></filter></defs><g><!--MD5=[644e8bb4787b3c6e93d13a9e98bb10d5]
class RTCPeerConnectionIceErrorEventInit--><rect codeLine="4" fill="#FEFECE" filter="url(#f1sx7id4jbvi0r)" height="142.4375" id="RTCPeerConnectionIceErrorEventInit" style="stroke:#A80036;stroke-width:1.5;" width="259" x="7" y="145"/><ellipse cx="22" cy="161" fill="#B4A7E5" rx="11" ry="11" style="stroke:#A80036;stroke-width:1.0;"/><path d="M17.9219,156.7656 L17.9219,154.6094 L25.3125,154.6094 L25.3125,156.7656 L22.8438,156.7656 L22.8438,164.8438 L25.3125,164.8438 L25.3125,167 L17.9219,167 L17.9219,164.8438 L20.3906,164.8438 L20.3906,156.7656 L17.9219,156.7656 Z " fill="#000000"/><text fill="#000000" font-family="sans-serif" font-size="12" font-style="italic" lengthAdjust="spacing" textLength="227" x="36" y="165.1543">RTCPeerConnectionIceErrorEventInit</text><line style="stroke:#A80036;stroke-width:1.5;" x1="8" x2="265" y1="177" y2="177"/><ellipse cx="18" cy="188" rx="3" ry="3" style="stroke:#038048;stroke-width:1.0;fill:none;"/><text fill="#000000" font-family="sans-serif" font-size="11" lengthAdjust="spacing" textLength="92" x="27" y="191.2104">address : string</text><ellipse cx="18" cy="200.8047" rx="3" ry="3" style="stroke:#038048;stroke-width:1.0;fill:none;"/><text fill="#000000" font-family="sans-serif" font-size="11" lengthAdjust="spacing" textLength="102" x="27" y="204.0151">bubbles : boolean</text><ellipse cx="18" cy="213.6094" rx="3" ry="3" style="stroke:#038048;stroke-width:1.0;fill:none;"/><text fill="#000000" font-family="sans-serif" font-size="11" lengthAdjust="spacing" textLength="117" x="27" y="216.8198">cancelable : boolean</text><ellipse cx="18" cy="226.4141" rx="3" ry="3" style="stroke:#038048;stroke-width:1.0;fill:none;"/><text fill="#000000" font-family="sans-serif" font-size="11" lengthAdjust="spacing" textLength="116" x="27" y="229.6245">composed : boolean</text><ellipse cx="18" cy="239.2188" rx="3" ry="3" style="stroke:#038048;stroke-width:1.0;fill:none;"/><text fill="#000000" font-family="sans-serif" font-size="11" lengthAdjust="spacing" textLength="114" x="27" y="242.4292">errorCode : number</text><ellipse cx="18" cy="252.0234" rx="3" ry="3" style="stroke:#038048;stroke-width:1.0;fill:none;"/><text fill="#000000" font-family="sans-serif" font-size="11" lengthAdjust="spacing" textLength="98" x="27" y="255.2339">errorText : string</text><ellipse cx="18" cy="264.8281" rx="3" ry="3" style="stroke:#038048;stroke-width:1.0;fill:none;"/><text fill="#000000" font-family="sans-serif" font-size="11" lengthAdjust="spacing" textLength="79" x="27" y="268.0386">port : number</text><ellipse cx="18" cy="277.6328" rx="3" ry="3" style="stroke:#038048;stroke-width:1.0;fill:none;"/><text fill="#000000" font-family="sans-serif" font-size="11" lengthAdjust="spacing" textLength="60" x="27" y="280.8433">url : string</text><!--MD5=[20555489c30bd85c28b7a7f2623ad986]
class EventInit--><rect codeLine="14" fill="#FEFECE" filter="url(#f1sx7id4jbvi0r)" height="78.4141" id="EventInit" style="stroke:#A80036;stroke-width:1.5;" width="143" x="65" y="7"/><ellipse cx="105.2" cy="23" fill="#B4A7E5" rx="11" ry="11" style="stroke:#A80036;stroke-width:1.0;"/><path d="M101.1219,18.7656 L101.1219,16.6094 L108.5125,16.6094 L108.5125,18.7656 L106.0438,18.7656 L106.0438,26.8438 L108.5125,26.8438 L108.5125,29 L101.1219,29 L101.1219,26.8438 L103.5906,26.8438 L103.5906,18.7656 L101.1219,18.7656 Z " fill="#000000"/><text fill="#000000" font-family="sans-serif" font-size="12" font-style="italic" lengthAdjust="spacing" textLength="55" x="124.8" y="27.1543">EventInit</text><line style="stroke:#A80036;stroke-width:1.5;" x1="66" x2="207" y1="39" y2="39"/><ellipse cx="76" cy="50" rx="3" ry="3" style="stroke:#038048;stroke-width:1.0;fill:none;"/><text fill="#000000" font-family="sans-serif" font-size="11" lengthAdjust="spacing" textLength="102" x="85" y="53.2104">bubbles : boolean</text><ellipse cx="76" cy="62.8047" rx="3" ry="3" style="stroke:#038048;stroke-width:1.0;fill:none;"/><text fill="#000000" font-family="sans-serif" font-size="11" lengthAdjust="spacing" textLength="117" x="85" y="66.0151">cancelable : boolean</text><ellipse cx="76" cy="75.6094" rx="3" ry="3" style="stroke:#038048;stroke-width:1.0;fill:none;"/><text fill="#000000" font-family="sans-serif" font-size="11" lengthAdjust="spacing" textLength="116" x="85" y="78.8198">composed : boolean</text><!--MD5=[6297f30024db9f5edc92a479a0d2ed19]
reverse link EventInit to RTCPeerConnectionIceErrorEventInit--><path codeLine="19" d="M136.5,105.51 C136.5,118.25 136.5,131.85 136.5,144.98 " fill="none" id="EventInit-backto-RTCPeerConnectionIceErrorEventInit" style="stroke:#A80036;stroke-width:1.0;"/><polygon fill="none" points="129.5,105.12,136.5,85.12,143.5,105.12,129.5,105.12" style="stroke:#A80036;stroke-width:1.0;"/><!--MD5=[cc77dfcbd45dbf2c10d9dc761e577e72]
@startuml
skinparam BackgroundColor transparent
hide empty methods
hide empty fields
interface "RTCPeerConnectionIceErrorEventInit" {
    +address : string
    +bubbles : boolean
    +cancelable : boolean
    +composed : boolean
    +errorCode : number
    +errorText : string
    +port : number
    +url : string
}
interface "EventInit" {
    +bubbles : boolean
    +cancelable : boolean
    +composed : boolean
}
"EventInit" <|- - "RTCPeerConnectionIceErrorEventInit"
@enduml

PlantUML version 1.2021.14(Fri Nov 12 11:46:50 EST 2021)
(GPL source distribution)
Java Runtime: OpenJDK Runtime Environment
JVM: OpenJDK 64-Bit Server VM
Default Encoding: UTF-8
Language: en
Country: US
--></g></svg>