<?xml version="1.0" encoding="UTF-8" standalone="no"?><svg xmlns="http://www.w3.org/2000/svg" xmlns:xlink="http://www.w3.org/1999/xlink" contentScriptType="application/ecmascript" contentStyleType="text/css" height="237px" preserveAspectRatio="none" style="width:372px;height:237px;background:#00000000;" version="1.1" viewBox="0 0 372 237" width="372px" zoomAndPan="magnify"><defs><filter height="300%" id="fm3u36p3nmgj0" width="300%" x="-1" y="-1"><feGaussianBlur result="blurOut" stdDeviation="2.0"/><feColorMatrix in="blurOut" result="blurOut2" type="matrix" values="0 0 0 0 0 0 0 0 0 0 0 0 0 0 0 0 0 0 .4 0"/><feOffset dx="4.0" dy="4.0" in="blurOut2" result="blurOut3"/><feBlend in="SourceGraphic" in2="blurOut3" mode="normal"/></filter></defs><g><!--MD5=[a9ebaad7e0f8e6b336e0219041c92333]
class RTCRtpParameters--><rect codeLine="4" fill="#FEFECE" filter="url(#fm3u36p3nmgj0)" height="78.4141" id="RTCRtpParameters" style="stroke:#A80036;stroke-width:1.5;" width="351" x="7" y="7"/><ellipse cx="120.75" cy="23" fill="#B4A7E5" rx="11" ry="11" style="stroke:#A80036;stroke-width:1.0;"/><path d="M116.6719,18.7656 L116.6719,16.6094 L124.0625,16.6094 L124.0625,18.7656 L121.5938,18.7656 L121.5938,26.8438 L124.0625,26.8438 L124.0625,29 L116.6719,29 L116.6719,26.8438 L119.1406,26.8438 L119.1406,18.7656 L116.6719,18.7656 Z " fill="#000000"/><text fill="#000000" font-family="sans-serif" font-size="12" font-style="italic" lengthAdjust="spacing" textLength="115" x="141.25" y="27.1543">RTCRtpParameters</text><line style="stroke:#A80036;stroke-width:1.5;" x1="8" x2="357" y1="39" y2="39"/><ellipse cx="18" cy="50" rx="3" ry="3" style="stroke:#038048;stroke-width:1.0;fill:none;"/><text fill="#000000" font-family="sans-serif" font-size="11" lengthAdjust="spacing" textLength="202" x="27" y="53.2104">codecs : RTCRtpCodecParameters[]</text><ellipse cx="18" cy="62.8047" rx="3" ry="3" style="stroke:#038048;stroke-width:1.0;fill:none;"/><text fill="#000000" font-family="sans-serif" font-size="11" lengthAdjust="spacing" textLength="325" x="27" y="66.0151">headerExtensions : RTCRtpHeaderExtensionParameters[]</text><ellipse cx="18" cy="75.6094" rx="3" ry="3" style="stroke:#038048;stroke-width:1.0;fill:none;"/><text fill="#000000" font-family="sans-serif" font-size="11" lengthAdjust="spacing" textLength="147" x="27" y="78.8198">rtcp : RTCRtcpParameters</text><!--MD5=[20d369eca03a61c013198afbeadc3d77]
class RTCRtpReceiveParameters--><rect codeLine="9" fill="#FEFECE" filter="url(#fm3u36p3nmgj0)" height="78.4141" id="RTCRtpReceiveParameters" style="stroke:#A80036;stroke-width:1.5;" width="351" x="7" y="145"/><ellipse cx="96.75" cy="161" fill="#B4A7E5" rx="11" ry="11" style="stroke:#A80036;stroke-width:1.0;"/><path d="M92.6719,156.7656 L92.6719,154.6094 L100.0625,154.6094 L100.0625,156.7656 L97.5938,156.7656 L97.5938,164.8438 L100.0625,164.8438 L100.0625,167 L92.6719,167 L92.6719,164.8438 L95.1406,164.8438 L95.1406,156.7656 L92.6719,156.7656 Z " fill="#000000"/><text fill="#000000" font-family="sans-serif" font-size="12" font-style="italic" lengthAdjust="spacing" textLength="163" x="117.25" y="165.1543">RTCRtpReceiveParameters</text><line style="stroke:#A80036;stroke-width:1.5;" x1="8" x2="357" y1="177" y2="177"/><ellipse cx="18" cy="188" rx="3" ry="3" style="stroke:#038048;stroke-width:1.0;fill:none;"/><text fill="#000000" font-family="sans-serif" font-size="11" lengthAdjust="spacing" textLength="202" x="27" y="191.2104">codecs : RTCRtpCodecParameters[]</text><ellipse cx="18" cy="200.8047" rx="3" ry="3" style="stroke:#038048;stroke-width:1.0;fill:none;"/><text fill="#000000" font-family="sans-serif" font-size="11" lengthAdjust="spacing" textLength="325" x="27" y="204.0151">headerExtensions : RTCRtpHeaderExtensionParameters[]</text><ellipse cx="18" cy="213.6094" rx="3" ry="3" style="stroke:#038048;stroke-width:1.0;fill:none;"/><text fill="#000000" font-family="sans-serif" font-size="11" lengthAdjust="spacing" textLength="147" x="27" y="216.8198">rtcp : RTCRtcpParameters</text><!--MD5=[6937232cadadb1a53752ed51b25959fd]
reverse link RTCRtpParameters to RTCRtpReceiveParameters--><path codeLine="14" d="M182.5,105.37 C182.5,118.63 182.5,132.39 182.5,144.57 " fill="none" id="RTCRtpParameters-backto-RTCRtpReceiveParameters" style="stroke:#A80036;stroke-width:1.0;"/><polygon fill="none" points="175.5,105.25,182.5,85.25,189.5,105.25,175.5,105.25" style="stroke:#A80036;stroke-width:1.0;"/><!--MD5=[d617ca6f43b0f3383f4b2bd51ba4617b]
@startuml
skinparam BackgroundColor transparent
hide empty methods
hide empty fields
interface "RTCRtpParameters" {
    +codecs : RTCRtpCodecParameters[]
    +headerExtensions : RTCRtpHeaderExtensionParameters[]
    +rtcp : RTCRtcpParameters
}
interface "RTCRtpReceiveParameters" {
    +codecs : RTCRtpCodecParameters[]
    +headerExtensions : RTCRtpHeaderExtensionParameters[]
    +rtcp : RTCRtcpParameters
}
"RTCRtpParameters" <|- - "RTCRtpReceiveParameters"
@enduml

PlantUML version 1.2021.14(Fri Nov 12 11:46:50 EST 2021)
(GPL source distribution)
Java Runtime: OpenJDK Runtime Environment
JVM: OpenJDK 64-Bit Server VM
Default Encoding: UTF-8
Language: en
Country: US
--></g></svg>