<?xml version="1.0" encoding="UTF-8" standalone="no"?><svg xmlns="http://www.w3.org/2000/svg" xmlns:xlink="http://www.w3.org/1999/xlink" contentScriptType="application/ecmascript" contentStyleType="text/css" height="263px" preserveAspectRatio="none" style="width:241px;height:263px;background:#00000000;" version="1.1" viewBox="0 0 241 263" width="241px" zoomAndPan="magnify"><defs><filter height="300%" id="fa23rmcbtgdhg" width="300%" x="-1" y="-1"><feGaussianBlur result="blurOut" stdDeviation="2.0"/><feColorMatrix in="blurOut" result="blurOut2" type="matrix" values="0 0 0 0 0 0 0 0 0 0 0 0 0 0 0 0 0 0 .4 0"/><feOffset dx="4.0" dy="4.0" in="blurOut2" result="blurOut3"/><feBlend in="SourceGraphic" in2="blurOut3" mode="normal"/></filter></defs><g><!--MD5=[9b360c6faf4ffa081e7803cdf84b250d]
class RTCRtpSynchronizationSource--><rect codeLine="4" fill="#FEFECE" filter="url(#fa23rmcbtgdhg)" height="91.2188" id="RTCRtpSynchronizationSource" style="stroke:#A80036;stroke-width:1.5;" width="220" x="7" y="158"/><ellipse cx="22" cy="174" fill="#B4A7E5" rx="11" ry="11" style="stroke:#A80036;stroke-width:1.0;"/><path d="M17.9219,169.7656 L17.9219,167.6094 L25.3125,167.6094 L25.3125,169.7656 L22.8438,169.7656 L22.8438,177.8438 L25.3125,177.8438 L25.3125,180 L17.9219,180 L17.9219,177.8438 L20.3906,177.8438 L20.3906,169.7656 L17.9219,169.7656 Z " fill="#000000"/><text fill="#000000" font-family="sans-serif" font-size="12" font-style="italic" lengthAdjust="spacing" textLength="188" x="36" y="178.1543">RTCRtpSynchronizationSource</text><line style="stroke:#A80036;stroke-width:1.5;" x1="8" x2="226" y1="190" y2="190"/><ellipse cx="18" cy="201" rx="3" ry="3" style="stroke:#038048;stroke-width:1.0;fill:none;"/><text fill="#000000" font-family="sans-serif" font-size="11" lengthAdjust="spacing" textLength="116" x="27" y="204.2104">audioLevel : number</text><ellipse cx="18" cy="213.8047" rx="3" ry="3" style="stroke:#038048;stroke-width:1.0;fill:none;"/><text fill="#000000" font-family="sans-serif" font-size="11" lengthAdjust="spacing" textLength="136" x="27" y="217.0151">rtpTimestamp : number</text><ellipse cx="18" cy="226.6094" rx="3" ry="3" style="stroke:#038048;stroke-width:1.0;fill:none;"/><text fill="#000000" font-family="sans-serif" font-size="11" lengthAdjust="spacing" textLength="95" x="27" y="229.8198">source : number</text><ellipse cx="18" cy="239.4141" rx="3" ry="3" style="stroke:#038048;stroke-width:1.0;fill:none;"/><text fill="#000000" font-family="sans-serif" font-size="11" lengthAdjust="spacing" textLength="117" x="27" y="242.6245">timestamp : number</text><!--MD5=[25d2339895290b4f6f20770e0983ad08]
class RTCRtpContributingSource--><rect codeLine="10" fill="#FEFECE" filter="url(#fa23rmcbtgdhg)" height="91.2188" id="RTCRtpContributingSource" style="stroke:#A80036;stroke-width:1.5;" width="197" x="18.5" y="7"/><ellipse cx="33.5" cy="23" fill="#B4A7E5" rx="11" ry="11" style="stroke:#A80036;stroke-width:1.0;"/><path d="M29.4219,18.7656 L29.4219,16.6094 L36.8125,16.6094 L36.8125,18.7656 L34.3438,18.7656 L34.3438,26.8438 L36.8125,26.8438 L36.8125,29 L29.4219,29 L29.4219,26.8438 L31.8906,26.8438 L31.8906,18.7656 L29.4219,18.7656 Z " fill="#000000"/><text fill="#000000" font-family="sans-serif" font-size="12" font-style="italic" lengthAdjust="spacing" textLength="165" x="47.5" y="27.1543">RTCRtpContributingSource</text><line style="stroke:#A80036;stroke-width:1.5;" x1="19.5" x2="214.5" y1="39" y2="39"/><ellipse cx="29.5" cy="50" rx="3" ry="3" style="stroke:#038048;stroke-width:1.0;fill:none;"/><text fill="#000000" font-family="sans-serif" font-size="11" lengthAdjust="spacing" textLength="116" x="38.5" y="53.2104">audioLevel : number</text><ellipse cx="29.5" cy="62.8047" rx="3" ry="3" style="stroke:#038048;stroke-width:1.0;fill:none;"/><text fill="#000000" font-family="sans-serif" font-size="11" lengthAdjust="spacing" textLength="136" x="38.5" y="66.0151">rtpTimestamp : number</text><ellipse cx="29.5" cy="75.6094" rx="3" ry="3" style="stroke:#038048;stroke-width:1.0;fill:none;"/><text fill="#000000" font-family="sans-serif" font-size="11" lengthAdjust="spacing" textLength="95" x="38.5" y="78.8198">source : number</text><ellipse cx="29.5" cy="88.4141" rx="3" ry="3" style="stroke:#038048;stroke-width:1.0;fill:none;"/><text fill="#000000" font-family="sans-serif" font-size="11" lengthAdjust="spacing" textLength="117" x="38.5" y="91.6245">timestamp : number</text><!--MD5=[3e9420080a9d9ba806394faa6087d66c]
reverse link RTCRtpContributingSource to RTCRtpSynchronizationSource--><path codeLine="16" d="M117,118.49 C117,131.76 117,145.45 117,157.83 " fill="none" id="RTCRtpContributingSource-backto-RTCRtpSynchronizationSource" style="stroke:#A80036;stroke-width:1.0;"/><polygon fill="none" points="110,118.2,117,98.2,124,118.2,110,118.2" style="stroke:#A80036;stroke-width:1.0;"/><!--MD5=[14e894868ceb90ec799be3f2a8c0085d]
@startuml
skinparam BackgroundColor transparent
hide empty methods
hide empty fields
interface "RTCRtpSynchronizationSource" {
    +audioLevel : number
    +rtpTimestamp : number
    +source : number
    +timestamp : number
}
interface "RTCRtpContributingSource" {
    +audioLevel : number
    +rtpTimestamp : number
    +source : number
    +timestamp : number
}
"RTCRtpContributingSource" <|- - "RTCRtpSynchronizationSource"
@enduml

PlantUML version 1.2021.14(Fri Nov 12 11:46:50 EST 2021)
(GPL source distribution)
Java Runtime: OpenJDK Runtime Environment
JVM: OpenJDK 64-Bit Server VM
Default Encoding: UTF-8
Language: en
Country: US
--></g></svg>