<?xml version="1.0" encoding="UTF-8" standalone="no"?><svg xmlns="http://www.w3.org/2000/svg" xmlns:xlink="http://www.w3.org/1999/xlink" contentScriptType="application/ecmascript" contentStyleType="text/css" height="288px" preserveAspectRatio="none" style="width:230px;height:288px;background:#00000000;" version="1.1" viewBox="0 0 230 288" width="230px" zoomAndPan="magnify"><defs><filter height="300%" id="f1hbytvjjhxy6v" width="300%" x="-1" y="-1"><feGaussianBlur result="blurOut" stdDeviation="2.0"/><feColorMatrix in="blurOut" result="blurOut2" type="matrix" values="0 0 0 0 0 0 0 0 0 0 0 0 0 0 0 0 0 0 .4 0"/><feOffset dx="4.0" dy="4.0" in="blurOut2" result="blurOut3"/><feBlend in="SourceGraphic" in2="blurOut3" mode="normal"/></filter></defs><g><!--MD5=[41129985035116f70e1b8948b0244209]
class RTCTrackEventInit--><rect codeLine="4" fill="#FEFECE" filter="url(#f1hbytvjjhxy6v)" height="129.6328" id="RTCTrackEventInit" style="stroke:#A80036;stroke-width:1.5;" width="209" x="7" y="145"/><ellipse cx="51.25" cy="161" fill="#B4A7E5" rx="11" ry="11" style="stroke:#A80036;stroke-width:1.0;"/><path d="M47.1719,156.7656 L47.1719,154.6094 L54.5625,154.6094 L54.5625,156.7656 L52.0938,156.7656 L52.0938,164.8438 L54.5625,164.8438 L54.5625,167 L47.1719,167 L47.1719,164.8438 L49.6406,164.8438 L49.6406,156.7656 L47.1719,156.7656 Z " fill="#000000"/><text fill="#000000" font-family="sans-serif" font-size="12" font-style="italic" lengthAdjust="spacing" textLength="112" x="71.75" y="165.1543">RTCTrackEventInit</text><line style="stroke:#A80036;stroke-width:1.5;" x1="8" x2="215" y1="177" y2="177"/><ellipse cx="18" cy="188" rx="3" ry="3" style="stroke:#038048;stroke-width:1.0;fill:none;"/><text fill="#000000" font-family="sans-serif" font-size="11" lengthAdjust="spacing" textLength="102" x="27" y="191.2104">bubbles : boolean</text><ellipse cx="18" cy="200.8047" rx="3" ry="3" style="stroke:#038048;stroke-width:1.0;fill:none;"/><text fill="#000000" font-family="sans-serif" font-size="11" lengthAdjust="spacing" textLength="117" x="27" y="204.0151">cancelable : boolean</text><ellipse cx="18" cy="213.6094" rx="3" ry="3" style="stroke:#038048;stroke-width:1.0;fill:none;"/><text fill="#000000" font-family="sans-serif" font-size="11" lengthAdjust="spacing" textLength="116" x="27" y="216.8198">composed : boolean</text><ellipse cx="18" cy="226.4141" rx="3" ry="3" style="stroke:#038048;stroke-width:1.0;fill:none;"/><text fill="#000000" font-family="sans-serif" font-size="11" lengthAdjust="spacing" textLength="146" x="27" y="229.6245">receiver : RTCRtpReceiver</text><ellipse cx="18" cy="239.2188" rx="3" ry="3" style="stroke:#038048;stroke-width:1.0;fill:none;"/><text fill="#000000" font-family="sans-serif" font-size="11" lengthAdjust="spacing" textLength="143" x="27" y="242.4292">streams : MediaStream[]</text><ellipse cx="18" cy="252.0234" rx="3" ry="3" style="stroke:#038048;stroke-width:1.0;fill:none;"/><text fill="#000000" font-family="sans-serif" font-size="11" lengthAdjust="spacing" textLength="146" x="27" y="255.2339">track : MediaStreamTrack</text><ellipse cx="18" cy="264.8281" rx="3" ry="3" style="stroke:#038048;stroke-width:1.0;fill:none;"/><text fill="#000000" font-family="sans-serif" font-size="11" lengthAdjust="spacing" textLength="183" x="27" y="268.0386">transceiver : RTCRtpTransceiver</text><!--MD5=[20555489c30bd85c28b7a7f2623ad986]
class EventInit--><rect codeLine="13" fill="#FEFECE" filter="url(#f1hbytvjjhxy6v)" height="78.4141" id="EventInit" style="stroke:#A80036;stroke-width:1.5;" width="143" x="40" y="7"/><ellipse cx="80.2" cy="23" fill="#B4A7E5" rx="11" ry="11" style="stroke:#A80036;stroke-width:1.0;"/><path d="M76.1219,18.7656 L76.1219,16.6094 L83.5125,16.6094 L83.5125,18.7656 L81.0438,18.7656 L81.0438,26.8438 L83.5125,26.8438 L83.5125,29 L76.1219,29 L76.1219,26.8438 L78.5906,26.8438 L78.5906,18.7656 L76.1219,18.7656 Z " fill="#000000"/><text fill="#000000" font-family="sans-serif" font-size="12" font-style="italic" lengthAdjust="spacing" textLength="55" x="99.8" y="27.1543">EventInit</text><line style="stroke:#A80036;stroke-width:1.5;" x1="41" x2="182" y1="39" y2="39"/><ellipse cx="51" cy="50" rx="3" ry="3" style="stroke:#038048;stroke-width:1.0;fill:none;"/><text fill="#000000" font-family="sans-serif" font-size="11" lengthAdjust="spacing" textLength="102" x="60" y="53.2104">bubbles : boolean</text><ellipse cx="51" cy="62.8047" rx="3" ry="3" style="stroke:#038048;stroke-width:1.0;fill:none;"/><text fill="#000000" font-family="sans-serif" font-size="11" lengthAdjust="spacing" textLength="117" x="60" y="66.0151">cancelable : boolean</text><ellipse cx="51" cy="75.6094" rx="3" ry="3" style="stroke:#038048;stroke-width:1.0;fill:none;"/><text fill="#000000" font-family="sans-serif" font-size="11" lengthAdjust="spacing" textLength="116" x="60" y="78.8198">composed : boolean</text><!--MD5=[49657a226daf8954eb8716471a2f5d2d]
reverse link EventInit to RTCTrackEventInit--><path codeLine="18" d="M111.5,105.8 C111.5,118.51 111.5,132.01 111.5,144.92 " fill="none" id="EventInit-backto-RTCTrackEventInit" style="stroke:#A80036;stroke-width:1.0;"/><polygon fill="none" points="104.5,105.39,111.5,85.39,118.5,105.39,104.5,105.39" style="stroke:#A80036;stroke-width:1.0;"/><!--MD5=[c3c3664c974f9d3366468bd63aea5dce]
@startuml
skinparam BackgroundColor transparent
hide empty methods
hide empty fields
interface "RTCTrackEventInit" {
    +bubbles : boolean
    +cancelable : boolean
    +composed : boolean
    +receiver : RTCRtpReceiver
    +streams : MediaStream[]
    +track : MediaStreamTrack
    +transceiver : RTCRtpTransceiver
}
interface "EventInit" {
    +bubbles : boolean
    +cancelable : boolean
    +composed : boolean
}
"EventInit" <|- - "RTCTrackEventInit"
@enduml

PlantUML version 1.2021.14(Fri Nov 12 11:46:50 EST 2021)
(GPL source distribution)
Java Runtime: OpenJDK Runtime Environment
JVM: OpenJDK 64-Bit Server VM
Default Encoding: UTF-8
Language: en
Country: US
--></g></svg>