<?xml version="1.0" encoding="UTF-8" standalone="no"?><svg xmlns="http://www.w3.org/2000/svg" xmlns:xlink="http://www.w3.org/1999/xlink" contentScriptType="application/ecmascript" contentStyleType="text/css" height="212px" preserveAspectRatio="none" style="width:205px;height:212px;background:#00000000;" version="1.1" viewBox="0 0 205 212" width="205px" zoomAndPan="magnify"><defs><filter height="300%" id="fv2gbh9f2w44c" width="300%" x="-1" y="-1"><feGaussianBlur result="blurOut" stdDeviation="2.0"/><feColorMatrix in="blurOut" result="blurOut2" type="matrix" values="0 0 0 0 0 0 0 0 0 0 0 0 0 0 0 0 0 0 .4 0"/><feOffset dx="4.0" dy="4.0" in="blurOut2" result="blurOut3"/><feBlend in="SourceGraphic" in2="blurOut3" mode="normal"/></filter></defs><g><!--MD5=[621b34574202a19c0e5b4e9a8e2f949e]
class ScrollIntoViewOptions--><rect codeLine="4" fill="#FEFECE" filter="url(#fv2gbh9f2w44c)" height="78.4141" id="ScrollIntoViewOptions" style="stroke:#A80036;stroke-width:1.5;" width="184" x="7" y="120"/><ellipse cx="30.1" cy="136" fill="#B4A7E5" rx="11" ry="11" style="stroke:#A80036;stroke-width:1.0;"/><path d="M26.0219,131.7656 L26.0219,129.6094 L33.4125,129.6094 L33.4125,131.7656 L30.9438,131.7656 L30.9438,139.8438 L33.4125,139.8438 L33.4125,142 L26.0219,142 L26.0219,139.8438 L28.4906,139.8438 L28.4906,131.7656 L26.0219,131.7656 Z " fill="#000000"/><text fill="#000000" font-family="sans-serif" font-size="12" font-style="italic" lengthAdjust="spacing" textLength="134" x="45.9" y="140.1543">ScrollIntoViewOptions</text><line style="stroke:#A80036;stroke-width:1.5;" x1="8" x2="190" y1="152" y2="152"/><ellipse cx="18" cy="163" rx="3" ry="3" style="stroke:#038048;stroke-width:1.0;fill:none;"/><text fill="#000000" font-family="sans-serif" font-size="11" lengthAdjust="spacing" textLength="143" x="27" y="166.2104">behavior : ScrollBehavior</text><ellipse cx="18" cy="175.8047" rx="3" ry="3" style="stroke:#038048;stroke-width:1.0;fill:none;"/><text fill="#000000" font-family="sans-serif" font-size="11" lengthAdjust="spacing" textLength="157" x="27" y="179.0151">block : ScrollLogicalPosition</text><ellipse cx="18" cy="188.6094" rx="3" ry="3" style="stroke:#038048;stroke-width:1.0;fill:none;"/><text fill="#000000" font-family="sans-serif" font-size="11" lengthAdjust="spacing" textLength="158" x="27" y="191.8198">inline : ScrollLogicalPosition</text><!--MD5=[0cec4021880ebd3c25ba82cc990e2d74]
class ScrollOptions--><rect codeLine="9" fill="#FEFECE" filter="url(#fv2gbh9f2w44c)" height="52.8047" id="ScrollOptions" style="stroke:#A80036;stroke-width:1.5;" width="169" x="14.5" y="7"/><ellipse cx="55.15" cy="23" fill="#B4A7E5" rx="11" ry="11" style="stroke:#A80036;stroke-width:1.0;"/><path d="M51.0719,18.7656 L51.0719,16.6094 L58.4625,16.6094 L58.4625,18.7656 L55.9938,18.7656 L55.9938,26.8438 L58.4625,26.8438 L58.4625,29 L51.0719,29 L51.0719,26.8438 L53.5406,26.8438 L53.5406,18.7656 L51.0719,18.7656 Z " fill="#000000"/><text fill="#000000" font-family="sans-serif" font-size="12" font-style="italic" lengthAdjust="spacing" textLength="80" x="74.85" y="27.1543">ScrollOptions</text><line style="stroke:#A80036;stroke-width:1.5;" x1="15.5" x2="182.5" y1="39" y2="39"/><ellipse cx="25.5" cy="50" rx="3" ry="3" style="stroke:#038048;stroke-width:1.0;fill:none;"/><text fill="#000000" font-family="sans-serif" font-size="11" lengthAdjust="spacing" textLength="143" x="34.5" y="53.2104">behavior : ScrollBehavior</text><!--MD5=[a6bda722ce134fc3a1bf7c6ab2c743c7]
reverse link ScrollOptions to ScrollIntoViewOptions--><path codeLine="12" d="M99,80.49 C99,93.42 99,107.35 99,119.77 " fill="none" id="ScrollOptions-backto-ScrollIntoViewOptions" style="stroke:#A80036;stroke-width:1.0;"/><polygon fill="none" points="92,80.09,99,60.09,106,80.09,92,80.09" style="stroke:#A80036;stroke-width:1.0;"/><!--MD5=[e6b5f929df8dfb8213978cb4e5bd4d2a]
@startuml
skinparam BackgroundColor transparent
hide empty methods
hide empty fields
interface "ScrollIntoViewOptions" {
    +behavior : ScrollBehavior
    +block : ScrollLogicalPosition
    +inline : ScrollLogicalPosition
}
interface "ScrollOptions" {
    +behavior : ScrollBehavior
}
"ScrollOptions" <|- - "ScrollIntoViewOptions"
@enduml

PlantUML version 1.2021.14(Fri Nov 12 11:46:50 EST 2021)
(GPL source distribution)
Java Runtime: OpenJDK Runtime Environment
JVM: OpenJDK 64-Bit Server VM
Default Encoding: UTF-8
Language: en
Country: US
--></g></svg>