<?xml version="1.0" encoding="UTF-8" standalone="no"?><svg xmlns="http://www.w3.org/2000/svg" xmlns:xlink="http://www.w3.org/1999/xlink" contentScriptType="application/ecmascript" contentStyleType="text/css" height="378px" preserveAspectRatio="none" style="width:266px;height:378px;background:#00000000;" version="1.1" viewBox="0 0 266 378" width="266px" zoomAndPan="magnify"><defs><filter height="300%" id="f97s8izd0g32h" width="300%" x="-1" y="-1"><feGaussianBlur result="blurOut" stdDeviation="2.0"/><feColorMatrix in="blurOut" result="blurOut2" type="matrix" values="0 0 0 0 0 0 0 0 0 0 0 0 0 0 0 0 0 0 .4 0"/><feOffset dx="4.0" dy="4.0" in="blurOut2" result="blurOut3"/><feBlend in="SourceGraphic" in2="blurOut3" mode="normal"/></filter></defs><g><!--MD5=[775a78f415cd19d3f1e750d87fcaaa3f]
class SpeechSynthesisErrorEventInit--><rect codeLine="4" fill="#FEFECE" filter="url(#f97s8izd0g32h)" height="155.2422" id="SpeechSynthesisErrorEventInit" style="stroke:#A80036;stroke-width:1.5;" width="245" x="7" y="209"/><ellipse cx="31.45" cy="225" fill="#B4A7E5" rx="11" ry="11" style="stroke:#A80036;stroke-width:1.0;"/><path d="M27.3719,220.7656 L27.3719,218.6094 L34.7625,218.6094 L34.7625,220.7656 L32.2938,220.7656 L32.2938,228.8438 L34.7625,228.8438 L34.7625,231 L27.3719,231 L27.3719,228.8438 L29.8406,228.8438 L29.8406,220.7656 L27.3719,220.7656 Z " fill="#000000"/><text fill="#000000" font-family="sans-serif" font-size="12" font-style="italic" lengthAdjust="spacing" textLength="192" x="47.55" y="229.1543">SpeechSynthesisErrorEventInit</text><line style="stroke:#A80036;stroke-width:1.5;" x1="8" x2="251" y1="241" y2="241"/><ellipse cx="18" cy="252" rx="3" ry="3" style="stroke:#038048;stroke-width:1.0;fill:none;"/><text fill="#000000" font-family="sans-serif" font-size="11" lengthAdjust="spacing" textLength="102" x="27" y="255.2104">bubbles : boolean</text><ellipse cx="18" cy="264.8047" rx="3" ry="3" style="stroke:#038048;stroke-width:1.0;fill:none;"/><text fill="#000000" font-family="sans-serif" font-size="11" lengthAdjust="spacing" textLength="117" x="27" y="268.0151">cancelable : boolean</text><ellipse cx="18" cy="277.6094" rx="3" ry="3" style="stroke:#038048;stroke-width:1.0;fill:none;"/><text fill="#000000" font-family="sans-serif" font-size="11" lengthAdjust="spacing" textLength="111" x="27" y="280.8198">charIndex : number</text><ellipse cx="18" cy="290.4141" rx="3" ry="3" style="stroke:#038048;stroke-width:1.0;fill:none;"/><text fill="#000000" font-family="sans-serif" font-size="11" lengthAdjust="spacing" textLength="119" x="27" y="293.6245">charLength : number</text><ellipse cx="18" cy="303.2188" rx="3" ry="3" style="stroke:#038048;stroke-width:1.0;fill:none;"/><text fill="#000000" font-family="sans-serif" font-size="11" lengthAdjust="spacing" textLength="116" x="27" y="306.4292">composed : boolean</text><ellipse cx="18" cy="316.0234" rx="3" ry="3" style="stroke:#038048;stroke-width:1.0;fill:none;"/><text fill="#000000" font-family="sans-serif" font-size="11" lengthAdjust="spacing" textLength="129" x="27" y="319.2339">elapsedTime : number</text><ellipse cx="18" cy="328.8281" rx="3" ry="3" style="stroke:#038048;stroke-width:1.0;fill:none;"/><text fill="#000000" font-family="sans-serif" font-size="11" lengthAdjust="spacing" textLength="197" x="27" y="332.0386">error : SpeechSynthesisErrorCode</text><ellipse cx="18" cy="341.6328" rx="3" ry="3" style="stroke:#038048;stroke-width:1.0;fill:none;"/><text fill="#000000" font-family="sans-serif" font-size="11" lengthAdjust="spacing" textLength="77" x="27" y="344.8433">name : string</text><ellipse cx="18" cy="354.4375" rx="3" ry="3" style="stroke:#038048;stroke-width:1.0;fill:none;"/><text fill="#000000" font-family="sans-serif" font-size="11" lengthAdjust="spacing" textLength="219" x="27" y="357.6479">utterance : SpeechSynthesisUtterance</text><!--MD5=[946698512aaa1b42a35dde5896d02374]
class SpeechSynthesisEventInit--><rect codeLine="15" fill="#FEFECE" filter="url(#f97s8izd0g32h)" height="142.4375" id="SpeechSynthesisEventInit" style="stroke:#A80036;stroke-width:1.5;" width="245" x="7" y="7"/><ellipse cx="45.4" cy="23" fill="#B4A7E5" rx="11" ry="11" style="stroke:#A80036;stroke-width:1.0;"/><path d="M41.3219,18.7656 L41.3219,16.6094 L48.7125,16.6094 L48.7125,18.7656 L46.2438,18.7656 L46.2438,26.8438 L48.7125,26.8438 L48.7125,29 L41.3219,29 L41.3219,26.8438 L43.7906,26.8438 L43.7906,18.7656 L41.3219,18.7656 Z " fill="#000000"/><text fill="#000000" font-family="sans-serif" font-size="12" font-style="italic" lengthAdjust="spacing" textLength="161" x="64.6" y="27.1543">SpeechSynthesisEventInit</text><line style="stroke:#A80036;stroke-width:1.5;" x1="8" x2="251" y1="39" y2="39"/><ellipse cx="18" cy="50" rx="3" ry="3" style="stroke:#038048;stroke-width:1.0;fill:none;"/><text fill="#000000" font-family="sans-serif" font-size="11" lengthAdjust="spacing" textLength="102" x="27" y="53.2104">bubbles : boolean</text><ellipse cx="18" cy="62.8047" rx="3" ry="3" style="stroke:#038048;stroke-width:1.0;fill:none;"/><text fill="#000000" font-family="sans-serif" font-size="11" lengthAdjust="spacing" textLength="117" x="27" y="66.0151">cancelable : boolean</text><ellipse cx="18" cy="75.6094" rx="3" ry="3" style="stroke:#038048;stroke-width:1.0;fill:none;"/><text fill="#000000" font-family="sans-serif" font-size="11" lengthAdjust="spacing" textLength="111" x="27" y="78.8198">charIndex : number</text><ellipse cx="18" cy="88.4141" rx="3" ry="3" style="stroke:#038048;stroke-width:1.0;fill:none;"/><text fill="#000000" font-family="sans-serif" font-size="11" lengthAdjust="spacing" textLength="119" x="27" y="91.6245">charLength : number</text><ellipse cx="18" cy="101.2188" rx="3" ry="3" style="stroke:#038048;stroke-width:1.0;fill:none;"/><text fill="#000000" font-family="sans-serif" font-size="11" lengthAdjust="spacing" textLength="116" x="27" y="104.4292">composed : boolean</text><ellipse cx="18" cy="114.0234" rx="3" ry="3" style="stroke:#038048;stroke-width:1.0;fill:none;"/><text fill="#000000" font-family="sans-serif" font-size="11" lengthAdjust="spacing" textLength="129" x="27" y="117.2339">elapsedTime : number</text><ellipse cx="18" cy="126.8281" rx="3" ry="3" style="stroke:#038048;stroke-width:1.0;fill:none;"/><text fill="#000000" font-family="sans-serif" font-size="11" lengthAdjust="spacing" textLength="77" x="27" y="130.0386">name : string</text><ellipse cx="18" cy="139.6328" rx="3" ry="3" style="stroke:#038048;stroke-width:1.0;fill:none;"/><text fill="#000000" font-family="sans-serif" font-size="11" lengthAdjust="spacing" textLength="219" x="27" y="142.8433">utterance : SpeechSynthesisUtterance</text><!--MD5=[b39e1bdc2a2b3ad11c918f91a0540a76]
reverse link SpeechSynthesisEventInit to SpeechSynthesisErrorEventInit--><path codeLine="25" d="M129.5,169.45 C129.5,182.57 129.5,195.96 129.5,208.77 " fill="none" id="SpeechSynthesisEventInit-backto-SpeechSynthesisErrorEventInit" style="stroke:#A80036;stroke-width:1.0;"/><polygon fill="none" points="122.5,169.2,129.5,149.2,136.5,169.2,122.5,169.2" style="stroke:#A80036;stroke-width:1.0;"/><!--MD5=[ecdef825675711a6e4b9f0f98ebaefb0]
@startuml
skinparam BackgroundColor transparent
hide empty methods
hide empty fields
interface "SpeechSynthesisErrorEventInit" {
    +bubbles : boolean
    +cancelable : boolean
    +charIndex : number
    +charLength : number
    +composed : boolean
    +elapsedTime : number
    +error : SpeechSynthesisErrorCode
    +name : string
    +utterance : SpeechSynthesisUtterance
}
interface "SpeechSynthesisEventInit" {
    +bubbles : boolean
    +cancelable : boolean
    +charIndex : number
    +charLength : number
    +composed : boolean
    +elapsedTime : number
    +name : string
    +utterance : SpeechSynthesisUtterance
}
"SpeechSynthesisEventInit" <|- - "SpeechSynthesisErrorEventInit"
@enduml

PlantUML version 1.2021.14(Fri Nov 12 11:46:50 EST 2021)
(GPL source distribution)
Java Runtime: OpenJDK Runtime Environment
JVM: OpenJDK 64-Bit Server VM
Default Encoding: UTF-8
Language: en
Country: US
--></g></svg>