<?xml version="1.0" encoding="UTF-8" standalone="no"?><svg xmlns="http://www.w3.org/2000/svg" xmlns:xlink="http://www.w3.org/1999/xlink" contentScriptType="application/ecmascript" contentStyleType="text/css" height="516px" preserveAspectRatio="none" style="width:266px;height:516px;background:#00000000;" version="1.1" viewBox="0 0 266 516" width="266px" zoomAndPan="magnify"><defs><filter height="300%" id="f104o49f4yba4e" width="300%" x="-1" y="-1"><feGaussianBlur result="blurOut" stdDeviation="2.0"/><feColorMatrix in="blurOut" result="blurOut2" type="matrix" values="0 0 0 0 0 0 0 0 0 0 0 0 0 0 0 0 0 0 .4 0"/><feOffset dx="4.0" dy="4.0" in="blurOut2" result="blurOut3"/><feBlend in="SourceGraphic" in2="blurOut3" mode="normal"/></filter></defs><g><!--MD5=[946698512aaa1b42a35dde5896d02374]
class SpeechSynthesisEventInit--><rect codeLine="4" fill="#FEFECE" filter="url(#f104o49f4yba4e)" height="142.4375" id="SpeechSynthesisEventInit" style="stroke:#A80036;stroke-width:1.5;" width="245" x="7" y="145"/><ellipse cx="45.4" cy="161" fill="#B4A7E5" rx="11" ry="11" style="stroke:#A80036;stroke-width:1.0;"/><path d="M41.3219,156.7656 L41.3219,154.6094 L48.7125,154.6094 L48.7125,156.7656 L46.2438,156.7656 L46.2438,164.8438 L48.7125,164.8438 L48.7125,167 L41.3219,167 L41.3219,164.8438 L43.7906,164.8438 L43.7906,156.7656 L41.3219,156.7656 Z " fill="#000000"/><text fill="#000000" font-family="sans-serif" font-size="12" font-style="italic" lengthAdjust="spacing" textLength="161" x="64.6" y="165.1543">SpeechSynthesisEventInit</text><line style="stroke:#A80036;stroke-width:1.5;" x1="8" x2="251" y1="177" y2="177"/><ellipse cx="18" cy="188" rx="3" ry="3" style="stroke:#038048;stroke-width:1.0;fill:none;"/><text fill="#000000" font-family="sans-serif" font-size="11" lengthAdjust="spacing" textLength="102" x="27" y="191.2104">bubbles : boolean</text><ellipse cx="18" cy="200.8047" rx="3" ry="3" style="stroke:#038048;stroke-width:1.0;fill:none;"/><text fill="#000000" font-family="sans-serif" font-size="11" lengthAdjust="spacing" textLength="117" x="27" y="204.0151">cancelable : boolean</text><ellipse cx="18" cy="213.6094" rx="3" ry="3" style="stroke:#038048;stroke-width:1.0;fill:none;"/><text fill="#000000" font-family="sans-serif" font-size="11" lengthAdjust="spacing" textLength="111" x="27" y="216.8198">charIndex : number</text><ellipse cx="18" cy="226.4141" rx="3" ry="3" style="stroke:#038048;stroke-width:1.0;fill:none;"/><text fill="#000000" font-family="sans-serif" font-size="11" lengthAdjust="spacing" textLength="119" x="27" y="229.6245">charLength : number</text><ellipse cx="18" cy="239.2188" rx="3" ry="3" style="stroke:#038048;stroke-width:1.0;fill:none;"/><text fill="#000000" font-family="sans-serif" font-size="11" lengthAdjust="spacing" textLength="116" x="27" y="242.4292">composed : boolean</text><ellipse cx="18" cy="252.0234" rx="3" ry="3" style="stroke:#038048;stroke-width:1.0;fill:none;"/><text fill="#000000" font-family="sans-serif" font-size="11" lengthAdjust="spacing" textLength="129" x="27" y="255.2339">elapsedTime : number</text><ellipse cx="18" cy="264.8281" rx="3" ry="3" style="stroke:#038048;stroke-width:1.0;fill:none;"/><text fill="#000000" font-family="sans-serif" font-size="11" lengthAdjust="spacing" textLength="77" x="27" y="268.0386">name : string</text><ellipse cx="18" cy="277.6328" rx="3" ry="3" style="stroke:#038048;stroke-width:1.0;fill:none;"/><text fill="#000000" font-family="sans-serif" font-size="11" lengthAdjust="spacing" textLength="219" x="27" y="280.8433">utterance : SpeechSynthesisUtterance</text><!--MD5=[20555489c30bd85c28b7a7f2623ad986]
class EventInit--><rect codeLine="14" fill="#FEFECE" filter="url(#f104o49f4yba4e)" height="78.4141" id="EventInit" style="stroke:#A80036;stroke-width:1.5;" width="143" x="58" y="7"/><ellipse cx="98.2" cy="23" fill="#B4A7E5" rx="11" ry="11" style="stroke:#A80036;stroke-width:1.0;"/><path d="M94.1219,18.7656 L94.1219,16.6094 L101.5125,16.6094 L101.5125,18.7656 L99.0438,18.7656 L99.0438,26.8438 L101.5125,26.8438 L101.5125,29 L94.1219,29 L94.1219,26.8438 L96.5906,26.8438 L96.5906,18.7656 L94.1219,18.7656 Z " fill="#000000"/><text fill="#000000" font-family="sans-serif" font-size="12" font-style="italic" lengthAdjust="spacing" textLength="55" x="117.8" y="27.1543">EventInit</text><line style="stroke:#A80036;stroke-width:1.5;" x1="59" x2="200" y1="39" y2="39"/><ellipse cx="69" cy="50" rx="3" ry="3" style="stroke:#038048;stroke-width:1.0;fill:none;"/><text fill="#000000" font-family="sans-serif" font-size="11" lengthAdjust="spacing" textLength="102" x="78" y="53.2104">bubbles : boolean</text><ellipse cx="69" cy="62.8047" rx="3" ry="3" style="stroke:#038048;stroke-width:1.0;fill:none;"/><text fill="#000000" font-family="sans-serif" font-size="11" lengthAdjust="spacing" textLength="117" x="78" y="66.0151">cancelable : boolean</text><ellipse cx="69" cy="75.6094" rx="3" ry="3" style="stroke:#038048;stroke-width:1.0;fill:none;"/><text fill="#000000" font-family="sans-serif" font-size="11" lengthAdjust="spacing" textLength="116" x="78" y="78.8198">composed : boolean</text><!--MD5=[775a78f415cd19d3f1e750d87fcaaa3f]
class SpeechSynthesisErrorEventInit--><rect codeLine="20" fill="#FEFECE" filter="url(#f104o49f4yba4e)" height="155.2422" id="SpeechSynthesisErrorEventInit" style="stroke:#A80036;stroke-width:1.5;" width="245" x="7" y="347"/><ellipse cx="31.45" cy="363" fill="#B4A7E5" rx="11" ry="11" style="stroke:#A80036;stroke-width:1.0;"/><path d="M27.3719,358.7656 L27.3719,356.6094 L34.7625,356.6094 L34.7625,358.7656 L32.2938,358.7656 L32.2938,366.8438 L34.7625,366.8438 L34.7625,369 L27.3719,369 L27.3719,366.8438 L29.8406,366.8438 L29.8406,358.7656 L27.3719,358.7656 Z " fill="#000000"/><text fill="#000000" font-family="sans-serif" font-size="12" font-style="italic" lengthAdjust="spacing" textLength="192" x="47.55" y="367.1543">SpeechSynthesisErrorEventInit</text><line style="stroke:#A80036;stroke-width:1.5;" x1="8" x2="251" y1="379" y2="379"/><ellipse cx="18" cy="390" rx="3" ry="3" style="stroke:#038048;stroke-width:1.0;fill:none;"/><text fill="#000000" font-family="sans-serif" font-size="11" lengthAdjust="spacing" textLength="102" x="27" y="393.2104">bubbles : boolean</text><ellipse cx="18" cy="402.8047" rx="3" ry="3" style="stroke:#038048;stroke-width:1.0;fill:none;"/><text fill="#000000" font-family="sans-serif" font-size="11" lengthAdjust="spacing" textLength="117" x="27" y="406.0151">cancelable : boolean</text><ellipse cx="18" cy="415.6094" rx="3" ry="3" style="stroke:#038048;stroke-width:1.0;fill:none;"/><text fill="#000000" font-family="sans-serif" font-size="11" lengthAdjust="spacing" textLength="111" x="27" y="418.8198">charIndex : number</text><ellipse cx="18" cy="428.4141" rx="3" ry="3" style="stroke:#038048;stroke-width:1.0;fill:none;"/><text fill="#000000" font-family="sans-serif" font-size="11" lengthAdjust="spacing" textLength="119" x="27" y="431.6245">charLength : number</text><ellipse cx="18" cy="441.2188" rx="3" ry="3" style="stroke:#038048;stroke-width:1.0;fill:none;"/><text fill="#000000" font-family="sans-serif" font-size="11" lengthAdjust="spacing" textLength="116" x="27" y="444.4292">composed : boolean</text><ellipse cx="18" cy="454.0234" rx="3" ry="3" style="stroke:#038048;stroke-width:1.0;fill:none;"/><text fill="#000000" font-family="sans-serif" font-size="11" lengthAdjust="spacing" textLength="129" x="27" y="457.2339">elapsedTime : number</text><ellipse cx="18" cy="466.8281" rx="3" ry="3" style="stroke:#038048;stroke-width:1.0;fill:none;"/><text fill="#000000" font-family="sans-serif" font-size="11" lengthAdjust="spacing" textLength="197" x="27" y="470.0386">error : SpeechSynthesisErrorCode</text><ellipse cx="18" cy="479.6328" rx="3" ry="3" style="stroke:#038048;stroke-width:1.0;fill:none;"/><text fill="#000000" font-family="sans-serif" font-size="11" lengthAdjust="spacing" textLength="77" x="27" y="482.8433">name : string</text><ellipse cx="18" cy="492.4375" rx="3" ry="3" style="stroke:#038048;stroke-width:1.0;fill:none;"/><text fill="#000000" font-family="sans-serif" font-size="11" lengthAdjust="spacing" textLength="219" x="27" y="495.6479">utterance : SpeechSynthesisUtterance</text><!--MD5=[5c08fb78329af56209176c666b9cd312]
reverse link EventInit to SpeechSynthesisEventInit--><path codeLine="19" d="M129.5,105.51 C129.5,118.25 129.5,131.85 129.5,144.98 " fill="none" id="EventInit-backto-SpeechSynthesisEventInit" style="stroke:#A80036;stroke-width:1.0;"/><polygon fill="none" points="122.5,105.12,129.5,85.12,136.5,105.12,122.5,105.12" style="stroke:#A80036;stroke-width:1.0;"/><!--MD5=[b39e1bdc2a2b3ad11c918f91a0540a76]
reverse link SpeechSynthesisEventInit to SpeechSynthesisErrorEventInit--><path codeLine="31" d="M129.5,307.45 C129.5,320.57 129.5,333.96 129.5,346.77 " fill="none" id="SpeechSynthesisEventInit-backto-SpeechSynthesisErrorEventInit" style="stroke:#A80036;stroke-width:1.0;"/><polygon fill="none" points="122.5,307.2,129.5,287.2,136.5,307.2,122.5,307.2" style="stroke:#A80036;stroke-width:1.0;"/><!--MD5=[7bf34ecb5b62e3c49c2c0e3d7ce092a4]
@startuml
skinparam BackgroundColor transparent
hide empty methods
hide empty fields
interface "SpeechSynthesisEventInit" {
    +bubbles : boolean
    +cancelable : boolean
    +charIndex : number
    +charLength : number
    +composed : boolean
    +elapsedTime : number
    +name : string
    +utterance : SpeechSynthesisUtterance
}
interface "EventInit" {
    +bubbles : boolean
    +cancelable : boolean
    +composed : boolean
}
"EventInit" <|- - "SpeechSynthesisEventInit"
interface "SpeechSynthesisErrorEventInit" {
    +bubbles : boolean
    +cancelable : boolean
    +charIndex : number
    +charLength : number
    +composed : boolean
    +elapsedTime : number
    +error : SpeechSynthesisErrorCode
    +name : string
    +utterance : SpeechSynthesisUtterance
}
"SpeechSynthesisEventInit" <|- - "SpeechSynthesisErrorEventInit"
@enduml

PlantUML version 1.2021.14(Fri Nov 12 11:46:50 EST 2021)
(GPL source distribution)
Java Runtime: OpenJDK Runtime Environment
JVM: OpenJDK 64-Bit Server VM
Default Encoding: UTF-8
Language: en
Country: US
--></g></svg>