<?xml version="1.0" encoding="UTF-8" standalone="no"?><svg xmlns="http://www.w3.org/2000/svg" xmlns:xlink="http://www.w3.org/1999/xlink" contentScriptType="application/ecmascript" contentStyleType="text/css" height="301px" preserveAspectRatio="none" style="width:174px;height:301px;background:#00000000;" version="1.1" viewBox="0 0 174 301" width="174px" zoomAndPan="magnify"><defs><filter height="300%" id="f1xqblgmtfjxsk" width="300%" x="-1" y="-1"><feGaussianBlur result="blurOut" stdDeviation="2.0"/><feColorMatrix in="blurOut" result="blurOut2" type="matrix" values="0 0 0 0 0 0 0 0 0 0 0 0 0 0 0 0 0 0 .4 0"/><feOffset dx="4.0" dy="4.0" in="blurOut2" result="blurOut3"/><feBlend in="SourceGraphic" in2="blurOut3" mode="normal"/></filter></defs><g><!--MD5=[3a18388c6266cd433ca7037c0cd315ac]
class StorageEventInit--><rect codeLine="4" fill="#FEFECE" filter="url(#f1xqblgmtfjxsk)" height="142.4375" id="StorageEventInit" style="stroke:#A80036;stroke-width:1.5;" width="153" x="7" y="145"/><ellipse cx="29.2" cy="161" fill="#B4A7E5" rx="11" ry="11" style="stroke:#A80036;stroke-width:1.0;"/><path d="M25.1219,156.7656 L25.1219,154.6094 L32.5125,154.6094 L32.5125,156.7656 L30.0438,156.7656 L30.0438,164.8438 L32.5125,164.8438 L32.5125,167 L25.1219,167 L25.1219,164.8438 L27.5906,164.8438 L27.5906,156.7656 L25.1219,156.7656 Z " fill="#000000"/><text fill="#000000" font-family="sans-serif" font-size="12" font-style="italic" lengthAdjust="spacing" textLength="105" x="44.8" y="165.1543">StorageEventInit</text><line style="stroke:#A80036;stroke-width:1.5;" x1="8" x2="159" y1="177" y2="177"/><ellipse cx="18" cy="188" rx="3" ry="3" style="stroke:#038048;stroke-width:1.0;fill:none;"/><text fill="#000000" font-family="sans-serif" font-size="11" lengthAdjust="spacing" textLength="102" x="27" y="191.2104">bubbles : boolean</text><ellipse cx="18" cy="200.8047" rx="3" ry="3" style="stroke:#038048;stroke-width:1.0;fill:none;"/><text fill="#000000" font-family="sans-serif" font-size="11" lengthAdjust="spacing" textLength="117" x="27" y="204.0151">cancelable : boolean</text><ellipse cx="18" cy="213.6094" rx="3" ry="3" style="stroke:#038048;stroke-width:1.0;fill:none;"/><text fill="#000000" font-family="sans-serif" font-size="11" lengthAdjust="spacing" textLength="116" x="27" y="216.8198">composed : boolean</text><ellipse cx="18" cy="226.4141" rx="3" ry="3" style="stroke:#038048;stroke-width:1.0;fill:none;"/><text fill="#000000" font-family="sans-serif" font-size="11" lengthAdjust="spacing" textLength="64" x="27" y="229.6245">key : string</text><ellipse cx="18" cy="239.2188" rx="3" ry="3" style="stroke:#038048;stroke-width:1.0;fill:none;"/><text fill="#000000" font-family="sans-serif" font-size="11" lengthAdjust="spacing" textLength="99" x="27" y="242.4292">newValue : string</text><ellipse cx="18" cy="252.0234" rx="3" ry="3" style="stroke:#038048;stroke-width:1.0;fill:none;"/><text fill="#000000" font-family="sans-serif" font-size="11" lengthAdjust="spacing" textLength="93" x="27" y="255.2339">oldValue : string</text><ellipse cx="18" cy="264.8281" rx="3" ry="3" style="stroke:#038048;stroke-width:1.0;fill:none;"/><text fill="#000000" font-family="sans-serif" font-size="11" lengthAdjust="spacing" textLength="127" x="27" y="268.0386">storageArea : Storage</text><ellipse cx="18" cy="277.6328" rx="3" ry="3" style="stroke:#038048;stroke-width:1.0;fill:none;"/><text fill="#000000" font-family="sans-serif" font-size="11" lengthAdjust="spacing" textLength="60" x="27" y="280.8433">url : string</text><!--MD5=[20555489c30bd85c28b7a7f2623ad986]
class EventInit--><rect codeLine="14" fill="#FEFECE" filter="url(#f1xqblgmtfjxsk)" height="78.4141" id="EventInit" style="stroke:#A80036;stroke-width:1.5;" width="143" x="12" y="7"/><ellipse cx="52.2" cy="23" fill="#B4A7E5" rx="11" ry="11" style="stroke:#A80036;stroke-width:1.0;"/><path d="M48.1219,18.7656 L48.1219,16.6094 L55.5125,16.6094 L55.5125,18.7656 L53.0438,18.7656 L53.0438,26.8438 L55.5125,26.8438 L55.5125,29 L48.1219,29 L48.1219,26.8438 L50.5906,26.8438 L50.5906,18.7656 L48.1219,18.7656 Z " fill="#000000"/><text fill="#000000" font-family="sans-serif" font-size="12" font-style="italic" lengthAdjust="spacing" textLength="55" x="71.8" y="27.1543">EventInit</text><line style="stroke:#A80036;stroke-width:1.5;" x1="13" x2="154" y1="39" y2="39"/><ellipse cx="23" cy="50" rx="3" ry="3" style="stroke:#038048;stroke-width:1.0;fill:none;"/><text fill="#000000" font-family="sans-serif" font-size="11" lengthAdjust="spacing" textLength="102" x="32" y="53.2104">bubbles : boolean</text><ellipse cx="23" cy="62.8047" rx="3" ry="3" style="stroke:#038048;stroke-width:1.0;fill:none;"/><text fill="#000000" font-family="sans-serif" font-size="11" lengthAdjust="spacing" textLength="117" x="32" y="66.0151">cancelable : boolean</text><ellipse cx="23" cy="75.6094" rx="3" ry="3" style="stroke:#038048;stroke-width:1.0;fill:none;"/><text fill="#000000" font-family="sans-serif" font-size="11" lengthAdjust="spacing" textLength="116" x="32" y="78.8198">composed : boolean</text><!--MD5=[941bca42d546d57889ece03e4d576744]
reverse link EventInit to StorageEventInit--><path codeLine="19" d="M83.5,105.51 C83.5,118.25 83.5,131.85 83.5,144.98 " fill="none" id="EventInit-backto-StorageEventInit" style="stroke:#A80036;stroke-width:1.0;"/><polygon fill="none" points="76.5,105.12,83.5,85.12,90.5,105.12,76.5,105.12" style="stroke:#A80036;stroke-width:1.0;"/><!--MD5=[1a57bb0d666936f73a8fa4b2f508e7ce]
@startuml
skinparam BackgroundColor transparent
hide empty methods
hide empty fields
interface "StorageEventInit" {
    +bubbles : boolean
    +cancelable : boolean
    +composed : boolean
    +key : string
    +newValue : string
    +oldValue : string
    +storageArea : Storage
    +url : string
}
interface "EventInit" {
    +bubbles : boolean
    +cancelable : boolean
    +composed : boolean
}
"EventInit" <|- - "StorageEventInit"
@enduml

PlantUML version 1.2021.14(Fri Nov 12 11:46:50 EST 2021)
(GPL source distribution)
Java Runtime: OpenJDK Runtime Environment
JVM: OpenJDK 64-Bit Server VM
Default Encoding: UTF-8
Language: en
Country: US
--></g></svg>