<?xml version="1.0" encoding="UTF-8" standalone="no"?><svg xmlns="http://www.w3.org/2000/svg" xmlns:xlink="http://www.w3.org/1999/xlink" contentScriptType="application/ecmascript" contentStyleType="text/css" height="250px" preserveAspectRatio="none" style="width:190px;height:250px;background:#00000000;" version="1.1" viewBox="0 0 190 250" width="190px" zoomAndPan="magnify"><defs><filter height="300%" id="f187s00a9xizik" width="300%" x="-1" y="-1"><feGaussianBlur result="blurOut" stdDeviation="2.0"/><feColorMatrix in="blurOut" result="blurOut2" type="matrix" values="0 0 0 0 0 0 0 0 0 0 0 0 0 0 0 0 0 0 .4 0"/><feOffset dx="4.0" dy="4.0" in="blurOut2" result="blurOut3"/><feBlend in="SourceGraphic" in2="blurOut3" mode="normal"/></filter></defs><g><!--MD5=[e5a0ba8a952a5d3e7c72294e5c1b9a3c]
class SubmitEventInit--><rect codeLine="4" fill="#FEFECE" filter="url(#f187s00a9xizik)" height="91.2188" id="SubmitEventInit" style="stroke:#A80036;stroke-width:1.5;" width="169" x="7" y="145"/><ellipse cx="39.55" cy="161" fill="#B4A7E5" rx="11" ry="11" style="stroke:#A80036;stroke-width:1.0;"/><path d="M35.4719,156.7656 L35.4719,154.6094 L42.8625,154.6094 L42.8625,156.7656 L40.3938,156.7656 L40.3938,164.8438 L42.8625,164.8438 L42.8625,167 L35.4719,167 L35.4719,164.8438 L37.9406,164.8438 L37.9406,156.7656 L35.4719,156.7656 Z " fill="#000000"/><text fill="#000000" font-family="sans-serif" font-size="12" font-style="italic" lengthAdjust="spacing" textLength="98" x="57.45" y="165.1543">SubmitEventInit</text><line style="stroke:#A80036;stroke-width:1.5;" x1="8" x2="175" y1="177" y2="177"/><ellipse cx="18" cy="188" rx="3" ry="3" style="stroke:#038048;stroke-width:1.0;fill:none;"/><text fill="#000000" font-family="sans-serif" font-size="11" lengthAdjust="spacing" textLength="102" x="27" y="191.2104">bubbles : boolean</text><ellipse cx="18" cy="200.8047" rx="3" ry="3" style="stroke:#038048;stroke-width:1.0;fill:none;"/><text fill="#000000" font-family="sans-serif" font-size="11" lengthAdjust="spacing" textLength="117" x="27" y="204.0151">cancelable : boolean</text><ellipse cx="18" cy="213.6094" rx="3" ry="3" style="stroke:#038048;stroke-width:1.0;fill:none;"/><text fill="#000000" font-family="sans-serif" font-size="11" lengthAdjust="spacing" textLength="116" x="27" y="216.8198">composed : boolean</text><ellipse cx="18" cy="226.4141" rx="3" ry="3" style="stroke:#038048;stroke-width:1.0;fill:none;"/><text fill="#000000" font-family="sans-serif" font-size="11" lengthAdjust="spacing" textLength="143" x="27" y="229.6245">submitter : HTMLElement</text><!--MD5=[20555489c30bd85c28b7a7f2623ad986]
class EventInit--><rect codeLine="10" fill="#FEFECE" filter="url(#f187s00a9xizik)" height="78.4141" id="EventInit" style="stroke:#A80036;stroke-width:1.5;" width="143" x="20" y="7"/><ellipse cx="60.2" cy="23" fill="#B4A7E5" rx="11" ry="11" style="stroke:#A80036;stroke-width:1.0;"/><path d="M56.1219,18.7656 L56.1219,16.6094 L63.5125,16.6094 L63.5125,18.7656 L61.0438,18.7656 L61.0438,26.8438 L63.5125,26.8438 L63.5125,29 L56.1219,29 L56.1219,26.8438 L58.5906,26.8438 L58.5906,18.7656 L56.1219,18.7656 Z " fill="#000000"/><text fill="#000000" font-family="sans-serif" font-size="12" font-style="italic" lengthAdjust="spacing" textLength="55" x="79.8" y="27.1543">EventInit</text><line style="stroke:#A80036;stroke-width:1.5;" x1="21" x2="162" y1="39" y2="39"/><ellipse cx="31" cy="50" rx="3" ry="3" style="stroke:#038048;stroke-width:1.0;fill:none;"/><text fill="#000000" font-family="sans-serif" font-size="11" lengthAdjust="spacing" textLength="102" x="40" y="53.2104">bubbles : boolean</text><ellipse cx="31" cy="62.8047" rx="3" ry="3" style="stroke:#038048;stroke-width:1.0;fill:none;"/><text fill="#000000" font-family="sans-serif" font-size="11" lengthAdjust="spacing" textLength="117" x="40" y="66.0151">cancelable : boolean</text><ellipse cx="31" cy="75.6094" rx="3" ry="3" style="stroke:#038048;stroke-width:1.0;fill:none;"/><text fill="#000000" font-family="sans-serif" font-size="11" lengthAdjust="spacing" textLength="116" x="40" y="78.8198">composed : boolean</text><!--MD5=[ffa73a1045eb596b15aec33972027451]
reverse link EventInit to SubmitEventInit--><path codeLine="15" d="M91.5,105.21 C91.5,118.45 91.5,132.32 91.5,144.89 " fill="none" id="EventInit-backto-SubmitEventInit" style="stroke:#A80036;stroke-width:1.0;"/><polygon fill="none" points="84.5,105.19,91.5,85.19,98.5,105.19,84.5,105.19" style="stroke:#A80036;stroke-width:1.0;"/><!--MD5=[a4c3806dcfb1dc57890fd7417726eab7]
@startuml
skinparam BackgroundColor transparent
hide empty methods
hide empty fields
interface "SubmitEventInit" {
    +bubbles : boolean
    +cancelable : boolean
    +composed : boolean
    +submitter : HTMLElement
}
interface "EventInit" {
    +bubbles : boolean
    +cancelable : boolean
    +composed : boolean
}
"EventInit" <|- - "SubmitEventInit"
@enduml

PlantUML version 1.2021.14(Fri Nov 12 11:46:50 EST 2021)
(GPL source distribution)
Java Runtime: OpenJDK Runtime Environment
JVM: OpenJDK 64-Bit Server VM
Default Encoding: UTF-8
Language: en
Country: US
--></g></svg>