<?xml version="1.0" encoding="UTF-8" standalone="no"?><svg xmlns="http://www.w3.org/2000/svg" xmlns:xlink="http://www.w3.org/1999/xlink" contentScriptType="application/ecmascript" contentStyleType="text/css" height="250px" preserveAspectRatio="none" style="width:164px;height:250px;background:#00000000;" version="1.1" viewBox="0 0 164 250" width="164px" zoomAndPan="magnify"><defs><filter height="300%" id="fk4y3zkvyntxd" width="300%" x="-1" y="-1"><feGaussianBlur result="blurOut" stdDeviation="2.0"/><feColorMatrix in="blurOut" result="blurOut2" type="matrix" values="0 0 0 0 0 0 0 0 0 0 0 0 0 0 0 0 0 0 .4 0"/><feOffset dx="4.0" dy="4.0" in="blurOut2" result="blurOut3"/><feBlend in="SourceGraphic" in2="blurOut3" mode="normal"/></filter></defs><g><!--MD5=[d81c241720468a43307338a77777b7be]
class TrackEventInit--><rect codeLine="4" fill="#FEFECE" filter="url(#fk4y3zkvyntxd)" height="91.2188" id="TrackEventInit" style="stroke:#A80036;stroke-width:1.5;" width="143" x="7" y="145"/><ellipse cx="31.9" cy="161" fill="#B4A7E5" rx="11" ry="11" style="stroke:#A80036;stroke-width:1.0;"/><path d="M27.8219,156.7656 L27.8219,154.6094 L35.2125,154.6094 L35.2125,156.7656 L32.7438,156.7656 L32.7438,164.8438 L35.2125,164.8438 L35.2125,167 L27.8219,167 L27.8219,164.8438 L30.2906,164.8438 L30.2906,156.7656 L27.8219,156.7656 Z " fill="#000000"/><text fill="#000000" font-family="sans-serif" font-size="12" font-style="italic" lengthAdjust="spacing" textLength="89" x="48.1" y="165.1543">TrackEventInit</text><line style="stroke:#A80036;stroke-width:1.5;" x1="8" x2="149" y1="177" y2="177"/><ellipse cx="18" cy="188" rx="3" ry="3" style="stroke:#038048;stroke-width:1.0;fill:none;"/><text fill="#000000" font-family="sans-serif" font-size="11" lengthAdjust="spacing" textLength="102" x="27" y="191.2104">bubbles : boolean</text><ellipse cx="18" cy="200.8047" rx="3" ry="3" style="stroke:#038048;stroke-width:1.0;fill:none;"/><text fill="#000000" font-family="sans-serif" font-size="11" lengthAdjust="spacing" textLength="117" x="27" y="204.0151">cancelable : boolean</text><ellipse cx="18" cy="213.6094" rx="3" ry="3" style="stroke:#038048;stroke-width:1.0;fill:none;"/><text fill="#000000" font-family="sans-serif" font-size="11" lengthAdjust="spacing" textLength="116" x="27" y="216.8198">composed : boolean</text><ellipse cx="18" cy="226.4141" rx="3" ry="3" style="stroke:#038048;stroke-width:1.0;fill:none;"/><text fill="#000000" font-family="sans-serif" font-size="11" lengthAdjust="spacing" textLength="95" x="27" y="229.6245">track : TextTrack</text><!--MD5=[20555489c30bd85c28b7a7f2623ad986]
class EventInit--><rect codeLine="10" fill="#FEFECE" filter="url(#fk4y3zkvyntxd)" height="78.4141" id="EventInit" style="stroke:#A80036;stroke-width:1.5;" width="143" x="7" y="7"/><ellipse cx="47.2" cy="23" fill="#B4A7E5" rx="11" ry="11" style="stroke:#A80036;stroke-width:1.0;"/><path d="M43.1219,18.7656 L43.1219,16.6094 L50.5125,16.6094 L50.5125,18.7656 L48.0438,18.7656 L48.0438,26.8438 L50.5125,26.8438 L50.5125,29 L43.1219,29 L43.1219,26.8438 L45.5906,26.8438 L45.5906,18.7656 L43.1219,18.7656 Z " fill="#000000"/><text fill="#000000" font-family="sans-serif" font-size="12" font-style="italic" lengthAdjust="spacing" textLength="55" x="66.8" y="27.1543">EventInit</text><line style="stroke:#A80036;stroke-width:1.5;" x1="8" x2="149" y1="39" y2="39"/><ellipse cx="18" cy="50" rx="3" ry="3" style="stroke:#038048;stroke-width:1.0;fill:none;"/><text fill="#000000" font-family="sans-serif" font-size="11" lengthAdjust="spacing" textLength="102" x="27" y="53.2104">bubbles : boolean</text><ellipse cx="18" cy="62.8047" rx="3" ry="3" style="stroke:#038048;stroke-width:1.0;fill:none;"/><text fill="#000000" font-family="sans-serif" font-size="11" lengthAdjust="spacing" textLength="117" x="27" y="66.0151">cancelable : boolean</text><ellipse cx="18" cy="75.6094" rx="3" ry="3" style="stroke:#038048;stroke-width:1.0;fill:none;"/><text fill="#000000" font-family="sans-serif" font-size="11" lengthAdjust="spacing" textLength="116" x="27" y="78.8198">composed : boolean</text><!--MD5=[8771e532c6a62a8d6c79f2cd65896d0d]
reverse link EventInit to TrackEventInit--><path codeLine="15" d="M78.5,105.21 C78.5,118.45 78.5,132.32 78.5,144.89 " fill="none" id="EventInit-backto-TrackEventInit" style="stroke:#A80036;stroke-width:1.0;"/><polygon fill="none" points="71.5,105.19,78.5,85.19,85.5,105.19,71.5,105.19" style="stroke:#A80036;stroke-width:1.0;"/><!--MD5=[2ff3bfbe007a2394a7ef9822e3667a81]
@startuml
skinparam BackgroundColor transparent
hide empty methods
hide empty fields
interface "TrackEventInit" {
    +bubbles : boolean
    +cancelable : boolean
    +composed : boolean
    +track : TextTrack
}
interface "EventInit" {
    +bubbles : boolean
    +cancelable : boolean
    +composed : boolean
}
"EventInit" <|- - "TrackEventInit"
@enduml

PlantUML version 1.2021.14(Fri Nov 12 11:46:50 EST 2021)
(GPL source distribution)
Java Runtime: OpenJDK Runtime Environment
JVM: OpenJDK 64-Bit Server VM
Default Encoding: UTF-8
Language: en
Country: US
--></g></svg>