<?xml version="1.0" encoding="UTF-8" standalone="no"?><svg xmlns="http://www.w3.org/2000/svg" xmlns:xlink="http://www.w3.org/1999/xlink" contentScriptType="application/ecmascript" contentStyleType="text/css" height="275px" preserveAspectRatio="none" style="width:180px;height:275px;background:#00000000;" version="1.1" viewBox="0 0 180 275" width="180px" zoomAndPan="magnify"><defs><filter height="300%" id="f19278210nndrc" width="300%" x="-1" y="-1"><feGaussianBlur result="blurOut" stdDeviation="2.0"/><feColorMatrix in="blurOut" result="blurOut2" type="matrix" values="0 0 0 0 0 0 0 0 0 0 0 0 0 0 0 0 0 0 .4 0"/><feOffset dx="4.0" dy="4.0" in="blurOut2" result="blurOut3"/><feBlend in="SourceGraphic" in2="blurOut3" mode="normal"/></filter></defs><g><!--MD5=[8c3ca5ac3880faf7af8082e280b98dac]
class TransitionEventInit--><rect codeLine="4" fill="#FEFECE" filter="url(#f19278210nndrc)" height="116.8281" id="TransitionEventInit" style="stroke:#A80036;stroke-width:1.5;" width="159" x="7" y="145"/><ellipse cx="26.95" cy="161" fill="#B4A7E5" rx="11" ry="11" style="stroke:#A80036;stroke-width:1.0;"/><path d="M22.8719,156.7656 L22.8719,154.6094 L30.2625,154.6094 L30.2625,156.7656 L27.7938,156.7656 L27.7938,164.8438 L30.2625,164.8438 L30.2625,167 L22.8719,167 L22.8719,164.8438 L25.3406,164.8438 L25.3406,156.7656 L22.8719,156.7656 Z " fill="#000000"/><text fill="#000000" font-family="sans-serif" font-size="12" font-style="italic" lengthAdjust="spacing" textLength="116" x="42.05" y="165.1543">TransitionEventInit</text><line style="stroke:#A80036;stroke-width:1.5;" x1="8" x2="165" y1="177" y2="177"/><ellipse cx="18" cy="188" rx="3" ry="3" style="stroke:#038048;stroke-width:1.0;fill:none;"/><text fill="#000000" font-family="sans-serif" font-size="11" lengthAdjust="spacing" textLength="102" x="27" y="191.2104">bubbles : boolean</text><ellipse cx="18" cy="200.8047" rx="3" ry="3" style="stroke:#038048;stroke-width:1.0;fill:none;"/><text fill="#000000" font-family="sans-serif" font-size="11" lengthAdjust="spacing" textLength="117" x="27" y="204.0151">cancelable : boolean</text><ellipse cx="18" cy="213.6094" rx="3" ry="3" style="stroke:#038048;stroke-width:1.0;fill:none;"/><text fill="#000000" font-family="sans-serif" font-size="11" lengthAdjust="spacing" textLength="116" x="27" y="216.8198">composed : boolean</text><ellipse cx="18" cy="226.4141" rx="3" ry="3" style="stroke:#038048;stroke-width:1.0;fill:none;"/><text fill="#000000" font-family="sans-serif" font-size="11" lengthAdjust="spacing" textLength="129" x="27" y="229.6245">elapsedTime : number</text><ellipse cx="18" cy="239.2188" rx="3" ry="3" style="stroke:#038048;stroke-width:1.0;fill:none;"/><text fill="#000000" font-family="sans-serif" font-size="11" lengthAdjust="spacing" textLength="126" x="27" y="242.4292">propertyName : string</text><ellipse cx="18" cy="252.0234" rx="3" ry="3" style="stroke:#038048;stroke-width:1.0;fill:none;"/><text fill="#000000" font-family="sans-serif" font-size="11" lengthAdjust="spacing" textLength="133" x="27" y="255.2339">pseudoElement : string</text><!--MD5=[20555489c30bd85c28b7a7f2623ad986]
class EventInit--><rect codeLine="12" fill="#FEFECE" filter="url(#f19278210nndrc)" height="78.4141" id="EventInit" style="stroke:#A80036;stroke-width:1.5;" width="143" x="15" y="7"/><ellipse cx="55.2" cy="23" fill="#B4A7E5" rx="11" ry="11" style="stroke:#A80036;stroke-width:1.0;"/><path d="M51.1219,18.7656 L51.1219,16.6094 L58.5125,16.6094 L58.5125,18.7656 L56.0438,18.7656 L56.0438,26.8438 L58.5125,26.8438 L58.5125,29 L51.1219,29 L51.1219,26.8438 L53.5906,26.8438 L53.5906,18.7656 L51.1219,18.7656 Z " fill="#000000"/><text fill="#000000" font-family="sans-serif" font-size="12" font-style="italic" lengthAdjust="spacing" textLength="55" x="74.8" y="27.1543">EventInit</text><line style="stroke:#A80036;stroke-width:1.5;" x1="16" x2="157" y1="39" y2="39"/><ellipse cx="26" cy="50" rx="3" ry="3" style="stroke:#038048;stroke-width:1.0;fill:none;"/><text fill="#000000" font-family="sans-serif" font-size="11" lengthAdjust="spacing" textLength="102" x="35" y="53.2104">bubbles : boolean</text><ellipse cx="26" cy="62.8047" rx="3" ry="3" style="stroke:#038048;stroke-width:1.0;fill:none;"/><text fill="#000000" font-family="sans-serif" font-size="11" lengthAdjust="spacing" textLength="117" x="35" y="66.0151">cancelable : boolean</text><ellipse cx="26" cy="75.6094" rx="3" ry="3" style="stroke:#038048;stroke-width:1.0;fill:none;"/><text fill="#000000" font-family="sans-serif" font-size="11" lengthAdjust="spacing" textLength="116" x="35" y="78.8198">composed : boolean</text><!--MD5=[fe68ad40528ba2fd07785fa15ed3c481]
reverse link EventInit to TransitionEventInit--><path codeLine="17" d="M86.5,105.19 C86.5,118.16 86.5,131.9 86.5,144.84 " fill="none" id="EventInit-backto-TransitionEventInit" style="stroke:#A80036;stroke-width:1.0;"/><polygon fill="none" points="79.5,105.04,86.5,85.04,93.5,105.04,79.5,105.04" style="stroke:#A80036;stroke-width:1.0;"/><!--MD5=[1da2edec7a34375b8c9e7722aa3c561b]
@startuml
skinparam BackgroundColor transparent
hide empty methods
hide empty fields
interface "TransitionEventInit" {
    +bubbles : boolean
    +cancelable : boolean
    +composed : boolean
    +elapsedTime : number
    +propertyName : string
    +pseudoElement : string
}
interface "EventInit" {
    +bubbles : boolean
    +cancelable : boolean
    +composed : boolean
}
"EventInit" <|- - "TransitionEventInit"
@enduml

PlantUML version 1.2021.14(Fri Nov 12 11:46:50 EST 2021)
(GPL source distribution)
Java Runtime: OpenJDK Runtime Environment
JVM: OpenJDK 64-Bit Server VM
Default Encoding: UTF-8
Language: en
Country: US
--></g></svg>