<?xml version="1.0" encoding="UTF-8" standalone="no"?><svg xmlns="http://www.w3.org/2000/svg" xmlns:xlink="http://www.w3.org/1999/xlink" contentScriptType="application/ecmascript" contentStyleType="text/css" height="632px" preserveAspectRatio="none" style="width:858px;height:632px;background:#00000000;" version="1.1" viewBox="0 0 858 632" width="858px" zoomAndPan="magnify"><defs><filter height="300%" id="fgomgv09cjls6" width="300%" x="-1" y="-1"><feGaussianBlur result="blurOut" stdDeviation="2.0"/><feColorMatrix in="blurOut" result="blurOut2" type="matrix" values="0 0 0 0 0 0 0 0 0 0 0 0 0 0 0 0 0 0 .4 0"/><feOffset dx="4.0" dy="4.0" in="blurOut2" result="blurOut3"/><feBlend in="SourceGraphic" in2="blurOut3" mode="normal"/></filter></defs><g><!--MD5=[5cfeb049f90d37bb0972815418e92227]
class UIEventInit--><rect codeLine="4" fill="#FEFECE" filter="url(#fgomgv09cjls6)" height="116.8281" id="UIEventInit" style="stroke:#A80036;stroke-width:1.5;" width="143" x="363" y="145"/><ellipse cx="397.35" cy="161" fill="#B4A7E5" rx="11" ry="11" style="stroke:#A80036;stroke-width:1.0;"/><path d="M393.2719,156.7656 L393.2719,154.6094 L400.6625,154.6094 L400.6625,156.7656 L398.1938,156.7656 L398.1938,164.8438 L400.6625,164.8438 L400.6625,167 L393.2719,167 L393.2719,164.8438 L395.7406,164.8438 L395.7406,156.7656 L393.2719,156.7656 Z " fill="#000000"/><text fill="#000000" font-family="sans-serif" font-size="12" font-style="italic" lengthAdjust="spacing" textLength="68" x="415.65" y="165.1543">UIEventInit</text><line style="stroke:#A80036;stroke-width:1.5;" x1="364" x2="505" y1="177" y2="177"/><ellipse cx="374" cy="188" rx="3" ry="3" style="stroke:#038048;stroke-width:1.0;fill:none;"/><text fill="#000000" font-family="sans-serif" font-size="11" lengthAdjust="spacing" textLength="102" x="383" y="191.2104">bubbles : boolean</text><ellipse cx="374" cy="200.8047" rx="3" ry="3" style="stroke:#038048;stroke-width:1.0;fill:none;"/><text fill="#000000" font-family="sans-serif" font-size="11" lengthAdjust="spacing" textLength="117" x="383" y="204.0151">cancelable : boolean</text><ellipse cx="374" cy="213.6094" rx="3" ry="3" style="stroke:#038048;stroke-width:1.0;fill:none;"/><text fill="#000000" font-family="sans-serif" font-size="11" lengthAdjust="spacing" textLength="116" x="383" y="216.8198">composed : boolean</text><ellipse cx="374" cy="226.4141" rx="3" ry="3" style="stroke:#038048;stroke-width:1.0;fill:none;"/><text fill="#000000" font-family="sans-serif" font-size="11" lengthAdjust="spacing" textLength="87" x="383" y="229.6245">detail : number</text><ellipse cx="374" cy="239.2188" rx="3" ry="3" style="stroke:#038048;stroke-width:1.0;fill:none;"/><text fill="#000000" font-family="sans-serif" font-size="11" lengthAdjust="spacing" textLength="79" x="383" y="242.4292">view : Window</text><ellipse cx="374" cy="252.0234" rx="3" ry="3" style="stroke:#038048;stroke-width:1.0;fill:none;"/><text fill="#000000" font-family="sans-serif" font-size="11" lengthAdjust="spacing" textLength="88" x="383" y="255.2339">which : number</text><!--MD5=[20555489c30bd85c28b7a7f2623ad986]
class EventInit--><rect codeLine="12" fill="#FEFECE" filter="url(#fgomgv09cjls6)" height="78.4141" id="EventInit" style="stroke:#A80036;stroke-width:1.5;" width="143" x="363" y="7"/><ellipse cx="403.2" cy="23" fill="#B4A7E5" rx="11" ry="11" style="stroke:#A80036;stroke-width:1.0;"/><path d="M399.1219,18.7656 L399.1219,16.6094 L406.5125,16.6094 L406.5125,18.7656 L404.0438,18.7656 L404.0438,26.8438 L406.5125,26.8438 L406.5125,29 L399.1219,29 L399.1219,26.8438 L401.5906,26.8438 L401.5906,18.7656 L399.1219,18.7656 Z " fill="#000000"/><text fill="#000000" font-family="sans-serif" font-size="12" font-style="italic" lengthAdjust="spacing" textLength="55" x="422.8" y="27.1543">EventInit</text><line style="stroke:#A80036;stroke-width:1.5;" x1="364" x2="505" y1="39" y2="39"/><ellipse cx="374" cy="50" rx="3" ry="3" style="stroke:#038048;stroke-width:1.0;fill:none;"/><text fill="#000000" font-family="sans-serif" font-size="11" lengthAdjust="spacing" textLength="102" x="383" y="53.2104">bubbles : boolean</text><ellipse cx="374" cy="62.8047" rx="3" ry="3" style="stroke:#038048;stroke-width:1.0;fill:none;"/><text fill="#000000" font-family="sans-serif" font-size="11" lengthAdjust="spacing" textLength="117" x="383" y="66.0151">cancelable : boolean</text><ellipse cx="374" cy="75.6094" rx="3" ry="3" style="stroke:#038048;stroke-width:1.0;fill:none;"/><text fill="#000000" font-family="sans-serif" font-size="11" lengthAdjust="spacing" textLength="116" x="383" y="78.8198">composed : boolean</text><!--MD5=[b961b656cfe30242f5762c1edfabb474]
class InputEventInit--><rect codeLine="18" fill="#FEFECE" filter="url(#fgomgv09cjls6)" height="180.8516" id="InputEventInit" style="stroke:#A80036;stroke-width:1.5;" width="189" x="7" y="379.5"/><ellipse cx="53.25" cy="395.5" fill="#B4A7E5" rx="11" ry="11" style="stroke:#A80036;stroke-width:1.0;"/><path d="M49.1719,391.2656 L49.1719,389.1094 L56.5625,389.1094 L56.5625,391.2656 L54.0938,391.2656 L54.0938,399.3438 L56.5625,399.3438 L56.5625,401.5 L49.1719,401.5 L49.1719,399.3438 L51.6406,399.3438 L51.6406,391.2656 L49.1719,391.2656 Z " fill="#000000"/><text fill="#000000" font-family="sans-serif" font-size="12" font-style="italic" lengthAdjust="spacing" textLength="88" x="73.75" y="399.6543">InputEventInit</text><line style="stroke:#A80036;stroke-width:1.5;" x1="8" x2="195" y1="411.5" y2="411.5"/><ellipse cx="18" cy="422.5" rx="3" ry="3" style="stroke:#038048;stroke-width:1.0;fill:none;"/><text fill="#000000" font-family="sans-serif" font-size="11" lengthAdjust="spacing" textLength="102" x="27" y="425.7104">bubbles : boolean</text><ellipse cx="18" cy="435.3047" rx="3" ry="3" style="stroke:#038048;stroke-width:1.0;fill:none;"/><text fill="#000000" font-family="sans-serif" font-size="11" lengthAdjust="spacing" textLength="117" x="27" y="438.5151">cancelable : boolean</text><ellipse cx="18" cy="448.1094" rx="3" ry="3" style="stroke:#038048;stroke-width:1.0;fill:none;"/><text fill="#000000" font-family="sans-serif" font-size="11" lengthAdjust="spacing" textLength="116" x="27" y="451.3198">composed : boolean</text><ellipse cx="18" cy="460.9141" rx="3" ry="3" style="stroke:#038048;stroke-width:1.0;fill:none;"/><text fill="#000000" font-family="sans-serif" font-size="11" lengthAdjust="spacing" textLength="70" x="27" y="464.1245">data : string</text><ellipse cx="18" cy="473.7188" rx="3" ry="3" style="stroke:#038048;stroke-width:1.0;fill:none;"/><text fill="#000000" font-family="sans-serif" font-size="11" lengthAdjust="spacing" textLength="161" x="27" y="476.9292">dataTransfer : DataTransfer</text><ellipse cx="18" cy="486.5234" rx="3" ry="3" style="stroke:#038048;stroke-width:1.0;fill:none;"/><text fill="#000000" font-family="sans-serif" font-size="11" lengthAdjust="spacing" textLength="87" x="27" y="489.7339">detail : number</text><ellipse cx="18" cy="499.3281" rx="3" ry="3" style="stroke:#038048;stroke-width:1.0;fill:none;"/><text fill="#000000" font-family="sans-serif" font-size="11" lengthAdjust="spacing" textLength="100" x="27" y="502.5386">inputType : string</text><ellipse cx="18" cy="512.1328" rx="3" ry="3" style="stroke:#038048;stroke-width:1.0;fill:none;"/><text fill="#000000" font-family="sans-serif" font-size="11" lengthAdjust="spacing" textLength="131" x="27" y="515.3433">isComposing : boolean</text><ellipse cx="18" cy="524.9375" rx="3" ry="3" style="stroke:#038048;stroke-width:1.0;fill:none;"/><text fill="#000000" font-family="sans-serif" font-size="11" lengthAdjust="spacing" textLength="163" x="27" y="528.1479">targetRanges : StaticRange[]</text><ellipse cx="18" cy="537.7422" rx="3" ry="3" style="stroke:#038048;stroke-width:1.0;fill:none;"/><text fill="#000000" font-family="sans-serif" font-size="11" lengthAdjust="spacing" textLength="79" x="27" y="540.9526">view : Window</text><ellipse cx="18" cy="550.5469" rx="3" ry="3" style="stroke:#038048;stroke-width:1.0;fill:none;"/><text fill="#000000" font-family="sans-serif" font-size="11" lengthAdjust="spacing" textLength="88" x="27" y="553.7573">which : number</text><!--MD5=[db135de8812d1fa8aab338e5d5b9245c]
class FocusEventInit--><rect codeLine="32" fill="#FEFECE" filter="url(#fgomgv09cjls6)" height="129.6328" id="FocusEventInit" style="stroke:#A80036;stroke-width:1.5;" width="183" x="231" y="405"/><ellipse cx="273" cy="421" fill="#B4A7E5" rx="11" ry="11" style="stroke:#A80036;stroke-width:1.0;"/><path d="M268.9219,416.7656 L268.9219,414.6094 L276.3125,414.6094 L276.3125,416.7656 L273.8438,416.7656 L273.8438,424.8438 L276.3125,424.8438 L276.3125,427 L268.9219,427 L268.9219,424.8438 L271.3906,424.8438 L271.3906,416.7656 L268.9219,416.7656 Z " fill="#000000"/><text fill="#000000" font-family="sans-serif" font-size="12" font-style="italic" lengthAdjust="spacing" textLength="91" x="293" y="425.1543">FocusEventInit</text><line style="stroke:#A80036;stroke-width:1.5;" x1="232" x2="413" y1="437" y2="437"/><ellipse cx="242" cy="448" rx="3" ry="3" style="stroke:#038048;stroke-width:1.0;fill:none;"/><text fill="#000000" font-family="sans-serif" font-size="11" lengthAdjust="spacing" textLength="102" x="251" y="451.2104">bubbles : boolean</text><ellipse cx="242" cy="460.8047" rx="3" ry="3" style="stroke:#038048;stroke-width:1.0;fill:none;"/><text fill="#000000" font-family="sans-serif" font-size="11" lengthAdjust="spacing" textLength="117" x="251" y="464.0151">cancelable : boolean</text><ellipse cx="242" cy="473.6094" rx="3" ry="3" style="stroke:#038048;stroke-width:1.0;fill:none;"/><text fill="#000000" font-family="sans-serif" font-size="11" lengthAdjust="spacing" textLength="116" x="251" y="476.8198">composed : boolean</text><ellipse cx="242" cy="486.4141" rx="3" ry="3" style="stroke:#038048;stroke-width:1.0;fill:none;"/><text fill="#000000" font-family="sans-serif" font-size="11" lengthAdjust="spacing" textLength="87" x="251" y="489.6245">detail : number</text><ellipse cx="242" cy="499.2188" rx="3" ry="3" style="stroke:#038048;stroke-width:1.0;fill:none;"/><text fill="#000000" font-family="sans-serif" font-size="11" lengthAdjust="spacing" textLength="157" x="251" y="502.4292">relatedTarget : EventTarget</text><ellipse cx="242" cy="512.0234" rx="3" ry="3" style="stroke:#038048;stroke-width:1.0;fill:none;"/><text fill="#000000" font-family="sans-serif" font-size="11" lengthAdjust="spacing" textLength="79" x="251" y="515.2339">view : Window</text><ellipse cx="242" cy="524.8281" rx="3" ry="3" style="stroke:#038048;stroke-width:1.0;fill:none;"/><text fill="#000000" font-family="sans-serif" font-size="11" lengthAdjust="spacing" textLength="88" x="251" y="528.0386">which : number</text><!--MD5=[cb992c4c9da536943c5cc4e40d034335]
class EventModifierInit--><rect codeLine="42" fill="#FEFECE" filter="url(#fgomgv09cjls6)" height="296.0938" id="EventModifierInit" style="stroke:#A80036;stroke-width:1.5;" width="197" x="449" y="322"/><ellipse cx="491.45" cy="338" fill="#B4A7E5" rx="11" ry="11" style="stroke:#A80036;stroke-width:1.0;"/><path d="M487.3719,333.7656 L487.3719,331.6094 L494.7625,331.6094 L494.7625,333.7656 L492.2938,333.7656 L492.2938,341.8438 L494.7625,341.8438 L494.7625,344 L487.3719,344 L487.3719,341.8438 L489.8406,341.8438 L489.8406,333.7656 L487.3719,333.7656 Z " fill="#000000"/><text fill="#000000" font-family="sans-serif" font-size="12" font-style="italic" lengthAdjust="spacing" textLength="104" x="511.55" y="342.1543">EventModifierInit</text><line style="stroke:#A80036;stroke-width:1.5;" x1="450" x2="645" y1="354" y2="354"/><ellipse cx="460" cy="365" rx="3" ry="3" style="stroke:#038048;stroke-width:1.0;fill:none;"/><text fill="#000000" font-family="sans-serif" font-size="11" lengthAdjust="spacing" textLength="91" x="469" y="368.2104">altKey : boolean</text><ellipse cx="460" cy="377.8047" rx="3" ry="3" style="stroke:#038048;stroke-width:1.0;fill:none;"/><text fill="#000000" font-family="sans-serif" font-size="11" lengthAdjust="spacing" textLength="102" x="469" y="381.0151">bubbles : boolean</text><ellipse cx="460" cy="390.6094" rx="3" ry="3" style="stroke:#038048;stroke-width:1.0;fill:none;"/><text fill="#000000" font-family="sans-serif" font-size="11" lengthAdjust="spacing" textLength="117" x="469" y="393.8198">cancelable : boolean</text><ellipse cx="460" cy="403.4141" rx="3" ry="3" style="stroke:#038048;stroke-width:1.0;fill:none;"/><text fill="#000000" font-family="sans-serif" font-size="11" lengthAdjust="spacing" textLength="116" x="469" y="406.6245">composed : boolean</text><ellipse cx="460" cy="416.2188" rx="3" ry="3" style="stroke:#038048;stroke-width:1.0;fill:none;"/><text fill="#000000" font-family="sans-serif" font-size="11" lengthAdjust="spacing" textLength="95" x="469" y="419.4292">ctrlKey : boolean</text><ellipse cx="460" cy="429.0234" rx="3" ry="3" style="stroke:#038048;stroke-width:1.0;fill:none;"/><text fill="#000000" font-family="sans-serif" font-size="11" lengthAdjust="spacing" textLength="87" x="469" y="432.2339">detail : number</text><ellipse cx="460" cy="441.8281" rx="3" ry="3" style="stroke:#038048;stroke-width:1.0;fill:none;"/><text fill="#000000" font-family="sans-serif" font-size="11" lengthAdjust="spacing" textLength="106" x="469" y="445.0386">metaKey : boolean</text><ellipse cx="460" cy="454.6328" rx="3" ry="3" style="stroke:#038048;stroke-width:1.0;fill:none;"/><text fill="#000000" font-family="sans-serif" font-size="11" lengthAdjust="spacing" textLength="153" x="469" y="457.8433">modifierAltGraph : boolean</text><ellipse cx="460" cy="467.4375" rx="3" ry="3" style="stroke:#038048;stroke-width:1.0;fill:none;"/><text fill="#000000" font-family="sans-serif" font-size="11" lengthAdjust="spacing" textLength="158" x="469" y="470.6479">modifierCapsLock : boolean</text><ellipse cx="460" cy="480.2422" rx="3" ry="3" style="stroke:#038048;stroke-width:1.0;fill:none;"/><text fill="#000000" font-family="sans-serif" font-size="11" lengthAdjust="spacing" textLength="117" x="469" y="483.4526">modifierFn : boolean</text><ellipse cx="460" cy="493.0469" rx="3" ry="3" style="stroke:#038048;stroke-width:1.0;fill:none;"/><text fill="#000000" font-family="sans-serif" font-size="11" lengthAdjust="spacing" textLength="142" x="469" y="496.2573">modifierFnLock : boolean</text><ellipse cx="460" cy="505.8516" rx="3" ry="3" style="stroke:#038048;stroke-width:1.0;fill:none;"/><text fill="#000000" font-family="sans-serif" font-size="11" lengthAdjust="spacing" textLength="137" x="469" y="509.062">modifierHyper : boolean</text><ellipse cx="460" cy="518.6563" rx="3" ry="3" style="stroke:#038048;stroke-width:1.0;fill:none;"/><text fill="#000000" font-family="sans-serif" font-size="11" lengthAdjust="spacing" textLength="155" x="469" y="521.8667">modifierNumLock : boolean</text><ellipse cx="460" cy="531.4609" rx="3" ry="3" style="stroke:#038048;stroke-width:1.0;fill:none;"/><text fill="#000000" font-family="sans-serif" font-size="11" lengthAdjust="spacing" textLength="161" x="469" y="534.6714">modifierScrollLock : boolean</text><ellipse cx="460" cy="544.2656" rx="3" ry="3" style="stroke:#038048;stroke-width:1.0;fill:none;"/><text fill="#000000" font-family="sans-serif" font-size="11" lengthAdjust="spacing" textLength="138" x="469" y="547.4761">modifierSuper : boolean</text><ellipse cx="460" cy="557.0703" rx="3" ry="3" style="stroke:#038048;stroke-width:1.0;fill:none;"/><text fill="#000000" font-family="sans-serif" font-size="11" lengthAdjust="spacing" textLength="146" x="469" y="560.2808">modifierSymbol : boolean</text><ellipse cx="460" cy="569.875" rx="3" ry="3" style="stroke:#038048;stroke-width:1.0;fill:none;"/><text fill="#000000" font-family="sans-serif" font-size="11" lengthAdjust="spacing" textLength="171" x="469" y="573.0854">modifierSymbolLock : boolean</text><ellipse cx="460" cy="582.6797" rx="3" ry="3" style="stroke:#038048;stroke-width:1.0;fill:none;"/><text fill="#000000" font-family="sans-serif" font-size="11" lengthAdjust="spacing" textLength="102" x="469" y="585.8901">shiftKey : boolean</text><ellipse cx="460" cy="595.4844" rx="3" ry="3" style="stroke:#038048;stroke-width:1.0;fill:none;"/><text fill="#000000" font-family="sans-serif" font-size="11" lengthAdjust="spacing" textLength="79" x="469" y="598.6948">view : Window</text><ellipse cx="460" cy="608.2891" rx="3" ry="3" style="stroke:#038048;stroke-width:1.0;fill:none;"/><text fill="#000000" font-family="sans-serif" font-size="11" lengthAdjust="spacing" textLength="88" x="469" y="611.4995">which : number</text><!--MD5=[b299361f70cc2b581fe977a42b97ee6d]
class CompositionEventInit--><rect codeLine="65" fill="#FEFECE" filter="url(#fgomgv09cjls6)" height="129.6328" id="CompositionEventInit" style="stroke:#A80036;stroke-width:1.5;" width="163" x="681" y="405"/><ellipse cx="696" cy="421" fill="#B4A7E5" rx="11" ry="11" style="stroke:#A80036;stroke-width:1.0;"/><path d="M691.9219,416.7656 L691.9219,414.6094 L699.3125,414.6094 L699.3125,416.7656 L696.8438,416.7656 L696.8438,424.8438 L699.3125,424.8438 L699.3125,427 L691.9219,427 L691.9219,424.8438 L694.3906,424.8438 L694.3906,416.7656 L691.9219,416.7656 Z " fill="#000000"/><text fill="#000000" font-family="sans-serif" font-size="12" font-style="italic" lengthAdjust="spacing" textLength="131" x="710" y="425.1543">CompositionEventInit</text><line style="stroke:#A80036;stroke-width:1.5;" x1="682" x2="843" y1="437" y2="437"/><ellipse cx="692" cy="448" rx="3" ry="3" style="stroke:#038048;stroke-width:1.0;fill:none;"/><text fill="#000000" font-family="sans-serif" font-size="11" lengthAdjust="spacing" textLength="102" x="701" y="451.2104">bubbles : boolean</text><ellipse cx="692" cy="460.8047" rx="3" ry="3" style="stroke:#038048;stroke-width:1.0;fill:none;"/><text fill="#000000" font-family="sans-serif" font-size="11" lengthAdjust="spacing" textLength="117" x="701" y="464.0151">cancelable : boolean</text><ellipse cx="692" cy="473.6094" rx="3" ry="3" style="stroke:#038048;stroke-width:1.0;fill:none;"/><text fill="#000000" font-family="sans-serif" font-size="11" lengthAdjust="spacing" textLength="116" x="701" y="476.8198">composed : boolean</text><ellipse cx="692" cy="486.4141" rx="3" ry="3" style="stroke:#038048;stroke-width:1.0;fill:none;"/><text fill="#000000" font-family="sans-serif" font-size="11" lengthAdjust="spacing" textLength="70" x="701" y="489.6245">data : string</text><ellipse cx="692" cy="499.2188" rx="3" ry="3" style="stroke:#038048;stroke-width:1.0;fill:none;"/><text fill="#000000" font-family="sans-serif" font-size="11" lengthAdjust="spacing" textLength="87" x="701" y="502.4292">detail : number</text><ellipse cx="692" cy="512.0234" rx="3" ry="3" style="stroke:#038048;stroke-width:1.0;fill:none;"/><text fill="#000000" font-family="sans-serif" font-size="11" lengthAdjust="spacing" textLength="79" x="701" y="515.2339">view : Window</text><ellipse cx="692" cy="524.8281" rx="3" ry="3" style="stroke:#038048;stroke-width:1.0;fill:none;"/><text fill="#000000" font-family="sans-serif" font-size="11" lengthAdjust="spacing" textLength="88" x="701" y="528.0386">which : number</text><!--MD5=[c2c7e0ea762b4124803013a2dbbc66ac]
reverse link EventInit to UIEventInit--><path codeLine="17" d="M434.5,105.19 C434.5,118.16 434.5,131.9 434.5,144.84 " fill="none" id="EventInit-backto-UIEventInit" style="stroke:#A80036;stroke-width:1.0;"/><polygon fill="none" points="427.5,105.04,434.5,85.04,441.5,105.04,427.5,105.04" style="stroke:#A80036;stroke-width:1.0;"/><!--MD5=[c3b4befed508ebc8a9bd8c53eb2f154e]
reverse link UIEventInit to InputEventInit--><path codeLine="31" d="M344.47,241.5 C302.06,261.54 252.37,288.98 213.5,322 C194.06,338.51 175.89,358.95 160.08,379.27 " fill="none" id="UIEventInit-backto-InputEventInit" style="stroke:#A80036;stroke-width:1.0;"/><polygon fill="none" points="341.67,235.08,362.77,233.09,347.51,247.8,341.67,235.08" style="stroke:#A80036;stroke-width:1.0;"/><!--MD5=[83902f51440d30a28657e0334f8402cc]
reverse link UIEventInit to FocusEventInit--><path codeLine="41" d="M402.2,280.79 C385.55,320.11 365.47,367.51 349.64,404.91 " fill="none" id="UIEventInit-backto-FocusEventInit" style="stroke:#A80036;stroke-width:1.0;"/><polygon fill="none" points="395.82,277.91,410.06,262.22,408.71,283.37,395.82,277.91" style="stroke:#A80036;stroke-width:1.0;"/><!--MD5=[09ed7fd3915640c055397d37075b65e3]
reverse link UIEventInit to EventModifierInit--><path codeLine="64" d="M467.04,280.67 C472.64,293.76 478.61,307.75 484.69,321.97 " fill="none" id="UIEventInit-backto-EventModifierInit" style="stroke:#A80036;stroke-width:1.0;"/><polygon fill="none" points="460.58,283.36,459.16,262.22,473.45,277.86,460.58,283.36" style="stroke:#A80036;stroke-width:1.0;"/><!--MD5=[26c6b57b37b387040e7def2fd4f83f86]
reverse link UIEventInit to CompositionEventInit--><path codeLine="74" d="M524.63,238.11 C569.68,257.88 623.06,286.1 663.5,322 C689.73,345.29 712.23,376.99 729.12,404.99 " fill="none" id="UIEventInit-backto-CompositionEventInit" style="stroke:#A80036;stroke-width:1.0;"/><polygon fill="none" points="521.89,244.55,506.22,230.28,527.36,231.66,521.89,244.55" style="stroke:#A80036;stroke-width:1.0;"/><!--MD5=[98a0a80c5ffa314cd2d36ce36ab67d3a]
@startuml
skinparam BackgroundColor transparent
hide empty methods
hide empty fields
interface "UIEventInit" {
    +bubbles : boolean
    +cancelable : boolean
    +composed : boolean
    +detail : number
    +view : Window
    +which : number
}
interface "EventInit" {
    +bubbles : boolean
    +cancelable : boolean
    +composed : boolean
}
"EventInit" <|- - "UIEventInit"
interface "InputEventInit" {
    +bubbles : boolean
    +cancelable : boolean
    +composed : boolean
    +data : string
    +dataTransfer : DataTransfer
    +detail : number
    +inputType : string
    +isComposing : boolean
    +targetRanges : StaticRange[]
    +view : Window
    +which : number
}
"UIEventInit" <|- - "InputEventInit"
interface "FocusEventInit" {
    +bubbles : boolean
    +cancelable : boolean
    +composed : boolean
    +detail : number
    +relatedTarget : EventTarget
    +view : Window
    +which : number
}
"UIEventInit" <|- - "FocusEventInit"
interface "EventModifierInit" {
    +altKey : boolean
    +bubbles : boolean
    +cancelable : boolean
    +composed : boolean
    +ctrlKey : boolean
    +detail : number
    +metaKey : boolean
    +modifierAltGraph : boolean
    +modifierCapsLock : boolean
    +modifierFn : boolean
    +modifierFnLock : boolean
    +modifierHyper : boolean
    +modifierNumLock : boolean
    +modifierScrollLock : boolean
    +modifierSuper : boolean
    +modifierSymbol : boolean
    +modifierSymbolLock : boolean
    +shiftKey : boolean
    +view : Window
    +which : number
}
"UIEventInit" <|- - "EventModifierInit"
interface "CompositionEventInit" {
    +bubbles : boolean
    +cancelable : boolean
    +composed : boolean
    +data : string
    +detail : number
    +view : Window
    +which : number
}
"UIEventInit" <|- - "CompositionEventInit"
@enduml

PlantUML version 1.2021.14(Fri Nov 12 11:46:50 EST 2021)
(GPL source distribution)
Java Runtime: OpenJDK Runtime Environment
JVM: OpenJDK 64-Bit Server VM
Default Encoding: UTF-8
Language: en
Country: US
--></g></svg>