<?xml version="1.0" encoding="UTF-8" standalone="no"?><svg xmlns="http://www.w3.org/2000/svg" xmlns:xlink="http://www.w3.org/1999/xlink" contentScriptType="application/ecmascript" contentStyleType="text/css" height="199px" preserveAspectRatio="none" style="width:228px;height:199px;background:#00000000;" version="1.1" viewBox="0 0 228 199" width="228px" zoomAndPan="magnify"><defs><filter height="300%" id="f1f7g6actovx92" width="300%" x="-1" y="-1"><feGaussianBlur result="blurOut" stdDeviation="2.0"/><feColorMatrix in="blurOut" result="blurOut2" type="matrix" values="0 0 0 0 0 0 0 0 0 0 0 0 0 0 0 0 0 0 .4 0"/><feOffset dx="4.0" dy="4.0" in="blurOut2" result="blurOut3"/><feBlend in="SourceGraphic" in2="blurOut3" mode="normal"/></filter></defs><g><!--MD5=[745369c5be3befe9a59ccee8a0c7b89f]
class WindowPostMessageOptions--><rect codeLine="4" fill="#FEFECE" filter="url(#f1f7g6actovx92)" height="65.6094" id="WindowPostMessageOptions" style="stroke:#A80036;stroke-width:1.5;" width="207" x="7" y="120"/><ellipse cx="22" cy="136" fill="#B4A7E5" rx="11" ry="11" style="stroke:#A80036;stroke-width:1.0;"/><path d="M17.9219,131.7656 L17.9219,129.6094 L25.3125,129.6094 L25.3125,131.7656 L22.8438,131.7656 L22.8438,139.8438 L25.3125,139.8438 L25.3125,142 L17.9219,142 L17.9219,139.8438 L20.3906,139.8438 L20.3906,131.7656 L17.9219,131.7656 Z " fill="#000000"/><text fill="#000000" font-family="sans-serif" font-size="12" font-style="italic" lengthAdjust="spacing" textLength="175" x="36" y="140.1543">WindowPostMessageOptions</text><line style="stroke:#A80036;stroke-width:1.5;" x1="8" x2="213" y1="152" y2="152"/><ellipse cx="18" cy="163" rx="3" ry="3" style="stroke:#038048;stroke-width:1.0;fill:none;"/><text fill="#000000" font-family="sans-serif" font-size="11" lengthAdjust="spacing" textLength="113" x="27" y="166.2104">targetOrigin : string</text><ellipse cx="18" cy="175.8047" rx="3" ry="3" style="stroke:#038048;stroke-width:1.0;fill:none;"/><text fill="#000000" font-family="sans-serif" font-size="11" lengthAdjust="spacing" textLength="139" x="27" y="179.0151">transfer : Transferable[]</text><!--MD5=[4354b516542c3cf75e52a6c403ec97c1]
class StructuredSerializeOptions--><rect codeLine="8" fill="#FEFECE" filter="url(#f1f7g6actovx92)" height="52.8047" id="StructuredSerializeOptions" style="stroke:#A80036;stroke-width:1.5;" width="197" x="12" y="7"/><ellipse cx="27" cy="23" fill="#B4A7E5" rx="11" ry="11" style="stroke:#A80036;stroke-width:1.0;"/><path d="M22.9219,18.7656 L22.9219,16.6094 L30.3125,16.6094 L30.3125,18.7656 L27.8438,18.7656 L27.8438,26.8438 L30.3125,26.8438 L30.3125,29 L22.9219,29 L22.9219,26.8438 L25.3906,26.8438 L25.3906,18.7656 L22.9219,18.7656 Z " fill="#000000"/><text fill="#000000" font-family="sans-serif" font-size="12" font-style="italic" lengthAdjust="spacing" textLength="165" x="41" y="27.1543">StructuredSerializeOptions</text><line style="stroke:#A80036;stroke-width:1.5;" x1="13" x2="208" y1="39" y2="39"/><ellipse cx="23" cy="50" rx="3" ry="3" style="stroke:#038048;stroke-width:1.0;fill:none;"/><text fill="#000000" font-family="sans-serif" font-size="11" lengthAdjust="spacing" textLength="139" x="32" y="53.2104">transfer : Transferable[]</text><!--MD5=[893702d5416bac044605ab12b48269f6]
reverse link StructuredSerializeOptions to WindowPostMessageOptions--><path codeLine="11" d="M110.5,80.51 C110.5,93.72 110.5,107.82 110.5,119.98 " fill="none" id="StructuredSerializeOptions-backto-WindowPostMessageOptions" style="stroke:#A80036;stroke-width:1.0;"/><polygon fill="none" points="103.5,80.29,110.5,60.29,117.5,80.29,103.5,80.29" style="stroke:#A80036;stroke-width:1.0;"/><!--MD5=[87783d507db255ef58d4d6961648ecd0]
@startuml
skinparam BackgroundColor transparent
hide empty methods
hide empty fields
interface "WindowPostMessageOptions" {
    +targetOrigin : string
    +transfer : Transferable[]
}
interface "StructuredSerializeOptions" {
    +transfer : Transferable[]
}
"StructuredSerializeOptions" <|- - "WindowPostMessageOptions"
@enduml

PlantUML version 1.2021.14(Fri Nov 12 11:46:50 EST 2021)
(GPL source distribution)
Java Runtime: OpenJDK Runtime Environment
JVM: OpenJDK 64-Bit Server VM
Default Encoding: UTF-8
Language: en
Country: US
--></g></svg>